 0
SECTION
 2
ENTITIES
  0
POLYLINE
 8
Group#17
 66
     1
70
    8
 10
0.0
 20
 0.0
 30
0.0
  0
VERTEX
  8
MY3DLAYER
10
-12.310856565177158
20
4.318976190060252
30
0.19898877156380443
 70
     32
  0
VERTEX
  8
MY3DLAYER
10
-12.829817388674863
20
4.284599455973354
30
0.19898877156380443
 70
     32
  0
VERTEX
  8
MY3DLAYER
10
-84.96215706032656
20
4.28459945597364
30
0.19898877156380443
 70
     32
  0
VERTEX
  8
MY3DLAYER
10
-85.48111788382427
20
4.318976190060496
30
0.19898877156380443
 70
     32
  0
VERTEX
  8
MY3DLAYER
10
-85.99100983766391
20
4.421505656954195
30
0.19898877156380443
 70
     32
  0
VERTEX
  8
MY3DLAYER
10
-86.48292253119608
20
4.590396148438445
30
0.19898877156380443
 70
     32
  0
VERTEX
  8
MY3DLAYER
10
-86.94825976235933
20
4.82269629364981
30
0.19898877156380443
 70
     32
  0
VERTEX
  8
MY3DLAYER
10
-87.37888973679577
20
5.114346634449833
30
0.19898877156380443
 70
     32
  0
VERTEX
  8
MY3DLAYER
10
-87.76728717141619
20
5.460250564685056
30
0.19898877156380443
 70
     32
  0
VERTEX
  8
MY3DLAYER
10
-88.10666479914642
20
5.8543633936669295
30
0.19898877156380443
 70
     32
  0
VERTEX
  8
MY3DLAYER
10
-88.39109197680227
20
6.2897979774824835
30
0.19898877156380443
 70
     32
  0
VERTEX
  8
MY3DLAYER
10
-88.61559832341356
20
6.7589450722226845
30
0.19898877156380443
 70
     32
  0
VERTEX
  8
MY3DLAYER
10
-88.77626057791191
20
7.253606305948677
30
0.19898877156380443
 70
     32
  0
VERTEX
  8
MY3DLAYER
10
-88.87027115833925
20
7.765137445704258
30
0.19898877156380443
 70
     32
  0
VERTEX
  8
MY3DLAYER
10
-88.89598722450091
20
8.2845994559736
30
0.19898877156380443
 70
     32
  0
VERTEX
  8
MY3DLAYER
10
-88.8702711583394
20
8.804061466242944
30
0.19898877156380443
 70
     32
  0
VERTEX
  8
MY3DLAYER
10
-88.77626057791188
20
9.315592605998479
30
0.19898877156380443
 70
     32
  0
VERTEX
  8
MY3DLAYER
10
-88.61559832341351
20
9.810253839724606
30
0.19898877156380443
 70
     32
  0
VERTEX
  8
MY3DLAYER
10
-88.39109197680223
20
10.27940093446476
30
0.19898877156380443
 70
     32
  0
VERTEX
  8
MY3DLAYER
10
-88.10666479914637
20
10.714835518280356
30
0.19898877156380443
 70
     32
  0
VERTEX
  8
MY3DLAYER
10
-87.76728717141614
20
11.108948347262181
30
0.19898877156380443
 70
     32
  0
VERTEX
  8
MY3DLAYER
10
-87.37888973679574
20
11.454852277497402
30
0.19898877156380443
 70
     32
  0
VERTEX
  8
MY3DLAYER
10
-86.9482597623593
20
11.746502618297468
30
0.19898877156380443
 70
     32
  0
VERTEX
  8
MY3DLAYER
10
-86.48292253119607
20
11.97880276350883
30
0.19898877156380443
 70
     32
  0
VERTEX
  8
MY3DLAYER
10
-85.99100983766385
20
12.147693254993078
30
0.19898877156380443
 70
     32
  0
VERTEX
  8
MY3DLAYER
10
-85.48111788382423
20
12.250222721886727
30
0.19898877156380443
 70
     32
  0
VERTEX
  8
MY3DLAYER
10
-84.96215706032652
20
12.284599455973625
30
0.19898877156380443
 70
     32
  0
VERTEX
  8
MY3DLAYER
10
-12.82981738867484
20
12.28459945597334
30
0.19898877156380443
 70
     32
  0
VERTEX
  8
MY3DLAYER
10
-12.31085656517709
20
12.25022272188653
30
0.19898877156380443
 70
     32
  0
VERTEX
  8
MY3DLAYER
10
-11.800964611337502
20
12.14769325499283
30
0.19898877156380443
 70
     32
  0
VERTEX
  8
MY3DLAYER
10
-11.309051917805297
20
11.978802763508579
30
0.19898877156380443
 70
     32
  0
VERTEX
  8
MY3DLAYER
10
-10.843714686642057
20
11.74650261829717
30
0.19898877156380443
 70
     32
  0
VERTEX
  8
MY3DLAYER
10
-10.413084712205642
20
11.454852277497146
30
0.19898877156380443
 70
     32
  0
VERTEX
  8
MY3DLAYER
10
-10.024687277585217
20
11.108948347261922
30
0.19898877156380443
 70
     32
  0
VERTEX
  8
MY3DLAYER
10
-9.68530964985497
20
10.714835518280049
30
0.19898877156380443
 70
     32
  0
VERTEX
  8
MY3DLAYER
10
-9.40088247219916
20
10.279400934464498
30
0.19898877156380443
 70
     32
  0
VERTEX
  8
MY3DLAYER
10
-9.176376125587836
20
9.810253839724341
30
0.19898877156380443
 70
     32
  0
VERTEX
  8
MY3DLAYER
10
-9.015713871089504
20
9.315592605998258
30
0.19898877156380443
 70
     32
  0
VERTEX
  8
MY3DLAYER
10
-8.921703290662137
20
8.804061466242722
30
0.19898877156380443
 70
     32
  0
VERTEX
  8
MY3DLAYER
10
-8.89598722450063
20
8.284599455973332
30
0.19898877156380443
 70
     32
  0
VERTEX
  8
MY3DLAYER
10
-8.921703290662137
20
7.765137445704035
30
0.19898877156380443
 70
     32
  0
VERTEX
  8
MY3DLAYER
10
-9.015713871089494
20
7.2536063059484555
30
0.19898877156380443
 70
     32
  0
VERTEX
  8
MY3DLAYER
10
-9.176376125587915
20
6.75894507222242
30
0.19898877156380443
 70
     32
  0
VERTEX
  8
MY3DLAYER
10
-9.400882472199195
20
6.28979797748222
30
0.19898877156380443
 70
     32
  0
VERTEX
  8
MY3DLAYER
10
-9.685309649855004
20
5.8543633936666675
30
0.19898877156380443
 70
     32
  0
VERTEX
  8
MY3DLAYER
10
-10.02468727758524
20
5.460250564684797
30
0.19898877156380443
 70
     32
  0
VERTEX
  8
MY3DLAYER
10
-10.413084712205665
20
5.114346634449622
30
0.19898877156380443
 70
     32
  0
VERTEX
  8
MY3DLAYER
10
-10.84371468664208
20
4.8226962936495115
30
0.19898877156380443
 70
     32
  0
VERTEX
  8
MY3DLAYER
10
-11.309051917805318
20
4.590396148438193
30
0.19898877156380443
 70
     32
  0
VERTEX
  8
MY3DLAYER
10
-11.800964611337525
20
4.421505656953903
30
0.19898877156380443
 70
     32
  0
VERTEX
  8
MY3DLAYER
10
-12.310856565177158
20
4.318976190060252
30
0.19898877156380443
 70
     32
  0
SEQEND
  0
POLYLINE
 8
Group#17
 66
     1
70
    8
 10
0.0
 20
 0.0
 30
0.0
  0
VERTEX
  8
MY3DLAYER
10
-47.43347183003025
20
7.951359721042221
30
0.19898877156380443
 70
     32
  0
VERTEX
  8
MY3DLAYER
10
-47.3970570436512
20
8.341241427502245
30
0.19898877156380443
 70
     32
  0
VERTEX
  8
MY3DLAYER
10
-47.46279187199781
20
8.727263077207843
30
0.19898877156380443
 70
     32
  0
VERTEX
  8
MY3DLAYER
10
-47.626196595150184
20
9.083117932662562
30
0.19898877156380443
 70
     32
  0
VERTEX
  8
MY3DLAYER
10
-47.87613545126457
20
9.384555073545046
30
0.19898877156380443
 70
     32
  0
VERTEX
  8
MY3DLAYER
10
-48.19557552034024
20
9.611032056852663
30
0.19898877156380443
 70
     32
  0
VERTEX
  8
MY3DLAYER
10
-48.56274748956937
20
9.747114850443856
30
0.19898877156380443
 70
     32
  0
VERTEX
  8
MY3DLAYER
10
-48.952629196029356
20
9.783529636822923
30
0.19898877156380443
 70
     32
  0
VERTEX
  8
MY3DLAYER
10
-49.33865084573497
20
9.717794808476294
30
0.19898877156380443
 70
     32
  0
VERTEX
  8
MY3DLAYER
10
-49.69450570118968
20
9.55439008532393
30
0.19898877156380443
 70
     32
  0
VERTEX
  8
MY3DLAYER
10
-49.995942842072196
20
9.30445122920957
30
0.19898877156380443
 70
     32
  0
VERTEX
  8
MY3DLAYER
10
-50.22241982537981
20
8.985011160133872
30
0.19898877156380443
 70
     32
  0
VERTEX
  8
MY3DLAYER
10
-50.35850261897104
20
8.617839190904759
30
0.19898877156380443
 70
     32
  0
VERTEX
  8
MY3DLAYER
10
-50.394917405350064
20
8.22795748444478
30
0.19898877156380443
 70
     32
  0
VERTEX
  8
MY3DLAYER
10
-50.329182577003465
20
7.841935834739181
30
0.19898877156380443
 70
     32
  0
VERTEX
  8
MY3DLAYER
10
-50.165777853851104
20
7.486080979284463
30
0.19898877156380443
 70
     32
  0
VERTEX
  8
MY3DLAYER
10
-49.91583899773672
20
7.184643838401933
30
0.19898877156380443
 70
     32
  0
VERTEX
  8
MY3DLAYER
10
-49.59639892866104
20
6.9581668550943165
30
0.19898877156380443
 70
     32
  0
VERTEX
  8
MY3DLAYER
10
-49.22922695943193
20
6.822084061503078
30
0.19898877156380443
 70
     32
  0
VERTEX
  8
MY3DLAYER
10
-48.839345252971924
20
6.785669275124057
30
0.19898877156380443
 70
     32
  0
VERTEX
  8
MY3DLAYER
10
-48.45332360326633
20
6.8514041034706405
30
0.19898877156380443
 70
     32
  0
VERTEX
  8
MY3DLAYER
10
-48.09746874781161
20
7.01480882662305
30
0.19898877156380443
 70
     32
  0
VERTEX
  8
MY3DLAYER
10
-47.796031606929105
20
7.264747682737452
30
0.19898877156380443
 70
     32
  0
VERTEX
  8
MY3DLAYER
10
-47.569554623621464
20
7.584187751813107
30
0.19898877156380443
 70
     32
  0
VERTEX
  8
MY3DLAYER
10
-47.43347183003025
20
7.951359721042221
30
0.19898877156380443
 70
     32
  0
SEQEND
  0
POLYLINE
 8
Group#17
 66
     1
70
    8
 10
0.0
 20
 0.0
 30
0.0
  0
VERTEX
  8
MY3DLAYER
10
-31.84487596393424
20
8.672828023627257
30
0.19898877156380443
 70
     32
  0
VERTEX
  8
MY3DLAYER
10
-31.895987224500633
20
8.284599455973456
30
0.19898877156380443
 70
     32
  0
VERTEX
  8
MY3DLAYER
10
-31.844875963934225
20
7.8963708883197
30
0.19898877156380443
 70
     32
  0
VERTEX
  8
MY3DLAYER
10
-31.695025330177284
20
7.534599455973444
30
0.19898877156380443
 70
     32
  0
VERTEX
  8
MY3DLAYER
10
-31.45664739628045
20
7.223939284193608
30
0.19898877156380443
 70
     32
  0
VERTEX
  8
MY3DLAYER
10
-31.145987224500736
20
6.985561350296827
30
0.19898877156380443
 70
     32
  0
VERTEX
  8
MY3DLAYER
10
-30.784215792154516
20
6.8357107165398485
30
0.19898877156380443
 70
     32
  0
VERTEX
  8
MY3DLAYER
10
-30.395987224500736
20
6.7845994559734315
30
0.19898877156380443
 70
     32
  0
VERTEX
  8
MY3DLAYER
10
-30.00775865684696
20
6.835710716539846
30
0.19898877156380443
 70
     32
  0
VERTEX
  8
MY3DLAYER
10
-29.64598722450074
20
6.985561350296775
30
0.19898877156380443
 70
     32
  0
VERTEX
  8
MY3DLAYER
10
-29.3353270527208
20
7.223939284193601
30
0.19898877156380443
 70
     32
  0
VERTEX
  8
MY3DLAYER
10
-29.096949118823975
20
7.534599455973436
30
0.19898877156380443
 70
     32
  0
VERTEX
  8
MY3DLAYER
10
-28.94709848506702
20
7.896370888319645
30
0.19898877156380443
 70
     32
  0
VERTEX
  8
MY3DLAYER
10
-28.895987224500637
20
8.284599455973446
30
0.19898877156380443
 70
     32
  0
VERTEX
  8
MY3DLAYER
10
-28.947098485067034
20
8.672828023627202
30
0.19898877156380443
 70
     32
  0
VERTEX
  8
MY3DLAYER
10
-29.096949118823975
20
9.034599455973456
30
0.19898877156380443
 70
     32
  0
VERTEX
  8
MY3DLAYER
10
-29.33532705272082
20
9.345259627753249
30
0.19898877156380443
 70
     32
  0
VERTEX
  8
MY3DLAYER
10
-29.645987224500647
20
9.583637561650077
30
0.19898877156380443
 70
     32
  0
VERTEX
  8
MY3DLAYER
10
-30.007758656846867
20
9.733488195407052
30
0.19898877156380443
 70
     32
  0
VERTEX
  8
MY3DLAYER
10
-30.395987224500647
20
9.784599455973426
30
0.19898877156380443
 70
     32
  0
VERTEX
  8
MY3DLAYER
10
-30.784215792154423
20
9.733488195407054
30
0.19898877156380443
 70
     32
  0
VERTEX
  8
MY3DLAYER
10
-31.145987224500644
20
9.58363756165008
30
0.19898877156380443
 70
     32
  0
VERTEX
  8
MY3DLAYER
10
-31.45664739628047
20
9.3452596277533
30
0.19898877156380443
 70
     32
  0
VERTEX
  8
MY3DLAYER
10
-31.695025330177284
20
9.034599455973463
30
0.19898877156380443
 70
     32
  0
VERTEX
  8
MY3DLAYER
10
-31.84487596393424
20
8.672828023627257
30
0.19898877156380443
 70
     32
  0
SEQEND
  0
POLYLINE
 8
Group#17
 66
     1
70
    8
 10
0.0
 20
 0.0
 30
0.0
  0
VERTEX
  8
MY3DLAYER
10
-67.00775865684687
20
9.733488195407174
30
0.19898877156380443
 70
     32
  0
VERTEX
  8
MY3DLAYER
10
-67.39598722450064
20
9.784599455973549
30
0.19898877156380443
 70
     32
  0
VERTEX
  8
MY3DLAYER
10
-67.78421579215443
20
9.733488195407178
30
0.19898877156380443
 70
     32
  0
VERTEX
  8
MY3DLAYER
10
-68.14598722450064
20
9.583637561650205
30
0.19898877156380443
 70
     32
  0
VERTEX
  8
MY3DLAYER
10
-68.45664739628046
20
9.34525962775338
30
0.19898877156380443
 70
     32
  0
VERTEX
  8
MY3DLAYER
10
-68.6950253301773
20
9.034599455973588
30
0.19898877156380443
 70
     32
  0
VERTEX
  8
MY3DLAYER
10
-68.84487596393423
20
8.672828023627334
30
0.19898877156380443
 70
     32
  0
VERTEX
  8
MY3DLAYER
10
-68.89598722450063
20
8.284599455973579
30
0.19898877156380443
 70
     32
  0
VERTEX
  8
MY3DLAYER
10
-68.84487596393423
20
7.896370888319777
30
0.19898877156380443
 70
     32
  0
VERTEX
  8
MY3DLAYER
10
-68.6950253301773
20
7.534599455973568
30
0.19898877156380443
 70
     32
  0
VERTEX
  8
MY3DLAYER
10
-68.45664739628045
20
7.223939284193731
30
0.19898877156380443
 70
     32
  0
VERTEX
  8
MY3DLAYER
10
-68.14598722450063
20
6.985561350296904
30
0.19898877156380443
 70
     32
  0
VERTEX
  8
MY3DLAYER
10
-67.78421579215443
20
6.835710716539973
30
0.19898877156380443
 70
     32
  0
VERTEX
  8
MY3DLAYER
10
-67.39598722450074
20
6.784599455973554
30
0.19898877156380443
 70
     32
  0
VERTEX
  8
MY3DLAYER
10
-67.00775865684687
20
6.83571071653997
30
0.19898877156380443
 70
     32
  0
VERTEX
  8
MY3DLAYER
10
-66.64598722450063
20
6.9855613502969
30
0.19898877156380443
 70
     32
  0
VERTEX
  8
MY3DLAYER
10
-66.33532705272083
20
7.223939284193723
30
0.19898877156380443
 70
     32
  0
VERTEX
  8
MY3DLAYER
10
-66.09694911882397
20
7.53459945597356
30
0.19898877156380443
 70
     32
  0
VERTEX
  8
MY3DLAYER
10
-65.94709848506703
20
7.896370888319769
30
0.19898877156380443
 70
     32
  0
VERTEX
  8
MY3DLAYER
10
-65.89598722450064
20
8.28459945597357
30
0.19898877156380443
 70
     32
  0
VERTEX
  8
MY3DLAYER
10
-65.94709848506703
20
8.672828023627325
30
0.19898877156380443
 70
     32
  0
VERTEX
  8
MY3DLAYER
10
-66.09694911882397
20
9.034599455973535
30
0.19898877156380443
 70
     32
  0
VERTEX
  8
MY3DLAYER
10
-66.33532705272083
20
9.345259627753371
30
0.19898877156380443
 70
     32
  0
VERTEX
  8
MY3DLAYER
10
-66.64598722450064
20
9.5836375616502
30
0.19898877156380443
 70
     32
  0
VERTEX
  8
MY3DLAYER
10
-67.00775865684687
20
9.733488195407174
30
0.19898877156380443
 70
     32
  0
SEQEND
  0
POLYLINE
 8
Group#17
 66
     1
70
    8
 10
0.0
 20
 0.0
 30
0.0
  0
VERTEX
  8
MY3DLAYER
10
-11.034045839698388
20
8.763478051618161
30
0.17582777156378332
 70
     32
  0
VERTEX
  8
MY3DLAYER
10
-11.2281601235253
20
9.099693853681162
30
0.17582777156378332
 70
     32
  0
VERTEX
  8
MY3DLAYER
10
-11.502679176363632
20
9.374212906519496
30
0.17582777156378332
 70
     32
  0
VERTEX
  8
MY3DLAYER
10
-11.838894978426653
20
9.568327190346396
30
0.17582777156378332
 70
     32
  0
VERTEX
  8
MY3DLAYER
10
-12.213894978426659
20
9.668808137508071
30
0.17582777156378332
 70
     32
  0
VERTEX
  8
MY3DLAYER
10
-12.602123546080437
20
9.668808137508073
30
0.17582777156378332
 70
     32
  0
VERTEX
  8
MY3DLAYER
10
-12.977123546080419
20
9.5683271903464
30
0.17582777156378332
 70
     32
  0
VERTEX
  8
MY3DLAYER
10
-13.313339348143442
20
9.374212906519501
30
0.17582777156378332
 70
     32
  0
VERTEX
  8
MY3DLAYER
10
-13.587858400981775
20
9.09969385368117
30
0.17582777156378332
 70
     32
  0
VERTEX
  8
MY3DLAYER
10
-13.781972684808641
20
8.76347805161817
30
0.17582777156378332
 70
     32
  0
VERTEX
  8
MY3DLAYER
10
-13.882453631970314
20
8.388478051618165
30
0.17582777156378332
 70
     32
  0
VERTEX
  8
MY3DLAYER
10
-13.882453631970314
20
8.000249483964364
30
0.17582777156378332
 70
     32
  0
VERTEX
  8
MY3DLAYER
10
-13.781972684808641
20
7.625249483964405
30
0.17582777156378332
 70
     32
  0
VERTEX
  8
MY3DLAYER
10
-13.587858400981741
20
7.289033681901359
30
0.17582777156378332
 70
     32
  0
VERTEX
  8
MY3DLAYER
10
-13.313339348143431
20
7.014514629063027
30
0.17582777156378332
 70
     32
  0
VERTEX
  8
MY3DLAYER
10
-12.977123546080408
20
6.82040034523617
30
0.17582777156378332
 70
     32
  0
VERTEX
  8
MY3DLAYER
10
-12.602123546080426
20
6.719919398074496
30
0.17582777156378332
 70
     32
  0
VERTEX
  8
MY3DLAYER
10
-12.213894978426648
20
6.719919398074493
30
0.17582777156378332
 70
     32
  0
VERTEX
  8
MY3DLAYER
10
-11.838894978426643
20
6.820400345236167
30
0.17582777156378332
 70
     32
  0
VERTEX
  8
MY3DLAYER
10
-11.50267917636362
20
7.014514629063021
30
0.17582777156378332
 70
     32
  0
VERTEX
  8
MY3DLAYER
10
-11.228160123525265
20
7.289033681901351
30
0.17582777156378332
 70
     32
  0
VERTEX
  8
MY3DLAYER
10
-11.034045839698388
20
7.625249483964397
30
0.17582777156378332
 70
     32
  0
VERTEX
  8
MY3DLAYER
10
-10.933564892536715
20
8.000249483964401
30
0.17582777156378332
 70
     32
  0
VERTEX
  8
MY3DLAYER
10
-10.933564892536715
20
8.388478051618158
30
0.17582777156378332
 70
     32
  0
VERTEX
  8
MY3DLAYER
10
-11.034045839698388
20
8.763478051618161
30
0.17582777156378332
 70
     32
  0
SEQEND
  0
POLYLINE
 8
Group#17
 66
     1
70
    8
 10
0.0
 20
 0.0
 30
0.0
  0
VERTEX
  8
MY3DLAYER
10
-86.46496897294828
20
9.403983911031531
30
0.20198377156379488
 70
     32
  0
VERTEX
  8
MY3DLAYER
10
-86.7033469068451
20
9.093323739251696
30
0.20198377156379488
 70
     32
  0
VERTEX
  8
MY3DLAYER
10
-86.8531975406021
20
8.731552306905487
30
0.20198377156379488
 70
     32
  0
VERTEX
  8
MY3DLAYER
10
-86.90430880116853
20
8.343323739251732
30
0.20198377156379488
 70
     32
  0
VERTEX
  8
MY3DLAYER
10
-86.85319754060208
20
7.95509517159793
30
0.20198377156379488
 70
     32
  0
VERTEX
  8
MY3DLAYER
10
-86.70334690684513
20
7.593323739251721
30
0.20198377156379488
 70
     32
  0
VERTEX
  8
MY3DLAYER
10
-86.4649689729483
20
7.282663567471882
30
0.20198377156379488
 70
     32
  0
VERTEX
  8
MY3DLAYER
10
-86.1543088011685
20
7.044285633575056
30
0.20198377156379488
 70
     32
  0
VERTEX
  8
MY3DLAYER
10
-85.7925373688223
20
6.894434999818124
30
0.20198377156379488
 70
     32
  0
VERTEX
  8
MY3DLAYER
10
-85.40430880116851
20
6.843323739251707
30
0.20198377156379488
 70
     32
  0
VERTEX
  8
MY3DLAYER
10
-85.01608023351473
20
6.894434999818078
30
0.20198377156379488
 70
     32
  0
VERTEX
  8
MY3DLAYER
10
-84.65430880116853
20
7.044285633575005
30
0.20198377156379488
 70
     32
  0
VERTEX
  8
MY3DLAYER
10
-84.34364862938868
20
7.282663567471875
30
0.20198377156379488
 70
     32
  0
VERTEX
  8
MY3DLAYER
10
-84.10527069549185
20
7.593323739251666
30
0.20198377156379488
 70
     32
  0
VERTEX
  8
MY3DLAYER
10
-83.9554200617349
20
7.955095171597875
30
0.20198377156379488
 70
     32
  0
VERTEX
  8
MY3DLAYER
10
-83.90430880116853
20
8.343323739251675
30
0.20198377156379488
 70
     32
  0
VERTEX
  8
MY3DLAYER
10
-83.95542006173491
20
8.731552306905431
30
0.20198377156379488
 70
     32
  0
VERTEX
  8
MY3DLAYER
10
-84.10527069549182
20
9.093323739251641
30
0.20198377156379488
 70
     32
  0
VERTEX
  8
MY3DLAYER
10
-84.34364862938865
20
9.403983911031478
30
0.20198377156379488
 70
     32
  0
VERTEX
  8
MY3DLAYER
10
-84.65430880116847
20
9.642361844928306
30
0.20198377156379488
 70
     32
  0
VERTEX
  8
MY3DLAYER
10
-85.01608023351467
20
9.792212478685283
30
0.20198377156379488
 70
     32
  0
VERTEX
  8
MY3DLAYER
10
-85.40430880116845
20
9.843323739251655
30
0.20198377156379488
 70
     32
  0
VERTEX
  8
MY3DLAYER
10
-85.79253736882224
20
9.792212478685284
30
0.20198377156379488
 70
     32
  0
VERTEX
  8
MY3DLAYER
10
-86.15430880116844
20
9.642361844928356
30
0.20198377156379488
 70
     32
  0
VERTEX
  8
MY3DLAYER
10
-86.46496897294828
20
9.403983911031531
30
0.20198377156379488
 70
     32
  0
SEQEND
  0
POLYLINE
 8
Group#17
 66
     1
70
    8
 10
0.0
 20
 0.0
 30
0.0
  0
VERTEX
  8
MY3DLAYER
10
-12.829817388674863
20
4.284599455973354
30
3.1989887715638043
 70
     32
  0
VERTEX
  8
MY3DLAYER
10
-12.310856565177158
20
4.318976190060252
30
3.1989887715638043
 70
     32
  0
VERTEX
  8
MY3DLAYER
10
-11.800964611337525
20
4.421505656953903
30
3.1989887715638043
 70
     32
  0
VERTEX
  8
MY3DLAYER
10
-11.309051917805318
20
4.590396148438193
30
3.1989887715638043
 70
     32
  0
VERTEX
  8
MY3DLAYER
10
-10.84371468664208
20
4.8226962936495115
30
3.1989887715638043
 70
     32
  0
VERTEX
  8
MY3DLAYER
10
-10.413084712205665
20
5.114346634449622
30
3.1989887715638043
 70
     32
  0
VERTEX
  8
MY3DLAYER
10
-10.02468727758524
20
5.460250564684797
30
3.1989887715638043
 70
     32
  0
VERTEX
  8
MY3DLAYER
10
-9.685309649855004
20
5.8543633936666675
30
3.1989887715638043
 70
     32
  0
VERTEX
  8
MY3DLAYER
10
-9.400882472199195
20
6.28979797748222
30
3.1989887715638043
 70
     32
  0
VERTEX
  8
MY3DLAYER
10
-9.176376125587915
20
6.75894507222242
30
3.1989887715638043
 70
     32
  0
VERTEX
  8
MY3DLAYER
10
-9.015713871089494
20
7.2536063059484555
30
3.1989887715638043
 70
     32
  0
VERTEX
  8
MY3DLAYER
10
-8.921703290662137
20
7.765137445704035
30
3.1989887715638043
 70
     32
  0
VERTEX
  8
MY3DLAYER
10
-8.89598722450063
20
8.284599455973332
30
3.1989887715638043
 70
     32
  0
VERTEX
  8
MY3DLAYER
10
-8.921703290662137
20
8.804061466242722
30
3.1989887715638043
 70
     32
  0
VERTEX
  8
MY3DLAYER
10
-9.015713871089504
20
9.315592605998258
30
3.1989887715638043
 70
     32
  0
VERTEX
  8
MY3DLAYER
10
-9.176376125587836
20
9.810253839724341
30
3.1989887715638043
 70
     32
  0
VERTEX
  8
MY3DLAYER
10
-9.40088247219916
20
10.279400934464498
30
3.1989887715638043
 70
     32
  0
VERTEX
  8
MY3DLAYER
10
-9.68530964985497
20
10.714835518280049
30
3.1989887715638043
 70
     32
  0
VERTEX
  8
MY3DLAYER
10
-10.024687277585217
20
11.108948347261922
30
3.1989887715638043
 70
     32
  0
VERTEX
  8
MY3DLAYER
10
-10.413084712205642
20
11.454852277497146
30
3.1989887715638043
 70
     32
  0
VERTEX
  8
MY3DLAYER
10
-10.843714686642057
20
11.74650261829717
30
3.1989887715638043
 70
     32
  0
VERTEX
  8
MY3DLAYER
10
-11.309051917805297
20
11.978802763508579
30
3.1989887715638043
 70
     32
  0
VERTEX
  8
MY3DLAYER
10
-11.800964611337502
20
12.14769325499283
30
3.1989887715638043
 70
     32
  0
VERTEX
  8
MY3DLAYER
10
-12.31085656517709
20
12.25022272188653
30
3.1989887715638043
 70
     32
  0
VERTEX
  8
MY3DLAYER
10
-12.82981738867484
20
12.28459945597334
30
3.1989887715638043
 70
     32
  0
VERTEX
  8
MY3DLAYER
10
-84.96215706032652
20
12.284599455973625
30
3.1989887715638043
 70
     32
  0
VERTEX
  8
MY3DLAYER
10
-85.48111788382423
20
12.250222721886727
30
3.1989887715638043
 70
     32
  0
VERTEX
  8
MY3DLAYER
10
-85.99100983766385
20
12.147693254993078
30
3.1989887715638043
 70
     32
  0
VERTEX
  8
MY3DLAYER
10
-86.48292253119607
20
11.97880276350883
30
3.1989887715638043
 70
     32
  0
VERTEX
  8
MY3DLAYER
10
-86.9482597623593
20
11.746502618297468
30
3.1989887715638043
 70
     32
  0
VERTEX
  8
MY3DLAYER
10
-87.37888973679574
20
11.454852277497402
30
3.1989887715638043
 70
     32
  0
VERTEX
  8
MY3DLAYER
10
-87.76728717141614
20
11.108948347262181
30
3.1989887715638043
 70
     32
  0
VERTEX
  8
MY3DLAYER
10
-88.10666479914637
20
10.714835518280356
30
3.1989887715638043
 70
     32
  0
VERTEX
  8
MY3DLAYER
10
-88.39109197680223
20
10.27940093446476
30
3.1989887715638043
 70
     32
  0
VERTEX
  8
MY3DLAYER
10
-88.61559832341351
20
9.810253839724606
30
3.1989887715638043
 70
     32
  0
VERTEX
  8
MY3DLAYER
10
-88.77626057791188
20
9.315592605998479
30
3.1989887715638043
 70
     32
  0
VERTEX
  8
MY3DLAYER
10
-88.8702711583394
20
8.804061466242944
30
3.1989887715638043
 70
     32
  0
VERTEX
  8
MY3DLAYER
10
-88.89598722450091
20
8.2845994559736
30
3.1989887715638043
 70
     32
  0
VERTEX
  8
MY3DLAYER
10
-88.87027115833925
20
7.765137445704258
30
3.1989887715638043
 70
     32
  0
VERTEX
  8
MY3DLAYER
10
-88.77626057791191
20
7.253606305948677
30
3.1989887715638043
 70
     32
  0
VERTEX
  8
MY3DLAYER
10
-88.61559832341356
20
6.7589450722226845
30
3.1989887715638043
 70
     32
  0
VERTEX
  8
MY3DLAYER
10
-88.39109197680227
20
6.2897979774824835
30
3.1989887715638043
 70
     32
  0
VERTEX
  8
MY3DLAYER
10
-88.10666479914642
20
5.8543633936669295
30
3.1989887715638043
 70
     32
  0
VERTEX
  8
MY3DLAYER
10
-87.76728717141619
20
5.460250564685056
30
3.1989887715638043
 70
     32
  0
VERTEX
  8
MY3DLAYER
10
-87.37888973679577
20
5.114346634449833
30
3.1989887715638043
 70
     32
  0
VERTEX
  8
MY3DLAYER
10
-86.94825976235933
20
4.82269629364981
30
3.1989887715638043
 70
     32
  0
VERTEX
  8
MY3DLAYER
10
-86.48292253119608
20
4.590396148438445
30
3.1989887715638043
 70
     32
  0
VERTEX
  8
MY3DLAYER
10
-85.99100983766391
20
4.421505656954195
30
3.1989887715638043
 70
     32
  0
VERTEX
  8
MY3DLAYER
10
-85.48111788382427
20
4.318976190060496
30
3.1989887715638043
 70
     32
  0
VERTEX
  8
MY3DLAYER
10
-84.96215706032656
20
4.28459945597364
30
3.1989887715638043
 70
     32
  0
VERTEX
  8
MY3DLAYER
10
-12.829817388674863
20
4.284599455973354
30
3.1989887715638043
 70
     32
  0
SEQEND
  0
POLYLINE
 8
Group#17
 66
     1
70
    8
 10
0.0
 20
 0.0
 30
0.0
  0
VERTEX
  8
MY3DLAYER
10
-47.3970570436512
20
8.341241427502245
30
3.1989887715638043
 70
     32
  0
VERTEX
  8
MY3DLAYER
10
-47.43347183003025
20
7.951359721042221
30
3.1989887715638043
 70
     32
  0
VERTEX
  8
MY3DLAYER
10
-47.569554623621464
20
7.584187751813107
30
3.1989887715638043
 70
     32
  0
VERTEX
  8
MY3DLAYER
10
-47.796031606929105
20
7.264747682737452
30
3.1989887715638043
 70
     32
  0
VERTEX
  8
MY3DLAYER
10
-48.09746874781161
20
7.01480882662305
30
3.1989887715638043
 70
     32
  0
VERTEX
  8
MY3DLAYER
10
-48.45332360326633
20
6.8514041034706405
30
3.1989887715638043
 70
     32
  0
VERTEX
  8
MY3DLAYER
10
-48.839345252971924
20
6.785669275124057
30
3.1989887715638043
 70
     32
  0
VERTEX
  8
MY3DLAYER
10
-49.22922695943193
20
6.822084061503078
30
3.1989887715638043
 70
     32
  0
VERTEX
  8
MY3DLAYER
10
-49.59639892866104
20
6.9581668550943165
30
3.1989887715638043
 70
     32
  0
VERTEX
  8
MY3DLAYER
10
-49.91583899773672
20
7.184643838401933
30
3.1989887715638043
 70
     32
  0
VERTEX
  8
MY3DLAYER
10
-50.165777853851104
20
7.486080979284463
30
3.1989887715638043
 70
     32
  0
VERTEX
  8
MY3DLAYER
10
-50.329182577003465
20
7.841935834739181
30
3.1989887715638043
 70
     32
  0
VERTEX
  8
MY3DLAYER
10
-50.394917405350064
20
8.22795748444478
30
3.1989887715638043
 70
     32
  0
VERTEX
  8
MY3DLAYER
10
-50.35850261897104
20
8.617839190904759
30
3.1989887715638043
 70
     32
  0
VERTEX
  8
MY3DLAYER
10
-50.22241982537981
20
8.985011160133872
30
3.1989887715638043
 70
     32
  0
VERTEX
  8
MY3DLAYER
10
-49.995942842072196
20
9.30445122920957
30
3.1989887715638043
 70
     32
  0
VERTEX
  8
MY3DLAYER
10
-49.69450570118968
20
9.55439008532393
30
3.1989887715638043
 70
     32
  0
VERTEX
  8
MY3DLAYER
10
-49.33865084573497
20
9.717794808476294
30
3.1989887715638043
 70
     32
  0
VERTEX
  8
MY3DLAYER
10
-48.952629196029356
20
9.783529636822923
30
3.1989887715638043
 70
     32
  0
VERTEX
  8
MY3DLAYER
10
-48.56274748956937
20
9.747114850443856
30
3.1989887715638043
 70
     32
  0
VERTEX
  8
MY3DLAYER
10
-48.19557552034024
20
9.611032056852663
30
3.1989887715638043
 70
     32
  0
VERTEX
  8
MY3DLAYER
10
-47.87613545126457
20
9.384555073545046
30
3.1989887715638043
 70
     32
  0
VERTEX
  8
MY3DLAYER
10
-47.626196595150184
20
9.083117932662562
30
3.1989887715638043
 70
     32
  0
VERTEX
  8
MY3DLAYER
10
-47.46279187199781
20
8.727263077207843
30
3.1989887715638043
 70
     32
  0
VERTEX
  8
MY3DLAYER
10
-47.3970570436512
20
8.341241427502245
30
3.1989887715638043
 70
     32
  0
SEQEND
  0
POLYLINE
 8
Group#17
 66
     1
70
    8
 10
0.0
 20
 0.0
 30
0.0
  0
VERTEX
  8
MY3DLAYER
10
-11.2281601235253
20
9.099693853681162
30
3.1758277715637835
 70
     32
  0
VERTEX
  8
MY3DLAYER
10
-11.034045839698388
20
8.763478051618161
30
3.1758277715637835
 70
     32
  0
VERTEX
  8
MY3DLAYER
10
-10.933564892536715
20
8.388478051618158
30
3.1758277715637835
 70
     32
  0
VERTEX
  8
MY3DLAYER
10
-10.933564892536715
20
8.000249483964401
30
3.1758277715637835
 70
     32
  0
VERTEX
  8
MY3DLAYER
10
-11.034045839698388
20
7.625249483964397
30
3.1758277715637835
 70
     32
  0
VERTEX
  8
MY3DLAYER
10
-11.228160123525265
20
7.289033681901351
30
3.1758277715637835
 70
     32
  0
VERTEX
  8
MY3DLAYER
10
-11.50267917636362
20
7.014514629063021
30
3.1758277715637835
 70
     32
  0
VERTEX
  8
MY3DLAYER
10
-11.838894978426643
20
6.820400345236167
30
3.1758277715637835
 70
     32
  0
VERTEX
  8
MY3DLAYER
10
-12.213894978426648
20
6.719919398074493
30
3.1758277715637835
 70
     32
  0
VERTEX
  8
MY3DLAYER
10
-12.602123546080426
20
6.719919398074496
30
3.1758277715637835
 70
     32
  0
VERTEX
  8
MY3DLAYER
10
-12.977123546080408
20
6.82040034523617
30
3.1758277715637835
 70
     32
  0
VERTEX
  8
MY3DLAYER
10
-13.313339348143431
20
7.014514629063027
30
3.1758277715637835
 70
     32
  0
VERTEX
  8
MY3DLAYER
10
-13.587858400981741
20
7.289033681901359
30
3.1758277715637835
 70
     32
  0
VERTEX
  8
MY3DLAYER
10
-13.781972684808641
20
7.625249483964405
30
3.1758277715637835
 70
     32
  0
VERTEX
  8
MY3DLAYER
10
-13.882453631970314
20
8.000249483964364
30
3.1758277715637835
 70
     32
  0
VERTEX
  8
MY3DLAYER
10
-13.882453631970314
20
8.388478051618165
30
3.1758277715637835
 70
     32
  0
VERTEX
  8
MY3DLAYER
10
-13.781972684808641
20
8.76347805161817
30
3.1758277715637835
 70
     32
  0
VERTEX
  8
MY3DLAYER
10
-13.587858400981775
20
9.09969385368117
30
3.1758277715637835
 70
     32
  0
VERTEX
  8
MY3DLAYER
10
-13.313339348143442
20
9.374212906519501
30
3.1758277715637835
 70
     32
  0
VERTEX
  8
MY3DLAYER
10
-12.977123546080419
20
9.5683271903464
30
3.1758277715637835
 70
     32
  0
VERTEX
  8
MY3DLAYER
10
-12.602123546080437
20
9.668808137508073
30
3.1758277715637835
 70
     32
  0
VERTEX
  8
MY3DLAYER
10
-12.213894978426659
20
9.668808137508071
30
3.1758277715637835
 70
     32
  0
VERTEX
  8
MY3DLAYER
10
-11.838894978426653
20
9.568327190346396
30
3.1758277715637835
 70
     32
  0
VERTEX
  8
MY3DLAYER
10
-11.502679176363632
20
9.374212906519496
30
3.1758277715637835
 70
     32
  0
VERTEX
  8
MY3DLAYER
10
-11.2281601235253
20
9.099693853681162
30
3.1758277715637835
 70
     32
  0
SEQEND
  0
POLYLINE
 8
Group#17
 66
     1
70
    8
 10
0.0
 20
 0.0
 30
0.0
  0
VERTEX
  8
MY3DLAYER
10
-86.7033469068451
20
9.093323739251696
30
3.201983771563795
 70
     32
  0
VERTEX
  8
MY3DLAYER
10
-86.46496897294828
20
9.403983911031531
30
3.201983771563795
 70
     32
  0
VERTEX
  8
MY3DLAYER
10
-86.15430880116844
20
9.642361844928356
30
3.201983771563795
 70
     32
  0
VERTEX
  8
MY3DLAYER
10
-85.79253736882224
20
9.792212478685284
30
3.201983771563795
 70
     32
  0
VERTEX
  8
MY3DLAYER
10
-85.40430880116845
20
9.843323739251655
30
3.201983771563795
 70
     32
  0
VERTEX
  8
MY3DLAYER
10
-85.01608023351467
20
9.792212478685283
30
3.201983771563795
 70
     32
  0
VERTEX
  8
MY3DLAYER
10
-84.65430880116847
20
9.642361844928306
30
3.201983771563795
 70
     32
  0
VERTEX
  8
MY3DLAYER
10
-84.34364862938865
20
9.403983911031478
30
3.201983771563795
 70
     32
  0
VERTEX
  8
MY3DLAYER
10
-84.10527069549182
20
9.093323739251641
30
3.201983771563795
 70
     32
  0
VERTEX
  8
MY3DLAYER
10
-83.95542006173491
20
8.731552306905431
30
3.201983771563795
 70
     32
  0
VERTEX
  8
MY3DLAYER
10
-83.90430880116853
20
8.343323739251675
30
3.201983771563795
 70
     32
  0
VERTEX
  8
MY3DLAYER
10
-83.9554200617349
20
7.955095171597875
30
3.201983771563795
 70
     32
  0
VERTEX
  8
MY3DLAYER
10
-84.10527069549185
20
7.593323739251666
30
3.201983771563795
 70
     32
  0
VERTEX
  8
MY3DLAYER
10
-84.34364862938868
20
7.282663567471875
30
3.201983771563795
 70
     32
  0
VERTEX
  8
MY3DLAYER
10
-84.65430880116853
20
7.044285633575005
30
3.201983771563795
 70
     32
  0
VERTEX
  8
MY3DLAYER
10
-85.01608023351473
20
6.894434999818078
30
3.201983771563795
 70
     32
  0
VERTEX
  8
MY3DLAYER
10
-85.40430880116851
20
6.843323739251707
30
3.201983771563795
 70
     32
  0
VERTEX
  8
MY3DLAYER
10
-85.7925373688223
20
6.894434999818124
30
3.201983771563795
 70
     32
  0
VERTEX
  8
MY3DLAYER
10
-86.1543088011685
20
7.044285633575056
30
3.201983771563795
 70
     32
  0
VERTEX
  8
MY3DLAYER
10
-86.4649689729483
20
7.282663567471882
30
3.201983771563795
 70
     32
  0
VERTEX
  8
MY3DLAYER
10
-86.70334690684513
20
7.593323739251721
30
3.201983771563795
 70
     32
  0
VERTEX
  8
MY3DLAYER
10
-86.85319754060208
20
7.95509517159793
30
3.201983771563795
 70
     32
  0
VERTEX
  8
MY3DLAYER
10
-86.90430880116853
20
8.343323739251732
30
3.201983771563795
 70
     32
  0
VERTEX
  8
MY3DLAYER
10
-86.8531975406021
20
8.731552306905487
30
3.201983771563795
 70
     32
  0
VERTEX
  8
MY3DLAYER
10
-86.7033469068451
20
9.093323739251696
30
3.201983771563795
 70
     32
  0
SEQEND
  0
POLYLINE
 8
Group#17
 66
     1
70
    8
 10
0.0
 20
 0.0
 30
0.0
  0
VERTEX
  8
MY3DLAYER
10
-31.895987224500633
20
8.284599455973456
30
3.1989887715638043
 70
     32
  0
VERTEX
  8
MY3DLAYER
10
-31.84487596393424
20
8.672828023627257
30
3.1989887715638043
 70
     32
  0
VERTEX
  8
MY3DLAYER
10
-31.695025330177284
20
9.034599455973463
30
3.1989887715638043
 70
     32
  0
VERTEX
  8
MY3DLAYER
10
-31.45664739628047
20
9.3452596277533
30
3.1989887715638043
 70
     32
  0
VERTEX
  8
MY3DLAYER
10
-31.145987224500644
20
9.58363756165008
30
3.1989887715638043
 70
     32
  0
VERTEX
  8
MY3DLAYER
10
-30.784215792154423
20
9.733488195407054
30
3.1989887715638043
 70
     32
  0
VERTEX
  8
MY3DLAYER
10
-30.395987224500647
20
9.784599455973426
30
3.1989887715638043
 70
     32
  0
VERTEX
  8
MY3DLAYER
10
-30.007758656846867
20
9.733488195407052
30
3.1989887715638043
 70
     32
  0
VERTEX
  8
MY3DLAYER
10
-29.645987224500647
20
9.583637561650077
30
3.1989887715638043
 70
     32
  0
VERTEX
  8
MY3DLAYER
10
-29.33532705272082
20
9.345259627753249
30
3.1989887715638043
 70
     32
  0
VERTEX
  8
MY3DLAYER
10
-29.096949118823975
20
9.034599455973456
30
3.1989887715638043
 70
     32
  0
VERTEX
  8
MY3DLAYER
10
-28.947098485067034
20
8.672828023627202
30
3.1989887715638043
 70
     32
  0
VERTEX
  8
MY3DLAYER
10
-28.895987224500637
20
8.284599455973446
30
3.1989887715638043
 70
     32
  0
VERTEX
  8
MY3DLAYER
10
-28.94709848506702
20
7.896370888319645
30
3.1989887715638043
 70
     32
  0
VERTEX
  8
MY3DLAYER
10
-29.096949118823975
20
7.534599455973436
30
3.1989887715638043
 70
     32
  0
VERTEX
  8
MY3DLAYER
10
-29.3353270527208
20
7.223939284193601
30
3.1989887715638043
 70
     32
  0
VERTEX
  8
MY3DLAYER
10
-29.64598722450074
20
6.985561350296775
30
3.1989887715638043
 70
     32
  0
VERTEX
  8
MY3DLAYER
10
-30.00775865684696
20
6.835710716539846
30
3.1989887715638043
 70
     32
  0
VERTEX
  8
MY3DLAYER
10
-30.395987224500736
20
6.7845994559734315
30
3.1989887715638043
 70
     32
  0
VERTEX
  8
MY3DLAYER
10
-30.784215792154516
20
6.8357107165398485
30
3.1989887715638043
 70
     32
  0
VERTEX
  8
MY3DLAYER
10
-31.145987224500736
20
6.985561350296827
30
3.1989887715638043
 70
     32
  0
VERTEX
  8
MY3DLAYER
10
-31.45664739628045
20
7.223939284193608
30
3.1989887715638043
 70
     32
  0
VERTEX
  8
MY3DLAYER
10
-31.695025330177284
20
7.534599455973444
30
3.1989887715638043
 70
     32
  0
VERTEX
  8
MY3DLAYER
10
-31.844875963934225
20
7.8963708883197
30
3.1989887715638043
 70
     32
  0
VERTEX
  8
MY3DLAYER
10
-31.895987224500633
20
8.284599455973456
30
3.1989887715638043
 70
     32
  0
SEQEND
  0
POLYLINE
 8
Group#17
 66
     1
70
    8
 10
0.0
 20
 0.0
 30
0.0
  0
VERTEX
  8
MY3DLAYER
10
-67.39598722450064
20
9.784599455973549
30
3.1989887715638043
 70
     32
  0
VERTEX
  8
MY3DLAYER
10
-67.00775865684687
20
9.733488195407174
30
3.1989887715638043
 70
     32
  0
VERTEX
  8
MY3DLAYER
10
-66.64598722450064
20
9.5836375616502
30
3.1989887715638043
 70
     32
  0
VERTEX
  8
MY3DLAYER
10
-66.33532705272083
20
9.345259627753371
30
3.1989887715638043
 70
     32
  0
VERTEX
  8
MY3DLAYER
10
-66.09694911882397
20
9.034599455973535
30
3.1989887715638043
 70
     32
  0
VERTEX
  8
MY3DLAYER
10
-65.94709848506703
20
8.672828023627325
30
3.1989887715638043
 70
     32
  0
VERTEX
  8
MY3DLAYER
10
-65.89598722450064
20
8.28459945597357
30
3.1989887715638043
 70
     32
  0
VERTEX
  8
MY3DLAYER
10
-65.94709848506703
20
7.896370888319769
30
3.1989887715638043
 70
     32
  0
VERTEX
  8
MY3DLAYER
10
-66.09694911882397
20
7.53459945597356
30
3.1989887715638043
 70
     32
  0
VERTEX
  8
MY3DLAYER
10
-66.33532705272083
20
7.223939284193723
30
3.1989887715638043
 70
     32
  0
VERTEX
  8
MY3DLAYER
10
-66.64598722450063
20
6.9855613502969
30
3.1989887715638043
 70
     32
  0
VERTEX
  8
MY3DLAYER
10
-67.00775865684687
20
6.83571071653997
30
3.1989887715638043
 70
     32
  0
VERTEX
  8
MY3DLAYER
10
-67.39598722450074
20
6.784599455973554
30
3.1989887715638043
 70
     32
  0
VERTEX
  8
MY3DLAYER
10
-67.78421579215443
20
6.835710716539973
30
3.1989887715638043
 70
     32
  0
VERTEX
  8
MY3DLAYER
10
-68.14598722450063
20
6.985561350296904
30
3.1989887715638043
 70
     32
  0
VERTEX
  8
MY3DLAYER
10
-68.45664739628045
20
7.223939284193731
30
3.1989887715638043
 70
     32
  0
VERTEX
  8
MY3DLAYER
10
-68.6950253301773
20
7.534599455973568
30
3.1989887715638043
 70
     32
  0
VERTEX
  8
MY3DLAYER
10
-68.84487596393423
20
7.896370888319777
30
3.1989887715638043
 70
     32
  0
VERTEX
  8
MY3DLAYER
10
-68.89598722450063
20
8.284599455973579
30
3.1989887715638043
 70
     32
  0
VERTEX
  8
MY3DLAYER
10
-68.84487596393423
20
8.672828023627334
30
3.1989887715638043
 70
     32
  0
VERTEX
  8
MY3DLAYER
10
-68.6950253301773
20
9.034599455973588
30
3.1989887715638043
 70
     32
  0
VERTEX
  8
MY3DLAYER
10
-68.45664739628046
20
9.34525962775338
30
3.1989887715638043
 70
     32
  0
VERTEX
  8
MY3DLAYER
10
-68.14598722450064
20
9.583637561650205
30
3.1989887715638043
 70
     32
  0
VERTEX
  8
MY3DLAYER
10
-67.78421579215443
20
9.733488195407178
30
3.1989887715638043
 70
     32
  0
VERTEX
  8
MY3DLAYER
10
-67.39598722450064
20
9.784599455973549
30
3.1989887715638043
 70
     32
  0
SEQEND
  0
POLYLINE
 8
Group#17
 66
     1
70
    8
 10
0.0
 20
 0.0
 30
0.0
  0
VERTEX
  8
MY3DLAYER
10
-12.829817388674863
20
4.284599455973354
30
0.19898877156380443
 70
     32
  0
VERTEX
  8
MY3DLAYER
10
-12.310856565177158
20
4.318976190060252
30
0.19898877156380443
 70
     32
  0
VERTEX
  8
MY3DLAYER
10
-12.310856565177158
20
4.318976190060252
30
3.1989887715638043
 70
     32
  0
VERTEX
  8
MY3DLAYER
10
-12.829817388674863
20
4.284599455973354
30
3.1989887715638043
 70
     32
  0
VERTEX
  8
MY3DLAYER
10
-12.829817388674863
20
4.284599455973354
30
0.19898877156380443
 70
     32
  0
SEQEND
  0
POLYLINE
 8
Group#17
 66
     1
70
    8
 10
0.0
 20
 0.0
 30
0.0
  0
VERTEX
  8
MY3DLAYER
10
-84.96215706032656
20
4.28459945597364
30
0.19898877156380443
 70
     32
  0
VERTEX
  8
MY3DLAYER
10
-12.829817388674863
20
4.284599455973354
30
0.19898877156380443
 70
     32
  0
VERTEX
  8
MY3DLAYER
10
-12.829817388674863
20
4.284599455973354
30
3.1989887715638043
 70
     32
  0
VERTEX
  8
MY3DLAYER
10
-84.96215706032656
20
4.28459945597364
30
3.1989887715638043
 70
     32
  0
VERTEX
  8
MY3DLAYER
10
-84.96215706032656
20
4.28459945597364
30
0.19898877156380443
 70
     32
  0
SEQEND
  0
POLYLINE
 8
Group#17
 66
     1
70
    8
 10
0.0
 20
 0.0
 30
0.0
  0
VERTEX
  8
MY3DLAYER
10
-85.48111788382427
20
4.318976190060496
30
0.19898877156380443
 70
     32
  0
VERTEX
  8
MY3DLAYER
10
-84.96215706032656
20
4.28459945597364
30
0.19898877156380443
 70
     32
  0
VERTEX
  8
MY3DLAYER
10
-84.96215706032656
20
4.28459945597364
30
3.1989887715638043
 70
     32
  0
VERTEX
  8
MY3DLAYER
10
-85.48111788382427
20
4.318976190060496
30
3.1989887715638043
 70
     32
  0
VERTEX
  8
MY3DLAYER
10
-85.48111788382427
20
4.318976190060496
30
0.19898877156380443
 70
     32
  0
SEQEND
  0
POLYLINE
 8
Group#17
 66
     1
70
    8
 10
0.0
 20
 0.0
 30
0.0
  0
VERTEX
  8
MY3DLAYER
10
-85.99100983766391
20
4.421505656954195
30
0.19898877156380443
 70
     32
  0
VERTEX
  8
MY3DLAYER
10
-85.48111788382427
20
4.318976190060496
30
0.19898877156380443
 70
     32
  0
VERTEX
  8
MY3DLAYER
10
-85.48111788382427
20
4.318976190060496
30
3.1989887715638043
 70
     32
  0
VERTEX
  8
MY3DLAYER
10
-85.99100983766391
20
4.421505656954195
30
3.1989887715638043
 70
     32
  0
VERTEX
  8
MY3DLAYER
10
-85.99100983766391
20
4.421505656954195
30
0.19898877156380443
 70
     32
  0
SEQEND
  0
POLYLINE
 8
Group#17
 66
     1
70
    8
 10
0.0
 20
 0.0
 30
0.0
  0
VERTEX
  8
MY3DLAYER
10
-86.48292253119608
20
4.590396148438445
30
0.19898877156380443
 70
     32
  0
VERTEX
  8
MY3DLAYER
10
-85.99100983766391
20
4.421505656954195
30
0.19898877156380443
 70
     32
  0
VERTEX
  8
MY3DLAYER
10
-85.99100983766391
20
4.421505656954195
30
3.1989887715638043
 70
     32
  0
VERTEX
  8
MY3DLAYER
10
-86.48292253119608
20
4.590396148438445
30
3.1989887715638043
 70
     32
  0
VERTEX
  8
MY3DLAYER
10
-86.48292253119608
20
4.590396148438445
30
0.19898877156380443
 70
     32
  0
SEQEND
  0
POLYLINE
 8
Group#17
 66
     1
70
    8
 10
0.0
 20
 0.0
 30
0.0
  0
VERTEX
  8
MY3DLAYER
10
-86.94825976235933
20
4.82269629364981
30
0.19898877156380443
 70
     32
  0
VERTEX
  8
MY3DLAYER
10
-86.48292253119608
20
4.590396148438445
30
0.19898877156380443
 70
     32
  0
VERTEX
  8
MY3DLAYER
10
-86.48292253119608
20
4.590396148438445
30
3.1989887715638043
 70
     32
  0
VERTEX
  8
MY3DLAYER
10
-86.94825976235933
20
4.82269629364981
30
3.1989887715638043
 70
     32
  0
VERTEX
  8
MY3DLAYER
10
-86.94825976235933
20
4.82269629364981
30
0.19898877156380443
 70
     32
  0
SEQEND
  0
POLYLINE
 8
Group#17
 66
     1
70
    8
 10
0.0
 20
 0.0
 30
0.0
  0
VERTEX
  8
MY3DLAYER
10
-87.37888973679577
20
5.114346634449833
30
0.19898877156380443
 70
     32
  0
VERTEX
  8
MY3DLAYER
10
-86.94825976235933
20
4.82269629364981
30
0.19898877156380443
 70
     32
  0
VERTEX
  8
MY3DLAYER
10
-86.94825976235933
20
4.82269629364981
30
3.1989887715638043
 70
     32
  0
VERTEX
  8
MY3DLAYER
10
-87.37888973679577
20
5.114346634449833
30
3.1989887715638043
 70
     32
  0
VERTEX
  8
MY3DLAYER
10
-87.37888973679577
20
5.114346634449833
30
0.19898877156380443
 70
     32
  0
SEQEND
  0
POLYLINE
 8
Group#17
 66
     1
70
    8
 10
0.0
 20
 0.0
 30
0.0
  0
VERTEX
  8
MY3DLAYER
10
-87.76728717141619
20
5.460250564685056
30
0.19898877156380443
 70
     32
  0
VERTEX
  8
MY3DLAYER
10
-87.37888973679577
20
5.114346634449833
30
0.19898877156380443
 70
     32
  0
VERTEX
  8
MY3DLAYER
10
-87.37888973679577
20
5.114346634449833
30
3.1989887715638043
 70
     32
  0
VERTEX
  8
MY3DLAYER
10
-87.76728717141619
20
5.460250564685056
30
3.1989887715638043
 70
     32
  0
VERTEX
  8
MY3DLAYER
10
-87.76728717141619
20
5.460250564685056
30
0.19898877156380443
 70
     32
  0
SEQEND
  0
POLYLINE
 8
Group#17
 66
     1
70
    8
 10
0.0
 20
 0.0
 30
0.0
  0
VERTEX
  8
MY3DLAYER
10
-88.10666479914642
20
5.8543633936669295
30
0.19898877156380443
 70
     32
  0
VERTEX
  8
MY3DLAYER
10
-87.76728717141619
20
5.460250564685056
30
0.19898877156380443
 70
     32
  0
VERTEX
  8
MY3DLAYER
10
-87.76728717141619
20
5.460250564685056
30
3.1989887715638043
 70
     32
  0
VERTEX
  8
MY3DLAYER
10
-88.10666479914642
20
5.8543633936669295
30
3.1989887715638043
 70
     32
  0
VERTEX
  8
MY3DLAYER
10
-88.10666479914642
20
5.8543633936669295
30
0.19898877156380443
 70
     32
  0
SEQEND
  0
POLYLINE
 8
Group#17
 66
     1
70
    8
 10
0.0
 20
 0.0
 30
0.0
  0
VERTEX
  8
MY3DLAYER
10
-88.39109197680227
20
6.2897979774824835
30
0.19898877156380443
 70
     32
  0
VERTEX
  8
MY3DLAYER
10
-88.10666479914642
20
5.8543633936669295
30
0.19898877156380443
 70
     32
  0
VERTEX
  8
MY3DLAYER
10
-88.10666479914642
20
5.8543633936669295
30
3.1989887715638043
 70
     32
  0
VERTEX
  8
MY3DLAYER
10
-88.39109197680227
20
6.2897979774824835
30
3.1989887715638043
 70
     32
  0
VERTEX
  8
MY3DLAYER
10
-88.39109197680227
20
6.2897979774824835
30
0.19898877156380443
 70
     32
  0
SEQEND
  0
POLYLINE
 8
Group#17
 66
     1
70
    8
 10
0.0
 20
 0.0
 30
0.0
  0
VERTEX
  8
MY3DLAYER
10
-88.61559832341356
20
6.7589450722226845
30
0.19898877156380443
 70
     32
  0
VERTEX
  8
MY3DLAYER
10
-88.39109197680227
20
6.2897979774824835
30
0.19898877156380443
 70
     32
  0
VERTEX
  8
MY3DLAYER
10
-88.39109197680227
20
6.2897979774824835
30
3.1989887715638043
 70
     32
  0
VERTEX
  8
MY3DLAYER
10
-88.61559832341356
20
6.7589450722226845
30
3.1989887715638043
 70
     32
  0
VERTEX
  8
MY3DLAYER
10
-88.61559832341356
20
6.7589450722226845
30
0.19898877156380443
 70
     32
  0
SEQEND
  0
POLYLINE
 8
Group#17
 66
     1
70
    8
 10
0.0
 20
 0.0
 30
0.0
  0
VERTEX
  8
MY3DLAYER
10
-88.77626057791191
20
7.253606305948677
30
0.19898877156380443
 70
     32
  0
VERTEX
  8
MY3DLAYER
10
-88.61559832341356
20
6.7589450722226845
30
0.19898877156380443
 70
     32
  0
VERTEX
  8
MY3DLAYER
10
-88.61559832341356
20
6.7589450722226845
30
3.1989887715638043
 70
     32
  0
VERTEX
  8
MY3DLAYER
10
-88.77626057791191
20
7.253606305948677
30
3.1989887715638043
 70
     32
  0
VERTEX
  8
MY3DLAYER
10
-88.77626057791191
20
7.253606305948677
30
0.19898877156380443
 70
     32
  0
SEQEND
  0
POLYLINE
 8
Group#17
 66
     1
70
    8
 10
0.0
 20
 0.0
 30
0.0
  0
VERTEX
  8
MY3DLAYER
10
-88.87027115833925
20
7.765137445704258
30
0.19898877156380443
 70
     32
  0
VERTEX
  8
MY3DLAYER
10
-88.77626057791191
20
7.253606305948677
30
0.19898877156380443
 70
     32
  0
VERTEX
  8
MY3DLAYER
10
-88.77626057791191
20
7.253606305948677
30
3.1989887715638043
 70
     32
  0
VERTEX
  8
MY3DLAYER
10
-88.87027115833925
20
7.765137445704258
30
3.1989887715638043
 70
     32
  0
VERTEX
  8
MY3DLAYER
10
-88.87027115833925
20
7.765137445704258
30
0.19898877156380443
 70
     32
  0
SEQEND
  0
POLYLINE
 8
Group#17
 66
     1
70
    8
 10
0.0
 20
 0.0
 30
0.0
  0
VERTEX
  8
MY3DLAYER
10
-88.89598722450091
20
8.2845994559736
30
0.19898877156380443
 70
     32
  0
VERTEX
  8
MY3DLAYER
10
-88.87027115833925
20
7.765137445704258
30
0.19898877156380443
 70
     32
  0
VERTEX
  8
MY3DLAYER
10
-88.87027115833925
20
7.765137445704258
30
3.1989887715638043
 70
     32
  0
VERTEX
  8
MY3DLAYER
10
-88.89598722450091
20
8.2845994559736
30
3.1989887715638043
 70
     32
  0
VERTEX
  8
MY3DLAYER
10
-88.89598722450091
20
8.2845994559736
30
0.19898877156380443
 70
     32
  0
SEQEND
  0
POLYLINE
 8
Group#17
 66
     1
70
    8
 10
0.0
 20
 0.0
 30
0.0
  0
VERTEX
  8
MY3DLAYER
10
-88.8702711583394
20
8.804061466242944
30
0.19898877156380443
 70
     32
  0
VERTEX
  8
MY3DLAYER
10
-88.89598722450091
20
8.2845994559736
30
0.19898877156380443
 70
     32
  0
VERTEX
  8
MY3DLAYER
10
-88.89598722450091
20
8.2845994559736
30
3.1989887715638043
 70
     32
  0
VERTEX
  8
MY3DLAYER
10
-88.8702711583394
20
8.804061466242944
30
3.1989887715638043
 70
     32
  0
VERTEX
  8
MY3DLAYER
10
-88.8702711583394
20
8.804061466242944
30
0.19898877156380443
 70
     32
  0
SEQEND
  0
POLYLINE
 8
Group#17
 66
     1
70
    8
 10
0.0
 20
 0.0
 30
0.0
  0
VERTEX
  8
MY3DLAYER
10
-88.77626057791188
20
9.315592605998479
30
0.19898877156380443
 70
     32
  0
VERTEX
  8
MY3DLAYER
10
-88.8702711583394
20
8.804061466242944
30
0.19898877156380443
 70
     32
  0
VERTEX
  8
MY3DLAYER
10
-88.8702711583394
20
8.804061466242944
30
3.1989887715638043
 70
     32
  0
VERTEX
  8
MY3DLAYER
10
-88.77626057791188
20
9.315592605998479
30
3.1989887715638043
 70
     32
  0
VERTEX
  8
MY3DLAYER
10
-88.77626057791188
20
9.315592605998479
30
0.19898877156380443
 70
     32
  0
SEQEND
  0
POLYLINE
 8
Group#17
 66
     1
70
    8
 10
0.0
 20
 0.0
 30
0.0
  0
VERTEX
  8
MY3DLAYER
10
-88.61559832341351
20
9.810253839724606
30
0.19898877156380443
 70
     32
  0
VERTEX
  8
MY3DLAYER
10
-88.77626057791188
20
9.315592605998479
30
0.19898877156380443
 70
     32
  0
VERTEX
  8
MY3DLAYER
10
-88.77626057791188
20
9.315592605998479
30
3.1989887715638043
 70
     32
  0
VERTEX
  8
MY3DLAYER
10
-88.61559832341351
20
9.810253839724606
30
3.1989887715638043
 70
     32
  0
VERTEX
  8
MY3DLAYER
10
-88.61559832341351
20
9.810253839724606
30
0.19898877156380443
 70
     32
  0
SEQEND
  0
POLYLINE
 8
Group#17
 66
     1
70
    8
 10
0.0
 20
 0.0
 30
0.0
  0
VERTEX
  8
MY3DLAYER
10
-88.39109197680223
20
10.27940093446476
30
0.19898877156380443
 70
     32
  0
VERTEX
  8
MY3DLAYER
10
-88.61559832341351
20
9.810253839724606
30
0.19898877156380443
 70
     32
  0
VERTEX
  8
MY3DLAYER
10
-88.61559832341351
20
9.810253839724606
30
3.1989887715638043
 70
     32
  0
VERTEX
  8
MY3DLAYER
10
-88.39109197680223
20
10.27940093446476
30
3.1989887715638043
 70
     32
  0
VERTEX
  8
MY3DLAYER
10
-88.39109197680223
20
10.27940093446476
30
0.19898877156380443
 70
     32
  0
SEQEND
  0
POLYLINE
 8
Group#17
 66
     1
70
    8
 10
0.0
 20
 0.0
 30
0.0
  0
VERTEX
  8
MY3DLAYER
10
-88.10666479914637
20
10.714835518280356
30
0.19898877156380443
 70
     32
  0
VERTEX
  8
MY3DLAYER
10
-88.39109197680223
20
10.27940093446476
30
0.19898877156380443
 70
     32
  0
VERTEX
  8
MY3DLAYER
10
-88.39109197680223
20
10.27940093446476
30
3.1989887715638043
 70
     32
  0
VERTEX
  8
MY3DLAYER
10
-88.10666479914637
20
10.714835518280356
30
3.1989887715638043
 70
     32
  0
VERTEX
  8
MY3DLAYER
10
-88.10666479914637
20
10.714835518280356
30
0.19898877156380443
 70
     32
  0
SEQEND
  0
POLYLINE
 8
Group#17
 66
     1
70
    8
 10
0.0
 20
 0.0
 30
0.0
  0
VERTEX
  8
MY3DLAYER
10
-87.76728717141614
20
11.108948347262181
30
0.19898877156380443
 70
     32
  0
VERTEX
  8
MY3DLAYER
10
-88.10666479914637
20
10.714835518280356
30
0.19898877156380443
 70
     32
  0
VERTEX
  8
MY3DLAYER
10
-88.10666479914637
20
10.714835518280356
30
3.1989887715638043
 70
     32
  0
VERTEX
  8
MY3DLAYER
10
-87.76728717141614
20
11.108948347262181
30
3.1989887715638043
 70
     32
  0
VERTEX
  8
MY3DLAYER
10
-87.76728717141614
20
11.108948347262181
30
0.19898877156380443
 70
     32
  0
SEQEND
  0
POLYLINE
 8
Group#17
 66
     1
70
    8
 10
0.0
 20
 0.0
 30
0.0
  0
VERTEX
  8
MY3DLAYER
10
-87.37888973679574
20
11.454852277497402
30
0.19898877156380443
 70
     32
  0
VERTEX
  8
MY3DLAYER
10
-87.76728717141614
20
11.108948347262181
30
0.19898877156380443
 70
     32
  0
VERTEX
  8
MY3DLAYER
10
-87.76728717141614
20
11.108948347262181
30
3.1989887715638043
 70
     32
  0
VERTEX
  8
MY3DLAYER
10
-87.37888973679574
20
11.454852277497402
30
3.1989887715638043
 70
     32
  0
VERTEX
  8
MY3DLAYER
10
-87.37888973679574
20
11.454852277497402
30
0.19898877156380443
 70
     32
  0
SEQEND
  0
POLYLINE
 8
Group#17
 66
     1
70
    8
 10
0.0
 20
 0.0
 30
0.0
  0
VERTEX
  8
MY3DLAYER
10
-86.9482597623593
20
11.746502618297468
30
0.19898877156380443
 70
     32
  0
VERTEX
  8
MY3DLAYER
10
-87.37888973679574
20
11.454852277497402
30
0.19898877156380443
 70
     32
  0
VERTEX
  8
MY3DLAYER
10
-87.37888973679574
20
11.454852277497402
30
3.1989887715638043
 70
     32
  0
VERTEX
  8
MY3DLAYER
10
-86.9482597623593
20
11.746502618297468
30
3.1989887715638043
 70
     32
  0
VERTEX
  8
MY3DLAYER
10
-86.9482597623593
20
11.746502618297468
30
0.19898877156380443
 70
     32
  0
SEQEND
  0
POLYLINE
 8
Group#17
 66
     1
70
    8
 10
0.0
 20
 0.0
 30
0.0
  0
VERTEX
  8
MY3DLAYER
10
-86.48292253119607
20
11.97880276350883
30
0.19898877156380443
 70
     32
  0
VERTEX
  8
MY3DLAYER
10
-86.9482597623593
20
11.746502618297468
30
0.19898877156380443
 70
     32
  0
VERTEX
  8
MY3DLAYER
10
-86.9482597623593
20
11.746502618297468
30
3.1989887715638043
 70
     32
  0
VERTEX
  8
MY3DLAYER
10
-86.48292253119607
20
11.97880276350883
30
3.1989887715638043
 70
     32
  0
VERTEX
  8
MY3DLAYER
10
-86.48292253119607
20
11.97880276350883
30
0.19898877156380443
 70
     32
  0
SEQEND
  0
POLYLINE
 8
Group#17
 66
     1
70
    8
 10
0.0
 20
 0.0
 30
0.0
  0
VERTEX
  8
MY3DLAYER
10
-85.99100983766385
20
12.147693254993078
30
0.19898877156380443
 70
     32
  0
VERTEX
  8
MY3DLAYER
10
-86.48292253119607
20
11.97880276350883
30
0.19898877156380443
 70
     32
  0
VERTEX
  8
MY3DLAYER
10
-86.48292253119607
20
11.97880276350883
30
3.1989887715638043
 70
     32
  0
VERTEX
  8
MY3DLAYER
10
-85.99100983766385
20
12.147693254993078
30
3.1989887715638043
 70
     32
  0
VERTEX
  8
MY3DLAYER
10
-85.99100983766385
20
12.147693254993078
30
0.19898877156380443
 70
     32
  0
SEQEND
  0
POLYLINE
 8
Group#17
 66
     1
70
    8
 10
0.0
 20
 0.0
 30
0.0
  0
VERTEX
  8
MY3DLAYER
10
-85.48111788382423
20
12.250222721886727
30
0.19898877156380443
 70
     32
  0
VERTEX
  8
MY3DLAYER
10
-85.99100983766385
20
12.147693254993078
30
0.19898877156380443
 70
     32
  0
VERTEX
  8
MY3DLAYER
10
-85.99100983766385
20
12.147693254993078
30
3.1989887715638043
 70
     32
  0
VERTEX
  8
MY3DLAYER
10
-85.48111788382423
20
12.250222721886727
30
3.1989887715638043
 70
     32
  0
VERTEX
  8
MY3DLAYER
10
-85.48111788382423
20
12.250222721886727
30
0.19898877156380443
 70
     32
  0
SEQEND
  0
POLYLINE
 8
Group#17
 66
     1
70
    8
 10
0.0
 20
 0.0
 30
0.0
  0
VERTEX
  8
MY3DLAYER
10
-84.96215706032652
20
12.284599455973625
30
0.19898877156380443
 70
     32
  0
VERTEX
  8
MY3DLAYER
10
-85.48111788382423
20
12.250222721886727
30
0.19898877156380443
 70
     32
  0
VERTEX
  8
MY3DLAYER
10
-85.48111788382423
20
12.250222721886727
30
3.1989887715638043
 70
     32
  0
VERTEX
  8
MY3DLAYER
10
-84.96215706032652
20
12.284599455973625
30
3.1989887715638043
 70
     32
  0
VERTEX
  8
MY3DLAYER
10
-84.96215706032652
20
12.284599455973625
30
0.19898877156380443
 70
     32
  0
SEQEND
  0
POLYLINE
 8
Group#17
 66
     1
70
    8
 10
0.0
 20
 0.0
 30
0.0
  0
VERTEX
  8
MY3DLAYER
10
-12.82981738867484
20
12.28459945597334
30
0.19898877156380443
 70
     32
  0
VERTEX
  8
MY3DLAYER
10
-84.96215706032652
20
12.284599455973625
30
0.19898877156380443
 70
     32
  0
VERTEX
  8
MY3DLAYER
10
-84.96215706032652
20
12.284599455973625
30
3.1989887715638043
 70
     32
  0
VERTEX
  8
MY3DLAYER
10
-12.82981738867484
20
12.28459945597334
30
3.1989887715638043
 70
     32
  0
VERTEX
  8
MY3DLAYER
10
-12.82981738867484
20
12.28459945597334
30
0.19898877156380443
 70
     32
  0
SEQEND
  0
POLYLINE
 8
Group#17
 66
     1
70
    8
 10
0.0
 20
 0.0
 30
0.0
  0
VERTEX
  8
MY3DLAYER
10
-12.31085656517709
20
12.25022272188653
30
0.19898877156380443
 70
     32
  0
VERTEX
  8
MY3DLAYER
10
-12.82981738867484
20
12.28459945597334
30
0.19898877156380443
 70
     32
  0
VERTEX
  8
MY3DLAYER
10
-12.82981738867484
20
12.28459945597334
30
3.1989887715638043
 70
     32
  0
VERTEX
  8
MY3DLAYER
10
-12.31085656517709
20
12.25022272188653
30
3.1989887715638043
 70
     32
  0
VERTEX
  8
MY3DLAYER
10
-12.31085656517709
20
12.25022272188653
30
0.19898877156380443
 70
     32
  0
SEQEND
  0
POLYLINE
 8
Group#17
 66
     1
70
    8
 10
0.0
 20
 0.0
 30
0.0
  0
VERTEX
  8
MY3DLAYER
10
-11.800964611337502
20
12.14769325499283
30
0.19898877156380443
 70
     32
  0
VERTEX
  8
MY3DLAYER
10
-12.31085656517709
20
12.25022272188653
30
0.19898877156380443
 70
     32
  0
VERTEX
  8
MY3DLAYER
10
-12.31085656517709
20
12.25022272188653
30
3.1989887715638043
 70
     32
  0
VERTEX
  8
MY3DLAYER
10
-11.800964611337502
20
12.14769325499283
30
3.1989887715638043
 70
     32
  0
VERTEX
  8
MY3DLAYER
10
-11.800964611337502
20
12.14769325499283
30
0.19898877156380443
 70
     32
  0
SEQEND
  0
POLYLINE
 8
Group#17
 66
     1
70
    8
 10
0.0
 20
 0.0
 30
0.0
  0
VERTEX
  8
MY3DLAYER
10
-11.309051917805297
20
11.978802763508579
30
0.19898877156380443
 70
     32
  0
VERTEX
  8
MY3DLAYER
10
-11.800964611337502
20
12.14769325499283
30
0.19898877156380443
 70
     32
  0
VERTEX
  8
MY3DLAYER
10
-11.800964611337502
20
12.14769325499283
30
3.1989887715638043
 70
     32
  0
VERTEX
  8
MY3DLAYER
10
-11.309051917805297
20
11.978802763508579
30
3.1989887715638043
 70
     32
  0
VERTEX
  8
MY3DLAYER
10
-11.309051917805297
20
11.978802763508579
30
0.19898877156380443
 70
     32
  0
SEQEND
  0
POLYLINE
 8
Group#17
 66
     1
70
    8
 10
0.0
 20
 0.0
 30
0.0
  0
VERTEX
  8
MY3DLAYER
10
-10.843714686642057
20
11.74650261829717
30
0.19898877156380443
 70
     32
  0
VERTEX
  8
MY3DLAYER
10
-11.309051917805297
20
11.978802763508579
30
0.19898877156380443
 70
     32
  0
VERTEX
  8
MY3DLAYER
10
-11.309051917805297
20
11.978802763508579
30
3.1989887715638043
 70
     32
  0
VERTEX
  8
MY3DLAYER
10
-10.843714686642057
20
11.74650261829717
30
3.1989887715638043
 70
     32
  0
VERTEX
  8
MY3DLAYER
10
-10.843714686642057
20
11.74650261829717
30
0.19898877156380443
 70
     32
  0
SEQEND
  0
POLYLINE
 8
Group#17
 66
     1
70
    8
 10
0.0
 20
 0.0
 30
0.0
  0
VERTEX
  8
MY3DLAYER
10
-10.413084712205642
20
11.454852277497146
30
0.19898877156380443
 70
     32
  0
VERTEX
  8
MY3DLAYER
10
-10.843714686642057
20
11.74650261829717
30
0.19898877156380443
 70
     32
  0
VERTEX
  8
MY3DLAYER
10
-10.843714686642057
20
11.74650261829717
30
3.1989887715638043
 70
     32
  0
VERTEX
  8
MY3DLAYER
10
-10.413084712205642
20
11.454852277497146
30
3.1989887715638043
 70
     32
  0
VERTEX
  8
MY3DLAYER
10
-10.413084712205642
20
11.454852277497146
30
0.19898877156380443
 70
     32
  0
SEQEND
  0
POLYLINE
 8
Group#17
 66
     1
70
    8
 10
0.0
 20
 0.0
 30
0.0
  0
VERTEX
  8
MY3DLAYER
10
-10.024687277585217
20
11.108948347261922
30
0.19898877156380443
 70
     32
  0
VERTEX
  8
MY3DLAYER
10
-10.413084712205642
20
11.454852277497146
30
0.19898877156380443
 70
     32
  0
VERTEX
  8
MY3DLAYER
10
-10.413084712205642
20
11.454852277497146
30
3.1989887715638043
 70
     32
  0
VERTEX
  8
MY3DLAYER
10
-10.024687277585217
20
11.108948347261922
30
3.1989887715638043
 70
     32
  0
VERTEX
  8
MY3DLAYER
10
-10.024687277585217
20
11.108948347261922
30
0.19898877156380443
 70
     32
  0
SEQEND
  0
POLYLINE
 8
Group#17
 66
     1
70
    8
 10
0.0
 20
 0.0
 30
0.0
  0
VERTEX
  8
MY3DLAYER
10
-9.68530964985497
20
10.714835518280049
30
0.19898877156380443
 70
     32
  0
VERTEX
  8
MY3DLAYER
10
-10.024687277585217
20
11.108948347261922
30
0.19898877156380443
 70
     32
  0
VERTEX
  8
MY3DLAYER
10
-10.024687277585217
20
11.108948347261922
30
3.1989887715638043
 70
     32
  0
VERTEX
  8
MY3DLAYER
10
-9.68530964985497
20
10.714835518280049
30
3.1989887715638043
 70
     32
  0
VERTEX
  8
MY3DLAYER
10
-9.68530964985497
20
10.714835518280049
30
0.19898877156380443
 70
     32
  0
SEQEND
  0
POLYLINE
 8
Group#17
 66
     1
70
    8
 10
0.0
 20
 0.0
 30
0.0
  0
VERTEX
  8
MY3DLAYER
10
-9.40088247219916
20
10.279400934464498
30
0.19898877156380443
 70
     32
  0
VERTEX
  8
MY3DLAYER
10
-9.68530964985497
20
10.714835518280049
30
0.19898877156380443
 70
     32
  0
VERTEX
  8
MY3DLAYER
10
-9.68530964985497
20
10.714835518280049
30
3.1989887715638043
 70
     32
  0
VERTEX
  8
MY3DLAYER
10
-9.40088247219916
20
10.279400934464498
30
3.1989887715638043
 70
     32
  0
VERTEX
  8
MY3DLAYER
10
-9.40088247219916
20
10.279400934464498
30
0.19898877156380443
 70
     32
  0
SEQEND
  0
POLYLINE
 8
Group#17
 66
     1
70
    8
 10
0.0
 20
 0.0
 30
0.0
  0
VERTEX
  8
MY3DLAYER
10
-9.176376125587836
20
9.810253839724341
30
0.19898877156380443
 70
     32
  0
VERTEX
  8
MY3DLAYER
10
-9.40088247219916
20
10.279400934464498
30
0.19898877156380443
 70
     32
  0
VERTEX
  8
MY3DLAYER
10
-9.40088247219916
20
10.279400934464498
30
3.1989887715638043
 70
     32
  0
VERTEX
  8
MY3DLAYER
10
-9.176376125587836
20
9.810253839724341
30
3.1989887715638043
 70
     32
  0
VERTEX
  8
MY3DLAYER
10
-9.176376125587836
20
9.810253839724341
30
0.19898877156380443
 70
     32
  0
SEQEND
  0
POLYLINE
 8
Group#17
 66
     1
70
    8
 10
0.0
 20
 0.0
 30
0.0
  0
VERTEX
  8
MY3DLAYER
10
-9.015713871089504
20
9.315592605998258
30
0.19898877156380443
 70
     32
  0
VERTEX
  8
MY3DLAYER
10
-9.176376125587836
20
9.810253839724341
30
0.19898877156380443
 70
     32
  0
VERTEX
  8
MY3DLAYER
10
-9.176376125587836
20
9.810253839724341
30
3.1989887715638043
 70
     32
  0
VERTEX
  8
MY3DLAYER
10
-9.015713871089504
20
9.315592605998258
30
3.1989887715638043
 70
     32
  0
VERTEX
  8
MY3DLAYER
10
-9.015713871089504
20
9.315592605998258
30
0.19898877156380443
 70
     32
  0
SEQEND
  0
POLYLINE
 8
Group#17
 66
     1
70
    8
 10
0.0
 20
 0.0
 30
0.0
  0
VERTEX
  8
MY3DLAYER
10
-8.921703290662137
20
8.804061466242722
30
0.19898877156380443
 70
     32
  0
VERTEX
  8
MY3DLAYER
10
-9.015713871089504
20
9.315592605998258
30
0.19898877156380443
 70
     32
  0
VERTEX
  8
MY3DLAYER
10
-9.015713871089504
20
9.315592605998258
30
3.1989887715638043
 70
     32
  0
VERTEX
  8
MY3DLAYER
10
-8.921703290662137
20
8.804061466242722
30
3.1989887715638043
 70
     32
  0
VERTEX
  8
MY3DLAYER
10
-8.921703290662137
20
8.804061466242722
30
0.19898877156380443
 70
     32
  0
SEQEND
  0
POLYLINE
 8
Group#17
 66
     1
70
    8
 10
0.0
 20
 0.0
 30
0.0
  0
VERTEX
  8
MY3DLAYER
10
-8.89598722450063
20
8.284599455973332
30
0.19898877156380443
 70
     32
  0
VERTEX
  8
MY3DLAYER
10
-8.921703290662137
20
8.804061466242722
30
0.19898877156380443
 70
     32
  0
VERTEX
  8
MY3DLAYER
10
-8.921703290662137
20
8.804061466242722
30
3.1989887715638043
 70
     32
  0
VERTEX
  8
MY3DLAYER
10
-8.89598722450063
20
8.284599455973332
30
3.1989887715638043
 70
     32
  0
VERTEX
  8
MY3DLAYER
10
-8.89598722450063
20
8.284599455973332
30
0.19898877156380443
 70
     32
  0
SEQEND
  0
POLYLINE
 8
Group#17
 66
     1
70
    8
 10
0.0
 20
 0.0
 30
0.0
  0
VERTEX
  8
MY3DLAYER
10
-8.921703290662137
20
7.765137445704035
30
0.19898877156380443
 70
     32
  0
VERTEX
  8
MY3DLAYER
10
-8.89598722450063
20
8.284599455973332
30
0.19898877156380443
 70
     32
  0
VERTEX
  8
MY3DLAYER
10
-8.89598722450063
20
8.284599455973332
30
3.1989887715638043
 70
     32
  0
VERTEX
  8
MY3DLAYER
10
-8.921703290662137
20
7.765137445704035
30
3.1989887715638043
 70
     32
  0
VERTEX
  8
MY3DLAYER
10
-8.921703290662137
20
7.765137445704035
30
0.19898877156380443
 70
     32
  0
SEQEND
  0
POLYLINE
 8
Group#17
 66
     1
70
    8
 10
0.0
 20
 0.0
 30
0.0
  0
VERTEX
  8
MY3DLAYER
10
-9.015713871089494
20
7.2536063059484555
30
0.19898877156380443
 70
     32
  0
VERTEX
  8
MY3DLAYER
10
-8.921703290662137
20
7.765137445704035
30
0.19898877156380443
 70
     32
  0
VERTEX
  8
MY3DLAYER
10
-8.921703290662137
20
7.765137445704035
30
3.1989887715638043
 70
     32
  0
VERTEX
  8
MY3DLAYER
10
-9.015713871089494
20
7.2536063059484555
30
3.1989887715638043
 70
     32
  0
VERTEX
  8
MY3DLAYER
10
-9.015713871089494
20
7.2536063059484555
30
0.19898877156380443
 70
     32
  0
SEQEND
  0
POLYLINE
 8
Group#17
 66
     1
70
    8
 10
0.0
 20
 0.0
 30
0.0
  0
VERTEX
  8
MY3DLAYER
10
-9.176376125587915
20
6.75894507222242
30
0.19898877156380443
 70
     32
  0
VERTEX
  8
MY3DLAYER
10
-9.015713871089494
20
7.2536063059484555
30
0.19898877156380443
 70
     32
  0
VERTEX
  8
MY3DLAYER
10
-9.015713871089494
20
7.2536063059484555
30
3.1989887715638043
 70
     32
  0
VERTEX
  8
MY3DLAYER
10
-9.176376125587915
20
6.75894507222242
30
3.1989887715638043
 70
     32
  0
VERTEX
  8
MY3DLAYER
10
-9.176376125587915
20
6.75894507222242
30
0.19898877156380443
 70
     32
  0
SEQEND
  0
POLYLINE
 8
Group#17
 66
     1
70
    8
 10
0.0
 20
 0.0
 30
0.0
  0
VERTEX
  8
MY3DLAYER
10
-9.400882472199195
20
6.28979797748222
30
0.19898877156380443
 70
     32
  0
VERTEX
  8
MY3DLAYER
10
-9.176376125587915
20
6.75894507222242
30
0.19898877156380443
 70
     32
  0
VERTEX
  8
MY3DLAYER
10
-9.176376125587915
20
6.75894507222242
30
3.1989887715638043
 70
     32
  0
VERTEX
  8
MY3DLAYER
10
-9.400882472199195
20
6.28979797748222
30
3.1989887715638043
 70
     32
  0
VERTEX
  8
MY3DLAYER
10
-9.400882472199195
20
6.28979797748222
30
0.19898877156380443
 70
     32
  0
SEQEND
  0
POLYLINE
 8
Group#17
 66
     1
70
    8
 10
0.0
 20
 0.0
 30
0.0
  0
VERTEX
  8
MY3DLAYER
10
-9.685309649855004
20
5.8543633936666675
30
0.19898877156380443
 70
     32
  0
VERTEX
  8
MY3DLAYER
10
-9.400882472199195
20
6.28979797748222
30
0.19898877156380443
 70
     32
  0
VERTEX
  8
MY3DLAYER
10
-9.400882472199195
20
6.28979797748222
30
3.1989887715638043
 70
     32
  0
VERTEX
  8
MY3DLAYER
10
-9.685309649855004
20
5.8543633936666675
30
3.1989887715638043
 70
     32
  0
VERTEX
  8
MY3DLAYER
10
-9.685309649855004
20
5.8543633936666675
30
0.19898877156380443
 70
     32
  0
SEQEND
  0
POLYLINE
 8
Group#17
 66
     1
70
    8
 10
0.0
 20
 0.0
 30
0.0
  0
VERTEX
  8
MY3DLAYER
10
-10.02468727758524
20
5.460250564684797
30
0.19898877156380443
 70
     32
  0
VERTEX
  8
MY3DLAYER
10
-9.685309649855004
20
5.8543633936666675
30
0.19898877156380443
 70
     32
  0
VERTEX
  8
MY3DLAYER
10
-9.685309649855004
20
5.8543633936666675
30
3.1989887715638043
 70
     32
  0
VERTEX
  8
MY3DLAYER
10
-10.02468727758524
20
5.460250564684797
30
3.1989887715638043
 70
     32
  0
VERTEX
  8
MY3DLAYER
10
-10.02468727758524
20
5.460250564684797
30
0.19898877156380443
 70
     32
  0
SEQEND
  0
POLYLINE
 8
Group#17
 66
     1
70
    8
 10
0.0
 20
 0.0
 30
0.0
  0
VERTEX
  8
MY3DLAYER
10
-10.413084712205665
20
5.114346634449622
30
0.19898877156380443
 70
     32
  0
VERTEX
  8
MY3DLAYER
10
-10.02468727758524
20
5.460250564684797
30
0.19898877156380443
 70
     32
  0
VERTEX
  8
MY3DLAYER
10
-10.02468727758524
20
5.460250564684797
30
3.1989887715638043
 70
     32
  0
VERTEX
  8
MY3DLAYER
10
-10.413084712205665
20
5.114346634449622
30
3.1989887715638043
 70
     32
  0
VERTEX
  8
MY3DLAYER
10
-10.413084712205665
20
5.114346634449622
30
0.19898877156380443
 70
     32
  0
SEQEND
  0
POLYLINE
 8
Group#17
 66
     1
70
    8
 10
0.0
 20
 0.0
 30
0.0
  0
VERTEX
  8
MY3DLAYER
10
-10.84371468664208
20
4.8226962936495115
30
0.19898877156380443
 70
     32
  0
VERTEX
  8
MY3DLAYER
10
-10.413084712205665
20
5.114346634449622
30
0.19898877156380443
 70
     32
  0
VERTEX
  8
MY3DLAYER
10
-10.413084712205665
20
5.114346634449622
30
3.1989887715638043
 70
     32
  0
VERTEX
  8
MY3DLAYER
10
-10.84371468664208
20
4.8226962936495115
30
3.1989887715638043
 70
     32
  0
VERTEX
  8
MY3DLAYER
10
-10.84371468664208
20
4.8226962936495115
30
0.19898877156380443
 70
     32
  0
SEQEND
  0
POLYLINE
 8
Group#17
 66
     1
70
    8
 10
0.0
 20
 0.0
 30
0.0
  0
VERTEX
  8
MY3DLAYER
10
-11.309051917805318
20
4.590396148438193
30
0.19898877156380443
 70
     32
  0
VERTEX
  8
MY3DLAYER
10
-10.84371468664208
20
4.8226962936495115
30
0.19898877156380443
 70
     32
  0
VERTEX
  8
MY3DLAYER
10
-10.84371468664208
20
4.8226962936495115
30
3.1989887715638043
 70
     32
  0
VERTEX
  8
MY3DLAYER
10
-11.309051917805318
20
4.590396148438193
30
3.1989887715638043
 70
     32
  0
VERTEX
  8
MY3DLAYER
10
-11.309051917805318
20
4.590396148438193
30
0.19898877156380443
 70
     32
  0
SEQEND
  0
POLYLINE
 8
Group#17
 66
     1
70
    8
 10
0.0
 20
 0.0
 30
0.0
  0
VERTEX
  8
MY3DLAYER
10
-11.800964611337525
20
4.421505656953903
30
0.19898877156380443
 70
     32
  0
VERTEX
  8
MY3DLAYER
10
-11.309051917805318
20
4.590396148438193
30
0.19898877156380443
 70
     32
  0
VERTEX
  8
MY3DLAYER
10
-11.309051917805318
20
4.590396148438193
30
3.1989887715638043
 70
     32
  0
VERTEX
  8
MY3DLAYER
10
-11.800964611337525
20
4.421505656953903
30
3.1989887715638043
 70
     32
  0
VERTEX
  8
MY3DLAYER
10
-11.800964611337525
20
4.421505656953903
30
0.19898877156380443
 70
     32
  0
SEQEND
  0
POLYLINE
 8
Group#17
 66
     1
70
    8
 10
0.0
 20
 0.0
 30
0.0
  0
VERTEX
  8
MY3DLAYER
10
-12.310856565177158
20
4.318976190060252
30
0.19898877156380443
 70
     32
  0
VERTEX
  8
MY3DLAYER
10
-11.800964611337525
20
4.421505656953903
30
0.19898877156380443
 70
     32
  0
VERTEX
  8
MY3DLAYER
10
-11.800964611337525
20
4.421505656953903
30
3.1989887715638043
 70
     32
  0
VERTEX
  8
MY3DLAYER
10
-12.310856565177158
20
4.318976190060252
30
3.1989887715638043
 70
     32
  0
VERTEX
  8
MY3DLAYER
10
-12.310856565177158
20
4.318976190060252
30
0.19898877156380443
 70
     32
  0
SEQEND
  0
POLYLINE
 8
Group#17
 66
     1
70
    8
 10
0.0
 20
 0.0
 30
0.0
  0
VERTEX
  8
MY3DLAYER
10
-47.3970570436512
20
8.341241427502245
30
0.19898877156380443
 70
     32
  0
VERTEX
  8
MY3DLAYER
10
-47.43347183003025
20
7.951359721042221
30
0.19898877156380443
 70
     32
  0
VERTEX
  8
MY3DLAYER
10
-47.43347183003025
20
7.951359721042221
30
3.1989887715638043
 70
     32
  0
VERTEX
  8
MY3DLAYER
10
-47.3970570436512
20
8.341241427502245
30
3.1989887715638043
 70
     32
  0
VERTEX
  8
MY3DLAYER
10
-47.3970570436512
20
8.341241427502245
30
0.19898877156380443
 70
     32
  0
SEQEND
  0
POLYLINE
 8
Group#17
 66
     1
70
    8
 10
0.0
 20
 0.0
 30
0.0
  0
VERTEX
  8
MY3DLAYER
10
-47.43347183003025
20
7.951359721042221
30
0.19898877156380443
 70
     32
  0
VERTEX
  8
MY3DLAYER
10
-47.569554623621464
20
7.584187751813107
30
0.19898877156380443
 70
     32
  0
VERTEX
  8
MY3DLAYER
10
-47.569554623621464
20
7.584187751813107
30
3.1989887715638043
 70
     32
  0
VERTEX
  8
MY3DLAYER
10
-47.43347183003025
20
7.951359721042221
30
3.1989887715638043
 70
     32
  0
VERTEX
  8
MY3DLAYER
10
-47.43347183003025
20
7.951359721042221
30
0.19898877156380443
 70
     32
  0
SEQEND
  0
POLYLINE
 8
Group#17
 66
     1
70
    8
 10
0.0
 20
 0.0
 30
0.0
  0
VERTEX
  8
MY3DLAYER
10
-47.569554623621464
20
7.584187751813107
30
0.19898877156380443
 70
     32
  0
VERTEX
  8
MY3DLAYER
10
-47.796031606929105
20
7.264747682737452
30
0.19898877156380443
 70
     32
  0
VERTEX
  8
MY3DLAYER
10
-47.796031606929105
20
7.264747682737452
30
3.1989887715638043
 70
     32
  0
VERTEX
  8
MY3DLAYER
10
-47.569554623621464
20
7.584187751813107
30
3.1989887715638043
 70
     32
  0
VERTEX
  8
MY3DLAYER
10
-47.569554623621464
20
7.584187751813107
30
0.19898877156380443
 70
     32
  0
SEQEND
  0
POLYLINE
 8
Group#17
 66
     1
70
    8
 10
0.0
 20
 0.0
 30
0.0
  0
VERTEX
  8
MY3DLAYER
10
-47.796031606929105
20
7.264747682737452
30
0.19898877156380443
 70
     32
  0
VERTEX
  8
MY3DLAYER
10
-48.09746874781161
20
7.01480882662305
30
0.19898877156380443
 70
     32
  0
VERTEX
  8
MY3DLAYER
10
-48.09746874781161
20
7.01480882662305
30
3.1989887715638043
 70
     32
  0
VERTEX
  8
MY3DLAYER
10
-47.796031606929105
20
7.264747682737452
30
3.1989887715638043
 70
     32
  0
VERTEX
  8
MY3DLAYER
10
-47.796031606929105
20
7.264747682737452
30
0.19898877156380443
 70
     32
  0
SEQEND
  0
POLYLINE
 8
Group#17
 66
     1
70
    8
 10
0.0
 20
 0.0
 30
0.0
  0
VERTEX
  8
MY3DLAYER
10
-48.09746874781161
20
7.01480882662305
30
0.19898877156380443
 70
     32
  0
VERTEX
  8
MY3DLAYER
10
-48.45332360326633
20
6.8514041034706405
30
0.19898877156380443
 70
     32
  0
VERTEX
  8
MY3DLAYER
10
-48.45332360326633
20
6.8514041034706405
30
3.1989887715638043
 70
     32
  0
VERTEX
  8
MY3DLAYER
10
-48.09746874781161
20
7.01480882662305
30
3.1989887715638043
 70
     32
  0
VERTEX
  8
MY3DLAYER
10
-48.09746874781161
20
7.01480882662305
30
0.19898877156380443
 70
     32
  0
SEQEND
  0
POLYLINE
 8
Group#17
 66
     1
70
    8
 10
0.0
 20
 0.0
 30
0.0
  0
VERTEX
  8
MY3DLAYER
10
-48.45332360326633
20
6.8514041034706405
30
0.19898877156380443
 70
     32
  0
VERTEX
  8
MY3DLAYER
10
-48.839345252971924
20
6.785669275124057
30
0.19898877156380443
 70
     32
  0
VERTEX
  8
MY3DLAYER
10
-48.839345252971924
20
6.785669275124057
30
3.1989887715638043
 70
     32
  0
VERTEX
  8
MY3DLAYER
10
-48.45332360326633
20
6.8514041034706405
30
3.1989887715638043
 70
     32
  0
VERTEX
  8
MY3DLAYER
10
-48.45332360326633
20
6.8514041034706405
30
0.19898877156380443
 70
     32
  0
SEQEND
  0
POLYLINE
 8
Group#17
 66
     1
70
    8
 10
0.0
 20
 0.0
 30
0.0
  0
VERTEX
  8
MY3DLAYER
10
-48.839345252971924
20
6.785669275124057
30
0.19898877156380443
 70
     32
  0
VERTEX
  8
MY3DLAYER
10
-49.22922695943193
20
6.822084061503078
30
0.19898877156380443
 70
     32
  0
VERTEX
  8
MY3DLAYER
10
-49.22922695943193
20
6.822084061503078
30
3.1989887715638043
 70
     32
  0
VERTEX
  8
MY3DLAYER
10
-48.839345252971924
20
6.785669275124057
30
3.1989887715638043
 70
     32
  0
VERTEX
  8
MY3DLAYER
10
-48.839345252971924
20
6.785669275124057
30
0.19898877156380443
 70
     32
  0
SEQEND
  0
POLYLINE
 8
Group#17
 66
     1
70
    8
 10
0.0
 20
 0.0
 30
0.0
  0
VERTEX
  8
MY3DLAYER
10
-49.22922695943193
20
6.822084061503078
30
0.19898877156380443
 70
     32
  0
VERTEX
  8
MY3DLAYER
10
-49.59639892866104
20
6.9581668550943165
30
0.19898877156380443
 70
     32
  0
VERTEX
  8
MY3DLAYER
10
-49.59639892866104
20
6.9581668550943165
30
3.1989887715638043
 70
     32
  0
VERTEX
  8
MY3DLAYER
10
-49.22922695943193
20
6.822084061503078
30
3.1989887715638043
 70
     32
  0
VERTEX
  8
MY3DLAYER
10
-49.22922695943193
20
6.822084061503078
30
0.19898877156380443
 70
     32
  0
SEQEND
  0
POLYLINE
 8
Group#17
 66
     1
70
    8
 10
0.0
 20
 0.0
 30
0.0
  0
VERTEX
  8
MY3DLAYER
10
-49.59639892866104
20
6.9581668550943165
30
0.19898877156380443
 70
     32
  0
VERTEX
  8
MY3DLAYER
10
-49.91583899773672
20
7.184643838401933
30
0.19898877156380443
 70
     32
  0
VERTEX
  8
MY3DLAYER
10
-49.91583899773672
20
7.184643838401933
30
3.1989887715638043
 70
     32
  0
VERTEX
  8
MY3DLAYER
10
-49.59639892866104
20
6.9581668550943165
30
3.1989887715638043
 70
     32
  0
VERTEX
  8
MY3DLAYER
10
-49.59639892866104
20
6.9581668550943165
30
0.19898877156380443
 70
     32
  0
SEQEND
  0
POLYLINE
 8
Group#17
 66
     1
70
    8
 10
0.0
 20
 0.0
 30
0.0
  0
VERTEX
  8
MY3DLAYER
10
-49.91583899773672
20
7.184643838401933
30
0.19898877156380443
 70
     32
  0
VERTEX
  8
MY3DLAYER
10
-50.165777853851104
20
7.486080979284463
30
0.19898877156380443
 70
     32
  0
VERTEX
  8
MY3DLAYER
10
-50.165777853851104
20
7.486080979284463
30
3.1989887715638043
 70
     32
  0
VERTEX
  8
MY3DLAYER
10
-49.91583899773672
20
7.184643838401933
30
3.1989887715638043
 70
     32
  0
VERTEX
  8
MY3DLAYER
10
-49.91583899773672
20
7.184643838401933
30
0.19898877156380443
 70
     32
  0
SEQEND
  0
POLYLINE
 8
Group#17
 66
     1
70
    8
 10
0.0
 20
 0.0
 30
0.0
  0
VERTEX
  8
MY3DLAYER
10
-50.165777853851104
20
7.486080979284463
30
0.19898877156380443
 70
     32
  0
VERTEX
  8
MY3DLAYER
10
-50.329182577003465
20
7.841935834739181
30
0.19898877156380443
 70
     32
  0
VERTEX
  8
MY3DLAYER
10
-50.329182577003465
20
7.841935834739181
30
3.1989887715638043
 70
     32
  0
VERTEX
  8
MY3DLAYER
10
-50.165777853851104
20
7.486080979284463
30
3.1989887715638043
 70
     32
  0
VERTEX
  8
MY3DLAYER
10
-50.165777853851104
20
7.486080979284463
30
0.19898877156380443
 70
     32
  0
SEQEND
  0
POLYLINE
 8
Group#17
 66
     1
70
    8
 10
0.0
 20
 0.0
 30
0.0
  0
VERTEX
  8
MY3DLAYER
10
-50.329182577003465
20
7.841935834739181
30
0.19898877156380443
 70
     32
  0
VERTEX
  8
MY3DLAYER
10
-50.394917405350064
20
8.22795748444478
30
0.19898877156380443
 70
     32
  0
VERTEX
  8
MY3DLAYER
10
-50.394917405350064
20
8.22795748444478
30
3.1989887715638043
 70
     32
  0
VERTEX
  8
MY3DLAYER
10
-50.329182577003465
20
7.841935834739181
30
3.1989887715638043
 70
     32
  0
VERTEX
  8
MY3DLAYER
10
-50.329182577003465
20
7.841935834739181
30
0.19898877156380443
 70
     32
  0
SEQEND
  0
POLYLINE
 8
Group#17
 66
     1
70
    8
 10
0.0
 20
 0.0
 30
0.0
  0
VERTEX
  8
MY3DLAYER
10
-50.394917405350064
20
8.22795748444478
30
0.19898877156380443
 70
     32
  0
VERTEX
  8
MY3DLAYER
10
-50.35850261897104
20
8.617839190904759
30
0.19898877156380443
 70
     32
  0
VERTEX
  8
MY3DLAYER
10
-50.35850261897104
20
8.617839190904759
30
3.1989887715638043
 70
     32
  0
VERTEX
  8
MY3DLAYER
10
-50.394917405350064
20
8.22795748444478
30
3.1989887715638043
 70
     32
  0
VERTEX
  8
MY3DLAYER
10
-50.394917405350064
20
8.22795748444478
30
0.19898877156380443
 70
     32
  0
SEQEND
  0
POLYLINE
 8
Group#17
 66
     1
70
    8
 10
0.0
 20
 0.0
 30
0.0
  0
VERTEX
  8
MY3DLAYER
10
-50.35850261897104
20
8.617839190904759
30
0.19898877156380443
 70
     32
  0
VERTEX
  8
MY3DLAYER
10
-50.22241982537981
20
8.985011160133872
30
0.19898877156380443
 70
     32
  0
VERTEX
  8
MY3DLAYER
10
-50.22241982537981
20
8.985011160133872
30
3.1989887715638043
 70
     32
  0
VERTEX
  8
MY3DLAYER
10
-50.35850261897104
20
8.617839190904759
30
3.1989887715638043
 70
     32
  0
VERTEX
  8
MY3DLAYER
10
-50.35850261897104
20
8.617839190904759
30
0.19898877156380443
 70
     32
  0
SEQEND
  0
POLYLINE
 8
Group#17
 66
     1
70
    8
 10
0.0
 20
 0.0
 30
0.0
  0
VERTEX
  8
MY3DLAYER
10
-50.22241982537981
20
8.985011160133872
30
0.19898877156380443
 70
     32
  0
VERTEX
  8
MY3DLAYER
10
-49.995942842072196
20
9.30445122920957
30
0.19898877156380443
 70
     32
  0
VERTEX
  8
MY3DLAYER
10
-49.995942842072196
20
9.30445122920957
30
3.1989887715638043
 70
     32
  0
VERTEX
  8
MY3DLAYER
10
-50.22241982537981
20
8.985011160133872
30
3.1989887715638043
 70
     32
  0
VERTEX
  8
MY3DLAYER
10
-50.22241982537981
20
8.985011160133872
30
0.19898877156380443
 70
     32
  0
SEQEND
  0
POLYLINE
 8
Group#17
 66
     1
70
    8
 10
0.0
 20
 0.0
 30
0.0
  0
VERTEX
  8
MY3DLAYER
10
-49.995942842072196
20
9.30445122920957
30
0.19898877156380443
 70
     32
  0
VERTEX
  8
MY3DLAYER
10
-49.69450570118968
20
9.55439008532393
30
0.19898877156380443
 70
     32
  0
VERTEX
  8
MY3DLAYER
10
-49.69450570118968
20
9.55439008532393
30
3.1989887715638043
 70
     32
  0
VERTEX
  8
MY3DLAYER
10
-49.995942842072196
20
9.30445122920957
30
3.1989887715638043
 70
     32
  0
VERTEX
  8
MY3DLAYER
10
-49.995942842072196
20
9.30445122920957
30
0.19898877156380443
 70
     32
  0
SEQEND
  0
POLYLINE
 8
Group#17
 66
     1
70
    8
 10
0.0
 20
 0.0
 30
0.0
  0
VERTEX
  8
MY3DLAYER
10
-49.69450570118968
20
9.55439008532393
30
0.19898877156380443
 70
     32
  0
VERTEX
  8
MY3DLAYER
10
-49.33865084573497
20
9.717794808476294
30
0.19898877156380443
 70
     32
  0
VERTEX
  8
MY3DLAYER
10
-49.33865084573497
20
9.717794808476294
30
3.1989887715638043
 70
     32
  0
VERTEX
  8
MY3DLAYER
10
-49.69450570118968
20
9.55439008532393
30
3.1989887715638043
 70
     32
  0
VERTEX
  8
MY3DLAYER
10
-49.69450570118968
20
9.55439008532393
30
0.19898877156380443
 70
     32
  0
SEQEND
  0
POLYLINE
 8
Group#17
 66
     1
70
    8
 10
0.0
 20
 0.0
 30
0.0
  0
VERTEX
  8
MY3DLAYER
10
-49.33865084573497
20
9.717794808476294
30
0.19898877156380443
 70
     32
  0
VERTEX
  8
MY3DLAYER
10
-48.952629196029356
20
9.783529636822923
30
0.19898877156380443
 70
     32
  0
VERTEX
  8
MY3DLAYER
10
-48.952629196029356
20
9.783529636822923
30
3.1989887715638043
 70
     32
  0
VERTEX
  8
MY3DLAYER
10
-49.33865084573497
20
9.717794808476294
30
3.1989887715638043
 70
     32
  0
VERTEX
  8
MY3DLAYER
10
-49.33865084573497
20
9.717794808476294
30
0.19898877156380443
 70
     32
  0
SEQEND
  0
POLYLINE
 8
Group#17
 66
     1
70
    8
 10
0.0
 20
 0.0
 30
0.0
  0
VERTEX
  8
MY3DLAYER
10
-48.952629196029356
20
9.783529636822923
30
0.19898877156380443
 70
     32
  0
VERTEX
  8
MY3DLAYER
10
-48.56274748956937
20
9.747114850443856
30
0.19898877156380443
 70
     32
  0
VERTEX
  8
MY3DLAYER
10
-48.56274748956937
20
9.747114850443856
30
3.1989887715638043
 70
     32
  0
VERTEX
  8
MY3DLAYER
10
-48.952629196029356
20
9.783529636822923
30
3.1989887715638043
 70
     32
  0
VERTEX
  8
MY3DLAYER
10
-48.952629196029356
20
9.783529636822923
30
0.19898877156380443
 70
     32
  0
SEQEND
  0
POLYLINE
 8
Group#17
 66
     1
70
    8
 10
0.0
 20
 0.0
 30
0.0
  0
VERTEX
  8
MY3DLAYER
10
-48.56274748956937
20
9.747114850443856
30
0.19898877156380443
 70
     32
  0
VERTEX
  8
MY3DLAYER
10
-48.19557552034024
20
9.611032056852663
30
0.19898877156380443
 70
     32
  0
VERTEX
  8
MY3DLAYER
10
-48.19557552034024
20
9.611032056852663
30
3.1989887715638043
 70
     32
  0
VERTEX
  8
MY3DLAYER
10
-48.56274748956937
20
9.747114850443856
30
3.1989887715638043
 70
     32
  0
VERTEX
  8
MY3DLAYER
10
-48.56274748956937
20
9.747114850443856
30
0.19898877156380443
 70
     32
  0
SEQEND
  0
POLYLINE
 8
Group#17
 66
     1
70
    8
 10
0.0
 20
 0.0
 30
0.0
  0
VERTEX
  8
MY3DLAYER
10
-48.19557552034024
20
9.611032056852663
30
0.19898877156380443
 70
     32
  0
VERTEX
  8
MY3DLAYER
10
-47.87613545126457
20
9.384555073545046
30
0.19898877156380443
 70
     32
  0
VERTEX
  8
MY3DLAYER
10
-47.87613545126457
20
9.384555073545046
30
3.1989887715638043
 70
     32
  0
VERTEX
  8
MY3DLAYER
10
-48.19557552034024
20
9.611032056852663
30
3.1989887715638043
 70
     32
  0
VERTEX
  8
MY3DLAYER
10
-48.19557552034024
20
9.611032056852663
30
0.19898877156380443
 70
     32
  0
SEQEND
  0
POLYLINE
 8
Group#17
 66
     1
70
    8
 10
0.0
 20
 0.0
 30
0.0
  0
VERTEX
  8
MY3DLAYER
10
-47.87613545126457
20
9.384555073545046
30
0.19898877156380443
 70
     32
  0
VERTEX
  8
MY3DLAYER
10
-47.626196595150184
20
9.083117932662562
30
0.19898877156380443
 70
     32
  0
VERTEX
  8
MY3DLAYER
10
-47.626196595150184
20
9.083117932662562
30
3.1989887715638043
 70
     32
  0
VERTEX
  8
MY3DLAYER
10
-47.87613545126457
20
9.384555073545046
30
3.1989887715638043
 70
     32
  0
VERTEX
  8
MY3DLAYER
10
-47.87613545126457
20
9.384555073545046
30
0.19898877156380443
 70
     32
  0
SEQEND
  0
POLYLINE
 8
Group#17
 66
     1
70
    8
 10
0.0
 20
 0.0
 30
0.0
  0
VERTEX
  8
MY3DLAYER
10
-47.626196595150184
20
9.083117932662562
30
0.19898877156380443
 70
     32
  0
VERTEX
  8
MY3DLAYER
10
-47.46279187199781
20
8.727263077207843
30
0.19898877156380443
 70
     32
  0
VERTEX
  8
MY3DLAYER
10
-47.46279187199781
20
8.727263077207843
30
3.1989887715638043
 70
     32
  0
VERTEX
  8
MY3DLAYER
10
-47.626196595150184
20
9.083117932662562
30
3.1989887715638043
 70
     32
  0
VERTEX
  8
MY3DLAYER
10
-47.626196595150184
20
9.083117932662562
30
0.19898877156380443
 70
     32
  0
SEQEND
  0
POLYLINE
 8
Group#17
 66
     1
70
    8
 10
0.0
 20
 0.0
 30
0.0
  0
VERTEX
  8
MY3DLAYER
10
-47.46279187199781
20
8.727263077207843
30
0.19898877156380443
 70
     32
  0
VERTEX
  8
MY3DLAYER
10
-47.3970570436512
20
8.341241427502245
30
0.19898877156380443
 70
     32
  0
VERTEX
  8
MY3DLAYER
10
-47.3970570436512
20
8.341241427502245
30
3.1989887715638043
 70
     32
  0
VERTEX
  8
MY3DLAYER
10
-47.46279187199781
20
8.727263077207843
30
3.1989887715638043
 70
     32
  0
VERTEX
  8
MY3DLAYER
10
-47.46279187199781
20
8.727263077207843
30
0.19898877156380443
 70
     32
  0
SEQEND
  0
POLYLINE
 8
Group#17
 66
     1
70
    8
 10
0.0
 20
 0.0
 30
0.0
  0
VERTEX
  8
MY3DLAYER
10
-11.034045839698388
20
8.763478051618161
30
3.1758277715637835
 70
     32
  0
VERTEX
  8
MY3DLAYER
10
-11.2281601235253
20
9.099693853681162
30
3.1758277715637835
 70
     32
  0
VERTEX
  8
MY3DLAYER
10
-11.2281601235253
20
9.099693853681162
30
0.17582777156378332
 70
     32
  0
VERTEX
  8
MY3DLAYER
10
-11.034045839698388
20
8.763478051618161
30
0.17582777156378332
 70
     32
  0
VERTEX
  8
MY3DLAYER
10
-11.034045839698388
20
8.763478051618161
30
3.1758277715637835
 70
     32
  0
SEQEND
  0
POLYLINE
 8
Group#17
 66
     1
70
    8
 10
0.0
 20
 0.0
 30
0.0
  0
VERTEX
  8
MY3DLAYER
10
-11.2281601235253
20
9.099693853681162
30
3.1758277715637835
 70
     32
  0
VERTEX
  8
MY3DLAYER
10
-11.502679176363632
20
9.374212906519496
30
3.1758277715637835
 70
     32
  0
VERTEX
  8
MY3DLAYER
10
-11.502679176363632
20
9.374212906519496
30
0.17582777156378332
 70
     32
  0
VERTEX
  8
MY3DLAYER
10
-11.2281601235253
20
9.099693853681162
30
0.17582777156378332
 70
     32
  0
VERTEX
  8
MY3DLAYER
10
-11.2281601235253
20
9.099693853681162
30
3.1758277715637835
 70
     32
  0
SEQEND
  0
POLYLINE
 8
Group#17
 66
     1
70
    8
 10
0.0
 20
 0.0
 30
0.0
  0
VERTEX
  8
MY3DLAYER
10
-11.502679176363632
20
9.374212906519496
30
3.1758277715637835
 70
     32
  0
VERTEX
  8
MY3DLAYER
10
-11.838894978426653
20
9.568327190346396
30
3.1758277715637835
 70
     32
  0
VERTEX
  8
MY3DLAYER
10
-11.838894978426653
20
9.568327190346396
30
0.17582777156378332
 70
     32
  0
VERTEX
  8
MY3DLAYER
10
-11.502679176363632
20
9.374212906519496
30
0.17582777156378332
 70
     32
  0
VERTEX
  8
MY3DLAYER
10
-11.502679176363632
20
9.374212906519496
30
3.1758277715637835
 70
     32
  0
SEQEND
  0
POLYLINE
 8
Group#17
 66
     1
70
    8
 10
0.0
 20
 0.0
 30
0.0
  0
VERTEX
  8
MY3DLAYER
10
-11.838894978426653
20
9.568327190346396
30
3.1758277715637835
 70
     32
  0
VERTEX
  8
MY3DLAYER
10
-12.213894978426659
20
9.668808137508071
30
3.1758277715637835
 70
     32
  0
VERTEX
  8
MY3DLAYER
10
-12.213894978426659
20
9.668808137508071
30
0.17582777156378332
 70
     32
  0
VERTEX
  8
MY3DLAYER
10
-11.838894978426653
20
9.568327190346396
30
0.17582777156378332
 70
     32
  0
VERTEX
  8
MY3DLAYER
10
-11.838894978426653
20
9.568327190346396
30
3.1758277715637835
 70
     32
  0
SEQEND
  0
POLYLINE
 8
Group#17
 66
     1
70
    8
 10
0.0
 20
 0.0
 30
0.0
  0
VERTEX
  8
MY3DLAYER
10
-12.213894978426659
20
9.668808137508071
30
3.1758277715637835
 70
     32
  0
VERTEX
  8
MY3DLAYER
10
-12.602123546080437
20
9.668808137508073
30
3.1758277715637835
 70
     32
  0
VERTEX
  8
MY3DLAYER
10
-12.602123546080437
20
9.668808137508073
30
0.17582777156378332
 70
     32
  0
VERTEX
  8
MY3DLAYER
10
-12.213894978426659
20
9.668808137508071
30
0.17582777156378332
 70
     32
  0
VERTEX
  8
MY3DLAYER
10
-12.213894978426659
20
9.668808137508071
30
3.1758277715637835
 70
     32
  0
SEQEND
  0
POLYLINE
 8
Group#17
 66
     1
70
    8
 10
0.0
 20
 0.0
 30
0.0
  0
VERTEX
  8
MY3DLAYER
10
-12.602123546080437
20
9.668808137508073
30
3.1758277715637835
 70
     32
  0
VERTEX
  8
MY3DLAYER
10
-12.977123546080419
20
9.5683271903464
30
3.1758277715637835
 70
     32
  0
VERTEX
  8
MY3DLAYER
10
-12.977123546080419
20
9.5683271903464
30
0.17582777156378332
 70
     32
  0
VERTEX
  8
MY3DLAYER
10
-12.602123546080437
20
9.668808137508073
30
0.17582777156378332
 70
     32
  0
VERTEX
  8
MY3DLAYER
10
-12.602123546080437
20
9.668808137508073
30
3.1758277715637835
 70
     32
  0
SEQEND
  0
POLYLINE
 8
Group#17
 66
     1
70
    8
 10
0.0
 20
 0.0
 30
0.0
  0
VERTEX
  8
MY3DLAYER
10
-12.977123546080419
20
9.5683271903464
30
3.1758277715637835
 70
     32
  0
VERTEX
  8
MY3DLAYER
10
-13.313339348143442
20
9.374212906519501
30
3.1758277715637835
 70
     32
  0
VERTEX
  8
MY3DLAYER
10
-13.313339348143442
20
9.374212906519501
30
0.17582777156378332
 70
     32
  0
VERTEX
  8
MY3DLAYER
10
-12.977123546080419
20
9.5683271903464
30
0.17582777156378332
 70
     32
  0
VERTEX
  8
MY3DLAYER
10
-12.977123546080419
20
9.5683271903464
30
3.1758277715637835
 70
     32
  0
SEQEND
  0
POLYLINE
 8
Group#17
 66
     1
70
    8
 10
0.0
 20
 0.0
 30
0.0
  0
VERTEX
  8
MY3DLAYER
10
-13.313339348143442
20
9.374212906519501
30
3.1758277715637835
 70
     32
  0
VERTEX
  8
MY3DLAYER
10
-13.587858400981775
20
9.09969385368117
30
3.1758277715637835
 70
     32
  0
VERTEX
  8
MY3DLAYER
10
-13.587858400981775
20
9.09969385368117
30
0.17582777156378332
 70
     32
  0
VERTEX
  8
MY3DLAYER
10
-13.313339348143442
20
9.374212906519501
30
0.17582777156378332
 70
     32
  0
VERTEX
  8
MY3DLAYER
10
-13.313339348143442
20
9.374212906519501
30
3.1758277715637835
 70
     32
  0
SEQEND
  0
POLYLINE
 8
Group#17
 66
     1
70
    8
 10
0.0
 20
 0.0
 30
0.0
  0
VERTEX
  8
MY3DLAYER
10
-13.587858400981775
20
9.09969385368117
30
3.1758277715637835
 70
     32
  0
VERTEX
  8
MY3DLAYER
10
-13.781972684808641
20
8.76347805161817
30
3.1758277715637835
 70
     32
  0
VERTEX
  8
MY3DLAYER
10
-13.781972684808641
20
8.76347805161817
30
0.17582777156378332
 70
     32
  0
VERTEX
  8
MY3DLAYER
10
-13.587858400981775
20
9.09969385368117
30
0.17582777156378332
 70
     32
  0
VERTEX
  8
MY3DLAYER
10
-13.587858400981775
20
9.09969385368117
30
3.1758277715637835
 70
     32
  0
SEQEND
  0
POLYLINE
 8
Group#17
 66
     1
70
    8
 10
0.0
 20
 0.0
 30
0.0
  0
VERTEX
  8
MY3DLAYER
10
-13.781972684808641
20
8.76347805161817
30
3.1758277715637835
 70
     32
  0
VERTEX
  8
MY3DLAYER
10
-13.882453631970314
20
8.388478051618165
30
3.1758277715637835
 70
     32
  0
VERTEX
  8
MY3DLAYER
10
-13.882453631970314
20
8.388478051618165
30
0.17582777156378332
 70
     32
  0
VERTEX
  8
MY3DLAYER
10
-13.781972684808641
20
8.76347805161817
30
0.17582777156378332
 70
     32
  0
VERTEX
  8
MY3DLAYER
10
-13.781972684808641
20
8.76347805161817
30
3.1758277715637835
 70
     32
  0
SEQEND
  0
POLYLINE
 8
Group#17
 66
     1
70
    8
 10
0.0
 20
 0.0
 30
0.0
  0
VERTEX
  8
MY3DLAYER
10
-13.882453631970314
20
8.388478051618165
30
3.1758277715637835
 70
     32
  0
VERTEX
  8
MY3DLAYER
10
-13.882453631970314
20
8.000249483964364
30
3.1758277715637835
 70
     32
  0
VERTEX
  8
MY3DLAYER
10
-13.882453631970314
20
8.000249483964364
30
0.17582777156378332
 70
     32
  0
VERTEX
  8
MY3DLAYER
10
-13.882453631970314
20
8.388478051618165
30
0.17582777156378332
 70
     32
  0
VERTEX
  8
MY3DLAYER
10
-13.882453631970314
20
8.388478051618165
30
3.1758277715637835
 70
     32
  0
SEQEND
  0
POLYLINE
 8
Group#17
 66
     1
70
    8
 10
0.0
 20
 0.0
 30
0.0
  0
VERTEX
  8
MY3DLAYER
10
-13.882453631970314
20
8.000249483964364
30
3.1758277715637835
 70
     32
  0
VERTEX
  8
MY3DLAYER
10
-13.781972684808641
20
7.625249483964405
30
3.1758277715637835
 70
     32
  0
VERTEX
  8
MY3DLAYER
10
-13.781972684808641
20
7.625249483964405
30
0.17582777156378332
 70
     32
  0
VERTEX
  8
MY3DLAYER
10
-13.882453631970314
20
8.000249483964364
30
0.17582777156378332
 70
     32
  0
VERTEX
  8
MY3DLAYER
10
-13.882453631970314
20
8.000249483964364
30
3.1758277715637835
 70
     32
  0
SEQEND
  0
POLYLINE
 8
Group#17
 66
     1
70
    8
 10
0.0
 20
 0.0
 30
0.0
  0
VERTEX
  8
MY3DLAYER
10
-13.781972684808641
20
7.625249483964405
30
3.1758277715637835
 70
     32
  0
VERTEX
  8
MY3DLAYER
10
-13.587858400981741
20
7.289033681901359
30
3.1758277715637835
 70
     32
  0
VERTEX
  8
MY3DLAYER
10
-13.587858400981741
20
7.289033681901359
30
0.17582777156378332
 70
     32
  0
VERTEX
  8
MY3DLAYER
10
-13.781972684808641
20
7.625249483964405
30
0.17582777156378332
 70
     32
  0
VERTEX
  8
MY3DLAYER
10
-13.781972684808641
20
7.625249483964405
30
3.1758277715637835
 70
     32
  0
SEQEND
  0
POLYLINE
 8
Group#17
 66
     1
70
    8
 10
0.0
 20
 0.0
 30
0.0
  0
VERTEX
  8
MY3DLAYER
10
-13.587858400981741
20
7.289033681901359
30
3.1758277715637835
 70
     32
  0
VERTEX
  8
MY3DLAYER
10
-13.313339348143431
20
7.014514629063027
30
3.1758277715637835
 70
     32
  0
VERTEX
  8
MY3DLAYER
10
-13.313339348143431
20
7.014514629063027
30
0.17582777156378332
 70
     32
  0
VERTEX
  8
MY3DLAYER
10
-13.587858400981741
20
7.289033681901359
30
0.17582777156378332
 70
     32
  0
VERTEX
  8
MY3DLAYER
10
-13.587858400981741
20
7.289033681901359
30
3.1758277715637835
 70
     32
  0
SEQEND
  0
POLYLINE
 8
Group#17
 66
     1
70
    8
 10
0.0
 20
 0.0
 30
0.0
  0
VERTEX
  8
MY3DLAYER
10
-13.313339348143431
20
7.014514629063027
30
3.1758277715637835
 70
     32
  0
VERTEX
  8
MY3DLAYER
10
-12.977123546080408
20
6.82040034523617
30
3.1758277715637835
 70
     32
  0
VERTEX
  8
MY3DLAYER
10
-12.977123546080408
20
6.82040034523617
30
0.17582777156378332
 70
     32
  0
VERTEX
  8
MY3DLAYER
10
-13.313339348143431
20
7.014514629063027
30
0.17582777156378332
 70
     32
  0
VERTEX
  8
MY3DLAYER
10
-13.313339348143431
20
7.014514629063027
30
3.1758277715637835
 70
     32
  0
SEQEND
  0
POLYLINE
 8
Group#17
 66
     1
70
    8
 10
0.0
 20
 0.0
 30
0.0
  0
VERTEX
  8
MY3DLAYER
10
-12.977123546080408
20
6.82040034523617
30
3.1758277715637835
 70
     32
  0
VERTEX
  8
MY3DLAYER
10
-12.602123546080426
20
6.719919398074496
30
3.1758277715637835
 70
     32
  0
VERTEX
  8
MY3DLAYER
10
-12.602123546080426
20
6.719919398074496
30
0.17582777156378332
 70
     32
  0
VERTEX
  8
MY3DLAYER
10
-12.977123546080408
20
6.82040034523617
30
0.17582777156378332
 70
     32
  0
VERTEX
  8
MY3DLAYER
10
-12.977123546080408
20
6.82040034523617
30
3.1758277715637835
 70
     32
  0
SEQEND
  0
POLYLINE
 8
Group#17
 66
     1
70
    8
 10
0.0
 20
 0.0
 30
0.0
  0
VERTEX
  8
MY3DLAYER
10
-12.602123546080426
20
6.719919398074496
30
3.1758277715637835
 70
     32
  0
VERTEX
  8
MY3DLAYER
10
-12.213894978426648
20
6.719919398074493
30
3.1758277715637835
 70
     32
  0
VERTEX
  8
MY3DLAYER
10
-12.213894978426648
20
6.719919398074493
30
0.17582777156378332
 70
     32
  0
VERTEX
  8
MY3DLAYER
10
-12.602123546080426
20
6.719919398074496
30
0.17582777156378332
 70
     32
  0
VERTEX
  8
MY3DLAYER
10
-12.602123546080426
20
6.719919398074496
30
3.1758277715637835
 70
     32
  0
SEQEND
  0
POLYLINE
 8
Group#17
 66
     1
70
    8
 10
0.0
 20
 0.0
 30
0.0
  0
VERTEX
  8
MY3DLAYER
10
-12.213894978426648
20
6.719919398074493
30
3.1758277715637835
 70
     32
  0
VERTEX
  8
MY3DLAYER
10
-11.838894978426643
20
6.820400345236167
30
3.1758277715637835
 70
     32
  0
VERTEX
  8
MY3DLAYER
10
-11.838894978426643
20
6.820400345236167
30
0.17582777156378332
 70
     32
  0
VERTEX
  8
MY3DLAYER
10
-12.213894978426648
20
6.719919398074493
30
0.17582777156378332
 70
     32
  0
VERTEX
  8
MY3DLAYER
10
-12.213894978426648
20
6.719919398074493
30
3.1758277715637835
 70
     32
  0
SEQEND
  0
POLYLINE
 8
Group#17
 66
     1
70
    8
 10
0.0
 20
 0.0
 30
0.0
  0
VERTEX
  8
MY3DLAYER
10
-11.838894978426643
20
6.820400345236167
30
3.1758277715637835
 70
     32
  0
VERTEX
  8
MY3DLAYER
10
-11.50267917636362
20
7.014514629063021
30
3.1758277715637835
 70
     32
  0
VERTEX
  8
MY3DLAYER
10
-11.50267917636362
20
7.014514629063021
30
0.17582777156378332
 70
     32
  0
VERTEX
  8
MY3DLAYER
10
-11.838894978426643
20
6.820400345236167
30
0.17582777156378332
 70
     32
  0
VERTEX
  8
MY3DLAYER
10
-11.838894978426643
20
6.820400345236167
30
3.1758277715637835
 70
     32
  0
SEQEND
  0
POLYLINE
 8
Group#17
 66
     1
70
    8
 10
0.0
 20
 0.0
 30
0.0
  0
VERTEX
  8
MY3DLAYER
10
-11.50267917636362
20
7.014514629063021
30
3.1758277715637835
 70
     32
  0
VERTEX
  8
MY3DLAYER
10
-11.228160123525265
20
7.289033681901351
30
3.1758277715637835
 70
     32
  0
VERTEX
  8
MY3DLAYER
10
-11.228160123525265
20
7.289033681901351
30
0.17582777156378332
 70
     32
  0
VERTEX
  8
MY3DLAYER
10
-11.50267917636362
20
7.014514629063021
30
0.17582777156378332
 70
     32
  0
VERTEX
  8
MY3DLAYER
10
-11.50267917636362
20
7.014514629063021
30
3.1758277715637835
 70
     32
  0
SEQEND
  0
POLYLINE
 8
Group#17
 66
     1
70
    8
 10
0.0
 20
 0.0
 30
0.0
  0
VERTEX
  8
MY3DLAYER
10
-11.228160123525265
20
7.289033681901351
30
3.1758277715637835
 70
     32
  0
VERTEX
  8
MY3DLAYER
10
-11.034045839698388
20
7.625249483964397
30
3.1758277715637835
 70
     32
  0
VERTEX
  8
MY3DLAYER
10
-11.034045839698388
20
7.625249483964397
30
0.17582777156378332
 70
     32
  0
VERTEX
  8
MY3DLAYER
10
-11.228160123525265
20
7.289033681901351
30
0.17582777156378332
 70
     32
  0
VERTEX
  8
MY3DLAYER
10
-11.228160123525265
20
7.289033681901351
30
3.1758277715637835
 70
     32
  0
SEQEND
  0
POLYLINE
 8
Group#17
 66
     1
70
    8
 10
0.0
 20
 0.0
 30
0.0
  0
VERTEX
  8
MY3DLAYER
10
-11.034045839698388
20
7.625249483964397
30
3.1758277715637835
 70
     32
  0
VERTEX
  8
MY3DLAYER
10
-10.933564892536715
20
8.000249483964401
30
3.1758277715637835
 70
     32
  0
VERTEX
  8
MY3DLAYER
10
-10.933564892536715
20
8.000249483964401
30
0.17582777156378332
 70
     32
  0
VERTEX
  8
MY3DLAYER
10
-11.034045839698388
20
7.625249483964397
30
0.17582777156378332
 70
     32
  0
VERTEX
  8
MY3DLAYER
10
-11.034045839698388
20
7.625249483964397
30
3.1758277715637835
 70
     32
  0
SEQEND
  0
POLYLINE
 8
Group#17
 66
     1
70
    8
 10
0.0
 20
 0.0
 30
0.0
  0
VERTEX
  8
MY3DLAYER
10
-10.933564892536715
20
8.000249483964401
30
3.1758277715637835
 70
     32
  0
VERTEX
  8
MY3DLAYER
10
-10.933564892536715
20
8.388478051618158
30
3.1758277715637835
 70
     32
  0
VERTEX
  8
MY3DLAYER
10
-10.933564892536715
20
8.388478051618158
30
0.17582777156378332
 70
     32
  0
VERTEX
  8
MY3DLAYER
10
-10.933564892536715
20
8.000249483964401
30
0.17582777156378332
 70
     32
  0
VERTEX
  8
MY3DLAYER
10
-10.933564892536715
20
8.000249483964401
30
3.1758277715637835
 70
     32
  0
SEQEND
  0
POLYLINE
 8
Group#17
 66
     1
70
    8
 10
0.0
 20
 0.0
 30
0.0
  0
VERTEX
  8
MY3DLAYER
10
-10.933564892536715
20
8.388478051618158
30
3.1758277715637835
 70
     32
  0
VERTEX
  8
MY3DLAYER
10
-11.034045839698388
20
8.763478051618161
30
3.1758277715637835
 70
     32
  0
VERTEX
  8
MY3DLAYER
10
-11.034045839698388
20
8.763478051618161
30
0.17582777156378332
 70
     32
  0
VERTEX
  8
MY3DLAYER
10
-10.933564892536715
20
8.388478051618158
30
0.17582777156378332
 70
     32
  0
VERTEX
  8
MY3DLAYER
10
-10.933564892536715
20
8.388478051618158
30
3.1758277715637835
 70
     32
  0
SEQEND
  0
POLYLINE
 8
Group#17
 66
     1
70
    8
 10
0.0
 20
 0.0
 30
0.0
  0
VERTEX
  8
MY3DLAYER
10
-86.46496897294828
20
9.403983911031531
30
3.201983771563795
 70
     32
  0
VERTEX
  8
MY3DLAYER
10
-86.7033469068451
20
9.093323739251696
30
3.201983771563795
 70
     32
  0
VERTEX
  8
MY3DLAYER
10
-86.7033469068451
20
9.093323739251696
30
0.20198377156379488
 70
     32
  0
VERTEX
  8
MY3DLAYER
10
-86.46496897294828
20
9.403983911031531
30
0.20198377156379488
 70
     32
  0
VERTEX
  8
MY3DLAYER
10
-86.46496897294828
20
9.403983911031531
30
3.201983771563795
 70
     32
  0
SEQEND
  0
POLYLINE
 8
Group#17
 66
     1
70
    8
 10
0.0
 20
 0.0
 30
0.0
  0
VERTEX
  8
MY3DLAYER
10
-86.7033469068451
20
9.093323739251696
30
3.201983771563795
 70
     32
  0
VERTEX
  8
MY3DLAYER
10
-86.8531975406021
20
8.731552306905487
30
3.201983771563795
 70
     32
  0
VERTEX
  8
MY3DLAYER
10
-86.8531975406021
20
8.731552306905487
30
0.20198377156379488
 70
     32
  0
VERTEX
  8
MY3DLAYER
10
-86.7033469068451
20
9.093323739251696
30
0.20198377156379488
 70
     32
  0
VERTEX
  8
MY3DLAYER
10
-86.7033469068451
20
9.093323739251696
30
3.201983771563795
 70
     32
  0
SEQEND
  0
POLYLINE
 8
Group#17
 66
     1
70
    8
 10
0.0
 20
 0.0
 30
0.0
  0
VERTEX
  8
MY3DLAYER
10
-86.8531975406021
20
8.731552306905487
30
3.201983771563795
 70
     32
  0
VERTEX
  8
MY3DLAYER
10
-86.90430880116853
20
8.343323739251732
30
3.201983771563795
 70
     32
  0
VERTEX
  8
MY3DLAYER
10
-86.90430880116853
20
8.343323739251732
30
0.20198377156379488
 70
     32
  0
VERTEX
  8
MY3DLAYER
10
-86.8531975406021
20
8.731552306905487
30
0.20198377156379488
 70
     32
  0
VERTEX
  8
MY3DLAYER
10
-86.8531975406021
20
8.731552306905487
30
3.201983771563795
 70
     32
  0
SEQEND
  0
POLYLINE
 8
Group#17
 66
     1
70
    8
 10
0.0
 20
 0.0
 30
0.0
  0
VERTEX
  8
MY3DLAYER
10
-86.90430880116853
20
8.343323739251732
30
3.201983771563795
 70
     32
  0
VERTEX
  8
MY3DLAYER
10
-86.85319754060208
20
7.95509517159793
30
3.201983771563795
 70
     32
  0
VERTEX
  8
MY3DLAYER
10
-86.85319754060208
20
7.95509517159793
30
0.20198377156379488
 70
     32
  0
VERTEX
  8
MY3DLAYER
10
-86.90430880116853
20
8.343323739251732
30
0.20198377156379488
 70
     32
  0
VERTEX
  8
MY3DLAYER
10
-86.90430880116853
20
8.343323739251732
30
3.201983771563795
 70
     32
  0
SEQEND
  0
POLYLINE
 8
Group#17
 66
     1
70
    8
 10
0.0
 20
 0.0
 30
0.0
  0
VERTEX
  8
MY3DLAYER
10
-86.85319754060208
20
7.95509517159793
30
3.201983771563795
 70
     32
  0
VERTEX
  8
MY3DLAYER
10
-86.70334690684513
20
7.593323739251721
30
3.201983771563795
 70
     32
  0
VERTEX
  8
MY3DLAYER
10
-86.70334690684513
20
7.593323739251721
30
0.20198377156379488
 70
     32
  0
VERTEX
  8
MY3DLAYER
10
-86.85319754060208
20
7.95509517159793
30
0.20198377156379488
 70
     32
  0
VERTEX
  8
MY3DLAYER
10
-86.85319754060208
20
7.95509517159793
30
3.201983771563795
 70
     32
  0
SEQEND
  0
POLYLINE
 8
Group#17
 66
     1
70
    8
 10
0.0
 20
 0.0
 30
0.0
  0
VERTEX
  8
MY3DLAYER
10
-86.70334690684513
20
7.593323739251721
30
3.201983771563795
 70
     32
  0
VERTEX
  8
MY3DLAYER
10
-86.4649689729483
20
7.282663567471882
30
3.201983771563795
 70
     32
  0
VERTEX
  8
MY3DLAYER
10
-86.4649689729483
20
7.282663567471882
30
0.20198377156379488
 70
     32
  0
VERTEX
  8
MY3DLAYER
10
-86.70334690684513
20
7.593323739251721
30
0.20198377156379488
 70
     32
  0
VERTEX
  8
MY3DLAYER
10
-86.70334690684513
20
7.593323739251721
30
3.201983771563795
 70
     32
  0
SEQEND
  0
POLYLINE
 8
Group#17
 66
     1
70
    8
 10
0.0
 20
 0.0
 30
0.0
  0
VERTEX
  8
MY3DLAYER
10
-86.4649689729483
20
7.282663567471882
30
3.201983771563795
 70
     32
  0
VERTEX
  8
MY3DLAYER
10
-86.1543088011685
20
7.044285633575056
30
3.201983771563795
 70
     32
  0
VERTEX
  8
MY3DLAYER
10
-86.1543088011685
20
7.044285633575056
30
0.20198377156379488
 70
     32
  0
VERTEX
  8
MY3DLAYER
10
-86.4649689729483
20
7.282663567471882
30
0.20198377156379488
 70
     32
  0
VERTEX
  8
MY3DLAYER
10
-86.4649689729483
20
7.282663567471882
30
3.201983771563795
 70
     32
  0
SEQEND
  0
POLYLINE
 8
Group#17
 66
     1
70
    8
 10
0.0
 20
 0.0
 30
0.0
  0
VERTEX
  8
MY3DLAYER
10
-86.1543088011685
20
7.044285633575056
30
3.201983771563795
 70
     32
  0
VERTEX
  8
MY3DLAYER
10
-85.7925373688223
20
6.894434999818124
30
3.201983771563795
 70
     32
  0
VERTEX
  8
MY3DLAYER
10
-85.7925373688223
20
6.894434999818124
30
0.20198377156379488
 70
     32
  0
VERTEX
  8
MY3DLAYER
10
-86.1543088011685
20
7.044285633575056
30
0.20198377156379488
 70
     32
  0
VERTEX
  8
MY3DLAYER
10
-86.1543088011685
20
7.044285633575056
30
3.201983771563795
 70
     32
  0
SEQEND
  0
POLYLINE
 8
Group#17
 66
     1
70
    8
 10
0.0
 20
 0.0
 30
0.0
  0
VERTEX
  8
MY3DLAYER
10
-85.7925373688223
20
6.894434999818124
30
3.201983771563795
 70
     32
  0
VERTEX
  8
MY3DLAYER
10
-85.40430880116851
20
6.843323739251707
30
3.201983771563795
 70
     32
  0
VERTEX
  8
MY3DLAYER
10
-85.40430880116851
20
6.843323739251707
30
0.20198377156379488
 70
     32
  0
VERTEX
  8
MY3DLAYER
10
-85.7925373688223
20
6.894434999818124
30
0.20198377156379488
 70
     32
  0
VERTEX
  8
MY3DLAYER
10
-85.7925373688223
20
6.894434999818124
30
3.201983771563795
 70
     32
  0
SEQEND
  0
POLYLINE
 8
Group#17
 66
     1
70
    8
 10
0.0
 20
 0.0
 30
0.0
  0
VERTEX
  8
MY3DLAYER
10
-85.40430880116851
20
6.843323739251707
30
3.201983771563795
 70
     32
  0
VERTEX
  8
MY3DLAYER
10
-85.01608023351473
20
6.894434999818078
30
3.201983771563795
 70
     32
  0
VERTEX
  8
MY3DLAYER
10
-85.01608023351473
20
6.894434999818078
30
0.20198377156379488
 70
     32
  0
VERTEX
  8
MY3DLAYER
10
-85.40430880116851
20
6.843323739251707
30
0.20198377156379488
 70
     32
  0
VERTEX
  8
MY3DLAYER
10
-85.40430880116851
20
6.843323739251707
30
3.201983771563795
 70
     32
  0
SEQEND
  0
POLYLINE
 8
Group#17
 66
     1
70
    8
 10
0.0
 20
 0.0
 30
0.0
  0
VERTEX
  8
MY3DLAYER
10
-85.01608023351473
20
6.894434999818078
30
3.201983771563795
 70
     32
  0
VERTEX
  8
MY3DLAYER
10
-84.65430880116853
20
7.044285633575005
30
3.201983771563795
 70
     32
  0
VERTEX
  8
MY3DLAYER
10
-84.65430880116853
20
7.044285633575005
30
0.20198377156379488
 70
     32
  0
VERTEX
  8
MY3DLAYER
10
-85.01608023351473
20
6.894434999818078
30
0.20198377156379488
 70
     32
  0
VERTEX
  8
MY3DLAYER
10
-85.01608023351473
20
6.894434999818078
30
3.201983771563795
 70
     32
  0
SEQEND
  0
POLYLINE
 8
Group#17
 66
     1
70
    8
 10
0.0
 20
 0.0
 30
0.0
  0
VERTEX
  8
MY3DLAYER
10
-84.65430880116853
20
7.044285633575005
30
3.201983771563795
 70
     32
  0
VERTEX
  8
MY3DLAYER
10
-84.34364862938868
20
7.282663567471875
30
3.201983771563795
 70
     32
  0
VERTEX
  8
MY3DLAYER
10
-84.34364862938868
20
7.282663567471875
30
0.20198377156379488
 70
     32
  0
VERTEX
  8
MY3DLAYER
10
-84.65430880116853
20
7.044285633575005
30
0.20198377156379488
 70
     32
  0
VERTEX
  8
MY3DLAYER
10
-84.65430880116853
20
7.044285633575005
30
3.201983771563795
 70
     32
  0
SEQEND
  0
POLYLINE
 8
Group#17
 66
     1
70
    8
 10
0.0
 20
 0.0
 30
0.0
  0
VERTEX
  8
MY3DLAYER
10
-84.34364862938868
20
7.282663567471875
30
3.201983771563795
 70
     32
  0
VERTEX
  8
MY3DLAYER
10
-84.10527069549185
20
7.593323739251666
30
3.201983771563795
 70
     32
  0
VERTEX
  8
MY3DLAYER
10
-84.10527069549185
20
7.593323739251666
30
0.20198377156379488
 70
     32
  0
VERTEX
  8
MY3DLAYER
10
-84.34364862938868
20
7.282663567471875
30
0.20198377156379488
 70
     32
  0
VERTEX
  8
MY3DLAYER
10
-84.34364862938868
20
7.282663567471875
30
3.201983771563795
 70
     32
  0
SEQEND
  0
POLYLINE
 8
Group#17
 66
     1
70
    8
 10
0.0
 20
 0.0
 30
0.0
  0
VERTEX
  8
MY3DLAYER
10
-84.10527069549185
20
7.593323739251666
30
3.201983771563795
 70
     32
  0
VERTEX
  8
MY3DLAYER
10
-83.9554200617349
20
7.955095171597875
30
3.201983771563795
 70
     32
  0
VERTEX
  8
MY3DLAYER
10
-83.9554200617349
20
7.955095171597875
30
0.20198377156379488
 70
     32
  0
VERTEX
  8
MY3DLAYER
10
-84.10527069549185
20
7.593323739251666
30
0.20198377156379488
 70
     32
  0
VERTEX
  8
MY3DLAYER
10
-84.10527069549185
20
7.593323739251666
30
3.201983771563795
 70
     32
  0
SEQEND
  0
POLYLINE
 8
Group#17
 66
     1
70
    8
 10
0.0
 20
 0.0
 30
0.0
  0
VERTEX
  8
MY3DLAYER
10
-83.9554200617349
20
7.955095171597875
30
3.201983771563795
 70
     32
  0
VERTEX
  8
MY3DLAYER
10
-83.90430880116853
20
8.343323739251675
30
3.201983771563795
 70
     32
  0
VERTEX
  8
MY3DLAYER
10
-83.90430880116853
20
8.343323739251675
30
0.20198377156379488
 70
     32
  0
VERTEX
  8
MY3DLAYER
10
-83.9554200617349
20
7.955095171597875
30
0.20198377156379488
 70
     32
  0
VERTEX
  8
MY3DLAYER
10
-83.9554200617349
20
7.955095171597875
30
3.201983771563795
 70
     32
  0
SEQEND
  0
POLYLINE
 8
Group#17
 66
     1
70
    8
 10
0.0
 20
 0.0
 30
0.0
  0
VERTEX
  8
MY3DLAYER
10
-83.90430880116853
20
8.343323739251675
30
3.201983771563795
 70
     32
  0
VERTEX
  8
MY3DLAYER
10
-83.95542006173491
20
8.731552306905431
30
3.201983771563795
 70
     32
  0
VERTEX
  8
MY3DLAYER
10
-83.95542006173491
20
8.731552306905431
30
0.20198377156379488
 70
     32
  0
VERTEX
  8
MY3DLAYER
10
-83.90430880116853
20
8.343323739251675
30
0.20198377156379488
 70
     32
  0
VERTEX
  8
MY3DLAYER
10
-83.90430880116853
20
8.343323739251675
30
3.201983771563795
 70
     32
  0
SEQEND
  0
POLYLINE
 8
Group#17
 66
     1
70
    8
 10
0.0
 20
 0.0
 30
0.0
  0
VERTEX
  8
MY3DLAYER
10
-83.95542006173491
20
8.731552306905431
30
3.201983771563795
 70
     32
  0
VERTEX
  8
MY3DLAYER
10
-84.10527069549182
20
9.093323739251641
30
3.201983771563795
 70
     32
  0
VERTEX
  8
MY3DLAYER
10
-84.10527069549182
20
9.093323739251641
30
0.20198377156379488
 70
     32
  0
VERTEX
  8
MY3DLAYER
10
-83.95542006173491
20
8.731552306905431
30
0.20198377156379488
 70
     32
  0
VERTEX
  8
MY3DLAYER
10
-83.95542006173491
20
8.731552306905431
30
3.201983771563795
 70
     32
  0
SEQEND
  0
POLYLINE
 8
Group#17
 66
     1
70
    8
 10
0.0
 20
 0.0
 30
0.0
  0
VERTEX
  8
MY3DLAYER
10
-84.10527069549182
20
9.093323739251641
30
3.201983771563795
 70
     32
  0
VERTEX
  8
MY3DLAYER
10
-84.34364862938865
20
9.403983911031478
30
3.201983771563795
 70
     32
  0
VERTEX
  8
MY3DLAYER
10
-84.34364862938865
20
9.403983911031478
30
0.20198377156379488
 70
     32
  0
VERTEX
  8
MY3DLAYER
10
-84.10527069549182
20
9.093323739251641
30
0.20198377156379488
 70
     32
  0
VERTEX
  8
MY3DLAYER
10
-84.10527069549182
20
9.093323739251641
30
3.201983771563795
 70
     32
  0
SEQEND
  0
POLYLINE
 8
Group#17
 66
     1
70
    8
 10
0.0
 20
 0.0
 30
0.0
  0
VERTEX
  8
MY3DLAYER
10
-84.34364862938865
20
9.403983911031478
30
3.201983771563795
 70
     32
  0
VERTEX
  8
MY3DLAYER
10
-84.65430880116847
20
9.642361844928306
30
3.201983771563795
 70
     32
  0
VERTEX
  8
MY3DLAYER
10
-84.65430880116847
20
9.642361844928306
30
0.20198377156379488
 70
     32
  0
VERTEX
  8
MY3DLAYER
10
-84.34364862938865
20
9.403983911031478
30
0.20198377156379488
 70
     32
  0
VERTEX
  8
MY3DLAYER
10
-84.34364862938865
20
9.403983911031478
30
3.201983771563795
 70
     32
  0
SEQEND
  0
POLYLINE
 8
Group#17
 66
     1
70
    8
 10
0.0
 20
 0.0
 30
0.0
  0
VERTEX
  8
MY3DLAYER
10
-84.65430880116847
20
9.642361844928306
30
3.201983771563795
 70
     32
  0
VERTEX
  8
MY3DLAYER
10
-85.01608023351467
20
9.792212478685283
30
3.201983771563795
 70
     32
  0
VERTEX
  8
MY3DLAYER
10
-85.01608023351467
20
9.792212478685283
30
0.20198377156379488
 70
     32
  0
VERTEX
  8
MY3DLAYER
10
-84.65430880116847
20
9.642361844928306
30
0.20198377156379488
 70
     32
  0
VERTEX
  8
MY3DLAYER
10
-84.65430880116847
20
9.642361844928306
30
3.201983771563795
 70
     32
  0
SEQEND
  0
POLYLINE
 8
Group#17
 66
     1
70
    8
 10
0.0
 20
 0.0
 30
0.0
  0
VERTEX
  8
MY3DLAYER
10
-85.01608023351467
20
9.792212478685283
30
3.201983771563795
 70
     32
  0
VERTEX
  8
MY3DLAYER
10
-85.40430880116845
20
9.843323739251655
30
3.201983771563795
 70
     32
  0
VERTEX
  8
MY3DLAYER
10
-85.40430880116845
20
9.843323739251655
30
0.20198377156379488
 70
     32
  0
VERTEX
  8
MY3DLAYER
10
-85.01608023351467
20
9.792212478685283
30
0.20198377156379488
 70
     32
  0
VERTEX
  8
MY3DLAYER
10
-85.01608023351467
20
9.792212478685283
30
3.201983771563795
 70
     32
  0
SEQEND
  0
POLYLINE
 8
Group#17
 66
     1
70
    8
 10
0.0
 20
 0.0
 30
0.0
  0
VERTEX
  8
MY3DLAYER
10
-85.40430880116845
20
9.843323739251655
30
3.201983771563795
 70
     32
  0
VERTEX
  8
MY3DLAYER
10
-85.79253736882224
20
9.792212478685284
30
3.201983771563795
 70
     32
  0
VERTEX
  8
MY3DLAYER
10
-85.79253736882224
20
9.792212478685284
30
0.20198377156379488
 70
     32
  0
VERTEX
  8
MY3DLAYER
10
-85.40430880116845
20
9.843323739251655
30
0.20198377156379488
 70
     32
  0
VERTEX
  8
MY3DLAYER
10
-85.40430880116845
20
9.843323739251655
30
3.201983771563795
 70
     32
  0
SEQEND
  0
POLYLINE
 8
Group#17
 66
     1
70
    8
 10
0.0
 20
 0.0
 30
0.0
  0
VERTEX
  8
MY3DLAYER
10
-85.79253736882224
20
9.792212478685284
30
3.201983771563795
 70
     32
  0
VERTEX
  8
MY3DLAYER
10
-86.15430880116844
20
9.642361844928356
30
3.201983771563795
 70
     32
  0
VERTEX
  8
MY3DLAYER
10
-86.15430880116844
20
9.642361844928356
30
0.20198377156379488
 70
     32
  0
VERTEX
  8
MY3DLAYER
10
-85.79253736882224
20
9.792212478685284
30
0.20198377156379488
 70
     32
  0
VERTEX
  8
MY3DLAYER
10
-85.79253736882224
20
9.792212478685284
30
3.201983771563795
 70
     32
  0
SEQEND
  0
POLYLINE
 8
Group#17
 66
     1
70
    8
 10
0.0
 20
 0.0
 30
0.0
  0
VERTEX
  8
MY3DLAYER
10
-86.15430880116844
20
9.642361844928356
30
3.201983771563795
 70
     32
  0
VERTEX
  8
MY3DLAYER
10
-86.46496897294828
20
9.403983911031531
30
3.201983771563795
 70
     32
  0
VERTEX
  8
MY3DLAYER
10
-86.46496897294828
20
9.403983911031531
30
0.20198377156379488
 70
     32
  0
VERTEX
  8
MY3DLAYER
10
-86.15430880116844
20
9.642361844928356
30
0.20198377156379488
 70
     32
  0
VERTEX
  8
MY3DLAYER
10
-86.15430880116844
20
9.642361844928356
30
3.201983771563795
 70
     32
  0
SEQEND
  0
POLYLINE
 8
Group#17
 66
     1
70
    8
 10
0.0
 20
 0.0
 30
0.0
  0
VERTEX
  8
MY3DLAYER
10
-31.895987224500633
20
8.284599455973456
30
0.19898877156380443
 70
     32
  0
VERTEX
  8
MY3DLAYER
10
-31.84487596393424
20
8.672828023627257
30
0.19898877156380443
 70
     32
  0
VERTEX
  8
MY3DLAYER
10
-31.84487596393424
20
8.672828023627257
30
3.1989887715638043
 70
     32
  0
VERTEX
  8
MY3DLAYER
10
-31.895987224500633
20
8.284599455973456
30
3.1989887715638043
 70
     32
  0
VERTEX
  8
MY3DLAYER
10
-31.895987224500633
20
8.284599455973456
30
0.19898877156380443
 70
     32
  0
SEQEND
  0
POLYLINE
 8
Group#17
 66
     1
70
    8
 10
0.0
 20
 0.0
 30
0.0
  0
VERTEX
  8
MY3DLAYER
10
-31.84487596393424
20
8.672828023627257
30
0.19898877156380443
 70
     32
  0
VERTEX
  8
MY3DLAYER
10
-31.695025330177284
20
9.034599455973463
30
0.19898877156380443
 70
     32
  0
VERTEX
  8
MY3DLAYER
10
-31.695025330177284
20
9.034599455973463
30
3.1989887715638043
 70
     32
  0
VERTEX
  8
MY3DLAYER
10
-31.84487596393424
20
8.672828023627257
30
3.1989887715638043
 70
     32
  0
VERTEX
  8
MY3DLAYER
10
-31.84487596393424
20
8.672828023627257
30
0.19898877156380443
 70
     32
  0
SEQEND
  0
POLYLINE
 8
Group#17
 66
     1
70
    8
 10
0.0
 20
 0.0
 30
0.0
  0
VERTEX
  8
MY3DLAYER
10
-31.695025330177284
20
9.034599455973463
30
0.19898877156380443
 70
     32
  0
VERTEX
  8
MY3DLAYER
10
-31.45664739628047
20
9.3452596277533
30
0.19898877156380443
 70
     32
  0
VERTEX
  8
MY3DLAYER
10
-31.45664739628047
20
9.3452596277533
30
3.1989887715638043
 70
     32
  0
VERTEX
  8
MY3DLAYER
10
-31.695025330177284
20
9.034599455973463
30
3.1989887715638043
 70
     32
  0
VERTEX
  8
MY3DLAYER
10
-31.695025330177284
20
9.034599455973463
30
0.19898877156380443
 70
     32
  0
SEQEND
  0
POLYLINE
 8
Group#17
 66
     1
70
    8
 10
0.0
 20
 0.0
 30
0.0
  0
VERTEX
  8
MY3DLAYER
10
-31.45664739628047
20
9.3452596277533
30
0.19898877156380443
 70
     32
  0
VERTEX
  8
MY3DLAYER
10
-31.145987224500644
20
9.58363756165008
30
0.19898877156380443
 70
     32
  0
VERTEX
  8
MY3DLAYER
10
-31.145987224500644
20
9.58363756165008
30
3.1989887715638043
 70
     32
  0
VERTEX
  8
MY3DLAYER
10
-31.45664739628047
20
9.3452596277533
30
3.1989887715638043
 70
     32
  0
VERTEX
  8
MY3DLAYER
10
-31.45664739628047
20
9.3452596277533
30
0.19898877156380443
 70
     32
  0
SEQEND
  0
POLYLINE
 8
Group#17
 66
     1
70
    8
 10
0.0
 20
 0.0
 30
0.0
  0
VERTEX
  8
MY3DLAYER
10
-31.145987224500644
20
9.58363756165008
30
0.19898877156380443
 70
     32
  0
VERTEX
  8
MY3DLAYER
10
-30.784215792154423
20
9.733488195407054
30
0.19898877156380443
 70
     32
  0
VERTEX
  8
MY3DLAYER
10
-30.784215792154423
20
9.733488195407054
30
3.1989887715638043
 70
     32
  0
VERTEX
  8
MY3DLAYER
10
-31.145987224500644
20
9.58363756165008
30
3.1989887715638043
 70
     32
  0
VERTEX
  8
MY3DLAYER
10
-31.145987224500644
20
9.58363756165008
30
0.19898877156380443
 70
     32
  0
SEQEND
  0
POLYLINE
 8
Group#17
 66
     1
70
    8
 10
0.0
 20
 0.0
 30
0.0
  0
VERTEX
  8
MY3DLAYER
10
-30.784215792154423
20
9.733488195407054
30
0.19898877156380443
 70
     32
  0
VERTEX
  8
MY3DLAYER
10
-30.395987224500647
20
9.784599455973426
30
0.19898877156380443
 70
     32
  0
VERTEX
  8
MY3DLAYER
10
-30.395987224500647
20
9.784599455973426
30
3.1989887715638043
 70
     32
  0
VERTEX
  8
MY3DLAYER
10
-30.784215792154423
20
9.733488195407054
30
3.1989887715638043
 70
     32
  0
VERTEX
  8
MY3DLAYER
10
-30.784215792154423
20
9.733488195407054
30
0.19898877156380443
 70
     32
  0
SEQEND
  0
POLYLINE
 8
Group#17
 66
     1
70
    8
 10
0.0
 20
 0.0
 30
0.0
  0
VERTEX
  8
MY3DLAYER
10
-30.395987224500647
20
9.784599455973426
30
0.19898877156380443
 70
     32
  0
VERTEX
  8
MY3DLAYER
10
-30.007758656846867
20
9.733488195407052
30
0.19898877156380443
 70
     32
  0
VERTEX
  8
MY3DLAYER
10
-30.007758656846867
20
9.733488195407052
30
3.1989887715638043
 70
     32
  0
VERTEX
  8
MY3DLAYER
10
-30.395987224500647
20
9.784599455973426
30
3.1989887715638043
 70
     32
  0
VERTEX
  8
MY3DLAYER
10
-30.395987224500647
20
9.784599455973426
30
0.19898877156380443
 70
     32
  0
SEQEND
  0
POLYLINE
 8
Group#17
 66
     1
70
    8
 10
0.0
 20
 0.0
 30
0.0
  0
VERTEX
  8
MY3DLAYER
10
-30.007758656846867
20
9.733488195407052
30
0.19898877156380443
 70
     32
  0
VERTEX
  8
MY3DLAYER
10
-29.645987224500647
20
9.583637561650077
30
0.19898877156380443
 70
     32
  0
VERTEX
  8
MY3DLAYER
10
-29.645987224500647
20
9.583637561650077
30
3.1989887715638043
 70
     32
  0
VERTEX
  8
MY3DLAYER
10
-30.007758656846867
20
9.733488195407052
30
3.1989887715638043
 70
     32
  0
VERTEX
  8
MY3DLAYER
10
-30.007758656846867
20
9.733488195407052
30
0.19898877156380443
 70
     32
  0
SEQEND
  0
POLYLINE
 8
Group#17
 66
     1
70
    8
 10
0.0
 20
 0.0
 30
0.0
  0
VERTEX
  8
MY3DLAYER
10
-29.645987224500647
20
9.583637561650077
30
0.19898877156380443
 70
     32
  0
VERTEX
  8
MY3DLAYER
10
-29.33532705272082
20
9.345259627753249
30
0.19898877156380443
 70
     32
  0
VERTEX
  8
MY3DLAYER
10
-29.33532705272082
20
9.345259627753249
30
3.1989887715638043
 70
     32
  0
VERTEX
  8
MY3DLAYER
10
-29.645987224500647
20
9.583637561650077
30
3.1989887715638043
 70
     32
  0
VERTEX
  8
MY3DLAYER
10
-29.645987224500647
20
9.583637561650077
30
0.19898877156380443
 70
     32
  0
SEQEND
  0
POLYLINE
 8
Group#17
 66
     1
70
    8
 10
0.0
 20
 0.0
 30
0.0
  0
VERTEX
  8
MY3DLAYER
10
-29.33532705272082
20
9.345259627753249
30
0.19898877156380443
 70
     32
  0
VERTEX
  8
MY3DLAYER
10
-29.096949118823975
20
9.034599455973456
30
0.19898877156380443
 70
     32
  0
VERTEX
  8
MY3DLAYER
10
-29.096949118823975
20
9.034599455973456
30
3.1989887715638043
 70
     32
  0
VERTEX
  8
MY3DLAYER
10
-29.33532705272082
20
9.345259627753249
30
3.1989887715638043
 70
     32
  0
VERTEX
  8
MY3DLAYER
10
-29.33532705272082
20
9.345259627753249
30
0.19898877156380443
 70
     32
  0
SEQEND
  0
POLYLINE
 8
Group#17
 66
     1
70
    8
 10
0.0
 20
 0.0
 30
0.0
  0
VERTEX
  8
MY3DLAYER
10
-29.096949118823975
20
9.034599455973456
30
0.19898877156380443
 70
     32
  0
VERTEX
  8
MY3DLAYER
10
-28.947098485067034
20
8.672828023627202
30
0.19898877156380443
 70
     32
  0
VERTEX
  8
MY3DLAYER
10
-28.947098485067034
20
8.672828023627202
30
3.1989887715638043
 70
     32
  0
VERTEX
  8
MY3DLAYER
10
-29.096949118823975
20
9.034599455973456
30
3.1989887715638043
 70
     32
  0
VERTEX
  8
MY3DLAYER
10
-29.096949118823975
20
9.034599455973456
30
0.19898877156380443
 70
     32
  0
SEQEND
  0
POLYLINE
 8
Group#17
 66
     1
70
    8
 10
0.0
 20
 0.0
 30
0.0
  0
VERTEX
  8
MY3DLAYER
10
-28.947098485067034
20
8.672828023627202
30
0.19898877156380443
 70
     32
  0
VERTEX
  8
MY3DLAYER
10
-28.895987224500637
20
8.284599455973446
30
0.19898877156380443
 70
     32
  0
VERTEX
  8
MY3DLAYER
10
-28.895987224500637
20
8.284599455973446
30
3.1989887715638043
 70
     32
  0
VERTEX
  8
MY3DLAYER
10
-28.947098485067034
20
8.672828023627202
30
3.1989887715638043
 70
     32
  0
VERTEX
  8
MY3DLAYER
10
-28.947098485067034
20
8.672828023627202
30
0.19898877156380443
 70
     32
  0
SEQEND
  0
POLYLINE
 8
Group#17
 66
     1
70
    8
 10
0.0
 20
 0.0
 30
0.0
  0
VERTEX
  8
MY3DLAYER
10
-28.895987224500637
20
8.284599455973446
30
0.19898877156380443
 70
     32
  0
VERTEX
  8
MY3DLAYER
10
-28.94709848506702
20
7.896370888319645
30
0.19898877156380443
 70
     32
  0
VERTEX
  8
MY3DLAYER
10
-28.94709848506702
20
7.896370888319645
30
3.1989887715638043
 70
     32
  0
VERTEX
  8
MY3DLAYER
10
-28.895987224500637
20
8.284599455973446
30
3.1989887715638043
 70
     32
  0
VERTEX
  8
MY3DLAYER
10
-28.895987224500637
20
8.284599455973446
30
0.19898877156380443
 70
     32
  0
SEQEND
  0
POLYLINE
 8
Group#17
 66
     1
70
    8
 10
0.0
 20
 0.0
 30
0.0
  0
VERTEX
  8
MY3DLAYER
10
-28.94709848506702
20
7.896370888319645
30
0.19898877156380443
 70
     32
  0
VERTEX
  8
MY3DLAYER
10
-29.096949118823975
20
7.534599455973436
30
0.19898877156380443
 70
     32
  0
VERTEX
  8
MY3DLAYER
10
-29.096949118823975
20
7.534599455973436
30
3.1989887715638043
 70
     32
  0
VERTEX
  8
MY3DLAYER
10
-28.94709848506702
20
7.896370888319645
30
3.1989887715638043
 70
     32
  0
VERTEX
  8
MY3DLAYER
10
-28.94709848506702
20
7.896370888319645
30
0.19898877156380443
 70
     32
  0
SEQEND
  0
POLYLINE
 8
Group#17
 66
     1
70
    8
 10
0.0
 20
 0.0
 30
0.0
  0
VERTEX
  8
MY3DLAYER
10
-29.096949118823975
20
7.534599455973436
30
0.19898877156380443
 70
     32
  0
VERTEX
  8
MY3DLAYER
10
-29.3353270527208
20
7.223939284193601
30
0.19898877156380443
 70
     32
  0
VERTEX
  8
MY3DLAYER
10
-29.3353270527208
20
7.223939284193601
30
3.1989887715638043
 70
     32
  0
VERTEX
  8
MY3DLAYER
10
-29.096949118823975
20
7.534599455973436
30
3.1989887715638043
 70
     32
  0
VERTEX
  8
MY3DLAYER
10
-29.096949118823975
20
7.534599455973436
30
0.19898877156380443
 70
     32
  0
SEQEND
  0
POLYLINE
 8
Group#17
 66
     1
70
    8
 10
0.0
 20
 0.0
 30
0.0
  0
VERTEX
  8
MY3DLAYER
10
-29.3353270527208
20
7.223939284193601
30
0.19898877156380443
 70
     32
  0
VERTEX
  8
MY3DLAYER
10
-29.64598722450074
20
6.985561350296775
30
0.19898877156380443
 70
     32
  0
VERTEX
  8
MY3DLAYER
10
-29.64598722450074
20
6.985561350296775
30
3.1989887715638043
 70
     32
  0
VERTEX
  8
MY3DLAYER
10
-29.3353270527208
20
7.223939284193601
30
3.1989887715638043
 70
     32
  0
VERTEX
  8
MY3DLAYER
10
-29.3353270527208
20
7.223939284193601
30
0.19898877156380443
 70
     32
  0
SEQEND
  0
POLYLINE
 8
Group#17
 66
     1
70
    8
 10
0.0
 20
 0.0
 30
0.0
  0
VERTEX
  8
MY3DLAYER
10
-29.64598722450074
20
6.985561350296775
30
0.19898877156380443
 70
     32
  0
VERTEX
  8
MY3DLAYER
10
-30.00775865684696
20
6.835710716539846
30
0.19898877156380443
 70
     32
  0
VERTEX
  8
MY3DLAYER
10
-30.00775865684696
20
6.835710716539846
30
3.1989887715638043
 70
     32
  0
VERTEX
  8
MY3DLAYER
10
-29.64598722450074
20
6.985561350296775
30
3.1989887715638043
 70
     32
  0
VERTEX
  8
MY3DLAYER
10
-29.64598722450074
20
6.985561350296775
30
0.19898877156380443
 70
     32
  0
SEQEND
  0
POLYLINE
 8
Group#17
 66
     1
70
    8
 10
0.0
 20
 0.0
 30
0.0
  0
VERTEX
  8
MY3DLAYER
10
-30.00775865684696
20
6.835710716539846
30
0.19898877156380443
 70
     32
  0
VERTEX
  8
MY3DLAYER
10
-30.395987224500736
20
6.7845994559734315
30
0.19898877156380443
 70
     32
  0
VERTEX
  8
MY3DLAYER
10
-30.395987224500736
20
6.7845994559734315
30
3.1989887715638043
 70
     32
  0
VERTEX
  8
MY3DLAYER
10
-30.00775865684696
20
6.835710716539846
30
3.1989887715638043
 70
     32
  0
VERTEX
  8
MY3DLAYER
10
-30.00775865684696
20
6.835710716539846
30
0.19898877156380443
 70
     32
  0
SEQEND
  0
POLYLINE
 8
Group#17
 66
     1
70
    8
 10
0.0
 20
 0.0
 30
0.0
  0
VERTEX
  8
MY3DLAYER
10
-30.395987224500736
20
6.7845994559734315
30
0.19898877156380443
 70
     32
  0
VERTEX
  8
MY3DLAYER
10
-30.784215792154516
20
6.8357107165398485
30
0.19898877156380443
 70
     32
  0
VERTEX
  8
MY3DLAYER
10
-30.784215792154516
20
6.8357107165398485
30
3.1989887715638043
 70
     32
  0
VERTEX
  8
MY3DLAYER
10
-30.395987224500736
20
6.7845994559734315
30
3.1989887715638043
 70
     32
  0
VERTEX
  8
MY3DLAYER
10
-30.395987224500736
20
6.7845994559734315
30
0.19898877156380443
 70
     32
  0
SEQEND
  0
POLYLINE
 8
Group#17
 66
     1
70
    8
 10
0.0
 20
 0.0
 30
0.0
  0
VERTEX
  8
MY3DLAYER
10
-30.784215792154516
20
6.8357107165398485
30
0.19898877156380443
 70
     32
  0
VERTEX
  8
MY3DLAYER
10
-31.145987224500736
20
6.985561350296827
30
0.19898877156380443
 70
     32
  0
VERTEX
  8
MY3DLAYER
10
-31.145987224500736
20
6.985561350296827
30
3.1989887715638043
 70
     32
  0
VERTEX
  8
MY3DLAYER
10
-30.784215792154516
20
6.8357107165398485
30
3.1989887715638043
 70
     32
  0
VERTEX
  8
MY3DLAYER
10
-30.784215792154516
20
6.8357107165398485
30
0.19898877156380443
 70
     32
  0
SEQEND
  0
POLYLINE
 8
Group#17
 66
     1
70
    8
 10
0.0
 20
 0.0
 30
0.0
  0
VERTEX
  8
MY3DLAYER
10
-31.145987224500736
20
6.985561350296827
30
0.19898877156380443
 70
     32
  0
VERTEX
  8
MY3DLAYER
10
-31.45664739628045
20
7.223939284193608
30
0.19898877156380443
 70
     32
  0
VERTEX
  8
MY3DLAYER
10
-31.45664739628045
20
7.223939284193608
30
3.1989887715638043
 70
     32
  0
VERTEX
  8
MY3DLAYER
10
-31.145987224500736
20
6.985561350296827
30
3.1989887715638043
 70
     32
  0
VERTEX
  8
MY3DLAYER
10
-31.145987224500736
20
6.985561350296827
30
0.19898877156380443
 70
     32
  0
SEQEND
  0
POLYLINE
 8
Group#17
 66
     1
70
    8
 10
0.0
 20
 0.0
 30
0.0
  0
VERTEX
  8
MY3DLAYER
10
-31.45664739628045
20
7.223939284193608
30
0.19898877156380443
 70
     32
  0
VERTEX
  8
MY3DLAYER
10
-31.695025330177284
20
7.534599455973444
30
0.19898877156380443
 70
     32
  0
VERTEX
  8
MY3DLAYER
10
-31.695025330177284
20
7.534599455973444
30
3.1989887715638043
 70
     32
  0
VERTEX
  8
MY3DLAYER
10
-31.45664739628045
20
7.223939284193608
30
3.1989887715638043
 70
     32
  0
VERTEX
  8
MY3DLAYER
10
-31.45664739628045
20
7.223939284193608
30
0.19898877156380443
 70
     32
  0
SEQEND
  0
POLYLINE
 8
Group#17
 66
     1
70
    8
 10
0.0
 20
 0.0
 30
0.0
  0
VERTEX
  8
MY3DLAYER
10
-31.695025330177284
20
7.534599455973444
30
0.19898877156380443
 70
     32
  0
VERTEX
  8
MY3DLAYER
10
-31.844875963934225
20
7.8963708883197
30
0.19898877156380443
 70
     32
  0
VERTEX
  8
MY3DLAYER
10
-31.844875963934225
20
7.8963708883197
30
3.1989887715638043
 70
     32
  0
VERTEX
  8
MY3DLAYER
10
-31.695025330177284
20
7.534599455973444
30
3.1989887715638043
 70
     32
  0
VERTEX
  8
MY3DLAYER
10
-31.695025330177284
20
7.534599455973444
30
0.19898877156380443
 70
     32
  0
SEQEND
  0
POLYLINE
 8
Group#17
 66
     1
70
    8
 10
0.0
 20
 0.0
 30
0.0
  0
VERTEX
  8
MY3DLAYER
10
-31.844875963934225
20
7.8963708883197
30
0.19898877156380443
 70
     32
  0
VERTEX
  8
MY3DLAYER
10
-31.895987224500633
20
8.284599455973456
30
0.19898877156380443
 70
     32
  0
VERTEX
  8
MY3DLAYER
10
-31.895987224500633
20
8.284599455973456
30
3.1989887715638043
 70
     32
  0
VERTEX
  8
MY3DLAYER
10
-31.844875963934225
20
7.8963708883197
30
3.1989887715638043
 70
     32
  0
VERTEX
  8
MY3DLAYER
10
-31.844875963934225
20
7.8963708883197
30
0.19898877156380443
 70
     32
  0
SEQEND
  0
POLYLINE
 8
Group#17
 66
     1
70
    8
 10
0.0
 20
 0.0
 30
0.0
  0
VERTEX
  8
MY3DLAYER
10
-67.39598722450064
20
9.784599455973549
30
0.19898877156380443
 70
     32
  0
VERTEX
  8
MY3DLAYER
10
-67.00775865684687
20
9.733488195407174
30
0.19898877156380443
 70
     32
  0
VERTEX
  8
MY3DLAYER
10
-67.00775865684687
20
9.733488195407174
30
3.1989887715638043
 70
     32
  0
VERTEX
  8
MY3DLAYER
10
-67.39598722450064
20
9.784599455973549
30
3.1989887715638043
 70
     32
  0
VERTEX
  8
MY3DLAYER
10
-67.39598722450064
20
9.784599455973549
30
0.19898877156380443
 70
     32
  0
SEQEND
  0
POLYLINE
 8
Group#17
 66
     1
70
    8
 10
0.0
 20
 0.0
 30
0.0
  0
VERTEX
  8
MY3DLAYER
10
-67.00775865684687
20
9.733488195407174
30
0.19898877156380443
 70
     32
  0
VERTEX
  8
MY3DLAYER
10
-66.64598722450064
20
9.5836375616502
30
0.19898877156380443
 70
     32
  0
VERTEX
  8
MY3DLAYER
10
-66.64598722450064
20
9.5836375616502
30
3.1989887715638043
 70
     32
  0
VERTEX
  8
MY3DLAYER
10
-67.00775865684687
20
9.733488195407174
30
3.1989887715638043
 70
     32
  0
VERTEX
  8
MY3DLAYER
10
-67.00775865684687
20
9.733488195407174
30
0.19898877156380443
 70
     32
  0
SEQEND
  0
POLYLINE
 8
Group#17
 66
     1
70
    8
 10
0.0
 20
 0.0
 30
0.0
  0
VERTEX
  8
MY3DLAYER
10
-66.64598722450064
20
9.5836375616502
30
0.19898877156380443
 70
     32
  0
VERTEX
  8
MY3DLAYER
10
-66.33532705272083
20
9.345259627753371
30
0.19898877156380443
 70
     32
  0
VERTEX
  8
MY3DLAYER
10
-66.33532705272083
20
9.345259627753371
30
3.1989887715638043
 70
     32
  0
VERTEX
  8
MY3DLAYER
10
-66.64598722450064
20
9.5836375616502
30
3.1989887715638043
 70
     32
  0
VERTEX
  8
MY3DLAYER
10
-66.64598722450064
20
9.5836375616502
30
0.19898877156380443
 70
     32
  0
SEQEND
  0
POLYLINE
 8
Group#17
 66
     1
70
    8
 10
0.0
 20
 0.0
 30
0.0
  0
VERTEX
  8
MY3DLAYER
10
-66.33532705272083
20
9.345259627753371
30
0.19898877156380443
 70
     32
  0
VERTEX
  8
MY3DLAYER
10
-66.09694911882397
20
9.034599455973535
30
0.19898877156380443
 70
     32
  0
VERTEX
  8
MY3DLAYER
10
-66.09694911882397
20
9.034599455973535
30
3.1989887715638043
 70
     32
  0
VERTEX
  8
MY3DLAYER
10
-66.33532705272083
20
9.345259627753371
30
3.1989887715638043
 70
     32
  0
VERTEX
  8
MY3DLAYER
10
-66.33532705272083
20
9.345259627753371
30
0.19898877156380443
 70
     32
  0
SEQEND
  0
POLYLINE
 8
Group#17
 66
     1
70
    8
 10
0.0
 20
 0.0
 30
0.0
  0
VERTEX
  8
MY3DLAYER
10
-66.09694911882397
20
9.034599455973535
30
0.19898877156380443
 70
     32
  0
VERTEX
  8
MY3DLAYER
10
-65.94709848506703
20
8.672828023627325
30
0.19898877156380443
 70
     32
  0
VERTEX
  8
MY3DLAYER
10
-65.94709848506703
20
8.672828023627325
30
3.1989887715638043
 70
     32
  0
VERTEX
  8
MY3DLAYER
10
-66.09694911882397
20
9.034599455973535
30
3.1989887715638043
 70
     32
  0
VERTEX
  8
MY3DLAYER
10
-66.09694911882397
20
9.034599455973535
30
0.19898877156380443
 70
     32
  0
SEQEND
  0
POLYLINE
 8
Group#17
 66
     1
70
    8
 10
0.0
 20
 0.0
 30
0.0
  0
VERTEX
  8
MY3DLAYER
10
-65.94709848506703
20
8.672828023627325
30
0.19898877156380443
 70
     32
  0
VERTEX
  8
MY3DLAYER
10
-65.89598722450064
20
8.28459945597357
30
0.19898877156380443
 70
     32
  0
VERTEX
  8
MY3DLAYER
10
-65.89598722450064
20
8.28459945597357
30
3.1989887715638043
 70
     32
  0
VERTEX
  8
MY3DLAYER
10
-65.94709848506703
20
8.672828023627325
30
3.1989887715638043
 70
     32
  0
VERTEX
  8
MY3DLAYER
10
-65.94709848506703
20
8.672828023627325
30
0.19898877156380443
 70
     32
  0
SEQEND
  0
POLYLINE
 8
Group#17
 66
     1
70
    8
 10
0.0
 20
 0.0
 30
0.0
  0
VERTEX
  8
MY3DLAYER
10
-65.89598722450064
20
8.28459945597357
30
0.19898877156380443
 70
     32
  0
VERTEX
  8
MY3DLAYER
10
-65.94709848506703
20
7.896370888319769
30
0.19898877156380443
 70
     32
  0
VERTEX
  8
MY3DLAYER
10
-65.94709848506703
20
7.896370888319769
30
3.1989887715638043
 70
     32
  0
VERTEX
  8
MY3DLAYER
10
-65.89598722450064
20
8.28459945597357
30
3.1989887715638043
 70
     32
  0
VERTEX
  8
MY3DLAYER
10
-65.89598722450064
20
8.28459945597357
30
0.19898877156380443
 70
     32
  0
SEQEND
  0
POLYLINE
 8
Group#17
 66
     1
70
    8
 10
0.0
 20
 0.0
 30
0.0
  0
VERTEX
  8
MY3DLAYER
10
-65.94709848506703
20
7.896370888319769
30
0.19898877156380443
 70
     32
  0
VERTEX
  8
MY3DLAYER
10
-66.09694911882397
20
7.53459945597356
30
0.19898877156380443
 70
     32
  0
VERTEX
  8
MY3DLAYER
10
-66.09694911882397
20
7.53459945597356
30
3.1989887715638043
 70
     32
  0
VERTEX
  8
MY3DLAYER
10
-65.94709848506703
20
7.896370888319769
30
3.1989887715638043
 70
     32
  0
VERTEX
  8
MY3DLAYER
10
-65.94709848506703
20
7.896370888319769
30
0.19898877156380443
 70
     32
  0
SEQEND
  0
POLYLINE
 8
Group#17
 66
     1
70
    8
 10
0.0
 20
 0.0
 30
0.0
  0
VERTEX
  8
MY3DLAYER
10
-66.09694911882397
20
7.53459945597356
30
0.19898877156380443
 70
     32
  0
VERTEX
  8
MY3DLAYER
10
-66.33532705272083
20
7.223939284193723
30
0.19898877156380443
 70
     32
  0
VERTEX
  8
MY3DLAYER
10
-66.33532705272083
20
7.223939284193723
30
3.1989887715638043
 70
     32
  0
VERTEX
  8
MY3DLAYER
10
-66.09694911882397
20
7.53459945597356
30
3.1989887715638043
 70
     32
  0
VERTEX
  8
MY3DLAYER
10
-66.09694911882397
20
7.53459945597356
30
0.19898877156380443
 70
     32
  0
SEQEND
  0
POLYLINE
 8
Group#17
 66
     1
70
    8
 10
0.0
 20
 0.0
 30
0.0
  0
VERTEX
  8
MY3DLAYER
10
-66.33532705272083
20
7.223939284193723
30
0.19898877156380443
 70
     32
  0
VERTEX
  8
MY3DLAYER
10
-66.64598722450063
20
6.9855613502969
30
0.19898877156380443
 70
     32
  0
VERTEX
  8
MY3DLAYER
10
-66.64598722450063
20
6.9855613502969
30
3.1989887715638043
 70
     32
  0
VERTEX
  8
MY3DLAYER
10
-66.33532705272083
20
7.223939284193723
30
3.1989887715638043
 70
     32
  0
VERTEX
  8
MY3DLAYER
10
-66.33532705272083
20
7.223939284193723
30
0.19898877156380443
 70
     32
  0
SEQEND
  0
POLYLINE
 8
Group#17
 66
     1
70
    8
 10
0.0
 20
 0.0
 30
0.0
  0
VERTEX
  8
MY3DLAYER
10
-66.64598722450063
20
6.9855613502969
30
0.19898877156380443
 70
     32
  0
VERTEX
  8
MY3DLAYER
10
-67.00775865684687
20
6.83571071653997
30
0.19898877156380443
 70
     32
  0
VERTEX
  8
MY3DLAYER
10
-67.00775865684687
20
6.83571071653997
30
3.1989887715638043
 70
     32
  0
VERTEX
  8
MY3DLAYER
10
-66.64598722450063
20
6.9855613502969
30
3.1989887715638043
 70
     32
  0
VERTEX
  8
MY3DLAYER
10
-66.64598722450063
20
6.9855613502969
30
0.19898877156380443
 70
     32
  0
SEQEND
  0
POLYLINE
 8
Group#17
 66
     1
70
    8
 10
0.0
 20
 0.0
 30
0.0
  0
VERTEX
  8
MY3DLAYER
10
-67.00775865684687
20
6.83571071653997
30
0.19898877156380443
 70
     32
  0
VERTEX
  8
MY3DLAYER
10
-67.39598722450074
20
6.784599455973554
30
0.19898877156380443
 70
     32
  0
VERTEX
  8
MY3DLAYER
10
-67.39598722450074
20
6.784599455973554
30
3.1989887715638043
 70
     32
  0
VERTEX
  8
MY3DLAYER
10
-67.00775865684687
20
6.83571071653997
30
3.1989887715638043
 70
     32
  0
VERTEX
  8
MY3DLAYER
10
-67.00775865684687
20
6.83571071653997
30
0.19898877156380443
 70
     32
  0
SEQEND
  0
POLYLINE
 8
Group#17
 66
     1
70
    8
 10
0.0
 20
 0.0
 30
0.0
  0
VERTEX
  8
MY3DLAYER
10
-67.39598722450074
20
6.784599455973554
30
0.19898877156380443
 70
     32
  0
VERTEX
  8
MY3DLAYER
10
-67.78421579215443
20
6.835710716539973
30
0.19898877156380443
 70
     32
  0
VERTEX
  8
MY3DLAYER
10
-67.78421579215443
20
6.835710716539973
30
3.1989887715638043
 70
     32
  0
VERTEX
  8
MY3DLAYER
10
-67.39598722450074
20
6.784599455973554
30
3.1989887715638043
 70
     32
  0
VERTEX
  8
MY3DLAYER
10
-67.39598722450074
20
6.784599455973554
30
0.19898877156380443
 70
     32
  0
SEQEND
  0
POLYLINE
 8
Group#17
 66
     1
70
    8
 10
0.0
 20
 0.0
 30
0.0
  0
VERTEX
  8
MY3DLAYER
10
-67.78421579215443
20
6.835710716539973
30
0.19898877156380443
 70
     32
  0
VERTEX
  8
MY3DLAYER
10
-68.14598722450063
20
6.985561350296904
30
0.19898877156380443
 70
     32
  0
VERTEX
  8
MY3DLAYER
10
-68.14598722450063
20
6.985561350296904
30
3.1989887715638043
 70
     32
  0
VERTEX
  8
MY3DLAYER
10
-67.78421579215443
20
6.835710716539973
30
3.1989887715638043
 70
     32
  0
VERTEX
  8
MY3DLAYER
10
-67.78421579215443
20
6.835710716539973
30
0.19898877156380443
 70
     32
  0
SEQEND
  0
POLYLINE
 8
Group#17
 66
     1
70
    8
 10
0.0
 20
 0.0
 30
0.0
  0
VERTEX
  8
MY3DLAYER
10
-68.14598722450063
20
6.985561350296904
30
0.19898877156380443
 70
     32
  0
VERTEX
  8
MY3DLAYER
10
-68.45664739628045
20
7.223939284193731
30
0.19898877156380443
 70
     32
  0
VERTEX
  8
MY3DLAYER
10
-68.45664739628045
20
7.223939284193731
30
3.1989887715638043
 70
     32
  0
VERTEX
  8
MY3DLAYER
10
-68.14598722450063
20
6.985561350296904
30
3.1989887715638043
 70
     32
  0
VERTEX
  8
MY3DLAYER
10
-68.14598722450063
20
6.985561350296904
30
0.19898877156380443
 70
     32
  0
SEQEND
  0
POLYLINE
 8
Group#17
 66
     1
70
    8
 10
0.0
 20
 0.0
 30
0.0
  0
VERTEX
  8
MY3DLAYER
10
-68.45664739628045
20
7.223939284193731
30
0.19898877156380443
 70
     32
  0
VERTEX
  8
MY3DLAYER
10
-68.6950253301773
20
7.534599455973568
30
0.19898877156380443
 70
     32
  0
VERTEX
  8
MY3DLAYER
10
-68.6950253301773
20
7.534599455973568
30
3.1989887715638043
 70
     32
  0
VERTEX
  8
MY3DLAYER
10
-68.45664739628045
20
7.223939284193731
30
3.1989887715638043
 70
     32
  0
VERTEX
  8
MY3DLAYER
10
-68.45664739628045
20
7.223939284193731
30
0.19898877156380443
 70
     32
  0
SEQEND
  0
POLYLINE
 8
Group#17
 66
     1
70
    8
 10
0.0
 20
 0.0
 30
0.0
  0
VERTEX
  8
MY3DLAYER
10
-68.6950253301773
20
7.534599455973568
30
0.19898877156380443
 70
     32
  0
VERTEX
  8
MY3DLAYER
10
-68.84487596393423
20
7.896370888319777
30
0.19898877156380443
 70
     32
  0
VERTEX
  8
MY3DLAYER
10
-68.84487596393423
20
7.896370888319777
30
3.1989887715638043
 70
     32
  0
VERTEX
  8
MY3DLAYER
10
-68.6950253301773
20
7.534599455973568
30
3.1989887715638043
 70
     32
  0
VERTEX
  8
MY3DLAYER
10
-68.6950253301773
20
7.534599455973568
30
0.19898877156380443
 70
     32
  0
SEQEND
  0
POLYLINE
 8
Group#17
 66
     1
70
    8
 10
0.0
 20
 0.0
 30
0.0
  0
VERTEX
  8
MY3DLAYER
10
-68.84487596393423
20
7.896370888319777
30
0.19898877156380443
 70
     32
  0
VERTEX
  8
MY3DLAYER
10
-68.89598722450063
20
8.284599455973579
30
0.19898877156380443
 70
     32
  0
VERTEX
  8
MY3DLAYER
10
-68.89598722450063
20
8.284599455973579
30
3.1989887715638043
 70
     32
  0
VERTEX
  8
MY3DLAYER
10
-68.84487596393423
20
7.896370888319777
30
3.1989887715638043
 70
     32
  0
VERTEX
  8
MY3DLAYER
10
-68.84487596393423
20
7.896370888319777
30
0.19898877156380443
 70
     32
  0
SEQEND
  0
POLYLINE
 8
Group#17
 66
     1
70
    8
 10
0.0
 20
 0.0
 30
0.0
  0
VERTEX
  8
MY3DLAYER
10
-68.89598722450063
20
8.284599455973579
30
0.19898877156380443
 70
     32
  0
VERTEX
  8
MY3DLAYER
10
-68.84487596393423
20
8.672828023627334
30
0.19898877156380443
 70
     32
  0
VERTEX
  8
MY3DLAYER
10
-68.84487596393423
20
8.672828023627334
30
3.1989887715638043
 70
     32
  0
VERTEX
  8
MY3DLAYER
10
-68.89598722450063
20
8.284599455973579
30
3.1989887715638043
 70
     32
  0
VERTEX
  8
MY3DLAYER
10
-68.89598722450063
20
8.284599455973579
30
0.19898877156380443
 70
     32
  0
SEQEND
  0
POLYLINE
 8
Group#17
 66
     1
70
    8
 10
0.0
 20
 0.0
 30
0.0
  0
VERTEX
  8
MY3DLAYER
10
-68.84487596393423
20
8.672828023627334
30
0.19898877156380443
 70
     32
  0
VERTEX
  8
MY3DLAYER
10
-68.6950253301773
20
9.034599455973588
30
0.19898877156380443
 70
     32
  0
VERTEX
  8
MY3DLAYER
10
-68.6950253301773
20
9.034599455973588
30
3.1989887715638043
 70
     32
  0
VERTEX
  8
MY3DLAYER
10
-68.84487596393423
20
8.672828023627334
30
3.1989887715638043
 70
     32
  0
VERTEX
  8
MY3DLAYER
10
-68.84487596393423
20
8.672828023627334
30
0.19898877156380443
 70
     32
  0
SEQEND
  0
POLYLINE
 8
Group#17
 66
     1
70
    8
 10
0.0
 20
 0.0
 30
0.0
  0
VERTEX
  8
MY3DLAYER
10
-68.6950253301773
20
9.034599455973588
30
0.19898877156380443
 70
     32
  0
VERTEX
  8
MY3DLAYER
10
-68.45664739628046
20
9.34525962775338
30
0.19898877156380443
 70
     32
  0
VERTEX
  8
MY3DLAYER
10
-68.45664739628046
20
9.34525962775338
30
3.1989887715638043
 70
     32
  0
VERTEX
  8
MY3DLAYER
10
-68.6950253301773
20
9.034599455973588
30
3.1989887715638043
 70
     32
  0
VERTEX
  8
MY3DLAYER
10
-68.6950253301773
20
9.034599455973588
30
0.19898877156380443
 70
     32
  0
SEQEND
  0
POLYLINE
 8
Group#17
 66
     1
70
    8
 10
0.0
 20
 0.0
 30
0.0
  0
VERTEX
  8
MY3DLAYER
10
-68.45664739628046
20
9.34525962775338
30
0.19898877156380443
 70
     32
  0
VERTEX
  8
MY3DLAYER
10
-68.14598722450064
20
9.583637561650205
30
0.19898877156380443
 70
     32
  0
VERTEX
  8
MY3DLAYER
10
-68.14598722450064
20
9.583637561650205
30
3.1989887715638043
 70
     32
  0
VERTEX
  8
MY3DLAYER
10
-68.45664739628046
20
9.34525962775338
30
3.1989887715638043
 70
     32
  0
VERTEX
  8
MY3DLAYER
10
-68.45664739628046
20
9.34525962775338
30
0.19898877156380443
 70
     32
  0
SEQEND
  0
POLYLINE
 8
Group#17
 66
     1
70
    8
 10
0.0
 20
 0.0
 30
0.0
  0
VERTEX
  8
MY3DLAYER
10
-68.14598722450064
20
9.583637561650205
30
0.19898877156380443
 70
     32
  0
VERTEX
  8
MY3DLAYER
10
-67.78421579215443
20
9.733488195407178
30
0.19898877156380443
 70
     32
  0
VERTEX
  8
MY3DLAYER
10
-67.78421579215443
20
9.733488195407178
30
3.1989887715638043
 70
     32
  0
VERTEX
  8
MY3DLAYER
10
-68.14598722450064
20
9.583637561650205
30
3.1989887715638043
 70
     32
  0
VERTEX
  8
MY3DLAYER
10
-68.14598722450064
20
9.583637561650205
30
0.19898877156380443
 70
     32
  0
SEQEND
  0
POLYLINE
 8
Group#17
 66
     1
70
    8
 10
0.0
 20
 0.0
 30
0.0
  0
VERTEX
  8
MY3DLAYER
10
-67.78421579215443
20
9.733488195407178
30
0.19898877156380443
 70
     32
  0
VERTEX
  8
MY3DLAYER
10
-67.39598722450064
20
9.784599455973549
30
0.19898877156380443
 70
     32
  0
VERTEX
  8
MY3DLAYER
10
-67.39598722450064
20
9.784599455973549
30
3.1989887715638043
 70
     32
  0
VERTEX
  8
MY3DLAYER
10
-67.78421579215443
20
9.733488195407178
30
3.1989887715638043
 70
     32
  0
VERTEX
  8
MY3DLAYER
10
-67.78421579215443
20
9.733488195407178
30
0.19898877156380443
 70
     32
  0
SEQEND
 0
ENDSEC
 0
EOF
