 0
SECTION
 2
ENTITIES
  0
POLYLINE
 8
Group#16
 66
     1
70
    8
 10
0.0
 20
 0.0
 30
0.0
  0
VERTEX
  8
MY3DLAYER
10
-109.57903280522086
20
6.148979561324043
30
3.1989887715638075
 70
     32
  0
VERTEX
  8
MY3DLAYER
10
-113.57903280522085
20
6.148979561324043
30
3.1989887715638052
 70
     32
  0
VERTEX
  8
MY3DLAYER
10
-113.57903280522085
20
6.148979561324043
30
0.19898877156381375
 70
     32
  0
VERTEX
  8
MY3DLAYER
10
-109.57903280522086
20
6.148979561324043
30
0.19898877156381342
 70
     32
  0
VERTEX
  8
MY3DLAYER
10
-109.57903280522086
20
6.148979561324043
30
3.1989887715638075
 70
     32
  0
SEQEND
  0
POLYLINE
 8
Group#16
 66
     1
70
    8
 10
0.0
 20
 0.0
 30
0.0
  0
VERTEX
  8
MY3DLAYER
10
-113.57903280522085
20
6.148979561324043
30
3.1989887715638052
 70
     32
  0
VERTEX
  8
MY3DLAYER
10
-113.57903280522085
20
9.148979561324039
30
3.198988771563806
 70
     32
  0
VERTEX
  8
MY3DLAYER
10
-113.57903280522085
20
9.148979561324039
30
0.19898877156381428
 70
     32
  0
VERTEX
  8
MY3DLAYER
10
-113.57903280522085
20
6.148979561324043
30
0.19898877156381375
 70
     32
  0
VERTEX
  8
MY3DLAYER
10
-113.57903280522085
20
6.148979561324043
30
3.1989887715638052
 70
     32
  0
SEQEND
  0
POLYLINE
 8
Group#16
 66
     1
70
    8
 10
0.0
 20
 0.0
 30
0.0
  0
VERTEX
  8
MY3DLAYER
10
-109.57903280522086
20
20.14897956132402
30
3.19898877156381
 70
     32
  0
VERTEX
  8
MY3DLAYER
10
-109.57903280522086
20
6.148979561324043
30
3.1989887715638075
 70
     32
  0
VERTEX
  8
MY3DLAYER
10
-109.57903280522086
20
6.148979561324043
30
0.19898877156381342
 70
     32
  0
VERTEX
  8
MY3DLAYER
10
-109.57903280522086
20
20.14897956132402
30
0.1989887715638159
 70
     32
  0
VERTEX
  8
MY3DLAYER
10
-109.57903280522086
20
20.14897956132402
30
3.19898877156381
 70
     32
  0
SEQEND
  0
POLYLINE
 8
Group#16
 66
     1
70
    8
 10
0.0
 20
 0.0
 30
0.0
  0
VERTEX
  8
MY3DLAYER
10
-113.57903280522085
20
17.148979561324023
30
0.1989887715638157
 70
     32
  0
VERTEX
  8
MY3DLAYER
10
-113.57903280522082
20
20.14897956132402
30
0.19898877156381622
 70
     32
  0
VERTEX
  8
MY3DLAYER
10
-109.57903280522086
20
20.14897956132402
30
0.1989887715638159
 70
     32
  0
VERTEX
  8
MY3DLAYER
10
-109.57903280522086
20
6.148979561324043
30
0.19898877156381342
 70
     32
  0
VERTEX
  8
MY3DLAYER
10
-113.57903280522085
20
6.148979561324043
30
0.19898877156381375
 70
     32
  0
VERTEX
  8
MY3DLAYER
10
-113.57903280522085
20
9.148979561324039
30
0.19898877156381428
 70
     32
  0
VERTEX
  8
MY3DLAYER
10
-139.87903280522087
20
9.148979561324039
30
0.19898877156381642
 70
     32
  0
VERTEX
  8
MY3DLAYER
10
-139.87903280522087
20
17.148979561324023
30
0.1989887715638178
 70
     32
  0
VERTEX
  8
MY3DLAYER
10
-113.57903280522085
20
17.148979561324023
30
0.1989887715638157
 70
     32
  0
SEQEND
  0
POLYLINE
 8
Group#16
 66
     1
70
    8
 10
0.0
 20
 0.0
 30
0.0
  0
VERTEX
  8
MY3DLAYER
10
-116.72903280522085
20
12.898979561323817
30
0.19898877156379297
 70
     32
  0
VERTEX
  8
MY3DLAYER
10
-116.78014406578725
20
13.287208128977618
30
0.1989887715637928
 70
     32
  0
VERTEX
  8
MY3DLAYER
10
-116.9299946995442
20
13.648979561323827
30
0.19898877156379227
 70
     32
  0
VERTEX
  8
MY3DLAYER
10
-117.16837263344102
20
13.959639733103662
30
0.19898877156379297
 70
     32
  0
VERTEX
  8
MY3DLAYER
10
-117.47903280522084
20
14.198017667000489
30
0.19898877156379297
 70
     32
  0
VERTEX
  8
MY3DLAYER
10
-117.84080423756707
20
14.347868300757419
30
0.19898877156379297
 70
     32
  0
VERTEX
  8
MY3DLAYER
10
-118.22903280522085
20
14.398979561323836
30
0.19898877156379297
 70
     32
  0
VERTEX
  8
MY3DLAYER
10
-118.61726137287464
20
14.347868300757419
30
0.19898877156379297
 70
     32
  0
VERTEX
  8
MY3DLAYER
10
-118.97903280522084
20
14.198017667000489
30
0.19898877156379313
 70
     32
  0
VERTEX
  8
MY3DLAYER
10
-119.28969297700067
20
13.959639733103662
30
0.19898877156379313
 70
     32
  0
VERTEX
  8
MY3DLAYER
10
-119.5280709108975
20
13.648979561323827
30
0.19898877156379244
 70
     32
  0
VERTEX
  8
MY3DLAYER
10
-119.67792154465445
20
13.287208128977618
30
0.19898877156379297
 70
     32
  0
VERTEX
  8
MY3DLAYER
10
-119.72903280522085
20
12.898979561323817
30
0.1989887715637935
 70
     32
  0
VERTEX
  8
MY3DLAYER
10
-119.67792154465445
20
12.510750993670062
30
0.1989887715637928
 70
     32
  0
VERTEX
  8
MY3DLAYER
10
-119.5280709108975
20
12.148979561323854
30
0.1989887715637926
 70
     32
  0
VERTEX
  8
MY3DLAYER
10
-119.28969297700067
20
11.838319389544017
30
0.19898877156379297
 70
     32
  0
VERTEX
  8
MY3DLAYER
10
-118.97903280522084
20
11.59994145564719
30
0.19898877156379244
 70
     32
  0
VERTEX
  8
MY3DLAYER
10
-118.61726137287464
20
11.450090821890216
30
0.19898877156379227
 70
     32
  0
VERTEX
  8
MY3DLAYER
10
-118.22903280522085
20
11.398979561323843
30
0.19898877156379244
 70
     32
  0
VERTEX
  8
MY3DLAYER
10
-117.84080423756707
20
11.450090821890216
30
0.19898877156379244
 70
     32
  0
VERTEX
  8
MY3DLAYER
10
-117.47903280522087
20
11.59994145564719
30
0.19898877156379244
 70
     32
  0
VERTEX
  8
MY3DLAYER
10
-117.16837263344102
20
11.838319389544017
30
0.1989887715637928
 70
     32
  0
VERTEX
  8
MY3DLAYER
10
-116.9299946995442
20
12.148979561323854
30
0.1989887715637926
 70
     32
  0
VERTEX
  8
MY3DLAYER
10
-116.78014406578725
20
12.510750993670062
30
0.19898877156379244
 70
     32
  0
VERTEX
  8
MY3DLAYER
10
-116.72903280522085
20
12.898979561323817
30
0.19898877156379297
 70
     32
  0
SEQEND
  0
POLYLINE
 8
Group#16
 66
     1
70
    8
 10
0.0
 20
 0.0
 30
0.0
  0
VERTEX
  8
MY3DLAYER
10
-136.01726137287463
20
11.450090821890349
30
0.19898877156383896
 70
     32
  0
VERTEX
  8
MY3DLAYER
10
-135.62903280522085
20
11.398979561323978
30
0.19898877156383896
 70
     32
  0
VERTEX
  8
MY3DLAYER
10
-135.24080423756706
20
11.450090821890349
30
0.19898877156383896
 70
     32
  0
VERTEX
  8
MY3DLAYER
10
-134.87903280522085
20
11.599941455647324
30
0.19898877156383896
 70
     32
  0
VERTEX
  8
MY3DLAYER
10
-134.56837263344102
20
11.83831938954415
30
0.19898877156383968
 70
     32
  0
VERTEX
  8
MY3DLAYER
10
-134.3299946995442
20
12.148979561323943
30
0.19898877156383896
 70
     32
  0
VERTEX
  8
MY3DLAYER
10
-134.18014406578723
20
12.510750993670197
30
0.19898877156383862
 70
     32
  0
VERTEX
  8
MY3DLAYER
10
-134.12903280522085
20
12.898979561323952
30
0.19898877156383932
 70
     32
  0
VERTEX
  8
MY3DLAYER
10
-134.18014406578723
20
13.287208128977753
30
0.19898877156383915
 70
     32
  0
VERTEX
  8
MY3DLAYER
10
-134.3299946995442
20
13.648979561323962
30
0.1989887715638388
 70
     32
  0
VERTEX
  8
MY3DLAYER
10
-134.56837263344102
20
13.959639733103753
30
0.19898877156384
 70
     32
  0
VERTEX
  8
MY3DLAYER
10
-134.87903280522085
20
14.198017667000626
30
0.19898877156383948
 70
     32
  0
VERTEX
  8
MY3DLAYER
10
-135.24080423756706
20
14.347868300757554
30
0.19898877156383948
 70
     32
  0
VERTEX
  8
MY3DLAYER
10
-135.62903280522085
20
14.398979561323971
30
0.19898877156383932
 70
     32
  0
VERTEX
  8
MY3DLAYER
10
-136.01726137287463
20
14.347868300757554
30
0.19898877156383948
 70
     32
  0
VERTEX
  8
MY3DLAYER
10
-136.37903280522085
20
14.198017667000626
30
0.19898877156383948
 70
     32
  0
VERTEX
  8
MY3DLAYER
10
-136.68969297700068
20
13.959639733103753
30
0.1989887715638402
 70
     32
  0
VERTEX
  8
MY3DLAYER
10
-136.9280709108975
20
13.648979561323962
30
0.19898877156383948
 70
     32
  0
VERTEX
  8
MY3DLAYER
10
-137.07792154465446
20
13.287208128977753
30
0.19898877156383948
 70
     32
  0
VERTEX
  8
MY3DLAYER
10
-137.12903280522085
20
12.898979561323952
30
0.19898877156383948
 70
     32
  0
VERTEX
  8
MY3DLAYER
10
-137.07792154465446
20
12.510750993670197
30
0.19898877156383932
 70
     32
  0
VERTEX
  8
MY3DLAYER
10
-136.9280709108975
20
12.148979561323943
30
0.19898877156383932
 70
     32
  0
VERTEX
  8
MY3DLAYER
10
-136.68969297700068
20
11.83831938954415
30
0.19898877156383984
 70
     32
  0
VERTEX
  8
MY3DLAYER
10
-136.37903280522082
20
11.599941455647324
30
0.19898877156383862
 70
     32
  0
VERTEX
  8
MY3DLAYER
10
-136.01726137287463
20
11.450090821890349
30
0.19898877156383896
 70
     32
  0
SEQEND
  0
POLYLINE
 8
Group#16
 66
     1
70
    8
 10
0.0
 20
 0.0
 30
0.0
  0
VERTEX
  8
MY3DLAYER
10
-113.57903280522082
20
20.14897956132402
30
3.198988771563811
 70
     32
  0
VERTEX
  8
MY3DLAYER
10
-109.57903280522086
20
20.14897956132402
30
3.19898877156381
 70
     32
  0
VERTEX
  8
MY3DLAYER
10
-109.57903280522086
20
20.14897956132402
30
0.1989887715638159
 70
     32
  0
VERTEX
  8
MY3DLAYER
10
-113.57903280522082
20
20.14897956132402
30
0.19898877156381622
 70
     32
  0
VERTEX
  8
MY3DLAYER
10
-113.57903280522082
20
20.14897956132402
30
3.198988771563811
 70
     32
  0
SEQEND
  0
POLYLINE
 8
Group#16
 66
     1
70
    8
 10
0.0
 20
 0.0
 30
0.0
  0
VERTEX
  8
MY3DLAYER
10
-113.57903280522082
20
20.14897956132402
30
0.19898877156381622
 70
     32
  0
VERTEX
  8
MY3DLAYER
10
-113.57903280522085
20
17.148979561324023
30
0.1989887715638157
 70
     32
  0
VERTEX
  8
MY3DLAYER
10
-113.57903280522085
20
17.148979561324023
30
3.1989887715638075
 70
     32
  0
VERTEX
  8
MY3DLAYER
10
-113.57903280522082
20
20.14897956132402
30
3.198988771563811
 70
     32
  0
VERTEX
  8
MY3DLAYER
10
-113.57903280522082
20
20.14897956132402
30
0.19898877156381622
 70
     32
  0
SEQEND
  0
POLYLINE
 8
Group#16
 66
     1
70
    8
 10
0.0
 20
 0.0
 30
0.0
  0
VERTEX
  8
MY3DLAYER
10
-113.57903280522082
20
20.14897956132402
30
3.198988771563811
 70
     32
  0
VERTEX
  8
MY3DLAYER
10
-113.57903280522085
20
17.148979561324023
30
3.1989887715638075
 70
     32
  0
VERTEX
  8
MY3DLAYER
10
-139.87903280522087
20
17.148979561324023
30
3.1989887715638115
 70
     32
  0
VERTEX
  8
MY3DLAYER
10
-139.87903280522087
20
9.148979561324039
30
3.19898877156381
 70
     32
  0
VERTEX
  8
MY3DLAYER
10
-113.57903280522085
20
9.148979561324039
30
3.198988771563806
 70
     32
  0
VERTEX
  8
MY3DLAYER
10
-113.57903280522085
20
6.148979561324043
30
3.1989887715638052
 70
     32
  0
VERTEX
  8
MY3DLAYER
10
-109.57903280522086
20
6.148979561324043
30
3.1989887715638075
 70
     32
  0
VERTEX
  8
MY3DLAYER
10
-109.57903280522086
20
20.14897956132402
30
3.19898877156381
 70
     32
  0
VERTEX
  8
MY3DLAYER
10
-113.57903280522082
20
20.14897956132402
30
3.198988771563811
 70
     32
  0
SEQEND
  0
POLYLINE
 8
Group#16
 66
     1
70
    8
 10
0.0
 20
 0.0
 30
0.0
  0
VERTEX
  8
MY3DLAYER
10
-116.78014406578725
20
13.287208128977618
30
3.1989887715638097
 70
     32
  0
VERTEX
  8
MY3DLAYER
10
-116.72903280522085
20
12.898979561323817
30
3.1989887715638097
 70
     32
  0
VERTEX
  8
MY3DLAYER
10
-116.78014406578725
20
12.510750993670062
30
3.1989887715638097
 70
     32
  0
VERTEX
  8
MY3DLAYER
10
-116.9299946995442
20
12.148979561323854
30
3.1989887715638066
 70
     32
  0
VERTEX
  8
MY3DLAYER
10
-117.16837263344102
20
11.838319389544017
30
3.1989887715638066
 70
     32
  0
VERTEX
  8
MY3DLAYER
10
-117.47903280522087
20
11.59994145564719
30
3.1989887715638066
 70
     32
  0
VERTEX
  8
MY3DLAYER
10
-117.84080423756707
20
11.450090821890216
30
3.198988771563808
 70
     32
  0
VERTEX
  8
MY3DLAYER
10
-118.22903280522085
20
11.398979561323843
30
3.198988771563808
 70
     32
  0
VERTEX
  8
MY3DLAYER
10
-118.61726137287464
20
11.450090821890216
30
3.1989887715638097
 70
     32
  0
VERTEX
  8
MY3DLAYER
10
-118.97903280522084
20
11.59994145564719
30
3.1989887715638097
 70
     32
  0
VERTEX
  8
MY3DLAYER
10
-119.28969297700067
20
11.838319389544017
30
3.1989887715638097
 70
     32
  0
VERTEX
  8
MY3DLAYER
10
-119.5280709108975
20
12.148979561323854
30
3.1989887715638097
 70
     32
  0
VERTEX
  8
MY3DLAYER
10
-119.67792154465445
20
12.510750993670062
30
3.19898877156381
 70
     32
  0
VERTEX
  8
MY3DLAYER
10
-119.72903280522085
20
12.898979561323817
30
3.19898877156381
 70
     32
  0
VERTEX
  8
MY3DLAYER
10
-119.67792154465445
20
13.287208128977618
30
3.1989887715638097
 70
     32
  0
VERTEX
  8
MY3DLAYER
10
-119.5280709108975
20
13.648979561323827
30
3.1989887715638097
 70
     32
  0
VERTEX
  8
MY3DLAYER
10
-119.28969297700067
20
13.959639733103662
30
3.1989887715638075
 70
     32
  0
VERTEX
  8
MY3DLAYER
10
-118.97903280522084
20
14.198017667000489
30
3.1989887715638075
 70
     32
  0
VERTEX
  8
MY3DLAYER
10
-118.61726137287464
20
14.347868300757419
30
3.19898877156381
 70
     32
  0
VERTEX
  8
MY3DLAYER
10
-118.22903280522085
20
14.398979561323836
30
3.198988771563809
 70
     32
  0
VERTEX
  8
MY3DLAYER
10
-117.84080423756707
20
14.347868300757419
30
3.198988771563811
 70
     32
  0
VERTEX
  8
MY3DLAYER
10
-117.47903280522084
20
14.198017667000489
30
3.1989887715638097
 70
     32
  0
VERTEX
  8
MY3DLAYER
10
-117.16837263344102
20
13.959639733103662
30
3.1989887715638097
 70
     32
  0
VERTEX
  8
MY3DLAYER
10
-116.9299946995442
20
13.648979561323827
30
3.1989887715638097
 70
     32
  0
VERTEX
  8
MY3DLAYER
10
-116.78014406578725
20
13.287208128977618
30
3.1989887715638097
 70
     32
  0
SEQEND
  0
POLYLINE
 8
Group#16
 66
     1
70
    8
 10
0.0
 20
 0.0
 30
0.0
  0
VERTEX
  8
MY3DLAYER
10
-135.62903280522085
20
11.398979561323978
30
3.198988771563811
 70
     32
  0
VERTEX
  8
MY3DLAYER
10
-136.01726137287463
20
11.450090821890349
30
3.198988771563811
 70
     32
  0
VERTEX
  8
MY3DLAYER
10
-136.37903280522082
20
11.599941455647324
30
3.198988771563811
 70
     32
  0
VERTEX
  8
MY3DLAYER
10
-136.68969297700068
20
11.83831938954415
30
3.198988771563811
 70
     32
  0
VERTEX
  8
MY3DLAYER
10
-136.9280709108975
20
12.148979561323943
30
3.198988771563811
 70
     32
  0
VERTEX
  8
MY3DLAYER
10
-137.07792154465446
20
12.510750993670197
30
3.1989887715638115
 70
     32
  0
VERTEX
  8
MY3DLAYER
10
-137.12903280522085
20
12.898979561323952
30
3.1989887715638115
 70
     32
  0
VERTEX
  8
MY3DLAYER
10
-137.07792154465446
20
13.287208128977753
30
3.198988771563811
 70
     32
  0
VERTEX
  8
MY3DLAYER
10
-136.9280709108975
20
13.648979561323962
30
3.198988771563809
 70
     32
  0
VERTEX
  8
MY3DLAYER
10
-136.68969297700068
20
13.959639733103753
30
3.198988771563809
 70
     32
  0
VERTEX
  8
MY3DLAYER
10
-136.37903280522085
20
14.198017667000626
30
3.198988771563809
 70
     32
  0
VERTEX
  8
MY3DLAYER
10
-136.01726137287463
20
14.347868300757554
30
3.1989887715638115
 70
     32
  0
VERTEX
  8
MY3DLAYER
10
-135.62903280522085
20
14.398979561323971
30
3.1989887715638115
 70
     32
  0
VERTEX
  8
MY3DLAYER
10
-135.24080423756706
20
14.347868300757554
30
3.19898877156381
 70
     32
  0
VERTEX
  8
MY3DLAYER
10
-134.87903280522085
20
14.198017667000626
30
3.19898877156381
 70
     32
  0
VERTEX
  8
MY3DLAYER
10
-134.56837263344102
20
13.959639733103753
30
3.198988771563811
 70
     32
  0
VERTEX
  8
MY3DLAYER
10
-134.3299946995442
20
13.648979561323962
30
3.198988771563811
 70
     32
  0
VERTEX
  8
MY3DLAYER
10
-134.18014406578723
20
13.287208128977753
30
3.198988771563811
 70
     32
  0
VERTEX
  8
MY3DLAYER
10
-134.12903280522085
20
12.898979561323952
30
3.198988771563811
 70
     32
  0
VERTEX
  8
MY3DLAYER
10
-134.18014406578723
20
12.510750993670197
30
3.198988771563811
 70
     32
  0
VERTEX
  8
MY3DLAYER
10
-134.3299946995442
20
12.148979561323943
30
3.198988771563808
 70
     32
  0
VERTEX
  8
MY3DLAYER
10
-134.56837263344102
20
11.83831938954415
30
3.198988771563808
 70
     32
  0
VERTEX
  8
MY3DLAYER
10
-134.87903280522085
20
11.599941455647324
30
3.1989887715638097
 70
     32
  0
VERTEX
  8
MY3DLAYER
10
-135.24080423756706
20
11.450090821890349
30
3.1989887715638097
 70
     32
  0
VERTEX
  8
MY3DLAYER
10
-135.62903280522085
20
11.398979561323978
30
3.198988771563811
 70
     32
  0
SEQEND
  0
POLYLINE
 8
Group#16
 66
     1
70
    8
 10
0.0
 20
 0.0
 30
0.0
  0
VERTEX
  8
MY3DLAYER
10
-113.57903280522085
20
9.148979561324039
30
0.19898877156381428
 70
     32
  0
VERTEX
  8
MY3DLAYER
10
-113.57903280522085
20
9.148979561324039
30
3.198988771563806
 70
     32
  0
VERTEX
  8
MY3DLAYER
10
-139.87903280522087
20
9.148979561324039
30
3.19898877156381
 70
     32
  0
VERTEX
  8
MY3DLAYER
10
-139.87903280522087
20
9.148979561324039
30
0.19898877156381642
 70
     32
  0
VERTEX
  8
MY3DLAYER
10
-113.57903280522085
20
9.148979561324039
30
0.19898877156381428
 70
     32
  0
SEQEND
  0
POLYLINE
 8
Group#16
 66
     1
70
    8
 10
0.0
 20
 0.0
 30
0.0
  0
VERTEX
  8
MY3DLAYER
10
-113.57903280522085
20
17.148979561324023
30
3.1989887715638075
 70
     32
  0
VERTEX
  8
MY3DLAYER
10
-113.57903280522085
20
17.148979561324023
30
0.1989887715638157
 70
     32
  0
VERTEX
  8
MY3DLAYER
10
-139.87903280522087
20
17.148979561324023
30
0.1989887715638178
 70
     32
  0
VERTEX
  8
MY3DLAYER
10
-139.87903280522087
20
17.148979561324023
30
3.1989887715638115
 70
     32
  0
VERTEX
  8
MY3DLAYER
10
-113.57903280522085
20
17.148979561324023
30
3.1989887715638075
 70
     32
  0
SEQEND
  0
POLYLINE
 8
Group#16
 66
     1
70
    8
 10
0.0
 20
 0.0
 30
0.0
  0
VERTEX
  8
MY3DLAYER
10
-139.87903280522087
20
9.148979561324039
30
3.19898877156381
 70
     32
  0
VERTEX
  8
MY3DLAYER
10
-139.87903280522087
20
17.148979561324023
30
3.1989887715638115
 70
     32
  0
VERTEX
  8
MY3DLAYER
10
-139.87903280522087
20
17.148979561324023
30
0.1989887715638178
 70
     32
  0
VERTEX
  8
MY3DLAYER
10
-139.87903280522087
20
9.148979561324039
30
0.19898877156381642
 70
     32
  0
VERTEX
  8
MY3DLAYER
10
-139.87903280522087
20
9.148979561324039
30
3.19898877156381
 70
     32
  0
SEQEND
  0
POLYLINE
 8
Group#16
 66
     1
70
    8
 10
0.0
 20
 0.0
 30
0.0
  0
VERTEX
  8
MY3DLAYER
10
-116.78014406578725
20
13.287208128977618
30
0.1989887715637928
 70
     32
  0
VERTEX
  8
MY3DLAYER
10
-116.72903280522085
20
12.898979561323817
30
0.19898877156379297
 70
     32
  0
VERTEX
  8
MY3DLAYER
10
-116.72903280522085
20
12.898979561323817
30
3.1989887715638097
 70
     32
  0
VERTEX
  8
MY3DLAYER
10
-116.78014406578725
20
13.287208128977618
30
3.1989887715638097
 70
     32
  0
VERTEX
  8
MY3DLAYER
10
-116.78014406578725
20
13.287208128977618
30
0.1989887715637928
 70
     32
  0
SEQEND
  0
POLYLINE
 8
Group#16
 66
     1
70
    8
 10
0.0
 20
 0.0
 30
0.0
  0
VERTEX
  8
MY3DLAYER
10
-116.72903280522085
20
12.898979561323817
30
0.19898877156379297
 70
     32
  0
VERTEX
  8
MY3DLAYER
10
-116.78014406578725
20
12.510750993670062
30
0.19898877156379244
 70
     32
  0
VERTEX
  8
MY3DLAYER
10
-116.78014406578725
20
12.510750993670062
30
3.1989887715638097
 70
     32
  0
VERTEX
  8
MY3DLAYER
10
-116.72903280522085
20
12.898979561323817
30
3.1989887715638097
 70
     32
  0
VERTEX
  8
MY3DLAYER
10
-116.72903280522085
20
12.898979561323817
30
0.19898877156379297
 70
     32
  0
SEQEND
  0
POLYLINE
 8
Group#16
 66
     1
70
    8
 10
0.0
 20
 0.0
 30
0.0
  0
VERTEX
  8
MY3DLAYER
10
-116.78014406578725
20
12.510750993670062
30
0.19898877156379244
 70
     32
  0
VERTEX
  8
MY3DLAYER
10
-116.9299946995442
20
12.148979561323854
30
0.1989887715637926
 70
     32
  0
VERTEX
  8
MY3DLAYER
10
-116.9299946995442
20
12.148979561323854
30
3.1989887715638066
 70
     32
  0
VERTEX
  8
MY3DLAYER
10
-116.78014406578725
20
12.510750993670062
30
3.1989887715638097
 70
     32
  0
VERTEX
  8
MY3DLAYER
10
-116.78014406578725
20
12.510750993670062
30
0.19898877156379244
 70
     32
  0
SEQEND
  0
POLYLINE
 8
Group#16
 66
     1
70
    8
 10
0.0
 20
 0.0
 30
0.0
  0
VERTEX
  8
MY3DLAYER
10
-116.9299946995442
20
12.148979561323854
30
0.1989887715637926
 70
     32
  0
VERTEX
  8
MY3DLAYER
10
-117.16837263344102
20
11.838319389544017
30
0.1989887715637928
 70
     32
  0
VERTEX
  8
MY3DLAYER
10
-117.16837263344102
20
11.838319389544017
30
3.1989887715638066
 70
     32
  0
VERTEX
  8
MY3DLAYER
10
-116.9299946995442
20
12.148979561323854
30
3.1989887715638066
 70
     32
  0
VERTEX
  8
MY3DLAYER
10
-116.9299946995442
20
12.148979561323854
30
0.1989887715637926
 70
     32
  0
SEQEND
  0
POLYLINE
 8
Group#16
 66
     1
70
    8
 10
0.0
 20
 0.0
 30
0.0
  0
VERTEX
  8
MY3DLAYER
10
-117.16837263344102
20
11.838319389544017
30
0.1989887715637928
 70
     32
  0
VERTEX
  8
MY3DLAYER
10
-117.47903280522087
20
11.59994145564719
30
0.19898877156379244
 70
     32
  0
VERTEX
  8
MY3DLAYER
10
-117.47903280522087
20
11.59994145564719
30
3.1989887715638066
 70
     32
  0
VERTEX
  8
MY3DLAYER
10
-117.16837263344102
20
11.838319389544017
30
3.1989887715638066
 70
     32
  0
VERTEX
  8
MY3DLAYER
10
-117.16837263344102
20
11.838319389544017
30
0.1989887715637928
 70
     32
  0
SEQEND
  0
POLYLINE
 8
Group#16
 66
     1
70
    8
 10
0.0
 20
 0.0
 30
0.0
  0
VERTEX
  8
MY3DLAYER
10
-117.47903280522087
20
11.59994145564719
30
0.19898877156379244
 70
     32
  0
VERTEX
  8
MY3DLAYER
10
-117.84080423756707
20
11.450090821890216
30
0.19898877156379244
 70
     32
  0
VERTEX
  8
MY3DLAYER
10
-117.84080423756707
20
11.450090821890216
30
3.198988771563808
 70
     32
  0
VERTEX
  8
MY3DLAYER
10
-117.47903280522087
20
11.59994145564719
30
3.1989887715638066
 70
     32
  0
VERTEX
  8
MY3DLAYER
10
-117.47903280522087
20
11.59994145564719
30
0.19898877156379244
 70
     32
  0
SEQEND
  0
POLYLINE
 8
Group#16
 66
     1
70
    8
 10
0.0
 20
 0.0
 30
0.0
  0
VERTEX
  8
MY3DLAYER
10
-117.84080423756707
20
11.450090821890216
30
0.19898877156379244
 70
     32
  0
VERTEX
  8
MY3DLAYER
10
-118.22903280522085
20
11.398979561323843
30
0.19898877156379244
 70
     32
  0
VERTEX
  8
MY3DLAYER
10
-118.22903280522085
20
11.398979561323843
30
3.198988771563808
 70
     32
  0
VERTEX
  8
MY3DLAYER
10
-117.84080423756707
20
11.450090821890216
30
3.198988771563808
 70
     32
  0
VERTEX
  8
MY3DLAYER
10
-117.84080423756707
20
11.450090821890216
30
0.19898877156379244
 70
     32
  0
SEQEND
  0
POLYLINE
 8
Group#16
 66
     1
70
    8
 10
0.0
 20
 0.0
 30
0.0
  0
VERTEX
  8
MY3DLAYER
10
-118.22903280522085
20
11.398979561323843
30
0.19898877156379244
 70
     32
  0
VERTEX
  8
MY3DLAYER
10
-118.61726137287464
20
11.450090821890216
30
0.19898877156379227
 70
     32
  0
VERTEX
  8
MY3DLAYER
10
-118.61726137287464
20
11.450090821890216
30
3.1989887715638097
 70
     32
  0
VERTEX
  8
MY3DLAYER
10
-118.22903280522085
20
11.398979561323843
30
3.198988771563808
 70
     32
  0
VERTEX
  8
MY3DLAYER
10
-118.22903280522085
20
11.398979561323843
30
0.19898877156379244
 70
     32
  0
SEQEND
  0
POLYLINE
 8
Group#16
 66
     1
70
    8
 10
0.0
 20
 0.0
 30
0.0
  0
VERTEX
  8
MY3DLAYER
10
-118.61726137287464
20
11.450090821890216
30
0.19898877156379227
 70
     32
  0
VERTEX
  8
MY3DLAYER
10
-118.97903280522084
20
11.59994145564719
30
0.19898877156379244
 70
     32
  0
VERTEX
  8
MY3DLAYER
10
-118.97903280522084
20
11.59994145564719
30
3.1989887715638097
 70
     32
  0
VERTEX
  8
MY3DLAYER
10
-118.61726137287464
20
11.450090821890216
30
3.1989887715638097
 70
     32
  0
VERTEX
  8
MY3DLAYER
10
-118.61726137287464
20
11.450090821890216
30
0.19898877156379227
 70
     32
  0
SEQEND
  0
POLYLINE
 8
Group#16
 66
     1
70
    8
 10
0.0
 20
 0.0
 30
0.0
  0
VERTEX
  8
MY3DLAYER
10
-118.97903280522084
20
11.59994145564719
30
0.19898877156379244
 70
     32
  0
VERTEX
  8
MY3DLAYER
10
-119.28969297700067
20
11.838319389544017
30
0.19898877156379297
 70
     32
  0
VERTEX
  8
MY3DLAYER
10
-119.28969297700067
20
11.838319389544017
30
3.1989887715638097
 70
     32
  0
VERTEX
  8
MY3DLAYER
10
-118.97903280522084
20
11.59994145564719
30
3.1989887715638097
 70
     32
  0
VERTEX
  8
MY3DLAYER
10
-118.97903280522084
20
11.59994145564719
30
0.19898877156379244
 70
     32
  0
SEQEND
  0
POLYLINE
 8
Group#16
 66
     1
70
    8
 10
0.0
 20
 0.0
 30
0.0
  0
VERTEX
  8
MY3DLAYER
10
-119.28969297700067
20
11.838319389544017
30
0.19898877156379297
 70
     32
  0
VERTEX
  8
MY3DLAYER
10
-119.5280709108975
20
12.148979561323854
30
0.1989887715637926
 70
     32
  0
VERTEX
  8
MY3DLAYER
10
-119.5280709108975
20
12.148979561323854
30
3.1989887715638097
 70
     32
  0
VERTEX
  8
MY3DLAYER
10
-119.28969297700067
20
11.838319389544017
30
3.1989887715638097
 70
     32
  0
VERTEX
  8
MY3DLAYER
10
-119.28969297700067
20
11.838319389544017
30
0.19898877156379297
 70
     32
  0
SEQEND
  0
POLYLINE
 8
Group#16
 66
     1
70
    8
 10
0.0
 20
 0.0
 30
0.0
  0
VERTEX
  8
MY3DLAYER
10
-119.5280709108975
20
12.148979561323854
30
0.1989887715637926
 70
     32
  0
VERTEX
  8
MY3DLAYER
10
-119.67792154465445
20
12.510750993670062
30
0.1989887715637928
 70
     32
  0
VERTEX
  8
MY3DLAYER
10
-119.67792154465445
20
12.510750993670062
30
3.19898877156381
 70
     32
  0
VERTEX
  8
MY3DLAYER
10
-119.5280709108975
20
12.148979561323854
30
3.1989887715638097
 70
     32
  0
VERTEX
  8
MY3DLAYER
10
-119.5280709108975
20
12.148979561323854
30
0.1989887715637926
 70
     32
  0
SEQEND
  0
POLYLINE
 8
Group#16
 66
     1
70
    8
 10
0.0
 20
 0.0
 30
0.0
  0
VERTEX
  8
MY3DLAYER
10
-119.67792154465445
20
12.510750993670062
30
0.1989887715637928
 70
     32
  0
VERTEX
  8
MY3DLAYER
10
-119.72903280522085
20
12.898979561323817
30
0.1989887715637935
 70
     32
  0
VERTEX
  8
MY3DLAYER
10
-119.72903280522085
20
12.898979561323817
30
3.19898877156381
 70
     32
  0
VERTEX
  8
MY3DLAYER
10
-119.67792154465445
20
12.510750993670062
30
3.19898877156381
 70
     32
  0
VERTEX
  8
MY3DLAYER
10
-119.67792154465445
20
12.510750993670062
30
0.1989887715637928
 70
     32
  0
SEQEND
  0
POLYLINE
 8
Group#16
 66
     1
70
    8
 10
0.0
 20
 0.0
 30
0.0
  0
VERTEX
  8
MY3DLAYER
10
-119.72903280522085
20
12.898979561323817
30
0.1989887715637935
 70
     32
  0
VERTEX
  8
MY3DLAYER
10
-119.67792154465445
20
13.287208128977618
30
0.19898877156379297
 70
     32
  0
VERTEX
  8
MY3DLAYER
10
-119.67792154465445
20
13.287208128977618
30
3.1989887715638097
 70
     32
  0
VERTEX
  8
MY3DLAYER
10
-119.72903280522085
20
12.898979561323817
30
3.19898877156381
 70
     32
  0
VERTEX
  8
MY3DLAYER
10
-119.72903280522085
20
12.898979561323817
30
0.1989887715637935
 70
     32
  0
SEQEND
  0
POLYLINE
 8
Group#16
 66
     1
70
    8
 10
0.0
 20
 0.0
 30
0.0
  0
VERTEX
  8
MY3DLAYER
10
-119.67792154465445
20
13.287208128977618
30
0.19898877156379297
 70
     32
  0
VERTEX
  8
MY3DLAYER
10
-119.5280709108975
20
13.648979561323827
30
0.19898877156379244
 70
     32
  0
VERTEX
  8
MY3DLAYER
10
-119.5280709108975
20
13.648979561323827
30
3.1989887715638097
 70
     32
  0
VERTEX
  8
MY3DLAYER
10
-119.67792154465445
20
13.287208128977618
30
3.1989887715638097
 70
     32
  0
VERTEX
  8
MY3DLAYER
10
-119.67792154465445
20
13.287208128977618
30
0.19898877156379297
 70
     32
  0
SEQEND
  0
POLYLINE
 8
Group#16
 66
     1
70
    8
 10
0.0
 20
 0.0
 30
0.0
  0
VERTEX
  8
MY3DLAYER
10
-119.5280709108975
20
13.648979561323827
30
0.19898877156379244
 70
     32
  0
VERTEX
  8
MY3DLAYER
10
-119.28969297700067
20
13.959639733103662
30
0.19898877156379313
 70
     32
  0
VERTEX
  8
MY3DLAYER
10
-119.28969297700067
20
13.959639733103662
30
3.1989887715638075
 70
     32
  0
VERTEX
  8
MY3DLAYER
10
-119.5280709108975
20
13.648979561323827
30
3.1989887715638097
 70
     32
  0
VERTEX
  8
MY3DLAYER
10
-119.5280709108975
20
13.648979561323827
30
0.19898877156379244
 70
     32
  0
SEQEND
  0
POLYLINE
 8
Group#16
 66
     1
70
    8
 10
0.0
 20
 0.0
 30
0.0
  0
VERTEX
  8
MY3DLAYER
10
-119.28969297700067
20
13.959639733103662
30
0.19898877156379313
 70
     32
  0
VERTEX
  8
MY3DLAYER
10
-118.97903280522084
20
14.198017667000489
30
0.19898877156379313
 70
     32
  0
VERTEX
  8
MY3DLAYER
10
-118.97903280522084
20
14.198017667000489
30
3.1989887715638075
 70
     32
  0
VERTEX
  8
MY3DLAYER
10
-119.28969297700067
20
13.959639733103662
30
3.1989887715638075
 70
     32
  0
VERTEX
  8
MY3DLAYER
10
-119.28969297700067
20
13.959639733103662
30
0.19898877156379313
 70
     32
  0
SEQEND
  0
POLYLINE
 8
Group#16
 66
     1
70
    8
 10
0.0
 20
 0.0
 30
0.0
  0
VERTEX
  8
MY3DLAYER
10
-118.97903280522084
20
14.198017667000489
30
0.19898877156379313
 70
     32
  0
VERTEX
  8
MY3DLAYER
10
-118.61726137287464
20
14.347868300757419
30
0.19898877156379297
 70
     32
  0
VERTEX
  8
MY3DLAYER
10
-118.61726137287464
20
14.347868300757419
30
3.19898877156381
 70
     32
  0
VERTEX
  8
MY3DLAYER
10
-118.97903280522084
20
14.198017667000489
30
3.1989887715638075
 70
     32
  0
VERTEX
  8
MY3DLAYER
10
-118.97903280522084
20
14.198017667000489
30
0.19898877156379313
 70
     32
  0
SEQEND
  0
POLYLINE
 8
Group#16
 66
     1
70
    8
 10
0.0
 20
 0.0
 30
0.0
  0
VERTEX
  8
MY3DLAYER
10
-118.61726137287464
20
14.347868300757419
30
0.19898877156379297
 70
     32
  0
VERTEX
  8
MY3DLAYER
10
-118.22903280522085
20
14.398979561323836
30
0.19898877156379297
 70
     32
  0
VERTEX
  8
MY3DLAYER
10
-118.22903280522085
20
14.398979561323836
30
3.198988771563809
 70
     32
  0
VERTEX
  8
MY3DLAYER
10
-118.61726137287464
20
14.347868300757419
30
3.19898877156381
 70
     32
  0
VERTEX
  8
MY3DLAYER
10
-118.61726137287464
20
14.347868300757419
30
0.19898877156379297
 70
     32
  0
SEQEND
  0
POLYLINE
 8
Group#16
 66
     1
70
    8
 10
0.0
 20
 0.0
 30
0.0
  0
VERTEX
  8
MY3DLAYER
10
-118.22903280522085
20
14.398979561323836
30
0.19898877156379297
 70
     32
  0
VERTEX
  8
MY3DLAYER
10
-117.84080423756707
20
14.347868300757419
30
0.19898877156379297
 70
     32
  0
VERTEX
  8
MY3DLAYER
10
-117.84080423756707
20
14.347868300757419
30
3.198988771563811
 70
     32
  0
VERTEX
  8
MY3DLAYER
10
-118.22903280522085
20
14.398979561323836
30
3.198988771563809
 70
     32
  0
VERTEX
  8
MY3DLAYER
10
-118.22903280522085
20
14.398979561323836
30
0.19898877156379297
 70
     32
  0
SEQEND
  0
POLYLINE
 8
Group#16
 66
     1
70
    8
 10
0.0
 20
 0.0
 30
0.0
  0
VERTEX
  8
MY3DLAYER
10
-117.84080423756707
20
14.347868300757419
30
0.19898877156379297
 70
     32
  0
VERTEX
  8
MY3DLAYER
10
-117.47903280522084
20
14.198017667000489
30
0.19898877156379297
 70
     32
  0
VERTEX
  8
MY3DLAYER
10
-117.47903280522084
20
14.198017667000489
30
3.1989887715638097
 70
     32
  0
VERTEX
  8
MY3DLAYER
10
-117.84080423756707
20
14.347868300757419
30
3.198988771563811
 70
     32
  0
VERTEX
  8
MY3DLAYER
10
-117.84080423756707
20
14.347868300757419
30
0.19898877156379297
 70
     32
  0
SEQEND
  0
POLYLINE
 8
Group#16
 66
     1
70
    8
 10
0.0
 20
 0.0
 30
0.0
  0
VERTEX
  8
MY3DLAYER
10
-117.47903280522084
20
14.198017667000489
30
0.19898877156379297
 70
     32
  0
VERTEX
  8
MY3DLAYER
10
-117.16837263344102
20
13.959639733103662
30
0.19898877156379297
 70
     32
  0
VERTEX
  8
MY3DLAYER
10
-117.16837263344102
20
13.959639733103662
30
3.1989887715638097
 70
     32
  0
VERTEX
  8
MY3DLAYER
10
-117.47903280522084
20
14.198017667000489
30
3.1989887715638097
 70
     32
  0
VERTEX
  8
MY3DLAYER
10
-117.47903280522084
20
14.198017667000489
30
0.19898877156379297
 70
     32
  0
SEQEND
  0
POLYLINE
 8
Group#16
 66
     1
70
    8
 10
0.0
 20
 0.0
 30
0.0
  0
VERTEX
  8
MY3DLAYER
10
-117.16837263344102
20
13.959639733103662
30
0.19898877156379297
 70
     32
  0
VERTEX
  8
MY3DLAYER
10
-116.9299946995442
20
13.648979561323827
30
0.19898877156379227
 70
     32
  0
VERTEX
  8
MY3DLAYER
10
-116.9299946995442
20
13.648979561323827
30
3.1989887715638097
 70
     32
  0
VERTEX
  8
MY3DLAYER
10
-117.16837263344102
20
13.959639733103662
30
3.1989887715638097
 70
     32
  0
VERTEX
  8
MY3DLAYER
10
-117.16837263344102
20
13.959639733103662
30
0.19898877156379297
 70
     32
  0
SEQEND
  0
POLYLINE
 8
Group#16
 66
     1
70
    8
 10
0.0
 20
 0.0
 30
0.0
  0
VERTEX
  8
MY3DLAYER
10
-116.9299946995442
20
13.648979561323827
30
0.19898877156379227
 70
     32
  0
VERTEX
  8
MY3DLAYER
10
-116.78014406578725
20
13.287208128977618
30
0.1989887715637928
 70
     32
  0
VERTEX
  8
MY3DLAYER
10
-116.78014406578725
20
13.287208128977618
30
3.1989887715638097
 70
     32
  0
VERTEX
  8
MY3DLAYER
10
-116.9299946995442
20
13.648979561323827
30
3.1989887715638097
 70
     32
  0
VERTEX
  8
MY3DLAYER
10
-116.9299946995442
20
13.648979561323827
30
0.19898877156379227
 70
     32
  0
SEQEND
  0
POLYLINE
 8
Group#16
 66
     1
70
    8
 10
0.0
 20
 0.0
 30
0.0
  0
VERTEX
  8
MY3DLAYER
10
-135.62903280522085
20
11.398979561323978
30
0.19898877156383896
 70
     32
  0
VERTEX
  8
MY3DLAYER
10
-136.01726137287463
20
11.450090821890349
30
0.19898877156383896
 70
     32
  0
VERTEX
  8
MY3DLAYER
10
-136.01726137287463
20
11.450090821890349
30
3.198988771563811
 70
     32
  0
VERTEX
  8
MY3DLAYER
10
-135.62903280522085
20
11.398979561323978
30
3.198988771563811
 70
     32
  0
VERTEX
  8
MY3DLAYER
10
-135.62903280522085
20
11.398979561323978
30
0.19898877156383896
 70
     32
  0
SEQEND
  0
POLYLINE
 8
Group#16
 66
     1
70
    8
 10
0.0
 20
 0.0
 30
0.0
  0
VERTEX
  8
MY3DLAYER
10
-136.01726137287463
20
11.450090821890349
30
0.19898877156383896
 70
     32
  0
VERTEX
  8
MY3DLAYER
10
-136.37903280522082
20
11.599941455647324
30
0.19898877156383862
 70
     32
  0
VERTEX
  8
MY3DLAYER
10
-136.37903280522082
20
11.599941455647324
30
3.198988771563811
 70
     32
  0
VERTEX
  8
MY3DLAYER
10
-136.01726137287463
20
11.450090821890349
30
3.198988771563811
 70
     32
  0
VERTEX
  8
MY3DLAYER
10
-136.01726137287463
20
11.450090821890349
30
0.19898877156383896
 70
     32
  0
SEQEND
  0
POLYLINE
 8
Group#16
 66
     1
70
    8
 10
0.0
 20
 0.0
 30
0.0
  0
VERTEX
  8
MY3DLAYER
10
-136.37903280522082
20
11.599941455647324
30
0.19898877156383862
 70
     32
  0
VERTEX
  8
MY3DLAYER
10
-136.68969297700068
20
11.83831938954415
30
0.19898877156383984
 70
     32
  0
VERTEX
  8
MY3DLAYER
10
-136.68969297700068
20
11.83831938954415
30
3.198988771563811
 70
     32
  0
VERTEX
  8
MY3DLAYER
10
-136.37903280522082
20
11.599941455647324
30
3.198988771563811
 70
     32
  0
VERTEX
  8
MY3DLAYER
10
-136.37903280522082
20
11.599941455647324
30
0.19898877156383862
 70
     32
  0
SEQEND
  0
POLYLINE
 8
Group#16
 66
     1
70
    8
 10
0.0
 20
 0.0
 30
0.0
  0
VERTEX
  8
MY3DLAYER
10
-136.68969297700068
20
11.83831938954415
30
0.19898877156383984
 70
     32
  0
VERTEX
  8
MY3DLAYER
10
-136.9280709108975
20
12.148979561323943
30
0.19898877156383932
 70
     32
  0
VERTEX
  8
MY3DLAYER
10
-136.9280709108975
20
12.148979561323943
30
3.198988771563811
 70
     32
  0
VERTEX
  8
MY3DLAYER
10
-136.68969297700068
20
11.83831938954415
30
3.198988771563811
 70
     32
  0
VERTEX
  8
MY3DLAYER
10
-136.68969297700068
20
11.83831938954415
30
0.19898877156383984
 70
     32
  0
SEQEND
  0
POLYLINE
 8
Group#16
 66
     1
70
    8
 10
0.0
 20
 0.0
 30
0.0
  0
VERTEX
  8
MY3DLAYER
10
-136.9280709108975
20
12.148979561323943
30
0.19898877156383932
 70
     32
  0
VERTEX
  8
MY3DLAYER
10
-137.07792154465446
20
12.510750993670197
30
0.19898877156383932
 70
     32
  0
VERTEX
  8
MY3DLAYER
10
-137.07792154465446
20
12.510750993670197
30
3.1989887715638115
 70
     32
  0
VERTEX
  8
MY3DLAYER
10
-136.9280709108975
20
12.148979561323943
30
3.198988771563811
 70
     32
  0
VERTEX
  8
MY3DLAYER
10
-136.9280709108975
20
12.148979561323943
30
0.19898877156383932
 70
     32
  0
SEQEND
  0
POLYLINE
 8
Group#16
 66
     1
70
    8
 10
0.0
 20
 0.0
 30
0.0
  0
VERTEX
  8
MY3DLAYER
10
-137.07792154465446
20
12.510750993670197
30
0.19898877156383932
 70
     32
  0
VERTEX
  8
MY3DLAYER
10
-137.12903280522085
20
12.898979561323952
30
0.19898877156383948
 70
     32
  0
VERTEX
  8
MY3DLAYER
10
-137.12903280522085
20
12.898979561323952
30
3.1989887715638115
 70
     32
  0
VERTEX
  8
MY3DLAYER
10
-137.07792154465446
20
12.510750993670197
30
3.1989887715638115
 70
     32
  0
VERTEX
  8
MY3DLAYER
10
-137.07792154465446
20
12.510750993670197
30
0.19898877156383932
 70
     32
  0
SEQEND
  0
POLYLINE
 8
Group#16
 66
     1
70
    8
 10
0.0
 20
 0.0
 30
0.0
  0
VERTEX
  8
MY3DLAYER
10
-137.12903280522085
20
12.898979561323952
30
0.19898877156383948
 70
     32
  0
VERTEX
  8
MY3DLAYER
10
-137.07792154465446
20
13.287208128977753
30
0.19898877156383948
 70
     32
  0
VERTEX
  8
MY3DLAYER
10
-137.07792154465446
20
13.287208128977753
30
3.198988771563811
 70
     32
  0
VERTEX
  8
MY3DLAYER
10
-137.12903280522085
20
12.898979561323952
30
3.1989887715638115
 70
     32
  0
VERTEX
  8
MY3DLAYER
10
-137.12903280522085
20
12.898979561323952
30
0.19898877156383948
 70
     32
  0
SEQEND
  0
POLYLINE
 8
Group#16
 66
     1
70
    8
 10
0.0
 20
 0.0
 30
0.0
  0
VERTEX
  8
MY3DLAYER
10
-137.07792154465446
20
13.287208128977753
30
0.19898877156383948
 70
     32
  0
VERTEX
  8
MY3DLAYER
10
-136.9280709108975
20
13.648979561323962
30
0.19898877156383948
 70
     32
  0
VERTEX
  8
MY3DLAYER
10
-136.9280709108975
20
13.648979561323962
30
3.198988771563809
 70
     32
  0
VERTEX
  8
MY3DLAYER
10
-137.07792154465446
20
13.287208128977753
30
3.198988771563811
 70
     32
  0
VERTEX
  8
MY3DLAYER
10
-137.07792154465446
20
13.287208128977753
30
0.19898877156383948
 70
     32
  0
SEQEND
  0
POLYLINE
 8
Group#16
 66
     1
70
    8
 10
0.0
 20
 0.0
 30
0.0
  0
VERTEX
  8
MY3DLAYER
10
-136.9280709108975
20
13.648979561323962
30
0.19898877156383948
 70
     32
  0
VERTEX
  8
MY3DLAYER
10
-136.68969297700068
20
13.959639733103753
30
0.1989887715638402
 70
     32
  0
VERTEX
  8
MY3DLAYER
10
-136.68969297700068
20
13.959639733103753
30
3.198988771563809
 70
     32
  0
VERTEX
  8
MY3DLAYER
10
-136.9280709108975
20
13.648979561323962
30
3.198988771563809
 70
     32
  0
VERTEX
  8
MY3DLAYER
10
-136.9280709108975
20
13.648979561323962
30
0.19898877156383948
 70
     32
  0
SEQEND
  0
POLYLINE
 8
Group#16
 66
     1
70
    8
 10
0.0
 20
 0.0
 30
0.0
  0
VERTEX
  8
MY3DLAYER
10
-136.68969297700068
20
13.959639733103753
30
0.1989887715638402
 70
     32
  0
VERTEX
  8
MY3DLAYER
10
-136.37903280522085
20
14.198017667000626
30
0.19898877156383948
 70
     32
  0
VERTEX
  8
MY3DLAYER
10
-136.37903280522085
20
14.198017667000626
30
3.198988771563809
 70
     32
  0
VERTEX
  8
MY3DLAYER
10
-136.68969297700068
20
13.959639733103753
30
3.198988771563809
 70
     32
  0
VERTEX
  8
MY3DLAYER
10
-136.68969297700068
20
13.959639733103753
30
0.1989887715638402
 70
     32
  0
SEQEND
  0
POLYLINE
 8
Group#16
 66
     1
70
    8
 10
0.0
 20
 0.0
 30
0.0
  0
VERTEX
  8
MY3DLAYER
10
-136.37903280522085
20
14.198017667000626
30
0.19898877156383948
 70
     32
  0
VERTEX
  8
MY3DLAYER
10
-136.01726137287463
20
14.347868300757554
30
0.19898877156383948
 70
     32
  0
VERTEX
  8
MY3DLAYER
10
-136.01726137287463
20
14.347868300757554
30
3.1989887715638115
 70
     32
  0
VERTEX
  8
MY3DLAYER
10
-136.37903280522085
20
14.198017667000626
30
3.198988771563809
 70
     32
  0
VERTEX
  8
MY3DLAYER
10
-136.37903280522085
20
14.198017667000626
30
0.19898877156383948
 70
     32
  0
SEQEND
  0
POLYLINE
 8
Group#16
 66
     1
70
    8
 10
0.0
 20
 0.0
 30
0.0
  0
VERTEX
  8
MY3DLAYER
10
-136.01726137287463
20
14.347868300757554
30
0.19898877156383948
 70
     32
  0
VERTEX
  8
MY3DLAYER
10
-135.62903280522085
20
14.398979561323971
30
0.19898877156383932
 70
     32
  0
VERTEX
  8
MY3DLAYER
10
-135.62903280522085
20
14.398979561323971
30
3.1989887715638115
 70
     32
  0
VERTEX
  8
MY3DLAYER
10
-136.01726137287463
20
14.347868300757554
30
3.1989887715638115
 70
     32
  0
VERTEX
  8
MY3DLAYER
10
-136.01726137287463
20
14.347868300757554
30
0.19898877156383948
 70
     32
  0
SEQEND
  0
POLYLINE
 8
Group#16
 66
     1
70
    8
 10
0.0
 20
 0.0
 30
0.0
  0
VERTEX
  8
MY3DLAYER
10
-135.62903280522085
20
14.398979561323971
30
0.19898877156383932
 70
     32
  0
VERTEX
  8
MY3DLAYER
10
-135.24080423756706
20
14.347868300757554
30
0.19898877156383948
 70
     32
  0
VERTEX
  8
MY3DLAYER
10
-135.24080423756706
20
14.347868300757554
30
3.19898877156381
 70
     32
  0
VERTEX
  8
MY3DLAYER
10
-135.62903280522085
20
14.398979561323971
30
3.1989887715638115
 70
     32
  0
VERTEX
  8
MY3DLAYER
10
-135.62903280522085
20
14.398979561323971
30
0.19898877156383932
 70
     32
  0
SEQEND
  0
POLYLINE
 8
Group#16
 66
     1
70
    8
 10
0.0
 20
 0.0
 30
0.0
  0
VERTEX
  8
MY3DLAYER
10
-135.24080423756706
20
14.347868300757554
30
0.19898877156383948
 70
     32
  0
VERTEX
  8
MY3DLAYER
10
-134.87903280522085
20
14.198017667000626
30
0.19898877156383948
 70
     32
  0
VERTEX
  8
MY3DLAYER
10
-134.87903280522085
20
14.198017667000626
30
3.19898877156381
 70
     32
  0
VERTEX
  8
MY3DLAYER
10
-135.24080423756706
20
14.347868300757554
30
3.19898877156381
 70
     32
  0
VERTEX
  8
MY3DLAYER
10
-135.24080423756706
20
14.347868300757554
30
0.19898877156383948
 70
     32
  0
SEQEND
  0
POLYLINE
 8
Group#16
 66
     1
70
    8
 10
0.0
 20
 0.0
 30
0.0
  0
VERTEX
  8
MY3DLAYER
10
-134.87903280522085
20
14.198017667000626
30
0.19898877156383948
 70
     32
  0
VERTEX
  8
MY3DLAYER
10
-134.56837263344102
20
13.959639733103753
30
0.19898877156384
 70
     32
  0
VERTEX
  8
MY3DLAYER
10
-134.56837263344102
20
13.959639733103753
30
3.198988771563811
 70
     32
  0
VERTEX
  8
MY3DLAYER
10
-134.87903280522085
20
14.198017667000626
30
3.19898877156381
 70
     32
  0
VERTEX
  8
MY3DLAYER
10
-134.87903280522085
20
14.198017667000626
30
0.19898877156383948
 70
     32
  0
SEQEND
  0
POLYLINE
 8
Group#16
 66
     1
70
    8
 10
0.0
 20
 0.0
 30
0.0
  0
VERTEX
  8
MY3DLAYER
10
-134.56837263344102
20
13.959639733103753
30
0.19898877156384
 70
     32
  0
VERTEX
  8
MY3DLAYER
10
-134.3299946995442
20
13.648979561323962
30
0.1989887715638388
 70
     32
  0
VERTEX
  8
MY3DLAYER
10
-134.3299946995442
20
13.648979561323962
30
3.198988771563811
 70
     32
  0
VERTEX
  8
MY3DLAYER
10
-134.56837263344102
20
13.959639733103753
30
3.198988771563811
 70
     32
  0
VERTEX
  8
MY3DLAYER
10
-134.56837263344102
20
13.959639733103753
30
0.19898877156384
 70
     32
  0
SEQEND
  0
POLYLINE
 8
Group#16
 66
     1
70
    8
 10
0.0
 20
 0.0
 30
0.0
  0
VERTEX
  8
MY3DLAYER
10
-134.3299946995442
20
13.648979561323962
30
0.1989887715638388
 70
     32
  0
VERTEX
  8
MY3DLAYER
10
-134.18014406578723
20
13.287208128977753
30
0.19898877156383915
 70
     32
  0
VERTEX
  8
MY3DLAYER
10
-134.18014406578723
20
13.287208128977753
30
3.198988771563811
 70
     32
  0
VERTEX
  8
MY3DLAYER
10
-134.3299946995442
20
13.648979561323962
30
3.198988771563811
 70
     32
  0
VERTEX
  8
MY3DLAYER
10
-134.3299946995442
20
13.648979561323962
30
0.1989887715638388
 70
     32
  0
SEQEND
  0
POLYLINE
 8
Group#16
 66
     1
70
    8
 10
0.0
 20
 0.0
 30
0.0
  0
VERTEX
  8
MY3DLAYER
10
-134.18014406578723
20
13.287208128977753
30
0.19898877156383915
 70
     32
  0
VERTEX
  8
MY3DLAYER
10
-134.12903280522085
20
12.898979561323952
30
0.19898877156383932
 70
     32
  0
VERTEX
  8
MY3DLAYER
10
-134.12903280522085
20
12.898979561323952
30
3.198988771563811
 70
     32
  0
VERTEX
  8
MY3DLAYER
10
-134.18014406578723
20
13.287208128977753
30
3.198988771563811
 70
     32
  0
VERTEX
  8
MY3DLAYER
10
-134.18014406578723
20
13.287208128977753
30
0.19898877156383915
 70
     32
  0
SEQEND
  0
POLYLINE
 8
Group#16
 66
     1
70
    8
 10
0.0
 20
 0.0
 30
0.0
  0
VERTEX
  8
MY3DLAYER
10
-134.12903280522085
20
12.898979561323952
30
0.19898877156383932
 70
     32
  0
VERTEX
  8
MY3DLAYER
10
-134.18014406578723
20
12.510750993670197
30
0.19898877156383862
 70
     32
  0
VERTEX
  8
MY3DLAYER
10
-134.18014406578723
20
12.510750993670197
30
3.198988771563811
 70
     32
  0
VERTEX
  8
MY3DLAYER
10
-134.12903280522085
20
12.898979561323952
30
3.198988771563811
 70
     32
  0
VERTEX
  8
MY3DLAYER
10
-134.12903280522085
20
12.898979561323952
30
0.19898877156383932
 70
     32
  0
SEQEND
  0
POLYLINE
 8
Group#16
 66
     1
70
    8
 10
0.0
 20
 0.0
 30
0.0
  0
VERTEX
  8
MY3DLAYER
10
-134.18014406578723
20
12.510750993670197
30
0.19898877156383862
 70
     32
  0
VERTEX
  8
MY3DLAYER
10
-134.3299946995442
20
12.148979561323943
30
0.19898877156383896
 70
     32
  0
VERTEX
  8
MY3DLAYER
10
-134.3299946995442
20
12.148979561323943
30
3.198988771563808
 70
     32
  0
VERTEX
  8
MY3DLAYER
10
-134.18014406578723
20
12.510750993670197
30
3.198988771563811
 70
     32
  0
VERTEX
  8
MY3DLAYER
10
-134.18014406578723
20
12.510750993670197
30
0.19898877156383862
 70
     32
  0
SEQEND
  0
POLYLINE
 8
Group#16
 66
     1
70
    8
 10
0.0
 20
 0.0
 30
0.0
  0
VERTEX
  8
MY3DLAYER
10
-134.3299946995442
20
12.148979561323943
30
0.19898877156383896
 70
     32
  0
VERTEX
  8
MY3DLAYER
10
-134.56837263344102
20
11.83831938954415
30
0.19898877156383968
 70
     32
  0
VERTEX
  8
MY3DLAYER
10
-134.56837263344102
20
11.83831938954415
30
3.198988771563808
 70
     32
  0
VERTEX
  8
MY3DLAYER
10
-134.3299946995442
20
12.148979561323943
30
3.198988771563808
 70
     32
  0
VERTEX
  8
MY3DLAYER
10
-134.3299946995442
20
12.148979561323943
30
0.19898877156383896
 70
     32
  0
SEQEND
  0
POLYLINE
 8
Group#16
 66
     1
70
    8
 10
0.0
 20
 0.0
 30
0.0
  0
VERTEX
  8
MY3DLAYER
10
-134.56837263344102
20
11.83831938954415
30
0.19898877156383968
 70
     32
  0
VERTEX
  8
MY3DLAYER
10
-134.87903280522085
20
11.599941455647324
30
0.19898877156383896
 70
     32
  0
VERTEX
  8
MY3DLAYER
10
-134.87903280522085
20
11.599941455647324
30
3.1989887715638097
 70
     32
  0
VERTEX
  8
MY3DLAYER
10
-134.56837263344102
20
11.83831938954415
30
3.198988771563808
 70
     32
  0
VERTEX
  8
MY3DLAYER
10
-134.56837263344102
20
11.83831938954415
30
0.19898877156383968
 70
     32
  0
SEQEND
  0
POLYLINE
 8
Group#16
 66
     1
70
    8
 10
0.0
 20
 0.0
 30
0.0
  0
VERTEX
  8
MY3DLAYER
10
-134.87903280522085
20
11.599941455647324
30
0.19898877156383896
 70
     32
  0
VERTEX
  8
MY3DLAYER
10
-135.24080423756706
20
11.450090821890349
30
0.19898877156383896
 70
     32
  0
VERTEX
  8
MY3DLAYER
10
-135.24080423756706
20
11.450090821890349
30
3.1989887715638097
 70
     32
  0
VERTEX
  8
MY3DLAYER
10
-134.87903280522085
20
11.599941455647324
30
3.1989887715638097
 70
     32
  0
VERTEX
  8
MY3DLAYER
10
-134.87903280522085
20
11.599941455647324
30
0.19898877156383896
 70
     32
  0
SEQEND
  0
POLYLINE
 8
Group#16
 66
     1
70
    8
 10
0.0
 20
 0.0
 30
0.0
  0
VERTEX
  8
MY3DLAYER
10
-135.24080423756706
20
11.450090821890349
30
0.19898877156383896
 70
     32
  0
VERTEX
  8
MY3DLAYER
10
-135.62903280522085
20
11.398979561323978
30
0.19898877156383896
 70
     32
  0
VERTEX
  8
MY3DLAYER
10
-135.62903280522085
20
11.398979561323978
30
3.198988771563811
 70
     32
  0
VERTEX
  8
MY3DLAYER
10
-135.24080423756706
20
11.450090821890349
30
3.1989887715638097
 70
     32
  0
VERTEX
  8
MY3DLAYER
10
-135.24080423756706
20
11.450090821890349
30
0.19898877156383896
 70
     32
  0
SEQEND
  0
POLYLINE
 8
Group#16
 66
     1
70
    8
 10
0.0
 20
 0.0
 30
0.0
  0
VERTEX
  8
MY3DLAYER
10
-38.98118280522089
20
6.148979561324043
30
3.1989887715638075
 70
     32
  0
VERTEX
  8
MY3DLAYER
10
-42.98118280522089
20
6.148979561324043
30
3.1989887715638052
 70
     32
  0
VERTEX
  8
MY3DLAYER
10
-42.98118280522089
20
6.148979561324043
30
0.19898877156381375
 70
     32
  0
VERTEX
  8
MY3DLAYER
10
-38.98118280522089
20
6.148979561324043
30
0.19898877156381342
 70
     32
  0
VERTEX
  8
MY3DLAYER
10
-38.98118280522089
20
6.148979561324043
30
3.1989887715638075
 70
     32
  0
SEQEND
  0
POLYLINE
 8
Group#16
 66
     1
70
    8
 10
0.0
 20
 0.0
 30
0.0
  0
VERTEX
  8
MY3DLAYER
10
-42.98118280522089
20
6.148979561324043
30
3.1989887715638052
 70
     32
  0
VERTEX
  8
MY3DLAYER
10
-42.98118280522089
20
9.148979561324039
30
3.198988771563806
 70
     32
  0
VERTEX
  8
MY3DLAYER
10
-42.98118280522089
20
9.148979561324039
30
0.19898877156381428
 70
     32
  0
VERTEX
  8
MY3DLAYER
10
-42.98118280522089
20
6.148979561324043
30
0.19898877156381375
 70
     32
  0
VERTEX
  8
MY3DLAYER
10
-42.98118280522089
20
6.148979561324043
30
3.1989887715638052
 70
     32
  0
SEQEND
  0
POLYLINE
 8
Group#16
 66
     1
70
    8
 10
0.0
 20
 0.0
 30
0.0
  0
VERTEX
  8
MY3DLAYER
10
-38.98118280522089
20
20.14897956132402
30
3.19898877156381
 70
     32
  0
VERTEX
  8
MY3DLAYER
10
-38.98118280522089
20
6.148979561324043
30
3.1989887715638075
 70
     32
  0
VERTEX
  8
MY3DLAYER
10
-38.98118280522089
20
6.148979561324043
30
0.19898877156381342
 70
     32
  0
VERTEX
  8
MY3DLAYER
10
-38.98118280522089
20
20.14897956132402
30
0.1989887715638159
 70
     32
  0
VERTEX
  8
MY3DLAYER
10
-38.98118280522089
20
20.14897956132402
30
3.19898877156381
 70
     32
  0
SEQEND
  0
POLYLINE
 8
Group#16
 66
     1
70
    8
 10
0.0
 20
 0.0
 30
0.0
  0
VERTEX
  8
MY3DLAYER
10
-42.98118280522089
20
17.148979561324023
30
0.1989887715638157
 70
     32
  0
VERTEX
  8
MY3DLAYER
10
-42.98118280522088
20
20.14897956132402
30
0.19898877156381622
 70
     32
  0
VERTEX
  8
MY3DLAYER
10
-38.98118280522089
20
20.14897956132402
30
0.1989887715638159
 70
     32
  0
VERTEX
  8
MY3DLAYER
10
-38.98118280522089
20
6.148979561324043
30
0.19898877156381342
 70
     32
  0
VERTEX
  8
MY3DLAYER
10
-42.98118280522089
20
6.148979561324043
30
0.19898877156381375
 70
     32
  0
VERTEX
  8
MY3DLAYER
10
-42.98118280522089
20
9.148979561324039
30
0.19898877156381428
 70
     32
  0
VERTEX
  8
MY3DLAYER
10
-69.28118280522091
20
9.148979561324039
30
0.19898877156381642
 70
     32
  0
VERTEX
  8
MY3DLAYER
10
-69.28118280522091
20
17.148979561324023
30
0.1989887715638178
 70
     32
  0
VERTEX
  8
MY3DLAYER
10
-42.98118280522089
20
17.148979561324023
30
0.1989887715638157
 70
     32
  0
SEQEND
  0
POLYLINE
 8
Group#16
 66
     1
70
    8
 10
0.0
 20
 0.0
 30
0.0
  0
VERTEX
  8
MY3DLAYER
10
-46.131182805220895
20
12.898979561323817
30
0.19898877156379297
 70
     32
  0
VERTEX
  8
MY3DLAYER
10
-46.182294065787296
20
13.287208128977618
30
0.1989887715637928
 70
     32
  0
VERTEX
  8
MY3DLAYER
10
-46.33214469954424
20
13.648979561323827
30
0.19898877156379227
 70
     32
  0
VERTEX
  8
MY3DLAYER
10
-46.57052263344107
20
13.959639733103662
30
0.19898877156379297
 70
     32
  0
VERTEX
  8
MY3DLAYER
10
-46.881182805220895
20
14.198017667000489
30
0.19898877156379297
 70
     32
  0
VERTEX
  8
MY3DLAYER
10
-47.24295423756711
20
14.347868300757419
30
0.19898877156379297
 70
     32
  0
VERTEX
  8
MY3DLAYER
10
-47.63118280522089
20
14.398979561323836
30
0.19898877156379297
 70
     32
  0
VERTEX
  8
MY3DLAYER
10
-48.01941137287468
20
14.347868300757419
30
0.19898877156379297
 70
     32
  0
VERTEX
  8
MY3DLAYER
10
-48.381182805220895
20
14.198017667000489
30
0.19898877156379313
 70
     32
  0
VERTEX
  8
MY3DLAYER
10
-48.69184297700072
20
13.959639733103662
30
0.19898877156379313
 70
     32
  0
VERTEX
  8
MY3DLAYER
10
-48.93022091089755
20
13.648979561323827
30
0.19898877156379244
 70
     32
  0
VERTEX
  8
MY3DLAYER
10
-49.0800715446545
20
13.287208128977618
30
0.19898877156379297
 70
     32
  0
VERTEX
  8
MY3DLAYER
10
-49.131182805220895
20
12.898979561323817
30
0.1989887715637935
 70
     32
  0
VERTEX
  8
MY3DLAYER
10
-49.0800715446545
20
12.510750993670062
30
0.1989887715637928
 70
     32
  0
VERTEX
  8
MY3DLAYER
10
-48.93022091089755
20
12.148979561323854
30
0.1989887715637926
 70
     32
  0
VERTEX
  8
MY3DLAYER
10
-48.69184297700072
20
11.838319389544017
30
0.19898877156379297
 70
     32
  0
VERTEX
  8
MY3DLAYER
10
-48.381182805220895
20
11.59994145564719
30
0.19898877156379244
 70
     32
  0
VERTEX
  8
MY3DLAYER
10
-48.01941137287468
20
11.450090821890216
30
0.19898877156379227
 70
     32
  0
VERTEX
  8
MY3DLAYER
10
-47.631182805220895
20
11.398979561323843
30
0.19898877156379244
 70
     32
  0
VERTEX
  8
MY3DLAYER
10
-47.24295423756712
20
11.450090821890216
30
0.19898877156379244
 70
     32
  0
VERTEX
  8
MY3DLAYER
10
-46.881182805220895
20
11.59994145564719
30
0.19898877156379244
 70
     32
  0
VERTEX
  8
MY3DLAYER
10
-46.57052263344108
20
11.838319389544017
30
0.1989887715637928
 70
     32
  0
VERTEX
  8
MY3DLAYER
10
-46.33214469954424
20
12.148979561323854
30
0.1989887715637926
 70
     32
  0
VERTEX
  8
MY3DLAYER
10
-46.182294065787296
20
12.510750993670062
30
0.19898877156379244
 70
     32
  0
VERTEX
  8
MY3DLAYER
10
-46.131182805220895
20
12.898979561323817
30
0.19898877156379297
 70
     32
  0
SEQEND
  0
POLYLINE
 8
Group#16
 66
     1
70
    8
 10
0.0
 20
 0.0
 30
0.0
  0
VERTEX
  8
MY3DLAYER
10
-65.41941137287466
20
11.450090821890349
30
0.19898877156383896
 70
     32
  0
VERTEX
  8
MY3DLAYER
10
-65.0311828052209
20
11.398979561323978
30
0.19898877156383896
 70
     32
  0
VERTEX
  8
MY3DLAYER
10
-64.64295423756711
20
11.450090821890349
30
0.19898877156383896
 70
     32
  0
VERTEX
  8
MY3DLAYER
10
-64.2811828052209
20
11.599941455647324
30
0.19898877156383896
 70
     32
  0
VERTEX
  8
MY3DLAYER
10
-63.97052263344108
20
11.83831938954415
30
0.19898877156383968
 70
     32
  0
VERTEX
  8
MY3DLAYER
10
-63.73214469954423
20
12.148979561323943
30
0.19898877156383896
 70
     32
  0
VERTEX
  8
MY3DLAYER
10
-63.58229406578729
20
12.510750993670197
30
0.19898877156383862
 70
     32
  0
VERTEX
  8
MY3DLAYER
10
-63.53118280522089
20
12.898979561323952
30
0.19898877156383932
 70
     32
  0
VERTEX
  8
MY3DLAYER
10
-63.58229406578729
20
13.287208128977753
30
0.19898877156383915
 70
     32
  0
VERTEX
  8
MY3DLAYER
10
-63.732144699544236
20
13.648979561323962
30
0.1989887715638388
 70
     32
  0
VERTEX
  8
MY3DLAYER
10
-63.970522633441064
20
13.959639733103753
30
0.19898877156384
 70
     32
  0
VERTEX
  8
MY3DLAYER
10
-64.2811828052209
20
14.198017667000626
30
0.19898877156383948
 70
     32
  0
VERTEX
  8
MY3DLAYER
10
-64.64295423756711
20
14.347868300757554
30
0.19898877156383948
 70
     32
  0
VERTEX
  8
MY3DLAYER
10
-65.0311828052209
20
14.398979561323971
30
0.19898877156383932
 70
     32
  0
VERTEX
  8
MY3DLAYER
10
-65.41941137287466
20
14.347868300757554
30
0.19898877156383948
 70
     32
  0
VERTEX
  8
MY3DLAYER
10
-65.78118280522088
20
14.198017667000626
30
0.19898877156383948
 70
     32
  0
VERTEX
  8
MY3DLAYER
10
-66.09184297700071
20
13.959639733103753
30
0.1989887715638402
 70
     32
  0
VERTEX
  8
MY3DLAYER
10
-66.33022091089755
20
13.648979561323962
30
0.19898877156383948
 70
     32
  0
VERTEX
  8
MY3DLAYER
10
-66.48007154465449
20
13.287208128977753
30
0.19898877156383948
 70
     32
  0
VERTEX
  8
MY3DLAYER
10
-66.53118280522088
20
12.898979561323952
30
0.19898877156383948
 70
     32
  0
VERTEX
  8
MY3DLAYER
10
-66.48007154465449
20
12.510750993670197
30
0.19898877156383932
 70
     32
  0
VERTEX
  8
MY3DLAYER
10
-66.33022091089754
20
12.148979561323943
30
0.19898877156383932
 70
     32
  0
VERTEX
  8
MY3DLAYER
10
-66.0918429770007
20
11.83831938954415
30
0.19898877156383984
 70
     32
  0
VERTEX
  8
MY3DLAYER
10
-65.78118280522088
20
11.599941455647324
30
0.19898877156383862
 70
     32
  0
VERTEX
  8
MY3DLAYER
10
-65.41941137287466
20
11.450090821890349
30
0.19898877156383896
 70
     32
  0
SEQEND
  0
POLYLINE
 8
Group#16
 66
     1
70
    8
 10
0.0
 20
 0.0
 30
0.0
  0
VERTEX
  8
MY3DLAYER
10
-42.98118280522088
20
20.14897956132402
30
3.198988771563811
 70
     32
  0
VERTEX
  8
MY3DLAYER
10
-38.98118280522089
20
20.14897956132402
30
3.19898877156381
 70
     32
  0
VERTEX
  8
MY3DLAYER
10
-38.98118280522089
20
20.14897956132402
30
0.1989887715638159
 70
     32
  0
VERTEX
  8
MY3DLAYER
10
-42.98118280522088
20
20.14897956132402
30
0.19898877156381622
 70
     32
  0
VERTEX
  8
MY3DLAYER
10
-42.98118280522088
20
20.14897956132402
30
3.198988771563811
 70
     32
  0
SEQEND
  0
POLYLINE
 8
Group#16
 66
     1
70
    8
 10
0.0
 20
 0.0
 30
0.0
  0
VERTEX
  8
MY3DLAYER
10
-42.98118280522088
20
20.14897956132402
30
0.19898877156381622
 70
     32
  0
VERTEX
  8
MY3DLAYER
10
-42.98118280522089
20
17.148979561324023
30
0.1989887715638157
 70
     32
  0
VERTEX
  8
MY3DLAYER
10
-42.98118280522089
20
17.148979561324023
30
3.1989887715638075
 70
     32
  0
VERTEX
  8
MY3DLAYER
10
-42.98118280522088
20
20.14897956132402
30
3.198988771563811
 70
     32
  0
VERTEX
  8
MY3DLAYER
10
-42.98118280522088
20
20.14897956132402
30
0.19898877156381622
 70
     32
  0
SEQEND
  0
POLYLINE
 8
Group#16
 66
     1
70
    8
 10
0.0
 20
 0.0
 30
0.0
  0
VERTEX
  8
MY3DLAYER
10
-42.98118280522088
20
20.14897956132402
30
3.198988771563811
 70
     32
  0
VERTEX
  8
MY3DLAYER
10
-42.98118280522089
20
17.148979561324023
30
3.1989887715638075
 70
     32
  0
VERTEX
  8
MY3DLAYER
10
-69.28118280522091
20
17.148979561324023
30
3.1989887715638115
 70
     32
  0
VERTEX
  8
MY3DLAYER
10
-69.28118280522091
20
9.148979561324039
30
3.19898877156381
 70
     32
  0
VERTEX
  8
MY3DLAYER
10
-42.98118280522089
20
9.148979561324039
30
3.198988771563806
 70
     32
  0
VERTEX
  8
MY3DLAYER
10
-42.98118280522089
20
6.148979561324043
30
3.1989887715638052
 70
     32
  0
VERTEX
  8
MY3DLAYER
10
-38.98118280522089
20
6.148979561324043
30
3.1989887715638075
 70
     32
  0
VERTEX
  8
MY3DLAYER
10
-38.98118280522089
20
20.14897956132402
30
3.19898877156381
 70
     32
  0
VERTEX
  8
MY3DLAYER
10
-42.98118280522088
20
20.14897956132402
30
3.198988771563811
 70
     32
  0
SEQEND
  0
POLYLINE
 8
Group#16
 66
     1
70
    8
 10
0.0
 20
 0.0
 30
0.0
  0
VERTEX
  8
MY3DLAYER
10
-46.182294065787296
20
13.287208128977618
30
3.1989887715638097
 70
     32
  0
VERTEX
  8
MY3DLAYER
10
-46.131182805220895
20
12.898979561323817
30
3.1989887715638097
 70
     32
  0
VERTEX
  8
MY3DLAYER
10
-46.182294065787296
20
12.510750993670062
30
3.1989887715638097
 70
     32
  0
VERTEX
  8
MY3DLAYER
10
-46.33214469954424
20
12.148979561323854
30
3.1989887715638066
 70
     32
  0
VERTEX
  8
MY3DLAYER
10
-46.57052263344108
20
11.838319389544017
30
3.1989887715638066
 70
     32
  0
VERTEX
  8
MY3DLAYER
10
-46.881182805220895
20
11.59994145564719
30
3.1989887715638066
 70
     32
  0
VERTEX
  8
MY3DLAYER
10
-47.24295423756712
20
11.450090821890216
30
3.198988771563808
 70
     32
  0
VERTEX
  8
MY3DLAYER
10
-47.631182805220895
20
11.398979561323843
30
3.198988771563808
 70
     32
  0
VERTEX
  8
MY3DLAYER
10
-48.01941137287468
20
11.450090821890216
30
3.1989887715638097
 70
     32
  0
VERTEX
  8
MY3DLAYER
10
-48.381182805220895
20
11.59994145564719
30
3.1989887715638097
 70
     32
  0
VERTEX
  8
MY3DLAYER
10
-48.69184297700072
20
11.838319389544017
30
3.1989887715638097
 70
     32
  0
VERTEX
  8
MY3DLAYER
10
-48.93022091089755
20
12.148979561323854
30
3.1989887715638097
 70
     32
  0
VERTEX
  8
MY3DLAYER
10
-49.0800715446545
20
12.510750993670062
30
3.19898877156381
 70
     32
  0
VERTEX
  8
MY3DLAYER
10
-49.131182805220895
20
12.898979561323817
30
3.19898877156381
 70
     32
  0
VERTEX
  8
MY3DLAYER
10
-49.0800715446545
20
13.287208128977618
30
3.1989887715638097
 70
     32
  0
VERTEX
  8
MY3DLAYER
10
-48.93022091089755
20
13.648979561323827
30
3.1989887715638097
 70
     32
  0
VERTEX
  8
MY3DLAYER
10
-48.69184297700072
20
13.959639733103662
30
3.1989887715638075
 70
     32
  0
VERTEX
  8
MY3DLAYER
10
-48.381182805220895
20
14.198017667000489
30
3.1989887715638075
 70
     32
  0
VERTEX
  8
MY3DLAYER
10
-48.01941137287468
20
14.347868300757419
30
3.19898877156381
 70
     32
  0
VERTEX
  8
MY3DLAYER
10
-47.63118280522089
20
14.398979561323836
30
3.198988771563809
 70
     32
  0
VERTEX
  8
MY3DLAYER
10
-47.24295423756711
20
14.347868300757419
30
3.198988771563811
 70
     32
  0
VERTEX
  8
MY3DLAYER
10
-46.881182805220895
20
14.198017667000489
30
3.1989887715638097
 70
     32
  0
VERTEX
  8
MY3DLAYER
10
-46.57052263344107
20
13.959639733103662
30
3.1989887715638097
 70
     32
  0
VERTEX
  8
MY3DLAYER
10
-46.33214469954424
20
13.648979561323827
30
3.1989887715638097
 70
     32
  0
VERTEX
  8
MY3DLAYER
10
-46.182294065787296
20
13.287208128977618
30
3.1989887715638097
 70
     32
  0
SEQEND
  0
POLYLINE
 8
Group#16
 66
     1
70
    8
 10
0.0
 20
 0.0
 30
0.0
  0
VERTEX
  8
MY3DLAYER
10
-65.0311828052209
20
11.398979561323978
30
3.198988771563811
 70
     32
  0
VERTEX
  8
MY3DLAYER
10
-65.41941137287466
20
11.450090821890349
30
3.198988771563811
 70
     32
  0
VERTEX
  8
MY3DLAYER
10
-65.78118280522088
20
11.599941455647324
30
3.198988771563811
 70
     32
  0
VERTEX
  8
MY3DLAYER
10
-66.0918429770007
20
11.83831938954415
30
3.198988771563811
 70
     32
  0
VERTEX
  8
MY3DLAYER
10
-66.33022091089754
20
12.148979561323943
30
3.198988771563811
 70
     32
  0
VERTEX
  8
MY3DLAYER
10
-66.48007154465449
20
12.510750993670197
30
3.1989887715638115
 70
     32
  0
VERTEX
  8
MY3DLAYER
10
-66.53118280522088
20
12.898979561323952
30
3.1989887715638115
 70
     32
  0
VERTEX
  8
MY3DLAYER
10
-66.48007154465449
20
13.287208128977753
30
3.198988771563811
 70
     32
  0
VERTEX
  8
MY3DLAYER
10
-66.33022091089754
20
13.648979561323962
30
3.198988771563809
 70
     32
  0
VERTEX
  8
MY3DLAYER
10
-66.09184297700071
20
13.959639733103753
30
3.198988771563809
 70
     32
  0
VERTEX
  8
MY3DLAYER
10
-65.78118280522088
20
14.198017667000626
30
3.198988771563809
 70
     32
  0
VERTEX
  8
MY3DLAYER
10
-65.41941137287466
20
14.347868300757554
30
3.1989887715638115
 70
     32
  0
VERTEX
  8
MY3DLAYER
10
-65.0311828052209
20
14.398979561323971
30
3.1989887715638115
 70
     32
  0
VERTEX
  8
MY3DLAYER
10
-64.64295423756711
20
14.347868300757554
30
3.19898877156381
 70
     32
  0
VERTEX
  8
MY3DLAYER
10
-64.2811828052209
20
14.198017667000626
30
3.19898877156381
 70
     32
  0
VERTEX
  8
MY3DLAYER
10
-63.970522633441064
20
13.959639733103753
30
3.198988771563811
 70
     32
  0
VERTEX
  8
MY3DLAYER
10
-63.732144699544236
20
13.648979561323962
30
3.198988771563811
 70
     32
  0
VERTEX
  8
MY3DLAYER
10
-63.58229406578729
20
13.287208128977753
30
3.198988771563811
 70
     32
  0
VERTEX
  8
MY3DLAYER
10
-63.53118280522089
20
12.898979561323952
30
3.198988771563811
 70
     32
  0
VERTEX
  8
MY3DLAYER
10
-63.58229406578729
20
12.510750993670197
30
3.198988771563811
 70
     32
  0
VERTEX
  8
MY3DLAYER
10
-63.73214469954423
20
12.148979561323943
30
3.198988771563808
 70
     32
  0
VERTEX
  8
MY3DLAYER
10
-63.97052263344108
20
11.83831938954415
30
3.198988771563808
 70
     32
  0
VERTEX
  8
MY3DLAYER
10
-64.2811828052209
20
11.599941455647324
30
3.1989887715638097
 70
     32
  0
VERTEX
  8
MY3DLAYER
10
-64.64295423756711
20
11.450090821890349
30
3.1989887715638097
 70
     32
  0
VERTEX
  8
MY3DLAYER
10
-65.0311828052209
20
11.398979561323978
30
3.198988771563811
 70
     32
  0
SEQEND
  0
POLYLINE
 8
Group#16
 66
     1
70
    8
 10
0.0
 20
 0.0
 30
0.0
  0
VERTEX
  8
MY3DLAYER
10
-42.98118280522089
20
9.148979561324039
30
0.19898877156381428
 70
     32
  0
VERTEX
  8
MY3DLAYER
10
-42.98118280522089
20
9.148979561324039
30
3.198988771563806
 70
     32
  0
VERTEX
  8
MY3DLAYER
10
-69.28118280522091
20
9.148979561324039
30
3.19898877156381
 70
     32
  0
VERTEX
  8
MY3DLAYER
10
-69.28118280522091
20
9.148979561324039
30
0.19898877156381642
 70
     32
  0
VERTEX
  8
MY3DLAYER
10
-42.98118280522089
20
9.148979561324039
30
0.19898877156381428
 70
     32
  0
SEQEND
  0
POLYLINE
 8
Group#16
 66
     1
70
    8
 10
0.0
 20
 0.0
 30
0.0
  0
VERTEX
  8
MY3DLAYER
10
-42.98118280522089
20
17.148979561324023
30
3.1989887715638075
 70
     32
  0
VERTEX
  8
MY3DLAYER
10
-42.98118280522089
20
17.148979561324023
30
0.1989887715638157
 70
     32
  0
VERTEX
  8
MY3DLAYER
10
-69.28118280522091
20
17.148979561324023
30
0.1989887715638178
 70
     32
  0
VERTEX
  8
MY3DLAYER
10
-69.28118280522091
20
17.148979561324023
30
3.1989887715638115
 70
     32
  0
VERTEX
  8
MY3DLAYER
10
-42.98118280522089
20
17.148979561324023
30
3.1989887715638075
 70
     32
  0
SEQEND
  0
POLYLINE
 8
Group#16
 66
     1
70
    8
 10
0.0
 20
 0.0
 30
0.0
  0
VERTEX
  8
MY3DLAYER
10
-69.28118280522091
20
9.148979561324039
30
3.19898877156381
 70
     32
  0
VERTEX
  8
MY3DLAYER
10
-69.28118280522091
20
17.148979561324023
30
3.1989887715638115
 70
     32
  0
VERTEX
  8
MY3DLAYER
10
-69.28118280522091
20
17.148979561324023
30
0.1989887715638178
 70
     32
  0
VERTEX
  8
MY3DLAYER
10
-69.28118280522091
20
9.148979561324039
30
0.19898877156381642
 70
     32
  0
VERTEX
  8
MY3DLAYER
10
-69.28118280522091
20
9.148979561324039
30
3.19898877156381
 70
     32
  0
SEQEND
  0
POLYLINE
 8
Group#16
 66
     1
70
    8
 10
0.0
 20
 0.0
 30
0.0
  0
VERTEX
  8
MY3DLAYER
10
-46.182294065787296
20
13.287208128977618
30
0.1989887715637928
 70
     32
  0
VERTEX
  8
MY3DLAYER
10
-46.131182805220895
20
12.898979561323817
30
0.19898877156379297
 70
     32
  0
VERTEX
  8
MY3DLAYER
10
-46.131182805220895
20
12.898979561323817
30
3.1989887715638097
 70
     32
  0
VERTEX
  8
MY3DLAYER
10
-46.182294065787296
20
13.287208128977618
30
3.1989887715638097
 70
     32
  0
VERTEX
  8
MY3DLAYER
10
-46.182294065787296
20
13.287208128977618
30
0.1989887715637928
 70
     32
  0
SEQEND
  0
POLYLINE
 8
Group#16
 66
     1
70
    8
 10
0.0
 20
 0.0
 30
0.0
  0
VERTEX
  8
MY3DLAYER
10
-46.131182805220895
20
12.898979561323817
30
0.19898877156379297
 70
     32
  0
VERTEX
  8
MY3DLAYER
10
-46.182294065787296
20
12.510750993670062
30
0.19898877156379244
 70
     32
  0
VERTEX
  8
MY3DLAYER
10
-46.182294065787296
20
12.510750993670062
30
3.1989887715638097
 70
     32
  0
VERTEX
  8
MY3DLAYER
10
-46.131182805220895
20
12.898979561323817
30
3.1989887715638097
 70
     32
  0
VERTEX
  8
MY3DLAYER
10
-46.131182805220895
20
12.898979561323817
30
0.19898877156379297
 70
     32
  0
SEQEND
  0
POLYLINE
 8
Group#16
 66
     1
70
    8
 10
0.0
 20
 0.0
 30
0.0
  0
VERTEX
  8
MY3DLAYER
10
-46.182294065787296
20
12.510750993670062
30
0.19898877156379244
 70
     32
  0
VERTEX
  8
MY3DLAYER
10
-46.33214469954424
20
12.148979561323854
30
0.1989887715637926
 70
     32
  0
VERTEX
  8
MY3DLAYER
10
-46.33214469954424
20
12.148979561323854
30
3.1989887715638066
 70
     32
  0
VERTEX
  8
MY3DLAYER
10
-46.182294065787296
20
12.510750993670062
30
3.1989887715638097
 70
     32
  0
VERTEX
  8
MY3DLAYER
10
-46.182294065787296
20
12.510750993670062
30
0.19898877156379244
 70
     32
  0
SEQEND
  0
POLYLINE
 8
Group#16
 66
     1
70
    8
 10
0.0
 20
 0.0
 30
0.0
  0
VERTEX
  8
MY3DLAYER
10
-46.33214469954424
20
12.148979561323854
30
0.1989887715637926
 70
     32
  0
VERTEX
  8
MY3DLAYER
10
-46.57052263344108
20
11.838319389544017
30
0.1989887715637928
 70
     32
  0
VERTEX
  8
MY3DLAYER
10
-46.57052263344108
20
11.838319389544017
30
3.1989887715638066
 70
     32
  0
VERTEX
  8
MY3DLAYER
10
-46.33214469954424
20
12.148979561323854
30
3.1989887715638066
 70
     32
  0
VERTEX
  8
MY3DLAYER
10
-46.33214469954424
20
12.148979561323854
30
0.1989887715637926
 70
     32
  0
SEQEND
  0
POLYLINE
 8
Group#16
 66
     1
70
    8
 10
0.0
 20
 0.0
 30
0.0
  0
VERTEX
  8
MY3DLAYER
10
-46.57052263344108
20
11.838319389544017
30
0.1989887715637928
 70
     32
  0
VERTEX
  8
MY3DLAYER
10
-46.881182805220895
20
11.59994145564719
30
0.19898877156379244
 70
     32
  0
VERTEX
  8
MY3DLAYER
10
-46.881182805220895
20
11.59994145564719
30
3.1989887715638066
 70
     32
  0
VERTEX
  8
MY3DLAYER
10
-46.57052263344108
20
11.838319389544017
30
3.1989887715638066
 70
     32
  0
VERTEX
  8
MY3DLAYER
10
-46.57052263344108
20
11.838319389544017
30
0.1989887715637928
 70
     32
  0
SEQEND
  0
POLYLINE
 8
Group#16
 66
     1
70
    8
 10
0.0
 20
 0.0
 30
0.0
  0
VERTEX
  8
MY3DLAYER
10
-46.881182805220895
20
11.59994145564719
30
0.19898877156379244
 70
     32
  0
VERTEX
  8
MY3DLAYER
10
-47.24295423756712
20
11.450090821890216
30
0.19898877156379244
 70
     32
  0
VERTEX
  8
MY3DLAYER
10
-47.24295423756712
20
11.450090821890216
30
3.198988771563808
 70
     32
  0
VERTEX
  8
MY3DLAYER
10
-46.881182805220895
20
11.59994145564719
30
3.1989887715638066
 70
     32
  0
VERTEX
  8
MY3DLAYER
10
-46.881182805220895
20
11.59994145564719
30
0.19898877156379244
 70
     32
  0
SEQEND
  0
POLYLINE
 8
Group#16
 66
     1
70
    8
 10
0.0
 20
 0.0
 30
0.0
  0
VERTEX
  8
MY3DLAYER
10
-47.24295423756712
20
11.450090821890216
30
0.19898877156379244
 70
     32
  0
VERTEX
  8
MY3DLAYER
10
-47.631182805220895
20
11.398979561323843
30
0.19898877156379244
 70
     32
  0
VERTEX
  8
MY3DLAYER
10
-47.631182805220895
20
11.398979561323843
30
3.198988771563808
 70
     32
  0
VERTEX
  8
MY3DLAYER
10
-47.24295423756712
20
11.450090821890216
30
3.198988771563808
 70
     32
  0
VERTEX
  8
MY3DLAYER
10
-47.24295423756712
20
11.450090821890216
30
0.19898877156379244
 70
     32
  0
SEQEND
  0
POLYLINE
 8
Group#16
 66
     1
70
    8
 10
0.0
 20
 0.0
 30
0.0
  0
VERTEX
  8
MY3DLAYER
10
-47.631182805220895
20
11.398979561323843
30
0.19898877156379244
 70
     32
  0
VERTEX
  8
MY3DLAYER
10
-48.01941137287468
20
11.450090821890216
30
0.19898877156379227
 70
     32
  0
VERTEX
  8
MY3DLAYER
10
-48.01941137287468
20
11.450090821890216
30
3.1989887715638097
 70
     32
  0
VERTEX
  8
MY3DLAYER
10
-47.631182805220895
20
11.398979561323843
30
3.198988771563808
 70
     32
  0
VERTEX
  8
MY3DLAYER
10
-47.631182805220895
20
11.398979561323843
30
0.19898877156379244
 70
     32
  0
SEQEND
  0
POLYLINE
 8
Group#16
 66
     1
70
    8
 10
0.0
 20
 0.0
 30
0.0
  0
VERTEX
  8
MY3DLAYER
10
-48.01941137287468
20
11.450090821890216
30
0.19898877156379227
 70
     32
  0
VERTEX
  8
MY3DLAYER
10
-48.381182805220895
20
11.59994145564719
30
0.19898877156379244
 70
     32
  0
VERTEX
  8
MY3DLAYER
10
-48.381182805220895
20
11.59994145564719
30
3.1989887715638097
 70
     32
  0
VERTEX
  8
MY3DLAYER
10
-48.01941137287468
20
11.450090821890216
30
3.1989887715638097
 70
     32
  0
VERTEX
  8
MY3DLAYER
10
-48.01941137287468
20
11.450090821890216
30
0.19898877156379227
 70
     32
  0
SEQEND
  0
POLYLINE
 8
Group#16
 66
     1
70
    8
 10
0.0
 20
 0.0
 30
0.0
  0
VERTEX
  8
MY3DLAYER
10
-48.381182805220895
20
11.59994145564719
30
0.19898877156379244
 70
     32
  0
VERTEX
  8
MY3DLAYER
10
-48.69184297700072
20
11.838319389544017
30
0.19898877156379297
 70
     32
  0
VERTEX
  8
MY3DLAYER
10
-48.69184297700072
20
11.838319389544017
30
3.1989887715638097
 70
     32
  0
VERTEX
  8
MY3DLAYER
10
-48.381182805220895
20
11.59994145564719
30
3.1989887715638097
 70
     32
  0
VERTEX
  8
MY3DLAYER
10
-48.381182805220895
20
11.59994145564719
30
0.19898877156379244
 70
     32
  0
SEQEND
  0
POLYLINE
 8
Group#16
 66
     1
70
    8
 10
0.0
 20
 0.0
 30
0.0
  0
VERTEX
  8
MY3DLAYER
10
-48.69184297700072
20
11.838319389544017
30
0.19898877156379297
 70
     32
  0
VERTEX
  8
MY3DLAYER
10
-48.93022091089755
20
12.148979561323854
30
0.1989887715637926
 70
     32
  0
VERTEX
  8
MY3DLAYER
10
-48.93022091089755
20
12.148979561323854
30
3.1989887715638097
 70
     32
  0
VERTEX
  8
MY3DLAYER
10
-48.69184297700072
20
11.838319389544017
30
3.1989887715638097
 70
     32
  0
VERTEX
  8
MY3DLAYER
10
-48.69184297700072
20
11.838319389544017
30
0.19898877156379297
 70
     32
  0
SEQEND
  0
POLYLINE
 8
Group#16
 66
     1
70
    8
 10
0.0
 20
 0.0
 30
0.0
  0
VERTEX
  8
MY3DLAYER
10
-48.93022091089755
20
12.148979561323854
30
0.1989887715637926
 70
     32
  0
VERTEX
  8
MY3DLAYER
10
-49.0800715446545
20
12.510750993670062
30
0.1989887715637928
 70
     32
  0
VERTEX
  8
MY3DLAYER
10
-49.0800715446545
20
12.510750993670062
30
3.19898877156381
 70
     32
  0
VERTEX
  8
MY3DLAYER
10
-48.93022091089755
20
12.148979561323854
30
3.1989887715638097
 70
     32
  0
VERTEX
  8
MY3DLAYER
10
-48.93022091089755
20
12.148979561323854
30
0.1989887715637926
 70
     32
  0
SEQEND
  0
POLYLINE
 8
Group#16
 66
     1
70
    8
 10
0.0
 20
 0.0
 30
0.0
  0
VERTEX
  8
MY3DLAYER
10
-49.0800715446545
20
12.510750993670062
30
0.1989887715637928
 70
     32
  0
VERTEX
  8
MY3DLAYER
10
-49.131182805220895
20
12.898979561323817
30
0.1989887715637935
 70
     32
  0
VERTEX
  8
MY3DLAYER
10
-49.131182805220895
20
12.898979561323817
30
3.19898877156381
 70
     32
  0
VERTEX
  8
MY3DLAYER
10
-49.0800715446545
20
12.510750993670062
30
3.19898877156381
 70
     32
  0
VERTEX
  8
MY3DLAYER
10
-49.0800715446545
20
12.510750993670062
30
0.1989887715637928
 70
     32
  0
SEQEND
  0
POLYLINE
 8
Group#16
 66
     1
70
    8
 10
0.0
 20
 0.0
 30
0.0
  0
VERTEX
  8
MY3DLAYER
10
-49.131182805220895
20
12.898979561323817
30
0.1989887715637935
 70
     32
  0
VERTEX
  8
MY3DLAYER
10
-49.0800715446545
20
13.287208128977618
30
0.19898877156379297
 70
     32
  0
VERTEX
  8
MY3DLAYER
10
-49.0800715446545
20
13.287208128977618
30
3.1989887715638097
 70
     32
  0
VERTEX
  8
MY3DLAYER
10
-49.131182805220895
20
12.898979561323817
30
3.19898877156381
 70
     32
  0
VERTEX
  8
MY3DLAYER
10
-49.131182805220895
20
12.898979561323817
30
0.1989887715637935
 70
     32
  0
SEQEND
  0
POLYLINE
 8
Group#16
 66
     1
70
    8
 10
0.0
 20
 0.0
 30
0.0
  0
VERTEX
  8
MY3DLAYER
10
-49.0800715446545
20
13.287208128977618
30
0.19898877156379297
 70
     32
  0
VERTEX
  8
MY3DLAYER
10
-48.93022091089755
20
13.648979561323827
30
0.19898877156379244
 70
     32
  0
VERTEX
  8
MY3DLAYER
10
-48.93022091089755
20
13.648979561323827
30
3.1989887715638097
 70
     32
  0
VERTEX
  8
MY3DLAYER
10
-49.0800715446545
20
13.287208128977618
30
3.1989887715638097
 70
     32
  0
VERTEX
  8
MY3DLAYER
10
-49.0800715446545
20
13.287208128977618
30
0.19898877156379297
 70
     32
  0
SEQEND
  0
POLYLINE
 8
Group#16
 66
     1
70
    8
 10
0.0
 20
 0.0
 30
0.0
  0
VERTEX
  8
MY3DLAYER
10
-48.93022091089755
20
13.648979561323827
30
0.19898877156379244
 70
     32
  0
VERTEX
  8
MY3DLAYER
10
-48.69184297700072
20
13.959639733103662
30
0.19898877156379313
 70
     32
  0
VERTEX
  8
MY3DLAYER
10
-48.69184297700072
20
13.959639733103662
30
3.1989887715638075
 70
     32
  0
VERTEX
  8
MY3DLAYER
10
-48.93022091089755
20
13.648979561323827
30
3.1989887715638097
 70
     32
  0
VERTEX
  8
MY3DLAYER
10
-48.93022091089755
20
13.648979561323827
30
0.19898877156379244
 70
     32
  0
SEQEND
  0
POLYLINE
 8
Group#16
 66
     1
70
    8
 10
0.0
 20
 0.0
 30
0.0
  0
VERTEX
  8
MY3DLAYER
10
-48.69184297700072
20
13.959639733103662
30
0.19898877156379313
 70
     32
  0
VERTEX
  8
MY3DLAYER
10
-48.381182805220895
20
14.198017667000489
30
0.19898877156379313
 70
     32
  0
VERTEX
  8
MY3DLAYER
10
-48.381182805220895
20
14.198017667000489
30
3.1989887715638075
 70
     32
  0
VERTEX
  8
MY3DLAYER
10
-48.69184297700072
20
13.959639733103662
30
3.1989887715638075
 70
     32
  0
VERTEX
  8
MY3DLAYER
10
-48.69184297700072
20
13.959639733103662
30
0.19898877156379313
 70
     32
  0
SEQEND
  0
POLYLINE
 8
Group#16
 66
     1
70
    8
 10
0.0
 20
 0.0
 30
0.0
  0
VERTEX
  8
MY3DLAYER
10
-48.381182805220895
20
14.198017667000489
30
0.19898877156379313
 70
     32
  0
VERTEX
  8
MY3DLAYER
10
-48.01941137287468
20
14.347868300757419
30
0.19898877156379297
 70
     32
  0
VERTEX
  8
MY3DLAYER
10
-48.01941137287468
20
14.347868300757419
30
3.19898877156381
 70
     32
  0
VERTEX
  8
MY3DLAYER
10
-48.381182805220895
20
14.198017667000489
30
3.1989887715638075
 70
     32
  0
VERTEX
  8
MY3DLAYER
10
-48.381182805220895
20
14.198017667000489
30
0.19898877156379313
 70
     32
  0
SEQEND
  0
POLYLINE
 8
Group#16
 66
     1
70
    8
 10
0.0
 20
 0.0
 30
0.0
  0
VERTEX
  8
MY3DLAYER
10
-48.01941137287468
20
14.347868300757419
30
0.19898877156379297
 70
     32
  0
VERTEX
  8
MY3DLAYER
10
-47.63118280522089
20
14.398979561323836
30
0.19898877156379297
 70
     32
  0
VERTEX
  8
MY3DLAYER
10
-47.63118280522089
20
14.398979561323836
30
3.198988771563809
 70
     32
  0
VERTEX
  8
MY3DLAYER
10
-48.01941137287468
20
14.347868300757419
30
3.19898877156381
 70
     32
  0
VERTEX
  8
MY3DLAYER
10
-48.01941137287468
20
14.347868300757419
30
0.19898877156379297
 70
     32
  0
SEQEND
  0
POLYLINE
 8
Group#16
 66
     1
70
    8
 10
0.0
 20
 0.0
 30
0.0
  0
VERTEX
  8
MY3DLAYER
10
-47.63118280522089
20
14.398979561323836
30
0.19898877156379297
 70
     32
  0
VERTEX
  8
MY3DLAYER
10
-47.24295423756711
20
14.347868300757419
30
0.19898877156379297
 70
     32
  0
VERTEX
  8
MY3DLAYER
10
-47.24295423756711
20
14.347868300757419
30
3.198988771563811
 70
     32
  0
VERTEX
  8
MY3DLAYER
10
-47.63118280522089
20
14.398979561323836
30
3.198988771563809
 70
     32
  0
VERTEX
  8
MY3DLAYER
10
-47.63118280522089
20
14.398979561323836
30
0.19898877156379297
 70
     32
  0
SEQEND
  0
POLYLINE
 8
Group#16
 66
     1
70
    8
 10
0.0
 20
 0.0
 30
0.0
  0
VERTEX
  8
MY3DLAYER
10
-47.24295423756711
20
14.347868300757419
30
0.19898877156379297
 70
     32
  0
VERTEX
  8
MY3DLAYER
10
-46.881182805220895
20
14.198017667000489
30
0.19898877156379297
 70
     32
  0
VERTEX
  8
MY3DLAYER
10
-46.881182805220895
20
14.198017667000489
30
3.1989887715638097
 70
     32
  0
VERTEX
  8
MY3DLAYER
10
-47.24295423756711
20
14.347868300757419
30
3.198988771563811
 70
     32
  0
VERTEX
  8
MY3DLAYER
10
-47.24295423756711
20
14.347868300757419
30
0.19898877156379297
 70
     32
  0
SEQEND
  0
POLYLINE
 8
Group#16
 66
     1
70
    8
 10
0.0
 20
 0.0
 30
0.0
  0
VERTEX
  8
MY3DLAYER
10
-46.881182805220895
20
14.198017667000489
30
0.19898877156379297
 70
     32
  0
VERTEX
  8
MY3DLAYER
10
-46.57052263344107
20
13.959639733103662
30
0.19898877156379297
 70
     32
  0
VERTEX
  8
MY3DLAYER
10
-46.57052263344107
20
13.959639733103662
30
3.1989887715638097
 70
     32
  0
VERTEX
  8
MY3DLAYER
10
-46.881182805220895
20
14.198017667000489
30
3.1989887715638097
 70
     32
  0
VERTEX
  8
MY3DLAYER
10
-46.881182805220895
20
14.198017667000489
30
0.19898877156379297
 70
     32
  0
SEQEND
  0
POLYLINE
 8
Group#16
 66
     1
70
    8
 10
0.0
 20
 0.0
 30
0.0
  0
VERTEX
  8
MY3DLAYER
10
-46.57052263344107
20
13.959639733103662
30
0.19898877156379297
 70
     32
  0
VERTEX
  8
MY3DLAYER
10
-46.33214469954424
20
13.648979561323827
30
0.19898877156379227
 70
     32
  0
VERTEX
  8
MY3DLAYER
10
-46.33214469954424
20
13.648979561323827
30
3.1989887715638097
 70
     32
  0
VERTEX
  8
MY3DLAYER
10
-46.57052263344107
20
13.959639733103662
30
3.1989887715638097
 70
     32
  0
VERTEX
  8
MY3DLAYER
10
-46.57052263344107
20
13.959639733103662
30
0.19898877156379297
 70
     32
  0
SEQEND
  0
POLYLINE
 8
Group#16
 66
     1
70
    8
 10
0.0
 20
 0.0
 30
0.0
  0
VERTEX
  8
MY3DLAYER
10
-46.33214469954424
20
13.648979561323827
30
0.19898877156379227
 70
     32
  0
VERTEX
  8
MY3DLAYER
10
-46.182294065787296
20
13.287208128977618
30
0.1989887715637928
 70
     32
  0
VERTEX
  8
MY3DLAYER
10
-46.182294065787296
20
13.287208128977618
30
3.1989887715638097
 70
     32
  0
VERTEX
  8
MY3DLAYER
10
-46.33214469954424
20
13.648979561323827
30
3.1989887715638097
 70
     32
  0
VERTEX
  8
MY3DLAYER
10
-46.33214469954424
20
13.648979561323827
30
0.19898877156379227
 70
     32
  0
SEQEND
  0
POLYLINE
 8
Group#16
 66
     1
70
    8
 10
0.0
 20
 0.0
 30
0.0
  0
VERTEX
  8
MY3DLAYER
10
-65.0311828052209
20
11.398979561323978
30
0.19898877156383896
 70
     32
  0
VERTEX
  8
MY3DLAYER
10
-65.41941137287466
20
11.450090821890349
30
0.19898877156383896
 70
     32
  0
VERTEX
  8
MY3DLAYER
10
-65.41941137287466
20
11.450090821890349
30
3.198988771563811
 70
     32
  0
VERTEX
  8
MY3DLAYER
10
-65.0311828052209
20
11.398979561323978
30
3.198988771563811
 70
     32
  0
VERTEX
  8
MY3DLAYER
10
-65.0311828052209
20
11.398979561323978
30
0.19898877156383896
 70
     32
  0
SEQEND
  0
POLYLINE
 8
Group#16
 66
     1
70
    8
 10
0.0
 20
 0.0
 30
0.0
  0
VERTEX
  8
MY3DLAYER
10
-65.41941137287466
20
11.450090821890349
30
0.19898877156383896
 70
     32
  0
VERTEX
  8
MY3DLAYER
10
-65.78118280522088
20
11.599941455647324
30
0.19898877156383862
 70
     32
  0
VERTEX
  8
MY3DLAYER
10
-65.78118280522088
20
11.599941455647324
30
3.198988771563811
 70
     32
  0
VERTEX
  8
MY3DLAYER
10
-65.41941137287466
20
11.450090821890349
30
3.198988771563811
 70
     32
  0
VERTEX
  8
MY3DLAYER
10
-65.41941137287466
20
11.450090821890349
30
0.19898877156383896
 70
     32
  0
SEQEND
  0
POLYLINE
 8
Group#16
 66
     1
70
    8
 10
0.0
 20
 0.0
 30
0.0
  0
VERTEX
  8
MY3DLAYER
10
-65.78118280522088
20
11.599941455647324
30
0.19898877156383862
 70
     32
  0
VERTEX
  8
MY3DLAYER
10
-66.0918429770007
20
11.83831938954415
30
0.19898877156383984
 70
     32
  0
VERTEX
  8
MY3DLAYER
10
-66.0918429770007
20
11.83831938954415
30
3.198988771563811
 70
     32
  0
VERTEX
  8
MY3DLAYER
10
-65.78118280522088
20
11.599941455647324
30
3.198988771563811
 70
     32
  0
VERTEX
  8
MY3DLAYER
10
-65.78118280522088
20
11.599941455647324
30
0.19898877156383862
 70
     32
  0
SEQEND
  0
POLYLINE
 8
Group#16
 66
     1
70
    8
 10
0.0
 20
 0.0
 30
0.0
  0
VERTEX
  8
MY3DLAYER
10
-66.0918429770007
20
11.83831938954415
30
0.19898877156383984
 70
     32
  0
VERTEX
  8
MY3DLAYER
10
-66.33022091089754
20
12.148979561323943
30
0.19898877156383932
 70
     32
  0
VERTEX
  8
MY3DLAYER
10
-66.33022091089754
20
12.148979561323943
30
3.198988771563811
 70
     32
  0
VERTEX
  8
MY3DLAYER
10
-66.0918429770007
20
11.83831938954415
30
3.198988771563811
 70
     32
  0
VERTEX
  8
MY3DLAYER
10
-66.0918429770007
20
11.83831938954415
30
0.19898877156383984
 70
     32
  0
SEQEND
  0
POLYLINE
 8
Group#16
 66
     1
70
    8
 10
0.0
 20
 0.0
 30
0.0
  0
VERTEX
  8
MY3DLAYER
10
-66.33022091089754
20
12.148979561323943
30
0.19898877156383932
 70
     32
  0
VERTEX
  8
MY3DLAYER
10
-66.48007154465449
20
12.510750993670197
30
0.19898877156383932
 70
     32
  0
VERTEX
  8
MY3DLAYER
10
-66.48007154465449
20
12.510750993670197
30
3.1989887715638115
 70
     32
  0
VERTEX
  8
MY3DLAYER
10
-66.33022091089754
20
12.148979561323943
30
3.198988771563811
 70
     32
  0
VERTEX
  8
MY3DLAYER
10
-66.33022091089754
20
12.148979561323943
30
0.19898877156383932
 70
     32
  0
SEQEND
  0
POLYLINE
 8
Group#16
 66
     1
70
    8
 10
0.0
 20
 0.0
 30
0.0
  0
VERTEX
  8
MY3DLAYER
10
-66.48007154465449
20
12.510750993670197
30
0.19898877156383932
 70
     32
  0
VERTEX
  8
MY3DLAYER
10
-66.53118280522088
20
12.898979561323952
30
0.19898877156383948
 70
     32
  0
VERTEX
  8
MY3DLAYER
10
-66.53118280522088
20
12.898979561323952
30
3.1989887715638115
 70
     32
  0
VERTEX
  8
MY3DLAYER
10
-66.48007154465449
20
12.510750993670197
30
3.1989887715638115
 70
     32
  0
VERTEX
  8
MY3DLAYER
10
-66.48007154465449
20
12.510750993670197
30
0.19898877156383932
 70
     32
  0
SEQEND
  0
POLYLINE
 8
Group#16
 66
     1
70
    8
 10
0.0
 20
 0.0
 30
0.0
  0
VERTEX
  8
MY3DLAYER
10
-66.53118280522088
20
12.898979561323952
30
0.19898877156383948
 70
     32
  0
VERTEX
  8
MY3DLAYER
10
-66.48007154465449
20
13.287208128977753
30
0.19898877156383948
 70
     32
  0
VERTEX
  8
MY3DLAYER
10
-66.48007154465449
20
13.287208128977753
30
3.198988771563811
 70
     32
  0
VERTEX
  8
MY3DLAYER
10
-66.53118280522088
20
12.898979561323952
30
3.1989887715638115
 70
     32
  0
VERTEX
  8
MY3DLAYER
10
-66.53118280522088
20
12.898979561323952
30
0.19898877156383948
 70
     32
  0
SEQEND
  0
POLYLINE
 8
Group#16
 66
     1
70
    8
 10
0.0
 20
 0.0
 30
0.0
  0
VERTEX
  8
MY3DLAYER
10
-66.48007154465449
20
13.287208128977753
30
0.19898877156383948
 70
     32
  0
VERTEX
  8
MY3DLAYER
10
-66.33022091089755
20
13.648979561323962
30
0.19898877156383948
 70
     32
  0
VERTEX
  8
MY3DLAYER
10
-66.33022091089754
20
13.648979561323962
30
3.198988771563809
 70
     32
  0
VERTEX
  8
MY3DLAYER
10
-66.48007154465449
20
13.287208128977753
30
3.198988771563811
 70
     32
  0
VERTEX
  8
MY3DLAYER
10
-66.48007154465449
20
13.287208128977753
30
0.19898877156383948
 70
     32
  0
SEQEND
  0
POLYLINE
 8
Group#16
 66
     1
70
    8
 10
0.0
 20
 0.0
 30
0.0
  0
VERTEX
  8
MY3DLAYER
10
-66.33022091089755
20
13.648979561323962
30
0.19898877156383948
 70
     32
  0
VERTEX
  8
MY3DLAYER
10
-66.09184297700071
20
13.959639733103753
30
0.1989887715638402
 70
     32
  0
VERTEX
  8
MY3DLAYER
10
-66.09184297700071
20
13.959639733103753
30
3.198988771563809
 70
     32
  0
VERTEX
  8
MY3DLAYER
10
-66.33022091089754
20
13.648979561323962
30
3.198988771563809
 70
     32
  0
VERTEX
  8
MY3DLAYER
10
-66.33022091089755
20
13.648979561323962
30
0.19898877156383948
 70
     32
  0
SEQEND
  0
POLYLINE
 8
Group#16
 66
     1
70
    8
 10
0.0
 20
 0.0
 30
0.0
  0
VERTEX
  8
MY3DLAYER
10
-66.09184297700071
20
13.959639733103753
30
0.1989887715638402
 70
     32
  0
VERTEX
  8
MY3DLAYER
10
-65.78118280522088
20
14.198017667000626
30
0.19898877156383948
 70
     32
  0
VERTEX
  8
MY3DLAYER
10
-65.78118280522088
20
14.198017667000626
30
3.198988771563809
 70
     32
  0
VERTEX
  8
MY3DLAYER
10
-66.09184297700071
20
13.959639733103753
30
3.198988771563809
 70
     32
  0
VERTEX
  8
MY3DLAYER
10
-66.09184297700071
20
13.959639733103753
30
0.1989887715638402
 70
     32
  0
SEQEND
  0
POLYLINE
 8
Group#16
 66
     1
70
    8
 10
0.0
 20
 0.0
 30
0.0
  0
VERTEX
  8
MY3DLAYER
10
-65.78118280522088
20
14.198017667000626
30
0.19898877156383948
 70
     32
  0
VERTEX
  8
MY3DLAYER
10
-65.41941137287466
20
14.347868300757554
30
0.19898877156383948
 70
     32
  0
VERTEX
  8
MY3DLAYER
10
-65.41941137287466
20
14.347868300757554
30
3.1989887715638115
 70
     32
  0
VERTEX
  8
MY3DLAYER
10
-65.78118280522088
20
14.198017667000626
30
3.198988771563809
 70
     32
  0
VERTEX
  8
MY3DLAYER
10
-65.78118280522088
20
14.198017667000626
30
0.19898877156383948
 70
     32
  0
SEQEND
  0
POLYLINE
 8
Group#16
 66
     1
70
    8
 10
0.0
 20
 0.0
 30
0.0
  0
VERTEX
  8
MY3DLAYER
10
-65.41941137287466
20
14.347868300757554
30
0.19898877156383948
 70
     32
  0
VERTEX
  8
MY3DLAYER
10
-65.0311828052209
20
14.398979561323971
30
0.19898877156383932
 70
     32
  0
VERTEX
  8
MY3DLAYER
10
-65.0311828052209
20
14.398979561323971
30
3.1989887715638115
 70
     32
  0
VERTEX
  8
MY3DLAYER
10
-65.41941137287466
20
14.347868300757554
30
3.1989887715638115
 70
     32
  0
VERTEX
  8
MY3DLAYER
10
-65.41941137287466
20
14.347868300757554
30
0.19898877156383948
 70
     32
  0
SEQEND
  0
POLYLINE
 8
Group#16
 66
     1
70
    8
 10
0.0
 20
 0.0
 30
0.0
  0
VERTEX
  8
MY3DLAYER
10
-65.0311828052209
20
14.398979561323971
30
0.19898877156383932
 70
     32
  0
VERTEX
  8
MY3DLAYER
10
-64.64295423756711
20
14.347868300757554
30
0.19898877156383948
 70
     32
  0
VERTEX
  8
MY3DLAYER
10
-64.64295423756711
20
14.347868300757554
30
3.19898877156381
 70
     32
  0
VERTEX
  8
MY3DLAYER
10
-65.0311828052209
20
14.398979561323971
30
3.1989887715638115
 70
     32
  0
VERTEX
  8
MY3DLAYER
10
-65.0311828052209
20
14.398979561323971
30
0.19898877156383932
 70
     32
  0
SEQEND
  0
POLYLINE
 8
Group#16
 66
     1
70
    8
 10
0.0
 20
 0.0
 30
0.0
  0
VERTEX
  8
MY3DLAYER
10
-64.64295423756711
20
14.347868300757554
30
0.19898877156383948
 70
     32
  0
VERTEX
  8
MY3DLAYER
10
-64.2811828052209
20
14.198017667000626
30
0.19898877156383948
 70
     32
  0
VERTEX
  8
MY3DLAYER
10
-64.2811828052209
20
14.198017667000626
30
3.19898877156381
 70
     32
  0
VERTEX
  8
MY3DLAYER
10
-64.64295423756711
20
14.347868300757554
30
3.19898877156381
 70
     32
  0
VERTEX
  8
MY3DLAYER
10
-64.64295423756711
20
14.347868300757554
30
0.19898877156383948
 70
     32
  0
SEQEND
  0
POLYLINE
 8
Group#16
 66
     1
70
    8
 10
0.0
 20
 0.0
 30
0.0
  0
VERTEX
  8
MY3DLAYER
10
-64.2811828052209
20
14.198017667000626
30
0.19898877156383948
 70
     32
  0
VERTEX
  8
MY3DLAYER
10
-63.970522633441064
20
13.959639733103753
30
0.19898877156384
 70
     32
  0
VERTEX
  8
MY3DLAYER
10
-63.970522633441064
20
13.959639733103753
30
3.198988771563811
 70
     32
  0
VERTEX
  8
MY3DLAYER
10
-64.2811828052209
20
14.198017667000626
30
3.19898877156381
 70
     32
  0
VERTEX
  8
MY3DLAYER
10
-64.2811828052209
20
14.198017667000626
30
0.19898877156383948
 70
     32
  0
SEQEND
  0
POLYLINE
 8
Group#16
 66
     1
70
    8
 10
0.0
 20
 0.0
 30
0.0
  0
VERTEX
  8
MY3DLAYER
10
-63.970522633441064
20
13.959639733103753
30
0.19898877156384
 70
     32
  0
VERTEX
  8
MY3DLAYER
10
-63.732144699544236
20
13.648979561323962
30
0.1989887715638388
 70
     32
  0
VERTEX
  8
MY3DLAYER
10
-63.732144699544236
20
13.648979561323962
30
3.198988771563811
 70
     32
  0
VERTEX
  8
MY3DLAYER
10
-63.970522633441064
20
13.959639733103753
30
3.198988771563811
 70
     32
  0
VERTEX
  8
MY3DLAYER
10
-63.970522633441064
20
13.959639733103753
30
0.19898877156384
 70
     32
  0
SEQEND
  0
POLYLINE
 8
Group#16
 66
     1
70
    8
 10
0.0
 20
 0.0
 30
0.0
  0
VERTEX
  8
MY3DLAYER
10
-63.732144699544236
20
13.648979561323962
30
0.1989887715638388
 70
     32
  0
VERTEX
  8
MY3DLAYER
10
-63.58229406578729
20
13.287208128977753
30
0.19898877156383915
 70
     32
  0
VERTEX
  8
MY3DLAYER
10
-63.58229406578729
20
13.287208128977753
30
3.198988771563811
 70
     32
  0
VERTEX
  8
MY3DLAYER
10
-63.732144699544236
20
13.648979561323962
30
3.198988771563811
 70
     32
  0
VERTEX
  8
MY3DLAYER
10
-63.732144699544236
20
13.648979561323962
30
0.1989887715638388
 70
     32
  0
SEQEND
  0
POLYLINE
 8
Group#16
 66
     1
70
    8
 10
0.0
 20
 0.0
 30
0.0
  0
VERTEX
  8
MY3DLAYER
10
-63.58229406578729
20
13.287208128977753
30
0.19898877156383915
 70
     32
  0
VERTEX
  8
MY3DLAYER
10
-63.53118280522089
20
12.898979561323952
30
0.19898877156383932
 70
     32
  0
VERTEX
  8
MY3DLAYER
10
-63.53118280522089
20
12.898979561323952
30
3.198988771563811
 70
     32
  0
VERTEX
  8
MY3DLAYER
10
-63.58229406578729
20
13.287208128977753
30
3.198988771563811
 70
     32
  0
VERTEX
  8
MY3DLAYER
10
-63.58229406578729
20
13.287208128977753
30
0.19898877156383915
 70
     32
  0
SEQEND
  0
POLYLINE
 8
Group#16
 66
     1
70
    8
 10
0.0
 20
 0.0
 30
0.0
  0
VERTEX
  8
MY3DLAYER
10
-63.53118280522089
20
12.898979561323952
30
0.19898877156383932
 70
     32
  0
VERTEX
  8
MY3DLAYER
10
-63.58229406578729
20
12.510750993670197
30
0.19898877156383862
 70
     32
  0
VERTEX
  8
MY3DLAYER
10
-63.58229406578729
20
12.510750993670197
30
3.198988771563811
 70
     32
  0
VERTEX
  8
MY3DLAYER
10
-63.53118280522089
20
12.898979561323952
30
3.198988771563811
 70
     32
  0
VERTEX
  8
MY3DLAYER
10
-63.53118280522089
20
12.898979561323952
30
0.19898877156383932
 70
     32
  0
SEQEND
  0
POLYLINE
 8
Group#16
 66
     1
70
    8
 10
0.0
 20
 0.0
 30
0.0
  0
VERTEX
  8
MY3DLAYER
10
-63.58229406578729
20
12.510750993670197
30
0.19898877156383862
 70
     32
  0
VERTEX
  8
MY3DLAYER
10
-63.73214469954423
20
12.148979561323943
30
0.19898877156383896
 70
     32
  0
VERTEX
  8
MY3DLAYER
10
-63.73214469954423
20
12.148979561323943
30
3.198988771563808
 70
     32
  0
VERTEX
  8
MY3DLAYER
10
-63.58229406578729
20
12.510750993670197
30
3.198988771563811
 70
     32
  0
VERTEX
  8
MY3DLAYER
10
-63.58229406578729
20
12.510750993670197
30
0.19898877156383862
 70
     32
  0
SEQEND
  0
POLYLINE
 8
Group#16
 66
     1
70
    8
 10
0.0
 20
 0.0
 30
0.0
  0
VERTEX
  8
MY3DLAYER
10
-63.73214469954423
20
12.148979561323943
30
0.19898877156383896
 70
     32
  0
VERTEX
  8
MY3DLAYER
10
-63.97052263344108
20
11.83831938954415
30
0.19898877156383968
 70
     32
  0
VERTEX
  8
MY3DLAYER
10
-63.97052263344108
20
11.83831938954415
30
3.198988771563808
 70
     32
  0
VERTEX
  8
MY3DLAYER
10
-63.73214469954423
20
12.148979561323943
30
3.198988771563808
 70
     32
  0
VERTEX
  8
MY3DLAYER
10
-63.73214469954423
20
12.148979561323943
30
0.19898877156383896
 70
     32
  0
SEQEND
  0
POLYLINE
 8
Group#16
 66
     1
70
    8
 10
0.0
 20
 0.0
 30
0.0
  0
VERTEX
  8
MY3DLAYER
10
-63.97052263344108
20
11.83831938954415
30
0.19898877156383968
 70
     32
  0
VERTEX
  8
MY3DLAYER
10
-64.2811828052209
20
11.599941455647324
30
0.19898877156383896
 70
     32
  0
VERTEX
  8
MY3DLAYER
10
-64.2811828052209
20
11.599941455647324
30
3.1989887715638097
 70
     32
  0
VERTEX
  8
MY3DLAYER
10
-63.97052263344108
20
11.83831938954415
30
3.198988771563808
 70
     32
  0
VERTEX
  8
MY3DLAYER
10
-63.97052263344108
20
11.83831938954415
30
0.19898877156383968
 70
     32
  0
SEQEND
  0
POLYLINE
 8
Group#16
 66
     1
70
    8
 10
0.0
 20
 0.0
 30
0.0
  0
VERTEX
  8
MY3DLAYER
10
-64.2811828052209
20
11.599941455647324
30
0.19898877156383896
 70
     32
  0
VERTEX
  8
MY3DLAYER
10
-64.64295423756711
20
11.450090821890349
30
0.19898877156383896
 70
     32
  0
VERTEX
  8
MY3DLAYER
10
-64.64295423756711
20
11.450090821890349
30
3.1989887715638097
 70
     32
  0
VERTEX
  8
MY3DLAYER
10
-64.2811828052209
20
11.599941455647324
30
3.1989887715638097
 70
     32
  0
VERTEX
  8
MY3DLAYER
10
-64.2811828052209
20
11.599941455647324
30
0.19898877156383896
 70
     32
  0
SEQEND
  0
POLYLINE
 8
Group#16
 66
     1
70
    8
 10
0.0
 20
 0.0
 30
0.0
  0
VERTEX
  8
MY3DLAYER
10
-64.64295423756711
20
11.450090821890349
30
0.19898877156383896
 70
     32
  0
VERTEX
  8
MY3DLAYER
10
-65.0311828052209
20
11.398979561323978
30
0.19898877156383896
 70
     32
  0
VERTEX
  8
MY3DLAYER
10
-65.0311828052209
20
11.398979561323978
30
3.198988771563811
 70
     32
  0
VERTEX
  8
MY3DLAYER
10
-64.64295423756711
20
11.450090821890349
30
3.1989887715638097
 70
     32
  0
VERTEX
  8
MY3DLAYER
10
-64.64295423756711
20
11.450090821890349
30
0.19898877156383896
 70
     32
  0
SEQEND
  0
POLYLINE
 8
Group#16
 66
     1
70
    8
 10
0.0
 20
 0.0
 30
0.0
  0
VERTEX
  8
MY3DLAYER
10
-74.52880980522094
20
6.148979561324043
30
3.1989887715638075
 70
     32
  0
VERTEX
  8
MY3DLAYER
10
-78.52880980522094
20
6.148979561324043
30
3.1989887715638052
 70
     32
  0
VERTEX
  8
MY3DLAYER
10
-78.52880980522094
20
6.148979561324043
30
0.19898877156381375
 70
     32
  0
VERTEX
  8
MY3DLAYER
10
-74.52880980522094
20
6.148979561324043
30
0.19898877156381342
 70
     32
  0
VERTEX
  8
MY3DLAYER
10
-74.52880980522094
20
6.148979561324043
30
3.1989887715638075
 70
     32
  0
SEQEND
  0
POLYLINE
 8
Group#16
 66
     1
70
    8
 10
0.0
 20
 0.0
 30
0.0
  0
VERTEX
  8
MY3DLAYER
10
-78.52880980522094
20
6.148979561324043
30
3.1989887715638052
 70
     32
  0
VERTEX
  8
MY3DLAYER
10
-78.52880980522094
20
9.148979561324039
30
3.198988771563806
 70
     32
  0
VERTEX
  8
MY3DLAYER
10
-78.52880980522094
20
9.148979561324039
30
0.19898877156381428
 70
     32
  0
VERTEX
  8
MY3DLAYER
10
-78.52880980522094
20
6.148979561324043
30
0.19898877156381375
 70
     32
  0
VERTEX
  8
MY3DLAYER
10
-78.52880980522094
20
6.148979561324043
30
3.1989887715638052
 70
     32
  0
SEQEND
  0
POLYLINE
 8
Group#16
 66
     1
70
    8
 10
0.0
 20
 0.0
 30
0.0
  0
VERTEX
  8
MY3DLAYER
10
-74.52880980522094
20
20.14897956132402
30
3.19898877156381
 70
     32
  0
VERTEX
  8
MY3DLAYER
10
-74.52880980522094
20
6.148979561324043
30
3.1989887715638075
 70
     32
  0
VERTEX
  8
MY3DLAYER
10
-74.52880980522094
20
6.148979561324043
30
0.19898877156381342
 70
     32
  0
VERTEX
  8
MY3DLAYER
10
-74.52880980522094
20
20.14897956132402
30
0.1989887715638159
 70
     32
  0
VERTEX
  8
MY3DLAYER
10
-74.52880980522094
20
20.14897956132402
30
3.19898877156381
 70
     32
  0
SEQEND
  0
POLYLINE
 8
Group#16
 66
     1
70
    8
 10
0.0
 20
 0.0
 30
0.0
  0
VERTEX
  8
MY3DLAYER
10
-78.52880980522094
20
17.148979561324023
30
0.1989887715638157
 70
     32
  0
VERTEX
  8
MY3DLAYER
10
-78.52880980522093
20
20.14897956132402
30
0.19898877156381622
 70
     32
  0
VERTEX
  8
MY3DLAYER
10
-74.52880980522094
20
20.14897956132402
30
0.1989887715638159
 70
     32
  0
VERTEX
  8
MY3DLAYER
10
-74.52880980522094
20
6.148979561324043
30
0.19898877156381342
 70
     32
  0
VERTEX
  8
MY3DLAYER
10
-78.52880980522094
20
6.148979561324043
30
0.19898877156381375
 70
     32
  0
VERTEX
  8
MY3DLAYER
10
-78.52880980522094
20
9.148979561324039
30
0.19898877156381428
 70
     32
  0
VERTEX
  8
MY3DLAYER
10
-104.82880980522097
20
9.148979561324039
30
0.19898877156381642
 70
     32
  0
VERTEX
  8
MY3DLAYER
10
-104.82880980522097
20
17.148979561324023
30
0.1989887715638178
 70
     32
  0
VERTEX
  8
MY3DLAYER
10
-78.52880980522094
20
17.148979561324023
30
0.1989887715638157
 70
     32
  0
SEQEND
  0
POLYLINE
 8
Group#16
 66
     1
70
    8
 10
0.0
 20
 0.0
 30
0.0
  0
VERTEX
  8
MY3DLAYER
10
-81.67880980522095
20
12.898979561323817
30
0.19898877156379297
 70
     32
  0
VERTEX
  8
MY3DLAYER
10
-81.72992106578734
20
13.287208128977618
30
0.1989887715637928
 70
     32
  0
VERTEX
  8
MY3DLAYER
10
-81.87977169954428
20
13.648979561323827
30
0.19898877156379227
 70
     32
  0
VERTEX
  8
MY3DLAYER
10
-82.11814963344112
20
13.959639733103662
30
0.19898877156379297
 70
     32
  0
VERTEX
  8
MY3DLAYER
10
-82.42880980522094
20
14.198017667000489
30
0.19898877156379297
 70
     32
  0
VERTEX
  8
MY3DLAYER
10
-82.79058123756717
20
14.347868300757419
30
0.19898877156379297
 70
     32
  0
VERTEX
  8
MY3DLAYER
10
-83.17880980522095
20
14.398979561323836
30
0.19898877156379297
 70
     32
  0
VERTEX
  8
MY3DLAYER
10
-83.56703837287472
20
14.347868300757419
30
0.19898877156379297
 70
     32
  0
VERTEX
  8
MY3DLAYER
10
-83.92880980522095
20
14.198017667000489
30
0.19898877156379313
 70
     32
  0
VERTEX
  8
MY3DLAYER
10
-84.23946997700077
20
13.959639733103662
30
0.19898877156379313
 70
     32
  0
VERTEX
  8
MY3DLAYER
10
-84.4778479108976
20
13.648979561323827
30
0.19898877156379244
 70
     32
  0
VERTEX
  8
MY3DLAYER
10
-84.62769854465455
20
13.287208128977618
30
0.19898877156379297
 70
     32
  0
VERTEX
  8
MY3DLAYER
10
-84.67880980522095
20
12.898979561323817
30
0.1989887715637935
 70
     32
  0
VERTEX
  8
MY3DLAYER
10
-84.62769854465455
20
12.510750993670062
30
0.1989887715637928
 70
     32
  0
VERTEX
  8
MY3DLAYER
10
-84.4778479108976
20
12.148979561323854
30
0.1989887715637926
 70
     32
  0
VERTEX
  8
MY3DLAYER
10
-84.23946997700077
20
11.838319389544017
30
0.19898877156379297
 70
     32
  0
VERTEX
  8
MY3DLAYER
10
-83.92880980522095
20
11.59994145564719
30
0.19898877156379244
 70
     32
  0
VERTEX
  8
MY3DLAYER
10
-83.56703837287472
20
11.450090821890216
30
0.19898877156379227
 70
     32
  0
VERTEX
  8
MY3DLAYER
10
-83.17880980522095
20
11.398979561323843
30
0.19898877156379244
 70
     32
  0
VERTEX
  8
MY3DLAYER
10
-82.79058123756717
20
11.450090821890216
30
0.19898877156379244
 70
     32
  0
VERTEX
  8
MY3DLAYER
10
-82.42880980522095
20
11.59994145564719
30
0.19898877156379244
 70
     32
  0
VERTEX
  8
MY3DLAYER
10
-82.11814963344112
20
11.838319389544017
30
0.1989887715637928
 70
     32
  0
VERTEX
  8
MY3DLAYER
10
-81.87977169954429
20
12.148979561323854
30
0.1989887715637926
 70
     32
  0
VERTEX
  8
MY3DLAYER
10
-81.72992106578734
20
12.510750993670062
30
0.19898877156379244
 70
     32
  0
VERTEX
  8
MY3DLAYER
10
-81.67880980522095
20
12.898979561323817
30
0.19898877156379297
 70
     32
  0
SEQEND
  0
POLYLINE
 8
Group#16
 66
     1
70
    8
 10
0.0
 20
 0.0
 30
0.0
  0
VERTEX
  8
MY3DLAYER
10
-100.96703837287471
20
11.450090821890349
30
0.19898877156383896
 70
     32
  0
VERTEX
  8
MY3DLAYER
10
-100.57880980522094
20
11.398979561323978
30
0.19898877156383896
 70
     32
  0
VERTEX
  8
MY3DLAYER
10
-100.19058123756716
20
11.450090821890349
30
0.19898877156383896
 70
     32
  0
VERTEX
  8
MY3DLAYER
10
-99.82880980522094
20
11.599941455647324
30
0.19898877156383896
 70
     32
  0
VERTEX
  8
MY3DLAYER
10
-99.51814963344113
20
11.83831938954415
30
0.19898877156383968
 70
     32
  0
VERTEX
  8
MY3DLAYER
10
-99.27977169954427
20
12.148979561323943
30
0.19898877156383896
 70
     32
  0
VERTEX
  8
MY3DLAYER
10
-99.12992106578733
20
12.510750993670197
30
0.19898877156383862
 70
     32
  0
VERTEX
  8
MY3DLAYER
10
-99.07880980522094
20
12.898979561323952
30
0.19898877156383932
 70
     32
  0
VERTEX
  8
MY3DLAYER
10
-99.12992106578733
20
13.287208128977753
30
0.19898877156383915
 70
     32
  0
VERTEX
  8
MY3DLAYER
10
-99.27977169954428
20
13.648979561323962
30
0.1989887715638388
 70
     32
  0
VERTEX
  8
MY3DLAYER
10
-99.51814963344111
20
13.959639733103753
30
0.19898877156384
 70
     32
  0
VERTEX
  8
MY3DLAYER
10
-99.82880980522094
20
14.198017667000626
30
0.19898877156383948
 70
     32
  0
VERTEX
  8
MY3DLAYER
10
-100.19058123756716
20
14.347868300757554
30
0.19898877156383948
 70
     32
  0
VERTEX
  8
MY3DLAYER
10
-100.57880980522094
20
14.398979561323971
30
0.19898877156383932
 70
     32
  0
VERTEX
  8
MY3DLAYER
10
-100.96703837287471
20
14.347868300757554
30
0.19898877156383948
 70
     32
  0
VERTEX
  8
MY3DLAYER
10
-101.32880980522094
20
14.198017667000626
30
0.19898877156383948
 70
     32
  0
VERTEX
  8
MY3DLAYER
10
-101.63946997700076
20
13.959639733103753
30
0.1989887715638402
 70
     32
  0
VERTEX
  8
MY3DLAYER
10
-101.87784791089759
20
13.648979561323962
30
0.19898877156383948
 70
     32
  0
VERTEX
  8
MY3DLAYER
10
-102.02769854465454
20
13.287208128977753
30
0.19898877156383948
 70
     32
  0
VERTEX
  8
MY3DLAYER
10
-102.07880980522093
20
12.898979561323952
30
0.19898877156383948
 70
     32
  0
VERTEX
  8
MY3DLAYER
10
-102.02769854465454
20
12.510750993670197
30
0.19898877156383932
 70
     32
  0
VERTEX
  8
MY3DLAYER
10
-101.87784791089759
20
12.148979561323943
30
0.19898877156383932
 70
     32
  0
VERTEX
  8
MY3DLAYER
10
-101.63946997700076
20
11.83831938954415
30
0.19898877156383984
 70
     32
  0
VERTEX
  8
MY3DLAYER
10
-101.32880980522094
20
11.599941455647324
30
0.19898877156383862
 70
     32
  0
VERTEX
  8
MY3DLAYER
10
-100.96703837287471
20
11.450090821890349
30
0.19898877156383896
 70
     32
  0
SEQEND
  0
POLYLINE
 8
Group#16
 66
     1
70
    8
 10
0.0
 20
 0.0
 30
0.0
  0
VERTEX
  8
MY3DLAYER
10
-78.52880980522093
20
20.14897956132402
30
3.198988771563811
 70
     32
  0
VERTEX
  8
MY3DLAYER
10
-74.52880980522094
20
20.14897956132402
30
3.19898877156381
 70
     32
  0
VERTEX
  8
MY3DLAYER
10
-74.52880980522094
20
20.14897956132402
30
0.1989887715638159
 70
     32
  0
VERTEX
  8
MY3DLAYER
10
-78.52880980522093
20
20.14897956132402
30
0.19898877156381622
 70
     32
  0
VERTEX
  8
MY3DLAYER
10
-78.52880980522093
20
20.14897956132402
30
3.198988771563811
 70
     32
  0
SEQEND
  0
POLYLINE
 8
Group#16
 66
     1
70
    8
 10
0.0
 20
 0.0
 30
0.0
  0
VERTEX
  8
MY3DLAYER
10
-78.52880980522093
20
20.14897956132402
30
0.19898877156381622
 70
     32
  0
VERTEX
  8
MY3DLAYER
10
-78.52880980522094
20
17.148979561324023
30
0.1989887715638157
 70
     32
  0
VERTEX
  8
MY3DLAYER
10
-78.52880980522094
20
17.148979561324023
30
3.1989887715638075
 70
     32
  0
VERTEX
  8
MY3DLAYER
10
-78.52880980522093
20
20.14897956132402
30
3.198988771563811
 70
     32
  0
VERTEX
  8
MY3DLAYER
10
-78.52880980522093
20
20.14897956132402
30
0.19898877156381622
 70
     32
  0
SEQEND
  0
POLYLINE
 8
Group#16
 66
     1
70
    8
 10
0.0
 20
 0.0
 30
0.0
  0
VERTEX
  8
MY3DLAYER
10
-78.52880980522093
20
20.14897956132402
30
3.198988771563811
 70
     32
  0
VERTEX
  8
MY3DLAYER
10
-78.52880980522094
20
17.148979561324023
30
3.1989887715638075
 70
     32
  0
VERTEX
  8
MY3DLAYER
10
-104.82880980522097
20
17.148979561324023
30
3.1989887715638115
 70
     32
  0
VERTEX
  8
MY3DLAYER
10
-104.82880980522097
20
9.148979561324039
30
3.19898877156381
 70
     32
  0
VERTEX
  8
MY3DLAYER
10
-78.52880980522094
20
9.148979561324039
30
3.198988771563806
 70
     32
  0
VERTEX
  8
MY3DLAYER
10
-78.52880980522094
20
6.148979561324043
30
3.1989887715638052
 70
     32
  0
VERTEX
  8
MY3DLAYER
10
-74.52880980522094
20
6.148979561324043
30
3.1989887715638075
 70
     32
  0
VERTEX
  8
MY3DLAYER
10
-74.52880980522094
20
20.14897956132402
30
3.19898877156381
 70
     32
  0
VERTEX
  8
MY3DLAYER
10
-78.52880980522093
20
20.14897956132402
30
3.198988771563811
 70
     32
  0
SEQEND
  0
POLYLINE
 8
Group#16
 66
     1
70
    8
 10
0.0
 20
 0.0
 30
0.0
  0
VERTEX
  8
MY3DLAYER
10
-81.72992106578734
20
13.287208128977618
30
3.1989887715638097
 70
     32
  0
VERTEX
  8
MY3DLAYER
10
-81.67880980522095
20
12.898979561323817
30
3.1989887715638097
 70
     32
  0
VERTEX
  8
MY3DLAYER
10
-81.72992106578734
20
12.510750993670062
30
3.1989887715638097
 70
     32
  0
VERTEX
  8
MY3DLAYER
10
-81.87977169954429
20
12.148979561323854
30
3.1989887715638066
 70
     32
  0
VERTEX
  8
MY3DLAYER
10
-82.11814963344112
20
11.838319389544017
30
3.1989887715638066
 70
     32
  0
VERTEX
  8
MY3DLAYER
10
-82.42880980522095
20
11.59994145564719
30
3.1989887715638066
 70
     32
  0
VERTEX
  8
MY3DLAYER
10
-82.79058123756717
20
11.450090821890216
30
3.198988771563808
 70
     32
  0
VERTEX
  8
MY3DLAYER
10
-83.17880980522095
20
11.398979561323843
30
3.198988771563808
 70
     32
  0
VERTEX
  8
MY3DLAYER
10
-83.56703837287472
20
11.450090821890216
30
3.1989887715638097
 70
     32
  0
VERTEX
  8
MY3DLAYER
10
-83.92880980522095
20
11.59994145564719
30
3.1989887715638097
 70
     32
  0
VERTEX
  8
MY3DLAYER
10
-84.23946997700077
20
11.838319389544017
30
3.1989887715638097
 70
     32
  0
VERTEX
  8
MY3DLAYER
10
-84.4778479108976
20
12.148979561323854
30
3.1989887715638097
 70
     32
  0
VERTEX
  8
MY3DLAYER
10
-84.62769854465455
20
12.510750993670062
30
3.19898877156381
 70
     32
  0
VERTEX
  8
MY3DLAYER
10
-84.67880980522095
20
12.898979561323817
30
3.19898877156381
 70
     32
  0
VERTEX
  8
MY3DLAYER
10
-84.62769854465455
20
13.287208128977618
30
3.1989887715638097
 70
     32
  0
VERTEX
  8
MY3DLAYER
10
-84.4778479108976
20
13.648979561323827
30
3.1989887715638097
 70
     32
  0
VERTEX
  8
MY3DLAYER
10
-84.23946997700077
20
13.959639733103662
30
3.1989887715638075
 70
     32
  0
VERTEX
  8
MY3DLAYER
10
-83.92880980522095
20
14.198017667000489
30
3.1989887715638075
 70
     32
  0
VERTEX
  8
MY3DLAYER
10
-83.56703837287472
20
14.347868300757419
30
3.19898877156381
 70
     32
  0
VERTEX
  8
MY3DLAYER
10
-83.17880980522095
20
14.398979561323836
30
3.198988771563809
 70
     32
  0
VERTEX
  8
MY3DLAYER
10
-82.79058123756717
20
14.347868300757419
30
3.198988771563811
 70
     32
  0
VERTEX
  8
MY3DLAYER
10
-82.42880980522094
20
14.198017667000489
30
3.1989887715638097
 70
     32
  0
VERTEX
  8
MY3DLAYER
10
-82.11814963344112
20
13.959639733103662
30
3.1989887715638097
 70
     32
  0
VERTEX
  8
MY3DLAYER
10
-81.87977169954428
20
13.648979561323827
30
3.1989887715638097
 70
     32
  0
VERTEX
  8
MY3DLAYER
10
-81.72992106578734
20
13.287208128977618
30
3.1989887715638097
 70
     32
  0
SEQEND
  0
POLYLINE
 8
Group#16
 66
     1
70
    8
 10
0.0
 20
 0.0
 30
0.0
  0
VERTEX
  8
MY3DLAYER
10
-100.57880980522094
20
11.398979561323978
30
3.198988771563811
 70
     32
  0
VERTEX
  8
MY3DLAYER
10
-100.96703837287471
20
11.450090821890349
30
3.198988771563811
 70
     32
  0
VERTEX
  8
MY3DLAYER
10
-101.32880980522094
20
11.599941455647324
30
3.198988771563811
 70
     32
  0
VERTEX
  8
MY3DLAYER
10
-101.63946997700076
20
11.83831938954415
30
3.198988771563811
 70
     32
  0
VERTEX
  8
MY3DLAYER
10
-101.87784791089759
20
12.148979561323943
30
3.198988771563811
 70
     32
  0
VERTEX
  8
MY3DLAYER
10
-102.02769854465454
20
12.510750993670197
30
3.1989887715638115
 70
     32
  0
VERTEX
  8
MY3DLAYER
10
-102.07880980522093
20
12.898979561323952
30
3.1989887715638115
 70
     32
  0
VERTEX
  8
MY3DLAYER
10
-102.02769854465454
20
13.287208128977753
30
3.198988771563811
 70
     32
  0
VERTEX
  8
MY3DLAYER
10
-101.87784791089759
20
13.648979561323962
30
3.198988771563809
 70
     32
  0
VERTEX
  8
MY3DLAYER
10
-101.63946997700076
20
13.959639733103753
30
3.198988771563809
 70
     32
  0
VERTEX
  8
MY3DLAYER
10
-101.32880980522094
20
14.198017667000626
30
3.198988771563809
 70
     32
  0
VERTEX
  8
MY3DLAYER
10
-100.96703837287471
20
14.347868300757554
30
3.1989887715638115
 70
     32
  0
VERTEX
  8
MY3DLAYER
10
-100.57880980522094
20
14.398979561323971
30
3.1989887715638115
 70
     32
  0
VERTEX
  8
MY3DLAYER
10
-100.19058123756716
20
14.347868300757554
30
3.19898877156381
 70
     32
  0
VERTEX
  8
MY3DLAYER
10
-99.82880980522094
20
14.198017667000626
30
3.19898877156381
 70
     32
  0
VERTEX
  8
MY3DLAYER
10
-99.51814963344111
20
13.959639733103753
30
3.198988771563811
 70
     32
  0
VERTEX
  8
MY3DLAYER
10
-99.27977169954428
20
13.648979561323962
30
3.198988771563811
 70
     32
  0
VERTEX
  8
MY3DLAYER
10
-99.12992106578733
20
13.287208128977753
30
3.198988771563811
 70
     32
  0
VERTEX
  8
MY3DLAYER
10
-99.07880980522094
20
12.898979561323952
30
3.198988771563811
 70
     32
  0
VERTEX
  8
MY3DLAYER
10
-99.12992106578733
20
12.510750993670197
30
3.198988771563811
 70
     32
  0
VERTEX
  8
MY3DLAYER
10
-99.27977169954427
20
12.148979561323943
30
3.198988771563808
 70
     32
  0
VERTEX
  8
MY3DLAYER
10
-99.51814963344113
20
11.83831938954415
30
3.198988771563808
 70
     32
  0
VERTEX
  8
MY3DLAYER
10
-99.82880980522094
20
11.599941455647324
30
3.1989887715638097
 70
     32
  0
VERTEX
  8
MY3DLAYER
10
-100.19058123756716
20
11.450090821890349
30
3.1989887715638097
 70
     32
  0
VERTEX
  8
MY3DLAYER
10
-100.57880980522094
20
11.398979561323978
30
3.198988771563811
 70
     32
  0
SEQEND
  0
POLYLINE
 8
Group#16
 66
     1
70
    8
 10
0.0
 20
 0.0
 30
0.0
  0
VERTEX
  8
MY3DLAYER
10
-78.52880980522094
20
9.148979561324039
30
0.19898877156381428
 70
     32
  0
VERTEX
  8
MY3DLAYER
10
-78.52880980522094
20
9.148979561324039
30
3.198988771563806
 70
     32
  0
VERTEX
  8
MY3DLAYER
10
-104.82880980522097
20
9.148979561324039
30
3.19898877156381
 70
     32
  0
VERTEX
  8
MY3DLAYER
10
-104.82880980522097
20
9.148979561324039
30
0.19898877156381642
 70
     32
  0
VERTEX
  8
MY3DLAYER
10
-78.52880980522094
20
9.148979561324039
30
0.19898877156381428
 70
     32
  0
SEQEND
  0
POLYLINE
 8
Group#16
 66
     1
70
    8
 10
0.0
 20
 0.0
 30
0.0
  0
VERTEX
  8
MY3DLAYER
10
-78.52880980522094
20
17.148979561324023
30
3.1989887715638075
 70
     32
  0
VERTEX
  8
MY3DLAYER
10
-78.52880980522094
20
17.148979561324023
30
0.1989887715638157
 70
     32
  0
VERTEX
  8
MY3DLAYER
10
-104.82880980522097
20
17.148979561324023
30
0.1989887715638178
 70
     32
  0
VERTEX
  8
MY3DLAYER
10
-104.82880980522097
20
17.148979561324023
30
3.1989887715638115
 70
     32
  0
VERTEX
  8
MY3DLAYER
10
-78.52880980522094
20
17.148979561324023
30
3.1989887715638075
 70
     32
  0
SEQEND
  0
POLYLINE
 8
Group#16
 66
     1
70
    8
 10
0.0
 20
 0.0
 30
0.0
  0
VERTEX
  8
MY3DLAYER
10
-104.82880980522097
20
9.148979561324039
30
3.19898877156381
 70
     32
  0
VERTEX
  8
MY3DLAYER
10
-104.82880980522097
20
17.148979561324023
30
3.1989887715638115
 70
     32
  0
VERTEX
  8
MY3DLAYER
10
-104.82880980522097
20
17.148979561324023
30
0.1989887715638178
 70
     32
  0
VERTEX
  8
MY3DLAYER
10
-104.82880980522097
20
9.148979561324039
30
0.19898877156381642
 70
     32
  0
VERTEX
  8
MY3DLAYER
10
-104.82880980522097
20
9.148979561324039
30
3.19898877156381
 70
     32
  0
SEQEND
  0
POLYLINE
 8
Group#16
 66
     1
70
    8
 10
0.0
 20
 0.0
 30
0.0
  0
VERTEX
  8
MY3DLAYER
10
-81.72992106578734
20
13.287208128977618
30
0.1989887715637928
 70
     32
  0
VERTEX
  8
MY3DLAYER
10
-81.67880980522095
20
12.898979561323817
30
0.19898877156379297
 70
     32
  0
VERTEX
  8
MY3DLAYER
10
-81.67880980522095
20
12.898979561323817
30
3.1989887715638097
 70
     32
  0
VERTEX
  8
MY3DLAYER
10
-81.72992106578734
20
13.287208128977618
30
3.1989887715638097
 70
     32
  0
VERTEX
  8
MY3DLAYER
10
-81.72992106578734
20
13.287208128977618
30
0.1989887715637928
 70
     32
  0
SEQEND
  0
POLYLINE
 8
Group#16
 66
     1
70
    8
 10
0.0
 20
 0.0
 30
0.0
  0
VERTEX
  8
MY3DLAYER
10
-81.67880980522095
20
12.898979561323817
30
0.19898877156379297
 70
     32
  0
VERTEX
  8
MY3DLAYER
10
-81.72992106578734
20
12.510750993670062
30
0.19898877156379244
 70
     32
  0
VERTEX
  8
MY3DLAYER
10
-81.72992106578734
20
12.510750993670062
30
3.1989887715638097
 70
     32
  0
VERTEX
  8
MY3DLAYER
10
-81.67880980522095
20
12.898979561323817
30
3.1989887715638097
 70
     32
  0
VERTEX
  8
MY3DLAYER
10
-81.67880980522095
20
12.898979561323817
30
0.19898877156379297
 70
     32
  0
SEQEND
  0
POLYLINE
 8
Group#16
 66
     1
70
    8
 10
0.0
 20
 0.0
 30
0.0
  0
VERTEX
  8
MY3DLAYER
10
-81.72992106578734
20
12.510750993670062
30
0.19898877156379244
 70
     32
  0
VERTEX
  8
MY3DLAYER
10
-81.87977169954429
20
12.148979561323854
30
0.1989887715637926
 70
     32
  0
VERTEX
  8
MY3DLAYER
10
-81.87977169954429
20
12.148979561323854
30
3.1989887715638066
 70
     32
  0
VERTEX
  8
MY3DLAYER
10
-81.72992106578734
20
12.510750993670062
30
3.1989887715638097
 70
     32
  0
VERTEX
  8
MY3DLAYER
10
-81.72992106578734
20
12.510750993670062
30
0.19898877156379244
 70
     32
  0
SEQEND
  0
POLYLINE
 8
Group#16
 66
     1
70
    8
 10
0.0
 20
 0.0
 30
0.0
  0
VERTEX
  8
MY3DLAYER
10
-81.87977169954429
20
12.148979561323854
30
0.1989887715637926
 70
     32
  0
VERTEX
  8
MY3DLAYER
10
-82.11814963344112
20
11.838319389544017
30
0.1989887715637928
 70
     32
  0
VERTEX
  8
MY3DLAYER
10
-82.11814963344112
20
11.838319389544017
30
3.1989887715638066
 70
     32
  0
VERTEX
  8
MY3DLAYER
10
-81.87977169954429
20
12.148979561323854
30
3.1989887715638066
 70
     32
  0
VERTEX
  8
MY3DLAYER
10
-81.87977169954429
20
12.148979561323854
30
0.1989887715637926
 70
     32
  0
SEQEND
  0
POLYLINE
 8
Group#16
 66
     1
70
    8
 10
0.0
 20
 0.0
 30
0.0
  0
VERTEX
  8
MY3DLAYER
10
-82.11814963344112
20
11.838319389544017
30
0.1989887715637928
 70
     32
  0
VERTEX
  8
MY3DLAYER
10
-82.42880980522095
20
11.59994145564719
30
0.19898877156379244
 70
     32
  0
VERTEX
  8
MY3DLAYER
10
-82.42880980522095
20
11.59994145564719
30
3.1989887715638066
 70
     32
  0
VERTEX
  8
MY3DLAYER
10
-82.11814963344112
20
11.838319389544017
30
3.1989887715638066
 70
     32
  0
VERTEX
  8
MY3DLAYER
10
-82.11814963344112
20
11.838319389544017
30
0.1989887715637928
 70
     32
  0
SEQEND
  0
POLYLINE
 8
Group#16
 66
     1
70
    8
 10
0.0
 20
 0.0
 30
0.0
  0
VERTEX
  8
MY3DLAYER
10
-82.42880980522095
20
11.59994145564719
30
0.19898877156379244
 70
     32
  0
VERTEX
  8
MY3DLAYER
10
-82.79058123756717
20
11.450090821890216
30
0.19898877156379244
 70
     32
  0
VERTEX
  8
MY3DLAYER
10
-82.79058123756717
20
11.450090821890216
30
3.198988771563808
 70
     32
  0
VERTEX
  8
MY3DLAYER
10
-82.42880980522095
20
11.59994145564719
30
3.1989887715638066
 70
     32
  0
VERTEX
  8
MY3DLAYER
10
-82.42880980522095
20
11.59994145564719
30
0.19898877156379244
 70
     32
  0
SEQEND
  0
POLYLINE
 8
Group#16
 66
     1
70
    8
 10
0.0
 20
 0.0
 30
0.0
  0
VERTEX
  8
MY3DLAYER
10
-82.79058123756717
20
11.450090821890216
30
0.19898877156379244
 70
     32
  0
VERTEX
  8
MY3DLAYER
10
-83.17880980522095
20
11.398979561323843
30
0.19898877156379244
 70
     32
  0
VERTEX
  8
MY3DLAYER
10
-83.17880980522095
20
11.398979561323843
30
3.198988771563808
 70
     32
  0
VERTEX
  8
MY3DLAYER
10
-82.79058123756717
20
11.450090821890216
30
3.198988771563808
 70
     32
  0
VERTEX
  8
MY3DLAYER
10
-82.79058123756717
20
11.450090821890216
30
0.19898877156379244
 70
     32
  0
SEQEND
  0
POLYLINE
 8
Group#16
 66
     1
70
    8
 10
0.0
 20
 0.0
 30
0.0
  0
VERTEX
  8
MY3DLAYER
10
-83.17880980522095
20
11.398979561323843
30
0.19898877156379244
 70
     32
  0
VERTEX
  8
MY3DLAYER
10
-83.56703837287472
20
11.450090821890216
30
0.19898877156379227
 70
     32
  0
VERTEX
  8
MY3DLAYER
10
-83.56703837287472
20
11.450090821890216
30
3.1989887715638097
 70
     32
  0
VERTEX
  8
MY3DLAYER
10
-83.17880980522095
20
11.398979561323843
30
3.198988771563808
 70
     32
  0
VERTEX
  8
MY3DLAYER
10
-83.17880980522095
20
11.398979561323843
30
0.19898877156379244
 70
     32
  0
SEQEND
  0
POLYLINE
 8
Group#16
 66
     1
70
    8
 10
0.0
 20
 0.0
 30
0.0
  0
VERTEX
  8
MY3DLAYER
10
-83.56703837287472
20
11.450090821890216
30
0.19898877156379227
 70
     32
  0
VERTEX
  8
MY3DLAYER
10
-83.92880980522095
20
11.59994145564719
30
0.19898877156379244
 70
     32
  0
VERTEX
  8
MY3DLAYER
10
-83.92880980522095
20
11.59994145564719
30
3.1989887715638097
 70
     32
  0
VERTEX
  8
MY3DLAYER
10
-83.56703837287472
20
11.450090821890216
30
3.1989887715638097
 70
     32
  0
VERTEX
  8
MY3DLAYER
10
-83.56703837287472
20
11.450090821890216
30
0.19898877156379227
 70
     32
  0
SEQEND
  0
POLYLINE
 8
Group#16
 66
     1
70
    8
 10
0.0
 20
 0.0
 30
0.0
  0
VERTEX
  8
MY3DLAYER
10
-83.92880980522095
20
11.59994145564719
30
0.19898877156379244
 70
     32
  0
VERTEX
  8
MY3DLAYER
10
-84.23946997700077
20
11.838319389544017
30
0.19898877156379297
 70
     32
  0
VERTEX
  8
MY3DLAYER
10
-84.23946997700077
20
11.838319389544017
30
3.1989887715638097
 70
     32
  0
VERTEX
  8
MY3DLAYER
10
-83.92880980522095
20
11.59994145564719
30
3.1989887715638097
 70
     32
  0
VERTEX
  8
MY3DLAYER
10
-83.92880980522095
20
11.59994145564719
30
0.19898877156379244
 70
     32
  0
SEQEND
  0
POLYLINE
 8
Group#16
 66
     1
70
    8
 10
0.0
 20
 0.0
 30
0.0
  0
VERTEX
  8
MY3DLAYER
10
-84.23946997700077
20
11.838319389544017
30
0.19898877156379297
 70
     32
  0
VERTEX
  8
MY3DLAYER
10
-84.4778479108976
20
12.148979561323854
30
0.1989887715637926
 70
     32
  0
VERTEX
  8
MY3DLAYER
10
-84.4778479108976
20
12.148979561323854
30
3.1989887715638097
 70
     32
  0
VERTEX
  8
MY3DLAYER
10
-84.23946997700077
20
11.838319389544017
30
3.1989887715638097
 70
     32
  0
VERTEX
  8
MY3DLAYER
10
-84.23946997700077
20
11.838319389544017
30
0.19898877156379297
 70
     32
  0
SEQEND
  0
POLYLINE
 8
Group#16
 66
     1
70
    8
 10
0.0
 20
 0.0
 30
0.0
  0
VERTEX
  8
MY3DLAYER
10
-84.4778479108976
20
12.148979561323854
30
0.1989887715637926
 70
     32
  0
VERTEX
  8
MY3DLAYER
10
-84.62769854465455
20
12.510750993670062
30
0.1989887715637928
 70
     32
  0
VERTEX
  8
MY3DLAYER
10
-84.62769854465455
20
12.510750993670062
30
3.19898877156381
 70
     32
  0
VERTEX
  8
MY3DLAYER
10
-84.4778479108976
20
12.148979561323854
30
3.1989887715638097
 70
     32
  0
VERTEX
  8
MY3DLAYER
10
-84.4778479108976
20
12.148979561323854
30
0.1989887715637926
 70
     32
  0
SEQEND
  0
POLYLINE
 8
Group#16
 66
     1
70
    8
 10
0.0
 20
 0.0
 30
0.0
  0
VERTEX
  8
MY3DLAYER
10
-84.62769854465455
20
12.510750993670062
30
0.1989887715637928
 70
     32
  0
VERTEX
  8
MY3DLAYER
10
-84.67880980522095
20
12.898979561323817
30
0.1989887715637935
 70
     32
  0
VERTEX
  8
MY3DLAYER
10
-84.67880980522095
20
12.898979561323817
30
3.19898877156381
 70
     32
  0
VERTEX
  8
MY3DLAYER
10
-84.62769854465455
20
12.510750993670062
30
3.19898877156381
 70
     32
  0
VERTEX
  8
MY3DLAYER
10
-84.62769854465455
20
12.510750993670062
30
0.1989887715637928
 70
     32
  0
SEQEND
  0
POLYLINE
 8
Group#16
 66
     1
70
    8
 10
0.0
 20
 0.0
 30
0.0
  0
VERTEX
  8
MY3DLAYER
10
-84.67880980522095
20
12.898979561323817
30
0.1989887715637935
 70
     32
  0
VERTEX
  8
MY3DLAYER
10
-84.62769854465455
20
13.287208128977618
30
0.19898877156379297
 70
     32
  0
VERTEX
  8
MY3DLAYER
10
-84.62769854465455
20
13.287208128977618
30
3.1989887715638097
 70
     32
  0
VERTEX
  8
MY3DLAYER
10
-84.67880980522095
20
12.898979561323817
30
3.19898877156381
 70
     32
  0
VERTEX
  8
MY3DLAYER
10
-84.67880980522095
20
12.898979561323817
30
0.1989887715637935
 70
     32
  0
SEQEND
  0
POLYLINE
 8
Group#16
 66
     1
70
    8
 10
0.0
 20
 0.0
 30
0.0
  0
VERTEX
  8
MY3DLAYER
10
-84.62769854465455
20
13.287208128977618
30
0.19898877156379297
 70
     32
  0
VERTEX
  8
MY3DLAYER
10
-84.4778479108976
20
13.648979561323827
30
0.19898877156379244
 70
     32
  0
VERTEX
  8
MY3DLAYER
10
-84.4778479108976
20
13.648979561323827
30
3.1989887715638097
 70
     32
  0
VERTEX
  8
MY3DLAYER
10
-84.62769854465455
20
13.287208128977618
30
3.1989887715638097
 70
     32
  0
VERTEX
  8
MY3DLAYER
10
-84.62769854465455
20
13.287208128977618
30
0.19898877156379297
 70
     32
  0
SEQEND
  0
POLYLINE
 8
Group#16
 66
     1
70
    8
 10
0.0
 20
 0.0
 30
0.0
  0
VERTEX
  8
MY3DLAYER
10
-84.4778479108976
20
13.648979561323827
30
0.19898877156379244
 70
     32
  0
VERTEX
  8
MY3DLAYER
10
-84.23946997700077
20
13.959639733103662
30
0.19898877156379313
 70
     32
  0
VERTEX
  8
MY3DLAYER
10
-84.23946997700077
20
13.959639733103662
30
3.1989887715638075
 70
     32
  0
VERTEX
  8
MY3DLAYER
10
-84.4778479108976
20
13.648979561323827
30
3.1989887715638097
 70
     32
  0
VERTEX
  8
MY3DLAYER
10
-84.4778479108976
20
13.648979561323827
30
0.19898877156379244
 70
     32
  0
SEQEND
  0
POLYLINE
 8
Group#16
 66
     1
70
    8
 10
0.0
 20
 0.0
 30
0.0
  0
VERTEX
  8
MY3DLAYER
10
-84.23946997700077
20
13.959639733103662
30
0.19898877156379313
 70
     32
  0
VERTEX
  8
MY3DLAYER
10
-83.92880980522095
20
14.198017667000489
30
0.19898877156379313
 70
     32
  0
VERTEX
  8
MY3DLAYER
10
-83.92880980522095
20
14.198017667000489
30
3.1989887715638075
 70
     32
  0
VERTEX
  8
MY3DLAYER
10
-84.23946997700077
20
13.959639733103662
30
3.1989887715638075
 70
     32
  0
VERTEX
  8
MY3DLAYER
10
-84.23946997700077
20
13.959639733103662
30
0.19898877156379313
 70
     32
  0
SEQEND
  0
POLYLINE
 8
Group#16
 66
     1
70
    8
 10
0.0
 20
 0.0
 30
0.0
  0
VERTEX
  8
MY3DLAYER
10
-83.92880980522095
20
14.198017667000489
30
0.19898877156379313
 70
     32
  0
VERTEX
  8
MY3DLAYER
10
-83.56703837287472
20
14.347868300757419
30
0.19898877156379297
 70
     32
  0
VERTEX
  8
MY3DLAYER
10
-83.56703837287472
20
14.347868300757419
30
3.19898877156381
 70
     32
  0
VERTEX
  8
MY3DLAYER
10
-83.92880980522095
20
14.198017667000489
30
3.1989887715638075
 70
     32
  0
VERTEX
  8
MY3DLAYER
10
-83.92880980522095
20
14.198017667000489
30
0.19898877156379313
 70
     32
  0
SEQEND
  0
POLYLINE
 8
Group#16
 66
     1
70
    8
 10
0.0
 20
 0.0
 30
0.0
  0
VERTEX
  8
MY3DLAYER
10
-83.56703837287472
20
14.347868300757419
30
0.19898877156379297
 70
     32
  0
VERTEX
  8
MY3DLAYER
10
-83.17880980522095
20
14.398979561323836
30
0.19898877156379297
 70
     32
  0
VERTEX
  8
MY3DLAYER
10
-83.17880980522095
20
14.398979561323836
30
3.198988771563809
 70
     32
  0
VERTEX
  8
MY3DLAYER
10
-83.56703837287472
20
14.347868300757419
30
3.19898877156381
 70
     32
  0
VERTEX
  8
MY3DLAYER
10
-83.56703837287472
20
14.347868300757419
30
0.19898877156379297
 70
     32
  0
SEQEND
  0
POLYLINE
 8
Group#16
 66
     1
70
    8
 10
0.0
 20
 0.0
 30
0.0
  0
VERTEX
  8
MY3DLAYER
10
-83.17880980522095
20
14.398979561323836
30
0.19898877156379297
 70
     32
  0
VERTEX
  8
MY3DLAYER
10
-82.79058123756717
20
14.347868300757419
30
0.19898877156379297
 70
     32
  0
VERTEX
  8
MY3DLAYER
10
-82.79058123756717
20
14.347868300757419
30
3.198988771563811
 70
     32
  0
VERTEX
  8
MY3DLAYER
10
-83.17880980522095
20
14.398979561323836
30
3.198988771563809
 70
     32
  0
VERTEX
  8
MY3DLAYER
10
-83.17880980522095
20
14.398979561323836
30
0.19898877156379297
 70
     32
  0
SEQEND
  0
POLYLINE
 8
Group#16
 66
     1
70
    8
 10
0.0
 20
 0.0
 30
0.0
  0
VERTEX
  8
MY3DLAYER
10
-82.79058123756717
20
14.347868300757419
30
0.19898877156379297
 70
     32
  0
VERTEX
  8
MY3DLAYER
10
-82.42880980522094
20
14.198017667000489
30
0.19898877156379297
 70
     32
  0
VERTEX
  8
MY3DLAYER
10
-82.42880980522094
20
14.198017667000489
30
3.1989887715638097
 70
     32
  0
VERTEX
  8
MY3DLAYER
10
-82.79058123756717
20
14.347868300757419
30
3.198988771563811
 70
     32
  0
VERTEX
  8
MY3DLAYER
10
-82.79058123756717
20
14.347868300757419
30
0.19898877156379297
 70
     32
  0
SEQEND
  0
POLYLINE
 8
Group#16
 66
     1
70
    8
 10
0.0
 20
 0.0
 30
0.0
  0
VERTEX
  8
MY3DLAYER
10
-82.42880980522094
20
14.198017667000489
30
0.19898877156379297
 70
     32
  0
VERTEX
  8
MY3DLAYER
10
-82.11814963344112
20
13.959639733103662
30
0.19898877156379297
 70
     32
  0
VERTEX
  8
MY3DLAYER
10
-82.11814963344112
20
13.959639733103662
30
3.1989887715638097
 70
     32
  0
VERTEX
  8
MY3DLAYER
10
-82.42880980522094
20
14.198017667000489
30
3.1989887715638097
 70
     32
  0
VERTEX
  8
MY3DLAYER
10
-82.42880980522094
20
14.198017667000489
30
0.19898877156379297
 70
     32
  0
SEQEND
  0
POLYLINE
 8
Group#16
 66
     1
70
    8
 10
0.0
 20
 0.0
 30
0.0
  0
VERTEX
  8
MY3DLAYER
10
-82.11814963344112
20
13.959639733103662
30
0.19898877156379297
 70
     32
  0
VERTEX
  8
MY3DLAYER
10
-81.87977169954428
20
13.648979561323827
30
0.19898877156379227
 70
     32
  0
VERTEX
  8
MY3DLAYER
10
-81.87977169954428
20
13.648979561323827
30
3.1989887715638097
 70
     32
  0
VERTEX
  8
MY3DLAYER
10
-82.11814963344112
20
13.959639733103662
30
3.1989887715638097
 70
     32
  0
VERTEX
  8
MY3DLAYER
10
-82.11814963344112
20
13.959639733103662
30
0.19898877156379297
 70
     32
  0
SEQEND
  0
POLYLINE
 8
Group#16
 66
     1
70
    8
 10
0.0
 20
 0.0
 30
0.0
  0
VERTEX
  8
MY3DLAYER
10
-81.87977169954428
20
13.648979561323827
30
0.19898877156379227
 70
     32
  0
VERTEX
  8
MY3DLAYER
10
-81.72992106578734
20
13.287208128977618
30
0.1989887715637928
 70
     32
  0
VERTEX
  8
MY3DLAYER
10
-81.72992106578734
20
13.287208128977618
30
3.1989887715638097
 70
     32
  0
VERTEX
  8
MY3DLAYER
10
-81.87977169954428
20
13.648979561323827
30
3.1989887715638097
 70
     32
  0
VERTEX
  8
MY3DLAYER
10
-81.87977169954428
20
13.648979561323827
30
0.19898877156379227
 70
     32
  0
SEQEND
  0
POLYLINE
 8
Group#16
 66
     1
70
    8
 10
0.0
 20
 0.0
 30
0.0
  0
VERTEX
  8
MY3DLAYER
10
-100.57880980522094
20
11.398979561323978
30
0.19898877156383896
 70
     32
  0
VERTEX
  8
MY3DLAYER
10
-100.96703837287471
20
11.450090821890349
30
0.19898877156383896
 70
     32
  0
VERTEX
  8
MY3DLAYER
10
-100.96703837287471
20
11.450090821890349
30
3.198988771563811
 70
     32
  0
VERTEX
  8
MY3DLAYER
10
-100.57880980522094
20
11.398979561323978
30
3.198988771563811
 70
     32
  0
VERTEX
  8
MY3DLAYER
10
-100.57880980522094
20
11.398979561323978
30
0.19898877156383896
 70
     32
  0
SEQEND
  0
POLYLINE
 8
Group#16
 66
     1
70
    8
 10
0.0
 20
 0.0
 30
0.0
  0
VERTEX
  8
MY3DLAYER
10
-100.96703837287471
20
11.450090821890349
30
0.19898877156383896
 70
     32
  0
VERTEX
  8
MY3DLAYER
10
-101.32880980522094
20
11.599941455647324
30
0.19898877156383862
 70
     32
  0
VERTEX
  8
MY3DLAYER
10
-101.32880980522094
20
11.599941455647324
30
3.198988771563811
 70
     32
  0
VERTEX
  8
MY3DLAYER
10
-100.96703837287471
20
11.450090821890349
30
3.198988771563811
 70
     32
  0
VERTEX
  8
MY3DLAYER
10
-100.96703837287471
20
11.450090821890349
30
0.19898877156383896
 70
     32
  0
SEQEND
  0
POLYLINE
 8
Group#16
 66
     1
70
    8
 10
0.0
 20
 0.0
 30
0.0
  0
VERTEX
  8
MY3DLAYER
10
-101.32880980522094
20
11.599941455647324
30
0.19898877156383862
 70
     32
  0
VERTEX
  8
MY3DLAYER
10
-101.63946997700076
20
11.83831938954415
30
0.19898877156383984
 70
     32
  0
VERTEX
  8
MY3DLAYER
10
-101.63946997700076
20
11.83831938954415
30
3.198988771563811
 70
     32
  0
VERTEX
  8
MY3DLAYER
10
-101.32880980522094
20
11.599941455647324
30
3.198988771563811
 70
     32
  0
VERTEX
  8
MY3DLAYER
10
-101.32880980522094
20
11.599941455647324
30
0.19898877156383862
 70
     32
  0
SEQEND
  0
POLYLINE
 8
Group#16
 66
     1
70
    8
 10
0.0
 20
 0.0
 30
0.0
  0
VERTEX
  8
MY3DLAYER
10
-101.63946997700076
20
11.83831938954415
30
0.19898877156383984
 70
     32
  0
VERTEX
  8
MY3DLAYER
10
-101.87784791089759
20
12.148979561323943
30
0.19898877156383932
 70
     32
  0
VERTEX
  8
MY3DLAYER
10
-101.87784791089759
20
12.148979561323943
30
3.198988771563811
 70
     32
  0
VERTEX
  8
MY3DLAYER
10
-101.63946997700076
20
11.83831938954415
30
3.198988771563811
 70
     32
  0
VERTEX
  8
MY3DLAYER
10
-101.63946997700076
20
11.83831938954415
30
0.19898877156383984
 70
     32
  0
SEQEND
  0
POLYLINE
 8
Group#16
 66
     1
70
    8
 10
0.0
 20
 0.0
 30
0.0
  0
VERTEX
  8
MY3DLAYER
10
-101.87784791089759
20
12.148979561323943
30
0.19898877156383932
 70
     32
  0
VERTEX
  8
MY3DLAYER
10
-102.02769854465454
20
12.510750993670197
30
0.19898877156383932
 70
     32
  0
VERTEX
  8
MY3DLAYER
10
-102.02769854465454
20
12.510750993670197
30
3.1989887715638115
 70
     32
  0
VERTEX
  8
MY3DLAYER
10
-101.87784791089759
20
12.148979561323943
30
3.198988771563811
 70
     32
  0
VERTEX
  8
MY3DLAYER
10
-101.87784791089759
20
12.148979561323943
30
0.19898877156383932
 70
     32
  0
SEQEND
  0
POLYLINE
 8
Group#16
 66
     1
70
    8
 10
0.0
 20
 0.0
 30
0.0
  0
VERTEX
  8
MY3DLAYER
10
-102.02769854465454
20
12.510750993670197
30
0.19898877156383932
 70
     32
  0
VERTEX
  8
MY3DLAYER
10
-102.07880980522093
20
12.898979561323952
30
0.19898877156383948
 70
     32
  0
VERTEX
  8
MY3DLAYER
10
-102.07880980522093
20
12.898979561323952
30
3.1989887715638115
 70
     32
  0
VERTEX
  8
MY3DLAYER
10
-102.02769854465454
20
12.510750993670197
30
3.1989887715638115
 70
     32
  0
VERTEX
  8
MY3DLAYER
10
-102.02769854465454
20
12.510750993670197
30
0.19898877156383932
 70
     32
  0
SEQEND
  0
POLYLINE
 8
Group#16
 66
     1
70
    8
 10
0.0
 20
 0.0
 30
0.0
  0
VERTEX
  8
MY3DLAYER
10
-102.07880980522093
20
12.898979561323952
30
0.19898877156383948
 70
     32
  0
VERTEX
  8
MY3DLAYER
10
-102.02769854465454
20
13.287208128977753
30
0.19898877156383948
 70
     32
  0
VERTEX
  8
MY3DLAYER
10
-102.02769854465454
20
13.287208128977753
30
3.198988771563811
 70
     32
  0
VERTEX
  8
MY3DLAYER
10
-102.07880980522093
20
12.898979561323952
30
3.1989887715638115
 70
     32
  0
VERTEX
  8
MY3DLAYER
10
-102.07880980522093
20
12.898979561323952
30
0.19898877156383948
 70
     32
  0
SEQEND
  0
POLYLINE
 8
Group#16
 66
     1
70
    8
 10
0.0
 20
 0.0
 30
0.0
  0
VERTEX
  8
MY3DLAYER
10
-102.02769854465454
20
13.287208128977753
30
0.19898877156383948
 70
     32
  0
VERTEX
  8
MY3DLAYER
10
-101.87784791089759
20
13.648979561323962
30
0.19898877156383948
 70
     32
  0
VERTEX
  8
MY3DLAYER
10
-101.87784791089759
20
13.648979561323962
30
3.198988771563809
 70
     32
  0
VERTEX
  8
MY3DLAYER
10
-102.02769854465454
20
13.287208128977753
30
3.198988771563811
 70
     32
  0
VERTEX
  8
MY3DLAYER
10
-102.02769854465454
20
13.287208128977753
30
0.19898877156383948
 70
     32
  0
SEQEND
  0
POLYLINE
 8
Group#16
 66
     1
70
    8
 10
0.0
 20
 0.0
 30
0.0
  0
VERTEX
  8
MY3DLAYER
10
-101.87784791089759
20
13.648979561323962
30
0.19898877156383948
 70
     32
  0
VERTEX
  8
MY3DLAYER
10
-101.63946997700076
20
13.959639733103753
30
0.1989887715638402
 70
     32
  0
VERTEX
  8
MY3DLAYER
10
-101.63946997700076
20
13.959639733103753
30
3.198988771563809
 70
     32
  0
VERTEX
  8
MY3DLAYER
10
-101.87784791089759
20
13.648979561323962
30
3.198988771563809
 70
     32
  0
VERTEX
  8
MY3DLAYER
10
-101.87784791089759
20
13.648979561323962
30
0.19898877156383948
 70
     32
  0
SEQEND
  0
POLYLINE
 8
Group#16
 66
     1
70
    8
 10
0.0
 20
 0.0
 30
0.0
  0
VERTEX
  8
MY3DLAYER
10
-101.63946997700076
20
13.959639733103753
30
0.1989887715638402
 70
     32
  0
VERTEX
  8
MY3DLAYER
10
-101.32880980522094
20
14.198017667000626
30
0.19898877156383948
 70
     32
  0
VERTEX
  8
MY3DLAYER
10
-101.32880980522094
20
14.198017667000626
30
3.198988771563809
 70
     32
  0
VERTEX
  8
MY3DLAYER
10
-101.63946997700076
20
13.959639733103753
30
3.198988771563809
 70
     32
  0
VERTEX
  8
MY3DLAYER
10
-101.63946997700076
20
13.959639733103753
30
0.1989887715638402
 70
     32
  0
SEQEND
  0
POLYLINE
 8
Group#16
 66
     1
70
    8
 10
0.0
 20
 0.0
 30
0.0
  0
VERTEX
  8
MY3DLAYER
10
-101.32880980522094
20
14.198017667000626
30
0.19898877156383948
 70
     32
  0
VERTEX
  8
MY3DLAYER
10
-100.96703837287471
20
14.347868300757554
30
0.19898877156383948
 70
     32
  0
VERTEX
  8
MY3DLAYER
10
-100.96703837287471
20
14.347868300757554
30
3.1989887715638115
 70
     32
  0
VERTEX
  8
MY3DLAYER
10
-101.32880980522094
20
14.198017667000626
30
3.198988771563809
 70
     32
  0
VERTEX
  8
MY3DLAYER
10
-101.32880980522094
20
14.198017667000626
30
0.19898877156383948
 70
     32
  0
SEQEND
  0
POLYLINE
 8
Group#16
 66
     1
70
    8
 10
0.0
 20
 0.0
 30
0.0
  0
VERTEX
  8
MY3DLAYER
10
-100.96703837287471
20
14.347868300757554
30
0.19898877156383948
 70
     32
  0
VERTEX
  8
MY3DLAYER
10
-100.57880980522094
20
14.398979561323971
30
0.19898877156383932
 70
     32
  0
VERTEX
  8
MY3DLAYER
10
-100.57880980522094
20
14.398979561323971
30
3.1989887715638115
 70
     32
  0
VERTEX
  8
MY3DLAYER
10
-100.96703837287471
20
14.347868300757554
30
3.1989887715638115
 70
     32
  0
VERTEX
  8
MY3DLAYER
10
-100.96703837287471
20
14.347868300757554
30
0.19898877156383948
 70
     32
  0
SEQEND
  0
POLYLINE
 8
Group#16
 66
     1
70
    8
 10
0.0
 20
 0.0
 30
0.0
  0
VERTEX
  8
MY3DLAYER
10
-100.57880980522094
20
14.398979561323971
30
0.19898877156383932
 70
     32
  0
VERTEX
  8
MY3DLAYER
10
-100.19058123756716
20
14.347868300757554
30
0.19898877156383948
 70
     32
  0
VERTEX
  8
MY3DLAYER
10
-100.19058123756716
20
14.347868300757554
30
3.19898877156381
 70
     32
  0
VERTEX
  8
MY3DLAYER
10
-100.57880980522094
20
14.398979561323971
30
3.1989887715638115
 70
     32
  0
VERTEX
  8
MY3DLAYER
10
-100.57880980522094
20
14.398979561323971
30
0.19898877156383932
 70
     32
  0
SEQEND
  0
POLYLINE
 8
Group#16
 66
     1
70
    8
 10
0.0
 20
 0.0
 30
0.0
  0
VERTEX
  8
MY3DLAYER
10
-100.19058123756716
20
14.347868300757554
30
0.19898877156383948
 70
     32
  0
VERTEX
  8
MY3DLAYER
10
-99.82880980522094
20
14.198017667000626
30
0.19898877156383948
 70
     32
  0
VERTEX
  8
MY3DLAYER
10
-99.82880980522094
20
14.198017667000626
30
3.19898877156381
 70
     32
  0
VERTEX
  8
MY3DLAYER
10
-100.19058123756716
20
14.347868300757554
30
3.19898877156381
 70
     32
  0
VERTEX
  8
MY3DLAYER
10
-100.19058123756716
20
14.347868300757554
30
0.19898877156383948
 70
     32
  0
SEQEND
  0
POLYLINE
 8
Group#16
 66
     1
70
    8
 10
0.0
 20
 0.0
 30
0.0
  0
VERTEX
  8
MY3DLAYER
10
-99.82880980522094
20
14.198017667000626
30
0.19898877156383948
 70
     32
  0
VERTEX
  8
MY3DLAYER
10
-99.51814963344111
20
13.959639733103753
30
0.19898877156384
 70
     32
  0
VERTEX
  8
MY3DLAYER
10
-99.51814963344111
20
13.959639733103753
30
3.198988771563811
 70
     32
  0
VERTEX
  8
MY3DLAYER
10
-99.82880980522094
20
14.198017667000626
30
3.19898877156381
 70
     32
  0
VERTEX
  8
MY3DLAYER
10
-99.82880980522094
20
14.198017667000626
30
0.19898877156383948
 70
     32
  0
SEQEND
  0
POLYLINE
 8
Group#16
 66
     1
70
    8
 10
0.0
 20
 0.0
 30
0.0
  0
VERTEX
  8
MY3DLAYER
10
-99.51814963344111
20
13.959639733103753
30
0.19898877156384
 70
     32
  0
VERTEX
  8
MY3DLAYER
10
-99.27977169954428
20
13.648979561323962
30
0.1989887715638388
 70
     32
  0
VERTEX
  8
MY3DLAYER
10
-99.27977169954428
20
13.648979561323962
30
3.198988771563811
 70
     32
  0
VERTEX
  8
MY3DLAYER
10
-99.51814963344111
20
13.959639733103753
30
3.198988771563811
 70
     32
  0
VERTEX
  8
MY3DLAYER
10
-99.51814963344111
20
13.959639733103753
30
0.19898877156384
 70
     32
  0
SEQEND
  0
POLYLINE
 8
Group#16
 66
     1
70
    8
 10
0.0
 20
 0.0
 30
0.0
  0
VERTEX
  8
MY3DLAYER
10
-99.27977169954428
20
13.648979561323962
30
0.1989887715638388
 70
     32
  0
VERTEX
  8
MY3DLAYER
10
-99.12992106578733
20
13.287208128977753
30
0.19898877156383915
 70
     32
  0
VERTEX
  8
MY3DLAYER
10
-99.12992106578733
20
13.287208128977753
30
3.198988771563811
 70
     32
  0
VERTEX
  8
MY3DLAYER
10
-99.27977169954428
20
13.648979561323962
30
3.198988771563811
 70
     32
  0
VERTEX
  8
MY3DLAYER
10
-99.27977169954428
20
13.648979561323962
30
0.1989887715638388
 70
     32
  0
SEQEND
  0
POLYLINE
 8
Group#16
 66
     1
70
    8
 10
0.0
 20
 0.0
 30
0.0
  0
VERTEX
  8
MY3DLAYER
10
-99.12992106578733
20
13.287208128977753
30
0.19898877156383915
 70
     32
  0
VERTEX
  8
MY3DLAYER
10
-99.07880980522094
20
12.898979561323952
30
0.19898877156383932
 70
     32
  0
VERTEX
  8
MY3DLAYER
10
-99.07880980522094
20
12.898979561323952
30
3.198988771563811
 70
     32
  0
VERTEX
  8
MY3DLAYER
10
-99.12992106578733
20
13.287208128977753
30
3.198988771563811
 70
     32
  0
VERTEX
  8
MY3DLAYER
10
-99.12992106578733
20
13.287208128977753
30
0.19898877156383915
 70
     32
  0
SEQEND
  0
POLYLINE
 8
Group#16
 66
     1
70
    8
 10
0.0
 20
 0.0
 30
0.0
  0
VERTEX
  8
MY3DLAYER
10
-99.07880980522094
20
12.898979561323952
30
0.19898877156383932
 70
     32
  0
VERTEX
  8
MY3DLAYER
10
-99.12992106578733
20
12.510750993670197
30
0.19898877156383862
 70
     32
  0
VERTEX
  8
MY3DLAYER
10
-99.12992106578733
20
12.510750993670197
30
3.198988771563811
 70
     32
  0
VERTEX
  8
MY3DLAYER
10
-99.07880980522094
20
12.898979561323952
30
3.198988771563811
 70
     32
  0
VERTEX
  8
MY3DLAYER
10
-99.07880980522094
20
12.898979561323952
30
0.19898877156383932
 70
     32
  0
SEQEND
  0
POLYLINE
 8
Group#16
 66
     1
70
    8
 10
0.0
 20
 0.0
 30
0.0
  0
VERTEX
  8
MY3DLAYER
10
-99.12992106578733
20
12.510750993670197
30
0.19898877156383862
 70
     32
  0
VERTEX
  8
MY3DLAYER
10
-99.27977169954427
20
12.148979561323943
30
0.19898877156383896
 70
     32
  0
VERTEX
  8
MY3DLAYER
10
-99.27977169954427
20
12.148979561323943
30
3.198988771563808
 70
     32
  0
VERTEX
  8
MY3DLAYER
10
-99.12992106578733
20
12.510750993670197
30
3.198988771563811
 70
     32
  0
VERTEX
  8
MY3DLAYER
10
-99.12992106578733
20
12.510750993670197
30
0.19898877156383862
 70
     32
  0
SEQEND
  0
POLYLINE
 8
Group#16
 66
     1
70
    8
 10
0.0
 20
 0.0
 30
0.0
  0
VERTEX
  8
MY3DLAYER
10
-99.27977169954427
20
12.148979561323943
30
0.19898877156383896
 70
     32
  0
VERTEX
  8
MY3DLAYER
10
-99.51814963344113
20
11.83831938954415
30
0.19898877156383968
 70
     32
  0
VERTEX
  8
MY3DLAYER
10
-99.51814963344113
20
11.83831938954415
30
3.198988771563808
 70
     32
  0
VERTEX
  8
MY3DLAYER
10
-99.27977169954427
20
12.148979561323943
30
3.198988771563808
 70
     32
  0
VERTEX
  8
MY3DLAYER
10
-99.27977169954427
20
12.148979561323943
30
0.19898877156383896
 70
     32
  0
SEQEND
  0
POLYLINE
 8
Group#16
 66
     1
70
    8
 10
0.0
 20
 0.0
 30
0.0
  0
VERTEX
  8
MY3DLAYER
10
-99.51814963344113
20
11.83831938954415
30
0.19898877156383968
 70
     32
  0
VERTEX
  8
MY3DLAYER
10
-99.82880980522094
20
11.599941455647324
30
0.19898877156383896
 70
     32
  0
VERTEX
  8
MY3DLAYER
10
-99.82880980522094
20
11.599941455647324
30
3.1989887715638097
 70
     32
  0
VERTEX
  8
MY3DLAYER
10
-99.51814963344113
20
11.83831938954415
30
3.198988771563808
 70
     32
  0
VERTEX
  8
MY3DLAYER
10
-99.51814963344113
20
11.83831938954415
30
0.19898877156383968
 70
     32
  0
SEQEND
  0
POLYLINE
 8
Group#16
 66
     1
70
    8
 10
0.0
 20
 0.0
 30
0.0
  0
VERTEX
  8
MY3DLAYER
10
-99.82880980522094
20
11.599941455647324
30
0.19898877156383896
 70
     32
  0
VERTEX
  8
MY3DLAYER
10
-100.19058123756716
20
11.450090821890349
30
0.19898877156383896
 70
     32
  0
VERTEX
  8
MY3DLAYER
10
-100.19058123756716
20
11.450090821890349
30
3.1989887715638097
 70
     32
  0
VERTEX
  8
MY3DLAYER
10
-99.82880980522094
20
11.599941455647324
30
3.1989887715638097
 70
     32
  0
VERTEX
  8
MY3DLAYER
10
-99.82880980522094
20
11.599941455647324
30
0.19898877156383896
 70
     32
  0
SEQEND
  0
POLYLINE
 8
Group#16
 66
     1
70
    8
 10
0.0
 20
 0.0
 30
0.0
  0
VERTEX
  8
MY3DLAYER
10
-100.19058123756716
20
11.450090821890349
30
0.19898877156383896
 70
     32
  0
VERTEX
  8
MY3DLAYER
10
-100.57880980522094
20
11.398979561323978
30
0.19898877156383896
 70
     32
  0
VERTEX
  8
MY3DLAYER
10
-100.57880980522094
20
11.398979561323978
30
3.198988771563811
 70
     32
  0
VERTEX
  8
MY3DLAYER
10
-100.19058123756716
20
11.450090821890349
30
3.1989887715638097
 70
     32
  0
VERTEX
  8
MY3DLAYER
10
-100.19058123756716
20
11.450090821890349
30
0.19898877156383896
 70
     32
  0
SEQEND
  0
POLYLINE
 8
Group#15
 66
     1
70
    8
 10
0.0
 20
 0.0
 30
0.0
  0
VERTEX
  8
MY3DLAYER
10
-4.2848148052209165
20
6.148979561324043
30
3.198988771563808
 70
     32
  0
VERTEX
  8
MY3DLAYER
10
-8.284814805220915
20
6.148979561324043
30
3.198988771563804
 70
     32
  0
VERTEX
  8
MY3DLAYER
10
-8.284814805220915
20
6.148979561324043
30
0.19898877156381448
 70
     32
  0
VERTEX
  8
MY3DLAYER
10
-4.2848148052209165
20
6.148979561324043
30
0.19898877156381412
 70
     32
  0
VERTEX
  8
MY3DLAYER
10
-4.2848148052209165
20
6.148979561324043
30
3.198988771563808
 70
     32
  0
SEQEND
  0
POLYLINE
 8
Group#15
 66
     1
70
    8
 10
0.0
 20
 0.0
 30
0.0
  0
VERTEX
  8
MY3DLAYER
10
-8.284814805220915
20
6.148979561324043
30
3.198988771563804
 70
     32
  0
VERTEX
  8
MY3DLAYER
10
-8.284814805220915
20
9.148979561324039
30
3.1989887715638043
 70
     32
  0
VERTEX
  8
MY3DLAYER
10
-8.284814805220915
20
9.148979561324039
30
0.198988771563815
 70
     32
  0
VERTEX
  8
MY3DLAYER
10
-8.284814805220915
20
6.148979561324043
30
0.19898877156381448
 70
     32
  0
VERTEX
  8
MY3DLAYER
10
-8.284814805220915
20
6.148979561324043
30
3.198988771563804
 70
     32
  0
SEQEND
  0
POLYLINE
 8
Group#15
 66
     1
70
    8
 10
0.0
 20
 0.0
 30
0.0
  0
VERTEX
  8
MY3DLAYER
10
-4.2848148052209165
20
20.14897956132402
30
3.198988771563811
 70
     32
  0
VERTEX
  8
MY3DLAYER
10
-4.2848148052209165
20
6.148979561324043
30
3.198988771563808
 70
     32
  0
VERTEX
  8
MY3DLAYER
10
-4.2848148052209165
20
6.148979561324043
30
0.19898877156381412
 70
     32
  0
VERTEX
  8
MY3DLAYER
10
-4.2848148052209165
20
20.14897956132402
30
0.19898877156381659
 70
     32
  0
VERTEX
  8
MY3DLAYER
10
-4.2848148052209165
20
20.14897956132402
30
3.198988771563811
 70
     32
  0
SEQEND
  0
POLYLINE
 8
Group#15
 66
     1
70
    8
 10
0.0
 20
 0.0
 30
0.0
  0
VERTEX
  8
MY3DLAYER
10
-8.284814805220915
20
17.148979561324023
30
0.19898877156381642
 70
     32
  0
VERTEX
  8
MY3DLAYER
10
-8.284814805220897
20
20.14897956132402
30
0.19898877156381695
 70
     32
  0
VERTEX
  8
MY3DLAYER
10
-4.2848148052209165
20
20.14897956132402
30
0.19898877156381659
 70
     32
  0
VERTEX
  8
MY3DLAYER
10
-4.2848148052209165
20
6.148979561324043
30
0.19898877156381412
 70
     32
  0
VERTEX
  8
MY3DLAYER
10
-8.284814805220915
20
6.148979561324043
30
0.19898877156381448
 70
     32
  0
VERTEX
  8
MY3DLAYER
10
-8.284814805220915
20
9.148979561324039
30
0.198988771563815
 70
     32
  0
VERTEX
  8
MY3DLAYER
10
-34.58481480522094
20
9.148979561324039
30
0.1989887715638171
 70
     32
  0
VERTEX
  8
MY3DLAYER
10
-34.58481480522094
20
17.148979561324023
30
0.19898877156381853
 70
     32
  0
VERTEX
  8
MY3DLAYER
10
-8.284814805220915
20
17.148979561324023
30
0.19898877156381642
 70
     32
  0
SEQEND
  0
POLYLINE
 8
Group#15
 66
     1
70
    8
 10
0.0
 20
 0.0
 30
0.0
  0
VERTEX
  8
MY3DLAYER
10
-11.43481480522092
20
12.898979561323817
30
0.19898877156379366
 70
     32
  0
VERTEX
  8
MY3DLAYER
10
-11.485926065787321
20
13.287208128977618
30
0.19898877156379333
 70
     32
  0
VERTEX
  8
MY3DLAYER
10
-11.63577669954426
20
13.648979561323827
30
0.19898877156379208
 70
     32
  0
VERTEX
  8
MY3DLAYER
10
-11.8741546334411
20
13.959639733103662
30
0.19898877156379366
 70
     32
  0
VERTEX
  8
MY3DLAYER
10
-12.184814805220919
20
14.198017667000489
30
0.19898877156379366
 70
     32
  0
VERTEX
  8
MY3DLAYER
10
-12.546586237567139
20
14.347868300757419
30
0.19898877156379366
 70
     32
  0
VERTEX
  8
MY3DLAYER
10
-12.934814805220915
20
14.398979561323836
30
0.19898877156379366
 70
     32
  0
VERTEX
  8
MY3DLAYER
10
-13.323043372874698
20
14.347868300757419
30
0.19898877156379366
 70
     32
  0
VERTEX
  8
MY3DLAYER
10
-13.684814805220919
20
14.198017667000489
30
0.19898877156379366
 70
     32
  0
VERTEX
  8
MY3DLAYER
10
-13.995474977000738
20
13.959639733103662
30
0.19898877156379385
 70
     32
  0
VERTEX
  8
MY3DLAYER
10
-14.233852910897577
20
13.648979561323827
30
0.19898877156379227
 70
     32
  0
VERTEX
  8
MY3DLAYER
10
-14.383703544654523
20
13.287208128977618
30
0.19898877156379366
 70
     32
  0
VERTEX
  8
MY3DLAYER
10
-14.434814805220917
20
12.898979561323817
30
0.19898877156379507
 70
     32
  0
VERTEX
  8
MY3DLAYER
10
-14.383703544654523
20
12.510750993670062
30
0.1989887715637935
 70
     32
  0
VERTEX
  8
MY3DLAYER
10
-14.233852910897577
20
12.148979561323854
30
0.19898877156379313
 70
     32
  0
VERTEX
  8
MY3DLAYER
10
-13.995474977000745
20
11.838319389544017
30
0.19898877156379366
 70
     32
  0
VERTEX
  8
MY3DLAYER
10
-13.684814805220919
20
11.59994145564719
30
0.19898877156379297
 70
     32
  0
VERTEX
  8
MY3DLAYER
10
-13.323043372874704
20
11.450090821890216
30
0.1989887715637928
 70
     32
  0
VERTEX
  8
MY3DLAYER
10
-12.93481480522092
20
11.398979561323843
30
0.19898877156379313
 70
     32
  0
VERTEX
  8
MY3DLAYER
10
-12.546586237567144
20
11.450090821890216
30
0.19898877156379313
 70
     32
  0
VERTEX
  8
MY3DLAYER
10
-12.184814805220924
20
11.59994145564719
30
0.19898877156379313
 70
     32
  0
VERTEX
  8
MY3DLAYER
10
-11.874154633441105
20
11.838319389544017
30
0.1989887715637935
 70
     32
  0
VERTEX
  8
MY3DLAYER
10
-11.635776699544268
20
12.148979561323854
30
0.19898877156379313
 70
     32
  0
VERTEX
  8
MY3DLAYER
10
-11.485926065787321
20
12.510750993670062
30
0.19898877156379297
 70
     32
  0
VERTEX
  8
MY3DLAYER
10
-11.43481480522092
20
12.898979561323817
30
0.19898877156379366
 70
     32
  0
SEQEND
  0
POLYLINE
 8
Group#15
 66
     1
70
    8
 10
0.0
 20
 0.0
 30
0.0
  0
VERTEX
  8
MY3DLAYER
10
-30.7230433728747
20
11.450090821890349
30
0.19898877156383948
 70
     32
  0
VERTEX
  8
MY3DLAYER
10
-30.33481480522092
20
11.398979561323978
30
0.19898877156383968
 70
     32
  0
VERTEX
  8
MY3DLAYER
10
-29.94658623756714
20
11.450090821890349
30
0.19898877156383968
 70
     32
  0
VERTEX
  8
MY3DLAYER
10
-29.58481480522092
20
11.599941455647324
30
0.19898877156383968
 70
     32
  0
VERTEX
  8
MY3DLAYER
10
-29.2741546334411
20
11.83831938954415
30
0.19898877156384126
 70
     32
  0
VERTEX
  8
MY3DLAYER
10
-29.035776699544247
20
12.148979561323943
30
0.19898877156383968
 70
     32
  0
VERTEX
  8
MY3DLAYER
10
-28.885926065787306
20
12.510750993670197
30
0.19898877156383843
 70
     32
  0
VERTEX
  8
MY3DLAYER
10
-28.834814805220912
20
12.898979561323952
30
0.19898877156384
 70
     32
  0
VERTEX
  8
MY3DLAYER
10
-28.885926065787306
20
13.287208128977753
30
0.19898877156383968
 70
     32
  0
VERTEX
  8
MY3DLAYER
10
-29.035776699544247
20
13.648979561323962
30
0.19898877156383862
 70
     32
  0
VERTEX
  8
MY3DLAYER
10
-29.274154633441086
20
13.959639733103753
30
0.19898877156384162
 70
     32
  0
VERTEX
  8
MY3DLAYER
10
-29.58481480522091
20
14.198017667000626
30
0.1989887715638402
 70
     32
  0
VERTEX
  8
MY3DLAYER
10
-29.94658623756714
20
14.347868300757554
30
0.1989887715638402
 70
     32
  0
VERTEX
  8
MY3DLAYER
10
-30.33481480522092
20
14.398979561323971
30
0.19898877156383984
 70
     32
  0
VERTEX
  8
MY3DLAYER
10
-30.7230433728747
20
14.347868300757554
30
0.19898877156384
 70
     32
  0
VERTEX
  8
MY3DLAYER
10
-31.08481480522092
20
14.198017667000626
30
0.19898877156384
 70
     32
  0
VERTEX
  8
MY3DLAYER
10
-31.395474977000738
20
13.959639733103753
30
0.1989887715638418
 70
     32
  0
VERTEX
  8
MY3DLAYER
10
-31.633852910897577
20
13.648979561323962
30
0.1989887715638402
 70
     32
  0
VERTEX
  8
MY3DLAYER
10
-31.783703544654514
20
13.287208128977753
30
0.1989887715638402
 70
     32
  0
VERTEX
  8
MY3DLAYER
10
-31.834814805220912
20
12.898979561323952
30
0.1989887715638402
 70
     32
  0
VERTEX
  8
MY3DLAYER
10
-31.783703544654514
20
12.510750993670197
30
0.19898877156384
 70
     32
  0
VERTEX
  8
MY3DLAYER
10
-31.63385291089757
20
12.148979561323943
30
0.19898877156384
 70
     32
  0
VERTEX
  8
MY3DLAYER
10
-31.39547497700073
20
11.83831938954415
30
0.19898877156384143
 70
     32
  0
VERTEX
  8
MY3DLAYER
10
-31.084814805220912
20
11.599941455647324
30
0.19898877156383843
 70
     32
  0
VERTEX
  8
MY3DLAYER
10
-30.7230433728747
20
11.450090821890349
30
0.19898877156383948
 70
     32
  0
SEQEND
  0
POLYLINE
 8
Group#15
 66
     1
70
    8
 10
0.0
 20
 0.0
 30
0.0
  0
VERTEX
  8
MY3DLAYER
10
-8.284814805220897
20
20.14897956132402
30
3.1989887715638115
 70
     32
  0
VERTEX
  8
MY3DLAYER
10
-4.2848148052209165
20
20.14897956132402
30
3.198988771563811
 70
     32
  0
VERTEX
  8
MY3DLAYER
10
-4.2848148052209165
20
20.14897956132402
30
0.19898877156381659
 70
     32
  0
VERTEX
  8
MY3DLAYER
10
-8.284814805220897
20
20.14897956132402
30
0.19898877156381695
 70
     32
  0
VERTEX
  8
MY3DLAYER
10
-8.284814805220897
20
20.14897956132402
30
3.1989887715638115
 70
     32
  0
SEQEND
  0
POLYLINE
 8
Group#15
 66
     1
70
    8
 10
0.0
 20
 0.0
 30
0.0
  0
VERTEX
  8
MY3DLAYER
10
-8.284814805220897
20
20.14897956132402
30
0.19898877156381695
 70
     32
  0
VERTEX
  8
MY3DLAYER
10
-8.284814805220915
20
17.148979561324023
30
0.19898877156381642
 70
     32
  0
VERTEX
  8
MY3DLAYER
10
-8.284814805220915
20
17.148979561324023
30
3.198988771563806
 70
     32
  0
VERTEX
  8
MY3DLAYER
10
-8.284814805220897
20
20.14897956132402
30
3.1989887715638115
 70
     32
  0
VERTEX
  8
MY3DLAYER
10
-8.284814805220897
20
20.14897956132402
30
0.19898877156381695
 70
     32
  0
SEQEND
  0
POLYLINE
 8
Group#15
 66
     1
70
    8
 10
0.0
 20
 0.0
 30
0.0
  0
VERTEX
  8
MY3DLAYER
10
-8.284814805220897
20
20.14897956132402
30
3.1989887715638115
 70
     32
  0
VERTEX
  8
MY3DLAYER
10
-8.284814805220915
20
17.148979561324023
30
3.198988771563806
 70
     32
  0
VERTEX
  8
MY3DLAYER
10
-34.58481480522094
20
17.148979561324023
30
3.1989887715638123
 70
     32
  0
VERTEX
  8
MY3DLAYER
10
-34.58481480522094
20
9.148979561324039
30
3.198988771563811
 70
     32
  0
VERTEX
  8
MY3DLAYER
10
-8.284814805220915
20
9.148979561324039
30
3.1989887715638043
 70
     32
  0
VERTEX
  8
MY3DLAYER
10
-8.284814805220915
20
6.148979561324043
30
3.198988771563804
 70
     32
  0
VERTEX
  8
MY3DLAYER
10
-4.2848148052209165
20
6.148979561324043
30
3.198988771563808
 70
     32
  0
VERTEX
  8
MY3DLAYER
10
-4.2848148052209165
20
20.14897956132402
30
3.198988771563811
 70
     32
  0
VERTEX
  8
MY3DLAYER
10
-8.284814805220897
20
20.14897956132402
30
3.1989887715638115
 70
     32
  0
SEQEND
  0
POLYLINE
 8
Group#15
 66
     1
70
    8
 10
0.0
 20
 0.0
 30
0.0
  0
VERTEX
  8
MY3DLAYER
10
-11.485926065787321
20
13.287208128977618
30
3.19898877156381
 70
     32
  0
VERTEX
  8
MY3DLAYER
10
-11.43481480522092
20
12.898979561323817
30
3.19898877156381
 70
     32
  0
VERTEX
  8
MY3DLAYER
10
-11.485926065787321
20
12.510750993670062
30
3.19898877156381
 70
     32
  0
VERTEX
  8
MY3DLAYER
10
-11.635776699544268
20
12.148979561323854
30
3.1989887715638043
 70
     32
  0
VERTEX
  8
MY3DLAYER
10
-11.874154633441105
20
11.838319389544017
30
3.1989887715638043
 70
     32
  0
VERTEX
  8
MY3DLAYER
10
-12.184814805220924
20
11.59994145564719
30
3.1989887715638043
 70
     32
  0
VERTEX
  8
MY3DLAYER
10
-12.546586237567144
20
11.450090821890216
30
3.198988771563806
 70
     32
  0
VERTEX
  8
MY3DLAYER
10
-12.93481480522092
20
11.398979561323843
30
3.198988771563806
 70
     32
  0
VERTEX
  8
MY3DLAYER
10
-13.323043372874704
20
11.450090821890216
30
3.19898877156381
 70
     32
  0
VERTEX
  8
MY3DLAYER
10
-13.684814805220919
20
11.59994145564719
30
3.19898877156381
 70
     32
  0
VERTEX
  8
MY3DLAYER
10
-13.995474977000745
20
11.838319389544017
30
3.19898877156381
 70
     32
  0
VERTEX
  8
MY3DLAYER
10
-14.233852910897577
20
12.148979561323854
30
3.19898877156381
 70
     32
  0
VERTEX
  8
MY3DLAYER
10
-14.383703544654523
20
12.510750993670062
30
3.1989887715638115
 70
     32
  0
VERTEX
  8
MY3DLAYER
10
-14.434814805220917
20
12.898979561323817
30
3.1989887715638115
 70
     32
  0
VERTEX
  8
MY3DLAYER
10
-14.383703544654523
20
13.287208128977618
30
3.198988771563811
 70
     32
  0
VERTEX
  8
MY3DLAYER
10
-14.233852910897577
20
13.648979561323827
30
3.19898877156381
 70
     32
  0
VERTEX
  8
MY3DLAYER
10
-13.995474977000738
20
13.959639733103662
30
3.1989887715638052
 70
     32
  0
VERTEX
  8
MY3DLAYER
10
-13.684814805220919
20
14.198017667000489
30
3.1989887715638052
 70
     32
  0
VERTEX
  8
MY3DLAYER
10
-13.323043372874698
20
14.347868300757419
30
3.198988771563811
 70
     32
  0
VERTEX
  8
MY3DLAYER
10
-12.934814805220915
20
14.398979561323836
30
3.1989887715638066
 70
     32
  0
VERTEX
  8
MY3DLAYER
10
-12.546586237567139
20
14.347868300757419
30
3.1989887715638115
 70
     32
  0
VERTEX
  8
MY3DLAYER
10
-12.184814805220919
20
14.198017667000489
30
3.19898877156381
 70
     32
  0
VERTEX
  8
MY3DLAYER
10
-11.8741546334411
20
13.959639733103662
30
3.19898877156381
 70
     32
  0
VERTEX
  8
MY3DLAYER
10
-11.63577669954426
20
13.648979561323827
30
3.19898877156381
 70
     32
  0
VERTEX
  8
MY3DLAYER
10
-11.485926065787321
20
13.287208128977618
30
3.19898877156381
 70
     32
  0
SEQEND
  0
POLYLINE
 8
Group#15
 66
     1
70
    8
 10
0.0
 20
 0.0
 30
0.0
  0
VERTEX
  8
MY3DLAYER
10
-30.33481480522092
20
11.398979561323978
30
3.1989887715638115
 70
     32
  0
VERTEX
  8
MY3DLAYER
10
-30.7230433728747
20
11.450090821890349
30
3.1989887715638115
 70
     32
  0
VERTEX
  8
MY3DLAYER
10
-31.084814805220912
20
11.599941455647324
30
3.1989887715638115
 70
     32
  0
VERTEX
  8
MY3DLAYER
10
-31.39547497700073
20
11.83831938954415
30
3.1989887715638115
 70
     32
  0
VERTEX
  8
MY3DLAYER
10
-31.63385291089757
20
12.148979561323943
30
3.1989887715638115
 70
     32
  0
VERTEX
  8
MY3DLAYER
10
-31.783703544654514
20
12.510750993670197
30
3.1989887715638132
 70
     32
  0
VERTEX
  8
MY3DLAYER
10
-31.834814805220912
20
12.898979561323952
30
3.1989887715638132
 70
     32
  0
VERTEX
  8
MY3DLAYER
10
-31.783703544654514
20
13.287208128977753
30
3.1989887715638115
 70
     32
  0
VERTEX
  8
MY3DLAYER
10
-31.63385291089757
20
13.648979561323962
30
3.1989887715638066
 70
     32
  0
VERTEX
  8
MY3DLAYER
10
-31.395474977000738
20
13.959639733103753
30
3.1989887715638066
 70
     32
  0
VERTEX
  8
MY3DLAYER
10
-31.08481480522092
20
14.198017667000626
30
3.1989887715638066
 70
     32
  0
VERTEX
  8
MY3DLAYER
10
-30.7230433728747
20
14.347868300757554
30
3.1989887715638123
 70
     32
  0
VERTEX
  8
MY3DLAYER
10
-30.33481480522092
20
14.398979561323971
30
3.1989887715638123
 70
     32
  0
VERTEX
  8
MY3DLAYER
10
-29.94658623756714
20
14.347868300757554
30
3.198988771563808
 70
     32
  0
VERTEX
  8
MY3DLAYER
10
-29.584814805220905
20
14.198017667000626
30
3.198988771563811
 70
     32
  0
VERTEX
  8
MY3DLAYER
10
-29.27415463344108
20
13.959639733103753
30
3.1989887715638115
 70
     32
  0
VERTEX
  8
MY3DLAYER
10
-29.035776699544247
20
13.648979561323962
30
3.1989887715638115
 70
     32
  0
VERTEX
  8
MY3DLAYER
10
-28.8859260657873
20
13.287208128977753
30
3.1989887715638115
 70
     32
  0
VERTEX
  8
MY3DLAYER
10
-28.834814805220905
20
12.898979561323952
30
3.1989887715638115
 70
     32
  0
VERTEX
  8
MY3DLAYER
10
-28.8859260657873
20
12.510750993670197
30
3.1989887715638115
 70
     32
  0
VERTEX
  8
MY3DLAYER
10
-29.03577669954424
20
12.148979561323943
30
3.198988771563806
 70
     32
  0
VERTEX
  8
MY3DLAYER
10
-29.2741546334411
20
11.83831938954415
30
3.198988771563806
 70
     32
  0
VERTEX
  8
MY3DLAYER
10
-29.58481480522092
20
11.599941455647324
30
3.1989887715638075
 70
     32
  0
VERTEX
  8
MY3DLAYER
10
-29.94658623756714
20
11.450090821890349
30
3.1989887715638075
 70
     32
  0
VERTEX
  8
MY3DLAYER
10
-30.33481480522092
20
11.398979561323978
30
3.1989887715638115
 70
     32
  0
SEQEND
  0
POLYLINE
 8
Group#15
 66
     1
70
    8
 10
0.0
 20
 0.0
 30
0.0
  0
VERTEX
  8
MY3DLAYER
10
-8.284814805220915
20
9.148979561324039
30
0.198988771563815
 70
     32
  0
VERTEX
  8
MY3DLAYER
10
-8.284814805220915
20
9.148979561324039
30
3.1989887715638043
 70
     32
  0
VERTEX
  8
MY3DLAYER
10
-34.58481480522094
20
9.148979561324039
30
3.198988771563811
 70
     32
  0
VERTEX
  8
MY3DLAYER
10
-34.58481480522094
20
9.148979561324039
30
0.1989887715638171
 70
     32
  0
VERTEX
  8
MY3DLAYER
10
-8.284814805220915
20
9.148979561324039
30
0.198988771563815
 70
     32
  0
SEQEND
  0
POLYLINE
 8
Group#15
 66
     1
70
    8
 10
0.0
 20
 0.0
 30
0.0
  0
VERTEX
  8
MY3DLAYER
10
-8.284814805220915
20
17.148979561324023
30
3.198988771563806
 70
     32
  0
VERTEX
  8
MY3DLAYER
10
-8.284814805220915
20
17.148979561324023
30
0.19898877156381642
 70
     32
  0
VERTEX
  8
MY3DLAYER
10
-34.58481480522094
20
17.148979561324023
30
0.19898877156381853
 70
     32
  0
VERTEX
  8
MY3DLAYER
10
-34.58481480522094
20
17.148979561324023
30
3.1989887715638123
 70
     32
  0
VERTEX
  8
MY3DLAYER
10
-8.284814805220915
20
17.148979561324023
30
3.198988771563806
 70
     32
  0
SEQEND
  0
POLYLINE
 8
Group#15
 66
     1
70
    8
 10
0.0
 20
 0.0
 30
0.0
  0
VERTEX
  8
MY3DLAYER
10
-34.58481480522094
20
9.148979561324039
30
3.198988771563811
 70
     32
  0
VERTEX
  8
MY3DLAYER
10
-34.58481480522094
20
17.148979561324023
30
3.1989887715638123
 70
     32
  0
VERTEX
  8
MY3DLAYER
10
-34.58481480522094
20
17.148979561324023
30
0.19898877156381853
 70
     32
  0
VERTEX
  8
MY3DLAYER
10
-34.58481480522094
20
9.148979561324039
30
0.1989887715638171
 70
     32
  0
VERTEX
  8
MY3DLAYER
10
-34.58481480522094
20
9.148979561324039
30
3.198988771563811
 70
     32
  0
SEQEND
  0
POLYLINE
 8
Group#15
 66
     1
70
    8
 10
0.0
 20
 0.0
 30
0.0
  0
VERTEX
  8
MY3DLAYER
10
-11.485926065787321
20
13.287208128977618
30
0.19898877156379333
 70
     32
  0
VERTEX
  8
MY3DLAYER
10
-11.43481480522092
20
12.898979561323817
30
0.19898877156379366
 70
     32
  0
VERTEX
  8
MY3DLAYER
10
-11.43481480522092
20
12.898979561323817
30
3.19898877156381
 70
     32
  0
VERTEX
  8
MY3DLAYER
10
-11.485926065787321
20
13.287208128977618
30
3.19898877156381
 70
     32
  0
VERTEX
  8
MY3DLAYER
10
-11.485926065787321
20
13.287208128977618
30
0.19898877156379333
 70
     32
  0
SEQEND
  0
POLYLINE
 8
Group#15
 66
     1
70
    8
 10
0.0
 20
 0.0
 30
0.0
  0
VERTEX
  8
MY3DLAYER
10
-11.43481480522092
20
12.898979561323817
30
0.19898877156379366
 70
     32
  0
VERTEX
  8
MY3DLAYER
10
-11.485926065787321
20
12.510750993670062
30
0.19898877156379297
 70
     32
  0
VERTEX
  8
MY3DLAYER
10
-11.485926065787321
20
12.510750993670062
30
3.19898877156381
 70
     32
  0
VERTEX
  8
MY3DLAYER
10
-11.43481480522092
20
12.898979561323817
30
3.19898877156381
 70
     32
  0
VERTEX
  8
MY3DLAYER
10
-11.43481480522092
20
12.898979561323817
30
0.19898877156379366
 70
     32
  0
SEQEND
  0
POLYLINE
 8
Group#15
 66
     1
70
    8
 10
0.0
 20
 0.0
 30
0.0
  0
VERTEX
  8
MY3DLAYER
10
-11.485926065787321
20
12.510750993670062
30
0.19898877156379297
 70
     32
  0
VERTEX
  8
MY3DLAYER
10
-11.635776699544268
20
12.148979561323854
30
0.19898877156379313
 70
     32
  0
VERTEX
  8
MY3DLAYER
10
-11.635776699544268
20
12.148979561323854
30
3.1989887715638043
 70
     32
  0
VERTEX
  8
MY3DLAYER
10
-11.485926065787321
20
12.510750993670062
30
3.19898877156381
 70
     32
  0
VERTEX
  8
MY3DLAYER
10
-11.485926065787321
20
12.510750993670062
30
0.19898877156379297
 70
     32
  0
SEQEND
  0
POLYLINE
 8
Group#15
 66
     1
70
    8
 10
0.0
 20
 0.0
 30
0.0
  0
VERTEX
  8
MY3DLAYER
10
-11.635776699544268
20
12.148979561323854
30
0.19898877156379313
 70
     32
  0
VERTEX
  8
MY3DLAYER
10
-11.874154633441105
20
11.838319389544017
30
0.1989887715637935
 70
     32
  0
VERTEX
  8
MY3DLAYER
10
-11.874154633441105
20
11.838319389544017
30
3.1989887715638043
 70
     32
  0
VERTEX
  8
MY3DLAYER
10
-11.635776699544268
20
12.148979561323854
30
3.1989887715638043
 70
     32
  0
VERTEX
  8
MY3DLAYER
10
-11.635776699544268
20
12.148979561323854
30
0.19898877156379313
 70
     32
  0
SEQEND
  0
POLYLINE
 8
Group#15
 66
     1
70
    8
 10
0.0
 20
 0.0
 30
0.0
  0
VERTEX
  8
MY3DLAYER
10
-11.874154633441105
20
11.838319389544017
30
0.1989887715637935
 70
     32
  0
VERTEX
  8
MY3DLAYER
10
-12.184814805220924
20
11.59994145564719
30
0.19898877156379313
 70
     32
  0
VERTEX
  8
MY3DLAYER
10
-12.184814805220924
20
11.59994145564719
30
3.1989887715638043
 70
     32
  0
VERTEX
  8
MY3DLAYER
10
-11.874154633441105
20
11.838319389544017
30
3.1989887715638043
 70
     32
  0
VERTEX
  8
MY3DLAYER
10
-11.874154633441105
20
11.838319389544017
30
0.1989887715637935
 70
     32
  0
SEQEND
  0
POLYLINE
 8
Group#15
 66
     1
70
    8
 10
0.0
 20
 0.0
 30
0.0
  0
VERTEX
  8
MY3DLAYER
10
-12.184814805220924
20
11.59994145564719
30
0.19898877156379313
 70
     32
  0
VERTEX
  8
MY3DLAYER
10
-12.546586237567144
20
11.450090821890216
30
0.19898877156379313
 70
     32
  0
VERTEX
  8
MY3DLAYER
10
-12.546586237567144
20
11.450090821890216
30
3.198988771563806
 70
     32
  0
VERTEX
  8
MY3DLAYER
10
-12.184814805220924
20
11.59994145564719
30
3.1989887715638043
 70
     32
  0
VERTEX
  8
MY3DLAYER
10
-12.184814805220924
20
11.59994145564719
30
0.19898877156379313
 70
     32
  0
SEQEND
  0
POLYLINE
 8
Group#15
 66
     1
70
    8
 10
0.0
 20
 0.0
 30
0.0
  0
VERTEX
  8
MY3DLAYER
10
-12.546586237567144
20
11.450090821890216
30
0.19898877156379313
 70
     32
  0
VERTEX
  8
MY3DLAYER
10
-12.93481480522092
20
11.398979561323843
30
0.19898877156379313
 70
     32
  0
VERTEX
  8
MY3DLAYER
10
-12.93481480522092
20
11.398979561323843
30
3.198988771563806
 70
     32
  0
VERTEX
  8
MY3DLAYER
10
-12.546586237567144
20
11.450090821890216
30
3.198988771563806
 70
     32
  0
VERTEX
  8
MY3DLAYER
10
-12.546586237567144
20
11.450090821890216
30
0.19898877156379313
 70
     32
  0
SEQEND
  0
POLYLINE
 8
Group#15
 66
     1
70
    8
 10
0.0
 20
 0.0
 30
0.0
  0
VERTEX
  8
MY3DLAYER
10
-12.93481480522092
20
11.398979561323843
30
0.19898877156379313
 70
     32
  0
VERTEX
  8
MY3DLAYER
10
-13.323043372874704
20
11.450090821890216
30
0.1989887715637928
 70
     32
  0
VERTEX
  8
MY3DLAYER
10
-13.323043372874704
20
11.450090821890216
30
3.19898877156381
 70
     32
  0
VERTEX
  8
MY3DLAYER
10
-12.93481480522092
20
11.398979561323843
30
3.198988771563806
 70
     32
  0
VERTEX
  8
MY3DLAYER
10
-12.93481480522092
20
11.398979561323843
30
0.19898877156379313
 70
     32
  0
SEQEND
  0
POLYLINE
 8
Group#15
 66
     1
70
    8
 10
0.0
 20
 0.0
 30
0.0
  0
VERTEX
  8
MY3DLAYER
10
-13.323043372874704
20
11.450090821890216
30
0.1989887715637928
 70
     32
  0
VERTEX
  8
MY3DLAYER
10
-13.684814805220919
20
11.59994145564719
30
0.19898877156379297
 70
     32
  0
VERTEX
  8
MY3DLAYER
10
-13.684814805220919
20
11.59994145564719
30
3.19898877156381
 70
     32
  0
VERTEX
  8
MY3DLAYER
10
-13.323043372874704
20
11.450090821890216
30
3.19898877156381
 70
     32
  0
VERTEX
  8
MY3DLAYER
10
-13.323043372874704
20
11.450090821890216
30
0.1989887715637928
 70
     32
  0
SEQEND
  0
POLYLINE
 8
Group#15
 66
     1
70
    8
 10
0.0
 20
 0.0
 30
0.0
  0
VERTEX
  8
MY3DLAYER
10
-13.684814805220919
20
11.59994145564719
30
0.19898877156379297
 70
     32
  0
VERTEX
  8
MY3DLAYER
10
-13.995474977000745
20
11.838319389544017
30
0.19898877156379366
 70
     32
  0
VERTEX
  8
MY3DLAYER
10
-13.995474977000745
20
11.838319389544017
30
3.19898877156381
 70
     32
  0
VERTEX
  8
MY3DLAYER
10
-13.684814805220919
20
11.59994145564719
30
3.19898877156381
 70
     32
  0
VERTEX
  8
MY3DLAYER
10
-13.684814805220919
20
11.59994145564719
30
0.19898877156379297
 70
     32
  0
SEQEND
  0
POLYLINE
 8
Group#15
 66
     1
70
    8
 10
0.0
 20
 0.0
 30
0.0
  0
VERTEX
  8
MY3DLAYER
10
-13.995474977000745
20
11.838319389544017
30
0.19898877156379366
 70
     32
  0
VERTEX
  8
MY3DLAYER
10
-14.233852910897577
20
12.148979561323854
30
0.19898877156379313
 70
     32
  0
VERTEX
  8
MY3DLAYER
10
-14.233852910897577
20
12.148979561323854
30
3.19898877156381
 70
     32
  0
VERTEX
  8
MY3DLAYER
10
-13.995474977000745
20
11.838319389544017
30
3.19898877156381
 70
     32
  0
VERTEX
  8
MY3DLAYER
10
-13.995474977000745
20
11.838319389544017
30
0.19898877156379366
 70
     32
  0
SEQEND
  0
POLYLINE
 8
Group#15
 66
     1
70
    8
 10
0.0
 20
 0.0
 30
0.0
  0
VERTEX
  8
MY3DLAYER
10
-14.233852910897577
20
12.148979561323854
30
0.19898877156379313
 70
     32
  0
VERTEX
  8
MY3DLAYER
10
-14.383703544654523
20
12.510750993670062
30
0.1989887715637935
 70
     32
  0
VERTEX
  8
MY3DLAYER
10
-14.383703544654523
20
12.510750993670062
30
3.1989887715638115
 70
     32
  0
VERTEX
  8
MY3DLAYER
10
-14.233852910897577
20
12.148979561323854
30
3.19898877156381
 70
     32
  0
VERTEX
  8
MY3DLAYER
10
-14.233852910897577
20
12.148979561323854
30
0.19898877156379313
 70
     32
  0
SEQEND
  0
POLYLINE
 8
Group#15
 66
     1
70
    8
 10
0.0
 20
 0.0
 30
0.0
  0
VERTEX
  8
MY3DLAYER
10
-14.383703544654523
20
12.510750993670062
30
0.1989887715637935
 70
     32
  0
VERTEX
  8
MY3DLAYER
10
-14.434814805220917
20
12.898979561323817
30
0.19898877156379507
 70
     32
  0
VERTEX
  8
MY3DLAYER
10
-14.434814805220917
20
12.898979561323817
30
3.1989887715638115
 70
     32
  0
VERTEX
  8
MY3DLAYER
10
-14.383703544654523
20
12.510750993670062
30
3.1989887715638115
 70
     32
  0
VERTEX
  8
MY3DLAYER
10
-14.383703544654523
20
12.510750993670062
30
0.1989887715637935
 70
     32
  0
SEQEND
  0
POLYLINE
 8
Group#15
 66
     1
70
    8
 10
0.0
 20
 0.0
 30
0.0
  0
VERTEX
  8
MY3DLAYER
10
-14.434814805220917
20
12.898979561323817
30
0.19898877156379507
 70
     32
  0
VERTEX
  8
MY3DLAYER
10
-14.383703544654523
20
13.287208128977618
30
0.19898877156379366
 70
     32
  0
VERTEX
  8
MY3DLAYER
10
-14.383703544654523
20
13.287208128977618
30
3.198988771563811
 70
     32
  0
VERTEX
  8
MY3DLAYER
10
-14.434814805220917
20
12.898979561323817
30
3.1989887715638115
 70
     32
  0
VERTEX
  8
MY3DLAYER
10
-14.434814805220917
20
12.898979561323817
30
0.19898877156379507
 70
     32
  0
SEQEND
  0
POLYLINE
 8
Group#15
 66
     1
70
    8
 10
0.0
 20
 0.0
 30
0.0
  0
VERTEX
  8
MY3DLAYER
10
-14.383703544654523
20
13.287208128977618
30
0.19898877156379366
 70
     32
  0
VERTEX
  8
MY3DLAYER
10
-14.233852910897577
20
13.648979561323827
30
0.19898877156379227
 70
     32
  0
VERTEX
  8
MY3DLAYER
10
-14.233852910897577
20
13.648979561323827
30
3.19898877156381
 70
     32
  0
VERTEX
  8
MY3DLAYER
10
-14.383703544654523
20
13.287208128977618
30
3.198988771563811
 70
     32
  0
VERTEX
  8
MY3DLAYER
10
-14.383703544654523
20
13.287208128977618
30
0.19898877156379366
 70
     32
  0
SEQEND
  0
POLYLINE
 8
Group#15
 66
     1
70
    8
 10
0.0
 20
 0.0
 30
0.0
  0
VERTEX
  8
MY3DLAYER
10
-14.233852910897577
20
13.648979561323827
30
0.19898877156379227
 70
     32
  0
VERTEX
  8
MY3DLAYER
10
-13.995474977000738
20
13.959639733103662
30
0.19898877156379385
 70
     32
  0
VERTEX
  8
MY3DLAYER
10
-13.995474977000738
20
13.959639733103662
30
3.1989887715638052
 70
     32
  0
VERTEX
  8
MY3DLAYER
10
-14.233852910897577
20
13.648979561323827
30
3.19898877156381
 70
     32
  0
VERTEX
  8
MY3DLAYER
10
-14.233852910897577
20
13.648979561323827
30
0.19898877156379227
 70
     32
  0
SEQEND
  0
POLYLINE
 8
Group#15
 66
     1
70
    8
 10
0.0
 20
 0.0
 30
0.0
  0
VERTEX
  8
MY3DLAYER
10
-13.995474977000738
20
13.959639733103662
30
0.19898877156379385
 70
     32
  0
VERTEX
  8
MY3DLAYER
10
-13.684814805220919
20
14.198017667000489
30
0.19898877156379366
 70
     32
  0
VERTEX
  8
MY3DLAYER
10
-13.684814805220919
20
14.198017667000489
30
3.1989887715638052
 70
     32
  0
VERTEX
  8
MY3DLAYER
10
-13.995474977000738
20
13.959639733103662
30
3.1989887715638052
 70
     32
  0
VERTEX
  8
MY3DLAYER
10
-13.995474977000738
20
13.959639733103662
30
0.19898877156379385
 70
     32
  0
SEQEND
  0
POLYLINE
 8
Group#15
 66
     1
70
    8
 10
0.0
 20
 0.0
 30
0.0
  0
VERTEX
  8
MY3DLAYER
10
-13.684814805220919
20
14.198017667000489
30
0.19898877156379366
 70
     32
  0
VERTEX
  8
MY3DLAYER
10
-13.323043372874698
20
14.347868300757419
30
0.19898877156379366
 70
     32
  0
VERTEX
  8
MY3DLAYER
10
-13.323043372874698
20
14.347868300757419
30
3.198988771563811
 70
     32
  0
VERTEX
  8
MY3DLAYER
10
-13.684814805220919
20
14.198017667000489
30
3.1989887715638052
 70
     32
  0
VERTEX
  8
MY3DLAYER
10
-13.684814805220919
20
14.198017667000489
30
0.19898877156379366
 70
     32
  0
SEQEND
  0
POLYLINE
 8
Group#15
 66
     1
70
    8
 10
0.0
 20
 0.0
 30
0.0
  0
VERTEX
  8
MY3DLAYER
10
-13.323043372874698
20
14.347868300757419
30
0.19898877156379366
 70
     32
  0
VERTEX
  8
MY3DLAYER
10
-12.934814805220915
20
14.398979561323836
30
0.19898877156379366
 70
     32
  0
VERTEX
  8
MY3DLAYER
10
-12.934814805220915
20
14.398979561323836
30
3.1989887715638066
 70
     32
  0
VERTEX
  8
MY3DLAYER
10
-13.323043372874698
20
14.347868300757419
30
3.198988771563811
 70
     32
  0
VERTEX
  8
MY3DLAYER
10
-13.323043372874698
20
14.347868300757419
30
0.19898877156379366
 70
     32
  0
SEQEND
  0
POLYLINE
 8
Group#15
 66
     1
70
    8
 10
0.0
 20
 0.0
 30
0.0
  0
VERTEX
  8
MY3DLAYER
10
-12.934814805220915
20
14.398979561323836
30
0.19898877156379366
 70
     32
  0
VERTEX
  8
MY3DLAYER
10
-12.546586237567139
20
14.347868300757419
30
0.19898877156379366
 70
     32
  0
VERTEX
  8
MY3DLAYER
10
-12.546586237567139
20
14.347868300757419
30
3.1989887715638115
 70
     32
  0
VERTEX
  8
MY3DLAYER
10
-12.934814805220915
20
14.398979561323836
30
3.1989887715638066
 70
     32
  0
VERTEX
  8
MY3DLAYER
10
-12.934814805220915
20
14.398979561323836
30
0.19898877156379366
 70
     32
  0
SEQEND
  0
POLYLINE
 8
Group#15
 66
     1
70
    8
 10
0.0
 20
 0.0
 30
0.0
  0
VERTEX
  8
MY3DLAYER
10
-12.546586237567139
20
14.347868300757419
30
0.19898877156379366
 70
     32
  0
VERTEX
  8
MY3DLAYER
10
-12.184814805220919
20
14.198017667000489
30
0.19898877156379366
 70
     32
  0
VERTEX
  8
MY3DLAYER
10
-12.184814805220919
20
14.198017667000489
30
3.19898877156381
 70
     32
  0
VERTEX
  8
MY3DLAYER
10
-12.546586237567139
20
14.347868300757419
30
3.1989887715638115
 70
     32
  0
VERTEX
  8
MY3DLAYER
10
-12.546586237567139
20
14.347868300757419
30
0.19898877156379366
 70
     32
  0
SEQEND
  0
POLYLINE
 8
Group#15
 66
     1
70
    8
 10
0.0
 20
 0.0
 30
0.0
  0
VERTEX
  8
MY3DLAYER
10
-12.184814805220919
20
14.198017667000489
30
0.19898877156379366
 70
     32
  0
VERTEX
  8
MY3DLAYER
10
-11.8741546334411
20
13.959639733103662
30
0.19898877156379366
 70
     32
  0
VERTEX
  8
MY3DLAYER
10
-11.8741546334411
20
13.959639733103662
30
3.19898877156381
 70
     32
  0
VERTEX
  8
MY3DLAYER
10
-12.184814805220919
20
14.198017667000489
30
3.19898877156381
 70
     32
  0
VERTEX
  8
MY3DLAYER
10
-12.184814805220919
20
14.198017667000489
30
0.19898877156379366
 70
     32
  0
SEQEND
  0
POLYLINE
 8
Group#15
 66
     1
70
    8
 10
0.0
 20
 0.0
 30
0.0
  0
VERTEX
  8
MY3DLAYER
10
-11.8741546334411
20
13.959639733103662
30
0.19898877156379366
 70
     32
  0
VERTEX
  8
MY3DLAYER
10
-11.63577669954426
20
13.648979561323827
30
0.19898877156379208
 70
     32
  0
VERTEX
  8
MY3DLAYER
10
-11.63577669954426
20
13.648979561323827
30
3.19898877156381
 70
     32
  0
VERTEX
  8
MY3DLAYER
10
-11.8741546334411
20
13.959639733103662
30
3.19898877156381
 70
     32
  0
VERTEX
  8
MY3DLAYER
10
-11.8741546334411
20
13.959639733103662
30
0.19898877156379366
 70
     32
  0
SEQEND
  0
POLYLINE
 8
Group#15
 66
     1
70
    8
 10
0.0
 20
 0.0
 30
0.0
  0
VERTEX
  8
MY3DLAYER
10
-11.63577669954426
20
13.648979561323827
30
0.19898877156379208
 70
     32
  0
VERTEX
  8
MY3DLAYER
10
-11.485926065787321
20
13.287208128977618
30
0.19898877156379333
 70
     32
  0
VERTEX
  8
MY3DLAYER
10
-11.485926065787321
20
13.287208128977618
30
3.19898877156381
 70
     32
  0
VERTEX
  8
MY3DLAYER
10
-11.63577669954426
20
13.648979561323827
30
3.19898877156381
 70
     32
  0
VERTEX
  8
MY3DLAYER
10
-11.63577669954426
20
13.648979561323827
30
0.19898877156379208
 70
     32
  0
SEQEND
  0
POLYLINE
 8
Group#15
 66
     1
70
    8
 10
0.0
 20
 0.0
 30
0.0
  0
VERTEX
  8
MY3DLAYER
10
-30.33481480522092
20
11.398979561323978
30
0.19898877156383968
 70
     32
  0
VERTEX
  8
MY3DLAYER
10
-30.7230433728747
20
11.450090821890349
30
0.19898877156383948
 70
     32
  0
VERTEX
  8
MY3DLAYER
10
-30.7230433728747
20
11.450090821890349
30
3.1989887715638115
 70
     32
  0
VERTEX
  8
MY3DLAYER
10
-30.33481480522092
20
11.398979561323978
30
3.1989887715638115
 70
     32
  0
VERTEX
  8
MY3DLAYER
10
-30.33481480522092
20
11.398979561323978
30
0.19898877156383968
 70
     32
  0
SEQEND
  0
POLYLINE
 8
Group#15
 66
     1
70
    8
 10
0.0
 20
 0.0
 30
0.0
  0
VERTEX
  8
MY3DLAYER
10
-30.7230433728747
20
11.450090821890349
30
0.19898877156383948
 70
     32
  0
VERTEX
  8
MY3DLAYER
10
-31.084814805220912
20
11.599941455647324
30
0.19898877156383843
 70
     32
  0
VERTEX
  8
MY3DLAYER
10
-31.084814805220912
20
11.599941455647324
30
3.1989887715638115
 70
     32
  0
VERTEX
  8
MY3DLAYER
10
-30.7230433728747
20
11.450090821890349
30
3.1989887715638115
 70
     32
  0
VERTEX
  8
MY3DLAYER
10
-30.7230433728747
20
11.450090821890349
30
0.19898877156383948
 70
     32
  0
SEQEND
  0
POLYLINE
 8
Group#15
 66
     1
70
    8
 10
0.0
 20
 0.0
 30
0.0
  0
VERTEX
  8
MY3DLAYER
10
-31.084814805220912
20
11.599941455647324
30
0.19898877156383843
 70
     32
  0
VERTEX
  8
MY3DLAYER
10
-31.39547497700073
20
11.83831938954415
30
0.19898877156384143
 70
     32
  0
VERTEX
  8
MY3DLAYER
10
-31.39547497700073
20
11.83831938954415
30
3.1989887715638115
 70
     32
  0
VERTEX
  8
MY3DLAYER
10
-31.084814805220912
20
11.599941455647324
30
3.1989887715638115
 70
     32
  0
VERTEX
  8
MY3DLAYER
10
-31.084814805220912
20
11.599941455647324
30
0.19898877156383843
 70
     32
  0
SEQEND
  0
POLYLINE
 8
Group#15
 66
     1
70
    8
 10
0.0
 20
 0.0
 30
0.0
  0
VERTEX
  8
MY3DLAYER
10
-31.39547497700073
20
11.83831938954415
30
0.19898877156384143
 70
     32
  0
VERTEX
  8
MY3DLAYER
10
-31.63385291089757
20
12.148979561323943
30
0.19898877156384
 70
     32
  0
VERTEX
  8
MY3DLAYER
10
-31.63385291089757
20
12.148979561323943
30
3.1989887715638115
 70
     32
  0
VERTEX
  8
MY3DLAYER
10
-31.39547497700073
20
11.83831938954415
30
3.1989887715638115
 70
     32
  0
VERTEX
  8
MY3DLAYER
10
-31.39547497700073
20
11.83831938954415
30
0.19898877156384143
 70
     32
  0
SEQEND
  0
POLYLINE
 8
Group#15
 66
     1
70
    8
 10
0.0
 20
 0.0
 30
0.0
  0
VERTEX
  8
MY3DLAYER
10
-31.63385291089757
20
12.148979561323943
30
0.19898877156384
 70
     32
  0
VERTEX
  8
MY3DLAYER
10
-31.783703544654514
20
12.510750993670197
30
0.19898877156384
 70
     32
  0
VERTEX
  8
MY3DLAYER
10
-31.783703544654514
20
12.510750993670197
30
3.1989887715638132
 70
     32
  0
VERTEX
  8
MY3DLAYER
10
-31.63385291089757
20
12.148979561323943
30
3.1989887715638115
 70
     32
  0
VERTEX
  8
MY3DLAYER
10
-31.63385291089757
20
12.148979561323943
30
0.19898877156384
 70
     32
  0
SEQEND
  0
POLYLINE
 8
Group#15
 66
     1
70
    8
 10
0.0
 20
 0.0
 30
0.0
  0
VERTEX
  8
MY3DLAYER
10
-31.783703544654514
20
12.510750993670197
30
0.19898877156384
 70
     32
  0
VERTEX
  8
MY3DLAYER
10
-31.834814805220912
20
12.898979561323952
30
0.1989887715638402
 70
     32
  0
VERTEX
  8
MY3DLAYER
10
-31.834814805220912
20
12.898979561323952
30
3.1989887715638132
 70
     32
  0
VERTEX
  8
MY3DLAYER
10
-31.783703544654514
20
12.510750993670197
30
3.1989887715638132
 70
     32
  0
VERTEX
  8
MY3DLAYER
10
-31.783703544654514
20
12.510750993670197
30
0.19898877156384
 70
     32
  0
SEQEND
  0
POLYLINE
 8
Group#15
 66
     1
70
    8
 10
0.0
 20
 0.0
 30
0.0
  0
VERTEX
  8
MY3DLAYER
10
-31.834814805220912
20
12.898979561323952
30
0.1989887715638402
 70
     32
  0
VERTEX
  8
MY3DLAYER
10
-31.783703544654514
20
13.287208128977753
30
0.1989887715638402
 70
     32
  0
VERTEX
  8
MY3DLAYER
10
-31.783703544654514
20
13.287208128977753
30
3.1989887715638115
 70
     32
  0
VERTEX
  8
MY3DLAYER
10
-31.834814805220912
20
12.898979561323952
30
3.1989887715638132
 70
     32
  0
VERTEX
  8
MY3DLAYER
10
-31.834814805220912
20
12.898979561323952
30
0.1989887715638402
 70
     32
  0
SEQEND
  0
POLYLINE
 8
Group#15
 66
     1
70
    8
 10
0.0
 20
 0.0
 30
0.0
  0
VERTEX
  8
MY3DLAYER
10
-31.783703544654514
20
13.287208128977753
30
0.1989887715638402
 70
     32
  0
VERTEX
  8
MY3DLAYER
10
-31.633852910897577
20
13.648979561323962
30
0.1989887715638402
 70
     32
  0
VERTEX
  8
MY3DLAYER
10
-31.63385291089757
20
13.648979561323962
30
3.1989887715638066
 70
     32
  0
VERTEX
  8
MY3DLAYER
10
-31.783703544654514
20
13.287208128977753
30
3.1989887715638115
 70
     32
  0
VERTEX
  8
MY3DLAYER
10
-31.783703544654514
20
13.287208128977753
30
0.1989887715638402
 70
     32
  0
SEQEND
  0
POLYLINE
 8
Group#15
 66
     1
70
    8
 10
0.0
 20
 0.0
 30
0.0
  0
VERTEX
  8
MY3DLAYER
10
-31.633852910897577
20
13.648979561323962
30
0.1989887715638402
 70
     32
  0
VERTEX
  8
MY3DLAYER
10
-31.395474977000738
20
13.959639733103753
30
0.1989887715638418
 70
     32
  0
VERTEX
  8
MY3DLAYER
10
-31.395474977000738
20
13.959639733103753
30
3.1989887715638066
 70
     32
  0
VERTEX
  8
MY3DLAYER
10
-31.63385291089757
20
13.648979561323962
30
3.1989887715638066
 70
     32
  0
VERTEX
  8
MY3DLAYER
10
-31.633852910897577
20
13.648979561323962
30
0.1989887715638402
 70
     32
  0
SEQEND
  0
POLYLINE
 8
Group#15
 66
     1
70
    8
 10
0.0
 20
 0.0
 30
0.0
  0
VERTEX
  8
MY3DLAYER
10
-31.395474977000738
20
13.959639733103753
30
0.1989887715638418
 70
     32
  0
VERTEX
  8
MY3DLAYER
10
-31.08481480522092
20
14.198017667000626
30
0.19898877156384
 70
     32
  0
VERTEX
  8
MY3DLAYER
10
-31.08481480522092
20
14.198017667000626
30
3.1989887715638066
 70
     32
  0
VERTEX
  8
MY3DLAYER
10
-31.395474977000738
20
13.959639733103753
30
3.1989887715638066
 70
     32
  0
VERTEX
  8
MY3DLAYER
10
-31.395474977000738
20
13.959639733103753
30
0.1989887715638418
 70
     32
  0
SEQEND
  0
POLYLINE
 8
Group#15
 66
     1
70
    8
 10
0.0
 20
 0.0
 30
0.0
  0
VERTEX
  8
MY3DLAYER
10
-31.08481480522092
20
14.198017667000626
30
0.19898877156384
 70
     32
  0
VERTEX
  8
MY3DLAYER
10
-30.7230433728747
20
14.347868300757554
30
0.19898877156384
 70
     32
  0
VERTEX
  8
MY3DLAYER
10
-30.7230433728747
20
14.347868300757554
30
3.1989887715638123
 70
     32
  0
VERTEX
  8
MY3DLAYER
10
-31.08481480522092
20
14.198017667000626
30
3.1989887715638066
 70
     32
  0
VERTEX
  8
MY3DLAYER
10
-31.08481480522092
20
14.198017667000626
30
0.19898877156384
 70
     32
  0
SEQEND
  0
POLYLINE
 8
Group#15
 66
     1
70
    8
 10
0.0
 20
 0.0
 30
0.0
  0
VERTEX
  8
MY3DLAYER
10
-30.7230433728747
20
14.347868300757554
30
0.19898877156384
 70
     32
  0
VERTEX
  8
MY3DLAYER
10
-30.33481480522092
20
14.398979561323971
30
0.19898877156383984
 70
     32
  0
VERTEX
  8
MY3DLAYER
10
-30.33481480522092
20
14.398979561323971
30
3.1989887715638123
 70
     32
  0
VERTEX
  8
MY3DLAYER
10
-30.7230433728747
20
14.347868300757554
30
3.1989887715638123
 70
     32
  0
VERTEX
  8
MY3DLAYER
10
-30.7230433728747
20
14.347868300757554
30
0.19898877156384
 70
     32
  0
SEQEND
  0
POLYLINE
 8
Group#15
 66
     1
70
    8
 10
0.0
 20
 0.0
 30
0.0
  0
VERTEX
  8
MY3DLAYER
10
-30.33481480522092
20
14.398979561323971
30
0.19898877156383984
 70
     32
  0
VERTEX
  8
MY3DLAYER
10
-29.94658623756714
20
14.347868300757554
30
0.1989887715638402
 70
     32
  0
VERTEX
  8
MY3DLAYER
10
-29.94658623756714
20
14.347868300757554
30
3.198988771563808
 70
     32
  0
VERTEX
  8
MY3DLAYER
10
-30.33481480522092
20
14.398979561323971
30
3.1989887715638123
 70
     32
  0
VERTEX
  8
MY3DLAYER
10
-30.33481480522092
20
14.398979561323971
30
0.19898877156383984
 70
     32
  0
SEQEND
  0
POLYLINE
 8
Group#15
 66
     1
70
    8
 10
0.0
 20
 0.0
 30
0.0
  0
VERTEX
  8
MY3DLAYER
10
-29.94658623756714
20
14.347868300757554
30
0.1989887715638402
 70
     32
  0
VERTEX
  8
MY3DLAYER
10
-29.58481480522091
20
14.198017667000626
30
0.1989887715638402
 70
     32
  0
VERTEX
  8
MY3DLAYER
10
-29.584814805220905
20
14.198017667000626
30
3.198988771563811
 70
     32
  0
VERTEX
  8
MY3DLAYER
10
-29.94658623756714
20
14.347868300757554
30
3.198988771563808
 70
     32
  0
VERTEX
  8
MY3DLAYER
10
-29.94658623756714
20
14.347868300757554
30
0.1989887715638402
 70
     32
  0
SEQEND
  0
POLYLINE
 8
Group#15
 66
     1
70
    8
 10
0.0
 20
 0.0
 30
0.0
  0
VERTEX
  8
MY3DLAYER
10
-29.58481480522091
20
14.198017667000626
30
0.1989887715638402
 70
     32
  0
VERTEX
  8
MY3DLAYER
10
-29.274154633441086
20
13.959639733103753
30
0.19898877156384162
 70
     32
  0
VERTEX
  8
MY3DLAYER
10
-29.27415463344108
20
13.959639733103753
30
3.1989887715638115
 70
     32
  0
VERTEX
  8
MY3DLAYER
10
-29.584814805220905
20
14.198017667000626
30
3.198988771563811
 70
     32
  0
VERTEX
  8
MY3DLAYER
10
-29.58481480522091
20
14.198017667000626
30
0.1989887715638402
 70
     32
  0
SEQEND
  0
POLYLINE
 8
Group#15
 66
     1
70
    8
 10
0.0
 20
 0.0
 30
0.0
  0
VERTEX
  8
MY3DLAYER
10
-29.274154633441086
20
13.959639733103753
30
0.19898877156384162
 70
     32
  0
VERTEX
  8
MY3DLAYER
10
-29.035776699544247
20
13.648979561323962
30
0.19898877156383862
 70
     32
  0
VERTEX
  8
MY3DLAYER
10
-29.035776699544247
20
13.648979561323962
30
3.1989887715638115
 70
     32
  0
VERTEX
  8
MY3DLAYER
10
-29.27415463344108
20
13.959639733103753
30
3.1989887715638115
 70
     32
  0
VERTEX
  8
MY3DLAYER
10
-29.274154633441086
20
13.959639733103753
30
0.19898877156384162
 70
     32
  0
SEQEND
  0
POLYLINE
 8
Group#15
 66
     1
70
    8
 10
0.0
 20
 0.0
 30
0.0
  0
VERTEX
  8
MY3DLAYER
10
-29.035776699544247
20
13.648979561323962
30
0.19898877156383862
 70
     32
  0
VERTEX
  8
MY3DLAYER
10
-28.885926065787306
20
13.287208128977753
30
0.19898877156383968
 70
     32
  0
VERTEX
  8
MY3DLAYER
10
-28.8859260657873
20
13.287208128977753
30
3.1989887715638115
 70
     32
  0
VERTEX
  8
MY3DLAYER
10
-29.035776699544247
20
13.648979561323962
30
3.1989887715638115
 70
     32
  0
VERTEX
  8
MY3DLAYER
10
-29.035776699544247
20
13.648979561323962
30
0.19898877156383862
 70
     32
  0
SEQEND
  0
POLYLINE
 8
Group#15
 66
     1
70
    8
 10
0.0
 20
 0.0
 30
0.0
  0
VERTEX
  8
MY3DLAYER
10
-28.885926065787306
20
13.287208128977753
30
0.19898877156383968
 70
     32
  0
VERTEX
  8
MY3DLAYER
10
-28.834814805220912
20
12.898979561323952
30
0.19898877156384
 70
     32
  0
VERTEX
  8
MY3DLAYER
10
-28.834814805220905
20
12.898979561323952
30
3.1989887715638115
 70
     32
  0
VERTEX
  8
MY3DLAYER
10
-28.8859260657873
20
13.287208128977753
30
3.1989887715638115
 70
     32
  0
VERTEX
  8
MY3DLAYER
10
-28.885926065787306
20
13.287208128977753
30
0.19898877156383968
 70
     32
  0
SEQEND
  0
POLYLINE
 8
Group#15
 66
     1
70
    8
 10
0.0
 20
 0.0
 30
0.0
  0
VERTEX
  8
MY3DLAYER
10
-28.834814805220912
20
12.898979561323952
30
0.19898877156384
 70
     32
  0
VERTEX
  8
MY3DLAYER
10
-28.885926065787306
20
12.510750993670197
30
0.19898877156383843
 70
     32
  0
VERTEX
  8
MY3DLAYER
10
-28.8859260657873
20
12.510750993670197
30
3.1989887715638115
 70
     32
  0
VERTEX
  8
MY3DLAYER
10
-28.834814805220905
20
12.898979561323952
30
3.1989887715638115
 70
     32
  0
VERTEX
  8
MY3DLAYER
10
-28.834814805220912
20
12.898979561323952
30
0.19898877156384
 70
     32
  0
SEQEND
  0
POLYLINE
 8
Group#15
 66
     1
70
    8
 10
0.0
 20
 0.0
 30
0.0
  0
VERTEX
  8
MY3DLAYER
10
-28.885926065787306
20
12.510750993670197
30
0.19898877156383843
 70
     32
  0
VERTEX
  8
MY3DLAYER
10
-29.035776699544247
20
12.148979561323943
30
0.19898877156383968
 70
     32
  0
VERTEX
  8
MY3DLAYER
10
-29.03577669954424
20
12.148979561323943
30
3.198988771563806
 70
     32
  0
VERTEX
  8
MY3DLAYER
10
-28.8859260657873
20
12.510750993670197
30
3.1989887715638115
 70
     32
  0
VERTEX
  8
MY3DLAYER
10
-28.885926065787306
20
12.510750993670197
30
0.19898877156383843
 70
     32
  0
SEQEND
  0
POLYLINE
 8
Group#15
 66
     1
70
    8
 10
0.0
 20
 0.0
 30
0.0
  0
VERTEX
  8
MY3DLAYER
10
-29.035776699544247
20
12.148979561323943
30
0.19898877156383968
 70
     32
  0
VERTEX
  8
MY3DLAYER
10
-29.2741546334411
20
11.83831938954415
30
0.19898877156384126
 70
     32
  0
VERTEX
  8
MY3DLAYER
10
-29.2741546334411
20
11.83831938954415
30
3.198988771563806
 70
     32
  0
VERTEX
  8
MY3DLAYER
10
-29.03577669954424
20
12.148979561323943
30
3.198988771563806
 70
     32
  0
VERTEX
  8
MY3DLAYER
10
-29.035776699544247
20
12.148979561323943
30
0.19898877156383968
 70
     32
  0
SEQEND
  0
POLYLINE
 8
Group#15
 66
     1
70
    8
 10
0.0
 20
 0.0
 30
0.0
  0
VERTEX
  8
MY3DLAYER
10
-29.2741546334411
20
11.83831938954415
30
0.19898877156384126
 70
     32
  0
VERTEX
  8
MY3DLAYER
10
-29.58481480522092
20
11.599941455647324
30
0.19898877156383968
 70
     32
  0
VERTEX
  8
MY3DLAYER
10
-29.58481480522092
20
11.599941455647324
30
3.1989887715638075
 70
     32
  0
VERTEX
  8
MY3DLAYER
10
-29.2741546334411
20
11.83831938954415
30
3.198988771563806
 70
     32
  0
VERTEX
  8
MY3DLAYER
10
-29.2741546334411
20
11.83831938954415
30
0.19898877156384126
 70
     32
  0
SEQEND
  0
POLYLINE
 8
Group#15
 66
     1
70
    8
 10
0.0
 20
 0.0
 30
0.0
  0
VERTEX
  8
MY3DLAYER
10
-29.58481480522092
20
11.599941455647324
30
0.19898877156383968
 70
     32
  0
VERTEX
  8
MY3DLAYER
10
-29.94658623756714
20
11.450090821890349
30
0.19898877156383968
 70
     32
  0
VERTEX
  8
MY3DLAYER
10
-29.94658623756714
20
11.450090821890349
30
3.1989887715638075
 70
     32
  0
VERTEX
  8
MY3DLAYER
10
-29.58481480522092
20
11.599941455647324
30
3.1989887715638075
 70
     32
  0
VERTEX
  8
MY3DLAYER
10
-29.58481480522092
20
11.599941455647324
30
0.19898877156383968
 70
     32
  0
SEQEND
  0
POLYLINE
 8
Group#15
 66
     1
70
    8
 10
0.0
 20
 0.0
 30
0.0
  0
VERTEX
  8
MY3DLAYER
10
-29.94658623756714
20
11.450090821890349
30
0.19898877156383968
 70
     32
  0
VERTEX
  8
MY3DLAYER
10
-30.33481480522092
20
11.398979561323978
30
0.19898877156383968
 70
     32
  0
VERTEX
  8
MY3DLAYER
10
-30.33481480522092
20
11.398979561323978
30
3.1989887715638115
 70
     32
  0
VERTEX
  8
MY3DLAYER
10
-29.94658623756714
20
11.450090821890349
30
3.1989887715638075
 70
     32
  0
VERTEX
  8
MY3DLAYER
10
-29.94658623756714
20
11.450090821890349
30
0.19898877156383968
 70
     32
  0
SEQEND
 0
ENDSEC
 0
EOF
